<svg width="76" height="65" viewBox="0 0 76 65" fill="none" xmlns="http://www.w3.org/2000/svg">
<g clip-path="url(#clip0_196_505)">
<path d="M25.4881 17.4991H22.9875V19.9996H25.4881V17.4991Z" fill="#B1749E"/>
<path d="M27.9871 17.4991H25.4865V19.9996H27.9871V17.4991Z" fill="#3D3730"/>
<path d="M55.4887 17.4991H52.9882V19.9996H55.4887V17.4991Z" fill="#9D5F94"/>
<path d="M65.4879 17.4991H62.9873V19.9996H65.4879V17.4991Z" fill="#3D3730"/>
<path d="M67.9885 17.4991H65.4879V19.9996H67.9885V17.4991Z" fill="#9D5F94"/>
<path d="M62.9889 17.4991H60.4883V19.9996H62.9889V17.4991Z" fill="#A5A2B4"/>
<path d="M50.4876 17.4991H47.987V19.9996H50.4876V17.4991Z" fill="#3D3730"/>
<path d="M70.4875 17.4991H67.9869V19.9996H70.4875V17.4991Z" fill="#3D3730"/>
<path d="M52.9882 17.4991H50.4876V19.9996H52.9882V17.4991Z" fill="#B1749E"/>
<path d="M60.4883 17.4991H57.9877V19.9996H60.4883V17.4991Z" fill="#A5A2B4"/>
<path d="M22.9875 17.4991H20.4869V19.9996H22.9875V17.4991Z" fill="#9D5F94"/>
<path d="M57.9878 17.4991H55.4872V19.9996H57.9878V17.4991Z" fill="#3D3730"/>
<path d="M10.4878 42.4998H7.98724V45.0004H10.4878V42.4998Z" fill="#3D3730"/>
<path d="M10.4878 39.9993H7.98724V42.4998H10.4878V39.9993Z" fill="#7676A1"/>
<path d="M10.4878 45.0004H7.98724V47.5009H10.4878V45.0004Z" fill="#46476B"/>
<path d="M10.4878 32.4992H7.98724V34.9998H10.4878V32.4992Z" fill="#5D5F8E"/>
<path d="M10.4878 37.5003H7.98724V40.0009H10.4878V37.5003Z" fill="#5D5F8E"/>
<path d="M10.4878 34.9998H7.98724V37.5003H10.4878V34.9998Z" fill="#5D5F8E"/>
<path d="M10.4878 47.4993H7.98724V49.9999H10.4878V47.4993Z" fill="#46476B"/>
<path d="M10.4878 52.4988H7.98724V54.9994H10.4878V52.4988Z" fill="#3D3730"/>
<path d="M10.4878 49.9999H7.98724V52.5004H10.4878V49.9999Z" fill="#46476B"/>
<path d="M10.4878 27.4997H7.98724V30.0002H10.4878V27.4997Z" fill="#5D5F8E"/>
<path d="M10.4878 17.4991H7.98724V19.9996H10.4878V17.4991Z" fill="#B1749E"/>
<path d="M10.4878 30.0002H7.98724V32.5008H10.4878V30.0002Z" fill="#5D5F8E"/>
<path d="M15.4874 17.4991H12.9868V19.9996H15.4874V17.4991Z" fill="#888595"/>
<path d="M17.9879 17.4991H15.4874V19.9996H17.9879V17.4991Z" fill="#A5A2B4"/>
<path d="M12.9884 17.4991H10.4878V19.9996H12.9884V17.4991Z" fill="#3D3730"/>
<path d="M10.4878 19.9996H7.98724V22.5002H10.4878V19.9996Z" fill="#9D5F94"/>
<path d="M20.4886 17.4991H17.988V19.9996H20.4886V17.4991Z" fill="#3D3730"/>
<path d="M10.4878 24.9991H7.98724V27.4997H10.4878V24.9991Z" fill="#9D5F94"/>
<path d="M10.4878 22.5002H7.98724V25.0007H10.4878V22.5002Z" fill="#9D5F94"/>
<path d="M17.9879 15.0001H15.4874V17.5007H17.9879V15.0001Z" fill="#A5A2B4"/>
<path d="M22.9875 15.0001H20.4869V17.5007H22.9875V15.0001Z" fill="#9D5F94"/>
<path d="M20.4886 15.0001H17.988V17.5007H20.4886V15.0001Z" fill="#3D3730"/>
<path d="M25.4881 15.0001H22.9875V17.5007H25.4881V15.0001Z" fill="#3D3730"/>
<path d="M12.9884 15.0001H10.4878V17.5007H12.9884V15.0001Z" fill="#9D5F94"/>
<path d="M10.4878 15.0001H7.98724V17.5007H10.4878V15.0001Z" fill="#3D3730"/>
<path d="M15.4874 15.0001H12.9868V17.5007H15.4874V15.0001Z" fill="#3D3730"/>
<path d="M52.9882 15.0001H50.4876V17.5007H52.9882V15.0001Z" fill="#3D3730"/>
<path d="M55.4887 15.0001H52.9882V17.5007H55.4887V15.0001Z" fill="#9D5F94"/>
<path d="M7.98722 49.9999H5.48663V52.5004H7.98722V49.9999Z" fill="#3D3730"/>
<path d="M7.98722 45.0004H5.48663V47.5009H7.98722V45.0004Z" fill="#5D5F8E"/>
<path d="M7.98722 42.4998H5.48663V45.0004H7.98722V42.4998Z" fill="#5D5F8E"/>
<path d="M7.98722 17.4991H5.48663V19.9996H7.98722V17.4991Z" fill="#3D3730"/>
<path d="M57.9878 15.0001H55.4872V17.5007H57.9878V15.0001Z" fill="#3D3730"/>
<path d="M7.98722 47.4993H5.48663V49.9999H7.98722V47.4993Z" fill="#46476B"/>
<path d="M7.98722 24.9991H5.48663V27.4997H7.98722V24.9991Z" fill="#B1749E"/>
<path d="M7.98722 27.4997H5.48663V30.0002H7.98722V27.4997Z" fill="#9D5F94"/>
<path d="M7.98722 39.9993H5.48663V42.4998H7.98722V39.9993Z" fill="#5D5F8E"/>
<path d="M7.98722 19.9996H5.48663V22.5002H7.98722V19.9996Z" fill="#3D3730"/>
<path d="M7.98722 22.5002H5.48663V25.0007H7.98722V22.5002Z" fill="#3D3730"/>
<path d="M7.98722 30.0002H5.48663V32.5008H7.98722V30.0002Z" fill="#5D5F8E"/>
<path d="M7.98722 37.5003H5.48663V40.0009H7.98722V37.5003Z" fill="#5D5F8E"/>
<path d="M7.98722 34.9998H5.48663V37.5003H7.98722V34.9998Z" fill="#5D5F8E"/>
<path d="M7.98722 32.4992H5.48663V34.9998H7.98722V32.4992Z" fill="#5D5F8E"/>
<path d="M62.9889 15.0001H60.4883V17.5007H62.9889V15.0001Z" fill="#888595"/>
<path d="M70.4875 15.0001H67.9869V17.5007H70.4875V15.0001Z" fill="#3D3730"/>
<path d="M65.4879 15.0001H62.9873V17.5007H65.4879V15.0001Z" fill="#3D3730"/>
<path d="M60.4883 15.0001H57.9877V17.5007H60.4883V15.0001Z" fill="#A5A2B4"/>
<path d="M67.9885 15.0001H65.4879V17.5007H67.9885V15.0001Z" fill="#B1749E"/>
<path d="M70.4875 19.9996H67.9869V22.5002H70.4875V19.9996Z" fill="#3D3730"/>
<path d="M55.4887 19.9996H52.9882V22.5002H55.4887V19.9996Z" fill="#3D3730"/>
<path d="M67.9885 19.9996H65.4879V22.5002H67.9885V19.9996Z" fill="#9D5F94"/>
<path d="M60.4883 19.9996H57.9877V22.5002H60.4883V19.9996Z" fill="#3D3730"/>
<path d="M65.4879 19.9996H62.9873V22.5002H65.4879V19.9996Z" fill="#3D3730"/>
<path d="M57.9878 19.9996H55.4872V22.5002H57.9878V19.9996Z" fill="#3D3730"/>
<path d="M62.9889 19.9996H60.4883V22.5002H62.9889V19.9996Z" fill="#A5A2B4"/>
<path d="M12.9884 30.0002H10.4878V32.5008H12.9884V30.0002Z" fill="#7E7FB5"/>
<path d="M32.9883 19.9996H30.4877V22.5002H32.9883V19.9996Z" fill="#3D3730"/>
<path d="M52.9882 19.9996H50.4876V22.5002H52.9882V19.9996Z" fill="#9D5F94"/>
<path d="M20.4886 19.9996H17.988V22.5002H20.4886V19.9996Z" fill="#3D3730"/>
<path d="M22.9875 19.9996H20.4869V22.5002H22.9875V19.9996Z" fill="#3D3730"/>
<path d="M15.4874 19.9996H12.9868V22.5002H15.4874V19.9996Z" fill="#A5A2B4"/>
<path d="M25.4881 19.9996H22.9875V22.5002H25.4881V19.9996Z" fill="#9D5F94"/>
<path d="M12.9884 19.9996H10.4878V22.5002H12.9884V19.9996Z" fill="#3D3730"/>
<path d="M27.9871 19.9996H25.4865V22.5002H27.9871V19.9996Z" fill="#B1749E"/>
<path d="M12.9884 24.9991H10.4878V27.4997H12.9884V24.9991Z" fill="#5D5F8E"/>
<path d="M12.9884 22.5002H10.4878V25.0007H12.9884V22.5002Z" fill="#9D5F94"/>
<path d="M17.9879 19.9996H15.4874V22.5002H17.9879V19.9996Z" fill="#3D3730"/>
<path d="M45.488 19.9996H42.9874V22.5002H45.488V19.9996Z" fill="#3D3730"/>
<path d="M42.9874 19.9996H40.4868V22.5002H42.9874V19.9996Z" fill="#3D3730"/>
<path d="M47.9886 19.9996H45.488V22.5002H47.9886V19.9996Z" fill="#3D3730"/>
<path d="M50.4876 19.9996H47.987V22.5002H50.4876V19.9996Z" fill="#B1749E"/>
<path d="M35.4873 19.9996H32.9867V22.5002H35.4873V19.9996Z" fill="#3D3730"/>
<path d="M30.4877 19.9996H27.9871V22.5002H30.4877V19.9996Z" fill="#3D3730"/>
<path d="M40.4884 19.9996H37.9879V22.5002H40.4884V19.9996Z" fill="#3D3730"/>
<path d="M37.9879 19.9996H35.4873V22.5002H37.9879V19.9996Z" fill="#3D3730"/>
<path d="M12.9884 27.4997H10.4878V30.0002H12.9884V27.4997Z" fill="#5D5F8E"/>
<path d="M12.9884 32.4992H10.4878V34.9998H12.9884V32.4992Z" fill="#3D3730"/>
<path d="M12.9884 37.5003H10.4878V40.0009H12.9884V37.5003Z" fill="#5D5F8E"/>
<path d="M12.9884 39.9993H10.4878V42.4998H12.9884V39.9993Z" fill="#7676A1"/>
<path d="M12.9884 42.4998H10.4878V45.0004H12.9884V42.4998Z" fill="#3D3730"/>
<path d="M12.9884 34.9998H10.4878V37.5003H12.9884V34.9998Z" fill="#46476B"/>
<path d="M12.9884 45.0004H10.4878V47.5009H12.9884V45.0004Z" fill="#3D3730"/>
<path d="M12.9884 49.9999H10.4878V52.5004H12.9884V49.9999Z" fill="#46476B"/>
<path d="M12.9884 52.4988H10.4878V54.9994H12.9884V52.4988Z" fill="#46476B"/>
<path d="M12.9884 54.9994H10.4878V57.4999H12.9884V54.9994Z" fill="#3D3730"/>
<path d="M12.9884 47.4993H10.4878V49.9999H12.9884V47.4993Z" fill="#3D3730"/>
<path d="M52.9882 10.0006H50.4876V12.5012H52.9882V10.0006Z" fill="#3D3730"/>
<path d="M55.4887 10.0006H52.9882V12.5012H55.4887V10.0006Z" fill="#B1749E"/>
<path d="M60.4883 10.0006H57.9877V12.5012H60.4883V10.0006Z" fill="#888595"/>
<path d="M57.9878 10.0006H55.4872V12.5012H57.9878V10.0006Z" fill="#3D3730"/>
<path d="M62.9889 10.0006H60.4883V12.5012H62.9889V10.0006Z" fill="#3D3730"/>
<path d="M67.9885 10.0006H65.4879V12.5012H67.9885V10.0006Z" fill="#3D3730"/>
<path d="M65.4879 10.0006H62.9873V12.5012H65.4879V10.0006Z" fill="#B1749E"/>
<path d="M10.4878 10.0006H7.98724V12.5012H10.4878V10.0006Z" fill="#3D3730"/>
<path d="M12.9884 10.0006H10.4878V12.5012H12.9884V10.0006Z" fill="#B1749E"/>
<path d="M25.4881 10.0006H22.9875V12.5012H25.4881V10.0006Z" fill="#3D3730"/>
<path d="M17.9879 10.0006H15.4874V12.5012H17.9879V10.0006Z" fill="#3D3730"/>
<path d="M15.4874 10.0006H12.9868V12.5012H15.4874V10.0006Z" fill="#9D5F94"/>
<path d="M20.4886 10.0006H17.988V12.5012H20.4886V10.0006Z" fill="#9D5F94"/>
<path d="M22.9875 10.0006H20.4869V12.5012H22.9875V10.0006Z" fill="#B1749E"/>
<path d="M2.98764 37.5003H0.487061V40.0009H2.98764V37.5003Z" fill="#3D3730"/>
<path d="M2.98764 39.9993H0.487061V42.4998H2.98764V39.9993Z" fill="#3D3730"/>
<path d="M2.98764 42.4998H0.487061V45.0004H2.98764V42.4998Z" fill="#3D3730"/>
<path d="M2.98764 45.0004H0.487061V47.5009H2.98764V45.0004Z" fill="#3D3730"/>
<path d="M67.9885 12.4996H65.4879V15.0001H67.9885V12.4996Z" fill="#3D3730"/>
<path d="M65.4879 12.4996H62.9873V15.0001H65.4879V12.4996Z" fill="#9D5F94"/>
<path d="M62.9889 12.4996H60.4883V15.0001H62.9889V12.4996Z" fill="#3D3730"/>
<path d="M25.4881 12.4996H22.9875V15.0001H25.4881V12.4996Z" fill="#3D3730"/>
<path d="M17.9879 12.4996H15.4874V15.0001H17.9879V12.4996Z" fill="#888595"/>
<path d="M15.4874 12.4996H12.9868V15.0001H15.4874V12.4996Z" fill="#3D3730"/>
<path d="M12.9884 12.4996H10.4878V15.0001H12.9884V12.4996Z" fill="#9D5F94"/>
<path d="M22.9875 12.4996H20.4869V15.0001H22.9875V12.4996Z" fill="#9D5F94"/>
<path d="M20.4886 12.4996H17.988V15.0001H20.4886V12.4996Z" fill="#3D3730"/>
<path d="M55.4887 12.4996H52.9882V15.0001H55.4887V12.4996Z" fill="#9D5F94"/>
<path d="M57.9878 12.4996H55.4872V15.0001H57.9878V12.4996Z" fill="#3D3730"/>
<path d="M60.4883 12.4996H57.9877V15.0001H60.4883V12.4996Z" fill="#A5A2B4"/>
<path d="M52.9882 12.4996H50.4876V15.0001H52.9882V12.4996Z" fill="#3D3730"/>
<path d="M5.48826 34.9998H2.98767V37.5003H5.48826V34.9998Z" fill="#3D3730"/>
<path d="M5.48826 39.9993H2.98767V42.4998H5.48826V39.9993Z" fill="#5D5F8E"/>
<path d="M5.48826 32.4992H2.98767V34.9998H5.48826V32.4992Z" fill="#3D3730"/>
<path d="M5.48826 37.5003H2.98767V40.0009H5.48826V37.5003Z" fill="#7E7FB5"/>
<path d="M5.48826 45.0004H2.98767V47.5009H5.48826V45.0004Z" fill="#46476B"/>
<path d="M10.4878 12.4996H7.98724V15.0001H10.4878V12.4996Z" fill="#3D3730"/>
<path d="M5.48826 47.4993H2.98767V49.9999H5.48826V47.4993Z" fill="#3D3730"/>
<path d="M5.48826 42.4998H2.98767V45.0004H5.48826V42.4998Z" fill="#5D5F8E"/>
<path d="M5.48826 24.9991H2.98767V27.4997H5.48826V24.9991Z" fill="#3D3730"/>
<path d="M5.48826 27.4997H2.98767V30.0002H5.48826V27.4997Z" fill="#3D3730"/>
<path d="M5.48826 30.0002H2.98767V32.5008H5.48826V30.0002Z" fill="#3D3730"/>
<path d="M65.4879 42.4998H62.9873V45.0004H65.4879V42.4998Z" fill="#3D3730"/>
<path d="M65.4879 34.9998H62.9873V37.5003H65.4879V34.9998Z" fill="#5D5F8E"/>
<path d="M60.4883 34.9998H57.9877V37.5003H60.4883V34.9998Z" fill="#FBAA21"/>
<path d="M65.4879 37.5003H62.9873V40.0009H65.4879V37.5003Z" fill="#5D5F8E"/>
<path d="M65.4879 39.9993H62.9873V42.4998H65.4879V39.9993Z" fill="#7676A1"/>
<path d="M62.9889 34.9998H60.4883V37.5003H62.9889V34.9998Z" fill="#46476B"/>
<path d="M50.4876 34.9998H47.987V37.5003H50.4876V34.9998Z" fill="white"/>
<path d="M57.9878 34.9998H55.4872V37.5003H57.9878V34.9998Z" fill="#FBAA21"/>
<path d="M52.9882 34.9998H50.4876V37.5003H52.9882V34.9998Z" fill="#3D3730"/>
<path d="M62.9889 37.5003H60.4883V40.0009H62.9889V37.5003Z" fill="#5D5F8E"/>
<path d="M65.4879 49.9999H62.9873V52.5004H65.4879V49.9999Z" fill="#46476B"/>
<path d="M65.4879 45.0004H62.9873V47.5009H65.4879V45.0004Z" fill="#3D3730"/>
<path d="M47.9886 34.9998H45.488V37.5003H47.9886V34.9998Z" fill="#DF7B21"/>
<path d="M65.4879 54.9994H62.9873V57.4999H65.4879V54.9994Z" fill="#3D3730"/>
<path d="M65.4879 47.4993H62.9873V49.9999H65.4879V47.4993Z" fill="#46476B"/>
<path d="M65.4879 52.4988H62.9873V54.9994H65.4879V52.4988Z" fill="#46476B"/>
<path d="M27.9871 42.4998H25.4865V45.0004H27.9871V42.4998Z" fill="#5D5F8E"/>
<path d="M27.9871 49.9999H25.4865V52.5004H27.9871V49.9999Z" fill="#F76652"/>
<path d="M27.9871 52.4988H25.4865V54.9994H27.9871V52.4988Z" fill="#F76652"/>
<path d="M27.9871 54.9994H25.4865V57.4999H27.9871V54.9994Z" fill="white"/>
<path d="M27.9871 47.4993H25.4865V49.9999H27.9871V47.4993Z" fill="#3D3730"/>
<path d="M27.9871 45.0004H25.4865V47.5009H27.9871V45.0004Z" fill="#7676A1"/>
<path d="M27.9871 57.4999H25.4865V60.0005H27.9871V57.4999Z" fill="#3D3730"/>
<path d="M27.9871 62.4995H25.4865V65H27.9871V62.4995Z" fill="#3D3730"/>
<path d="M27.9871 60.0005H25.4865V62.501H27.9871V60.0005Z" fill="#46476B"/>
<path d="M40.4884 34.9998H37.9879V37.5003H40.4884V34.9998Z" fill="#3D3730"/>
<path d="M45.488 34.9998H42.9874V37.5003H45.488V34.9998Z" fill="#DF7B21"/>
<path d="M37.9879 34.9998H35.4873V37.5003H37.9879V34.9998Z" fill="#46476B"/>
<path d="M27.9871 39.9993H25.4865V42.4998H27.9871V39.9993Z" fill="#46476B"/>
<path d="M42.9874 34.9998H40.4868V37.5003H42.9874V34.9998Z" fill="#3D3730"/>
<path d="M35.4873 34.9998H32.9867V37.5003H35.4873V34.9998Z" fill="#3D3730"/>
<path d="M27.9871 34.9998H25.4865V37.5003H27.9871V34.9998Z" fill="#DF7B21"/>
<path d="M27.9871 37.5003H25.4865V40.0009H27.9871V37.5003Z" fill="#FBAA21"/>
<path d="M32.9883 34.9998H30.4877V37.5003H32.9883V34.9998Z" fill="#3D3730"/>
<path d="M30.4877 34.9998H27.9871V37.5003H30.4877V34.9998Z" fill="#DF7B21"/>
<path d="M30.4877 39.9993H27.9871V42.4998H30.4877V39.9993Z" fill="#46476B"/>
<path d="M30.4877 37.5003H27.9871V40.0009H30.4877V37.5003Z" fill="#FBAA21"/>
<path d="M35.4873 37.5003H32.9867V40.0009H35.4873V37.5003Z" fill="#2C2C48"/>
<path d="M32.9883 37.5003H30.4877V40.0009H32.9883V37.5003Z" fill="#DF7B21"/>
<path d="M30.4877 42.4998H27.9871V45.0004H30.4877V42.4998Z" fill="#5D5F8E"/>
<path d="M30.4877 52.4988H27.9871V54.9994H30.4877V52.4988Z" fill="#F76652"/>
<path d="M37.9879 37.5003H35.4873V40.0009H37.9879V37.5003Z" fill="#46476B"/>
<path d="M30.4877 54.9994H27.9871V57.4999H30.4877V54.9994Z" fill="#F76652"/>
<path d="M30.4877 47.4993H27.9871V49.9999H30.4877V47.4993Z" fill="#3D3730"/>
<path d="M30.4877 45.0004H27.9871V47.5009H30.4877V45.0004Z" fill="#7676A1"/>
<path d="M30.4877 49.9999H27.9871V52.5004H30.4877V49.9999Z" fill="white"/>
<path d="M52.9882 37.5003H50.4876V40.0009H52.9882V37.5003Z" fill="#3D3730"/>
<path d="M40.4884 37.5003H37.9879V40.0009H40.4884V37.5003Z" fill="#2C2C48"/>
<path d="M60.4883 37.5003H57.9877V40.0009H60.4883V37.5003Z" fill="#46476B"/>
<path d="M55.4887 37.5003H52.9882V40.0009H55.4887V37.5003Z" fill="#FBAA21"/>
<path d="M50.4876 37.5003H47.987V40.0009H50.4876V37.5003Z" fill="#FBAA21"/>
<path d="M42.9874 37.5003H40.4868V40.0009H42.9874V37.5003Z" fill="#DF7B21"/>
<path d="M45.488 37.5003H42.9874V40.0009H45.488V37.5003Z" fill="#FBAA21"/>
<path d="M47.9886 37.5003H45.488V40.0009H47.9886V37.5003Z" fill="#FBAA21"/>
<path d="M57.9878 37.5003H55.4872V40.0009H57.9878V37.5003Z" fill="#FBAA21"/>
<path d="M30.4877 57.4999H27.9871V60.0005H30.4877V57.4999Z" fill="#3D3730"/>
<path d="M30.4877 62.4995H27.9871V65H30.4877V62.4995Z" fill="#3D3730"/>
<path d="M30.4877 60.0005H27.9871V62.501H30.4877V60.0005Z" fill="#46476B"/>
<path d="M55.4887 34.9998H52.9882V37.5003H55.4887V34.9998Z" fill="#FBAA21"/>
<path d="M25.4881 42.4998H22.9875V45.0004H25.4881V42.4998Z" fill="#5D5F8E"/>
<path d="M25.4881 32.4992H22.9875V34.9998H25.4881V32.4992Z" fill="#3D3730"/>
<path d="M25.4881 45.0004H22.9875V47.5009H25.4881V45.0004Z" fill="#7676A1"/>
<path d="M25.4881 37.5003H22.9875V40.0009H25.4881V37.5003Z" fill="#3D3730"/>
<path d="M25.4881 34.9998H22.9875V37.5003H25.4881V34.9998Z" fill="#3D3730"/>
<path d="M25.4881 39.9993H22.9875V42.4998H25.4881V39.9993Z" fill="#46476B"/>
<path d="M25.4881 47.4993H22.9875V49.9999H25.4881V47.4993Z" fill="#3D3730"/>
<path d="M25.4881 54.9994H22.9875V57.4999H25.4881V54.9994Z" fill="#F76652"/>
<path d="M25.4881 52.4988H22.9875V54.9994H25.4881V52.4988Z" fill="#F76652"/>
<path d="M25.4881 49.9999H22.9875V52.5004H25.4881V49.9999Z" fill="white"/>
<path d="M47.9886 32.4992H45.488V34.9998H47.9886V32.4992Z" fill="#3D3730"/>
<path d="M40.4884 32.4992H37.9879V34.9998H40.4884V32.4992Z" fill="#7E7FB5"/>
<path d="M45.488 32.4992H42.9874V34.9998H45.488V32.4992Z" fill="#3D3730"/>
<path d="M42.9874 32.4992H40.4868V34.9998H42.9874V32.4992Z" fill="#7E7FB5"/>
<path d="M25.4881 57.4999H22.9875V60.0005H25.4881V57.4999Z" fill="#3D3730"/>
<path d="M35.4873 32.4992H32.9867V34.9998H35.4873V32.4992Z" fill="#7E7FB5"/>
<path d="M32.9883 32.4992H30.4877V34.9998H32.9883V32.4992Z" fill="#7E7FB5"/>
<path d="M50.4892 32.4992H47.9886V34.9998H50.4892V32.4992Z" fill="#3D3730"/>
<path d="M37.9879 32.4992H35.4873V34.9998H37.9879V32.4992Z" fill="#5D5F8E"/>
<path d="M27.9871 32.4992H25.4865V34.9998H27.9871V32.4992Z" fill="#3D3730"/>
<path d="M30.4877 32.4992H27.9871V34.9998H30.4877V32.4992Z" fill="#3D3730"/>
<path d="M25.4881 62.4995H22.9875V65H25.4881V62.4995Z" fill="#3D3730"/>
<path d="M25.4881 60.0005H22.9875V62.501H25.4881V60.0005Z" fill="#46476B"/>
<path d="M52.9882 32.4992H50.4876V34.9998H52.9882V32.4992Z" fill="#3D3730"/>
<path d="M67.9885 34.9998H65.4879V37.5003H67.9885V34.9998Z" fill="#5D5F8E"/>
<path d="M65.4879 32.4992H62.9873V34.9998H65.4879V32.4992Z" fill="#46476B"/>
<path d="M67.9885 32.4992H65.4879V34.9998H67.9885V32.4992Z" fill="#5D5F8E"/>
<path d="M67.9885 39.9993H65.4879V42.4998H67.9885V39.9993Z" fill="#7676A1"/>
<path d="M55.4887 32.4992H52.9882V34.9998H55.4887V32.4992Z" fill="#DF7B21"/>
<path d="M67.9885 42.4998H65.4879V45.0004H67.9885V42.4998Z" fill="#3D3730"/>
<path d="M57.9878 32.4992H55.4872V34.9998H57.9878V32.4992Z" fill="#FBAA21"/>
<path d="M60.4883 32.4992H57.9877V34.9998H60.4883V32.4992Z" fill="#FBAA21"/>
<path d="M62.9889 32.4992H60.4883V34.9998H62.9889V32.4992Z" fill="#46476B"/>
<path d="M67.9885 37.5003H65.4879V40.0009H67.9885V37.5003Z" fill="#5D5F8E"/>
<path d="M67.9885 45.0004H65.4879V47.5009H67.9885V45.0004Z" fill="#46476B"/>
<path d="M67.9885 47.4993H65.4879V49.9999H67.9885V47.4993Z" fill="#5D5F8E"/>
<path d="M67.9885 49.9999H65.4879V52.5004H67.9885V49.9999Z" fill="#46476B"/>
<path d="M67.9885 52.4988H65.4879V54.9994H67.9885V52.4988Z" fill="#3D3730"/>
<path d="M50.4876 57.4999H47.987V60.0005H50.4876V57.4999Z" fill="#3D3730"/>
<path d="M37.9879 45.0004H35.4873V47.5009H37.9879V45.0004Z" fill="#7676A1"/>
<path d="M37.9879 47.4993H35.4873V49.9999H37.9879V47.4993Z" fill="#3D3730"/>
<path d="M37.9879 62.4995H35.4873V65H37.9879V62.4995Z" fill="#3D3730"/>
<path d="M40.4884 45.0004H37.9879V47.5009H40.4884V45.0004Z" fill="#7676A1"/>
<path d="M42.9874 45.0004H40.4868V47.5009H42.9874V45.0004Z" fill="#7676A1"/>
<path d="M37.9879 49.9999H35.4873V52.5004H37.9879V49.9999Z" fill="#F76652"/>
<path d="M37.9879 52.4988H35.4873V54.9994H37.9879V52.4988Z" fill="#F76652"/>
<path d="M37.9879 57.4999H35.4873V60.0005H37.9879V57.4999Z" fill="#3D3730"/>
<path d="M37.9879 60.0005H35.4873V62.501H37.9879V60.0005Z" fill="#46476B"/>
<path d="M37.9879 54.9994H35.4873V57.4999H37.9879V54.9994Z" fill="white"/>
<path d="M45.488 45.0004H42.9874V47.5009H45.488V45.0004Z" fill="#7676A1"/>
<path d="M55.4887 52.4988H52.9882V54.9994H55.4887V52.4988Z" fill="white"/>
<path d="M47.9886 45.0004H45.488V47.5009H47.9886V45.0004Z" fill="#7676A1"/>
<path d="M55.4887 54.9994H52.9882V57.4999H55.4887V54.9994Z" fill="#3D3730"/>
<path d="M55.4887 60.0005H52.9882V62.501H55.4887V60.0005Z" fill="#46476B"/>
<path d="M55.4887 57.4999H52.9882V60.0005H55.4887V57.4999Z" fill="#46476B"/>
<path d="M55.4887 49.9999H52.9882V52.5004H55.4887V49.9999Z" fill="white"/>
<path d="M50.4876 45.0004H47.987V47.5009H50.4876V45.0004Z" fill="#7676A1"/>
<path d="M52.9882 45.0004H50.4876V47.5009H52.9882V45.0004Z" fill="#7676A1"/>
<path d="M55.4887 45.0004H52.9882V47.5009H55.4887V45.0004Z" fill="#7676A1"/>
<path d="M55.4887 47.4993H52.9882V49.9999H55.4887V47.4993Z" fill="#3D3730"/>
<path d="M57.9878 57.4999H55.4872V60.0005H57.9878V57.4999Z" fill="#46476B"/>
<path d="M57.9878 52.4988H55.4872V54.9994H57.9878V52.4988Z" fill="#3D3730"/>
<path d="M57.9878 49.9999H55.4872V52.5004H57.9878V49.9999Z" fill="#590B0E"/>
<path d="M57.9878 54.9994H55.4872V57.4999H57.9878V54.9994Z" fill="#46476B"/>
<path d="M57.9878 47.4993H55.4872V49.9999H57.9878V47.4993Z" fill="#590B0E"/>
<path d="M55.4887 62.4995H52.9882V65H55.4887V62.4995Z" fill="#3D3730"/>
<path d="M40.4884 62.4995H37.9879V65H40.4884V62.4995Z" fill="#3D3730"/>
<path d="M62.9889 39.9993H60.4883V42.4998H62.9889V39.9993Z" fill="#7676A1"/>
<path d="M57.9878 45.0004H55.4872V47.5009H57.9878V45.0004Z" fill="#3D3730"/>
<path d="M55.4887 42.4998H52.9882V45.0004H55.4887V42.4998Z" fill="#5D5F8E"/>
<path d="M57.9878 42.4998H55.4872V45.0004H57.9878V42.4998Z" fill="#7676A1"/>
<path d="M52.9882 42.4998H50.4876V45.0004H52.9882V42.4998Z" fill="#5D5F8E"/>
<path d="M52.9882 62.4995H50.4876V65H52.9882V62.4995Z" fill="#3D3730"/>
<path d="M42.9874 54.9994H40.4868V57.4999H42.9874V54.9994Z" fill="white"/>
<path d="M42.9874 52.4988H40.4868V54.9994H42.9874V52.4988Z" fill="#F76652"/>
<path d="M50.4876 42.4998H47.987V45.0004H50.4876V42.4998Z" fill="#5D5F8E"/>
<path d="M42.9874 49.9999H40.4868V52.5004H42.9874V49.9999Z" fill="#F76652"/>
<path d="M42.9874 57.4999H40.4868V60.0005H42.9874V57.4999Z" fill="#3D3730"/>
<path d="M47.9886 49.9999H45.488V52.5004H47.9886V49.9999Z" fill="#F76652"/>
<path d="M50.4876 60.0005H47.987V62.501H50.4876V60.0005Z" fill="#46476B"/>
<path d="M52.9882 60.0005H50.4876V62.501H52.9882V60.0005Z" fill="#46476B"/>
<path d="M47.9886 60.0005H45.488V62.501H47.9886V60.0005Z" fill="#46476B"/>
<path d="M45.488 60.0005H42.9874V62.501H45.488V60.0005Z" fill="#46476B"/>
<path d="M45.488 57.4999H42.9874V60.0005H45.488V57.4999Z" fill="#3D3730"/>
<path d="M47.9886 54.9994H45.488V57.4999H47.9886V54.9994Z" fill="white"/>
<path d="M45.488 54.9994H42.9874V57.4999H45.488V54.9994Z" fill="#F76652"/>
<path d="M45.488 52.4988H42.9874V54.9994H45.488V52.4988Z" fill="#F76652"/>
<path d="M47.9886 52.4988H45.488V54.9994H47.9886V52.4988Z" fill="#F76652"/>
<path d="M50.4876 49.9999H47.987V52.5004H50.4876V49.9999Z" fill="white"/>
<path d="M50.4876 54.9994H47.987V57.4999H50.4876V54.9994Z" fill="#F76652"/>
<path d="M47.9886 57.4999H45.488V60.0005H47.9886V57.4999Z" fill="#3D3730"/>
<path d="M50.4876 52.4988H47.987V54.9994H50.4876V52.4988Z" fill="#F76652"/>
<path d="M45.488 49.9999H42.9874V52.5004H45.488V49.9999Z" fill="white"/>
<path d="M40.4884 57.4999H37.9879V60.0005H40.4884V57.4999Z" fill="#3D3730"/>
<path d="M42.9874 60.0005H40.4868V62.501H42.9874V60.0005Z" fill="#46476B"/>
<path d="M40.4884 60.0005H37.9879V62.501H40.4884V60.0005Z" fill="#46476B"/>
<path d="M40.4884 54.9994H37.9879V57.4999H40.4884V54.9994Z" fill="#F76652"/>
<path d="M40.4884 52.4988H37.9879V54.9994H40.4884V52.4988Z" fill="#F76652"/>
<path d="M42.9874 62.4995H40.4868V65H42.9874V62.4995Z" fill="#3D3730"/>
<path d="M47.9886 62.4995H45.488V65H47.9886V62.4995Z" fill="#3D3730"/>
<path d="M50.4876 62.4995H47.987V65H50.4876V62.4995Z" fill="#3D3730"/>
<path d="M40.4884 49.9999H37.9879V52.5004H40.4884V49.9999Z" fill="white"/>
<path d="M45.488 62.4995H42.9874V65H45.488V62.4995Z" fill="#3D3730"/>
<path d="M47.9886 47.4993H45.488V49.9999H47.9886V47.4993Z" fill="#3D3730"/>
<path d="M52.9882 47.4993H50.4876V49.9999H52.9882V47.4993Z" fill="#3D3730"/>
<path d="M52.9882 52.4988H50.4876V54.9994H52.9882V52.4988Z" fill="#F76652"/>
<path d="M52.9882 49.9999H50.4876V52.5004H52.9882V49.9999Z" fill="#F76652"/>
<path d="M52.9882 54.9994H50.4876V57.4999H52.9882V54.9994Z" fill="#3D3730"/>
<path d="M45.488 47.4993H42.9874V49.9999H45.488V47.4993Z" fill="#3D3730"/>
<path d="M42.9874 47.4993H40.4868V49.9999H42.9874V47.4993Z" fill="#3D3730"/>
<path d="M40.4884 47.4993H37.9879V49.9999H40.4884V47.4993Z" fill="#3D3730"/>
<path d="M50.4876 47.4993H47.987V49.9999H50.4876V47.4993Z" fill="#3D3730"/>
<path d="M52.9882 57.4999H50.4876V60.0005H52.9882V57.4999Z" fill="#2C2C48"/>
<path d="M57.9878 60.0005H55.4872V62.501H57.9878V60.0005Z" fill="#3D3730"/>
<path d="M32.9883 62.4995H30.4877V65H32.9883V62.4995Z" fill="#3D3730"/>
<path d="M32.9883 60.0005H30.4877V62.501H32.9883V60.0005Z" fill="#46476B"/>
<path d="M32.9883 57.4999H30.4877V60.0005H32.9883V57.4999Z" fill="#3D3730"/>
<path d="M32.9883 54.9994H30.4877V57.4999H32.9883V54.9994Z" fill="white"/>
<path d="M32.9883 52.4988H30.4877V54.9994H32.9883V52.4988Z" fill="#F76652"/>
<path d="M37.9879 39.9993H35.4873V42.4998H37.9879V39.9993Z" fill="#5D5F8E"/>
<path d="M40.4884 39.9993H37.9879V42.4998H40.4884V39.9993Z" fill="#46476B"/>
<path d="M42.9874 39.9993H40.4868V42.4998H42.9874V39.9993Z" fill="#46476B"/>
<path d="M35.4873 39.9993H32.9867V42.4998H35.4873V39.9993Z" fill="#46476B"/>
<path d="M32.9883 42.4998H30.4877V45.0004H32.9883V42.4998Z" fill="#3D3730"/>
<path d="M32.9883 39.9993H30.4877V42.4998H32.9883V39.9993Z" fill="#46476B"/>
<path d="M32.9883 45.0004H30.4877V47.5009H32.9883V45.0004Z" fill="#7676A1"/>
<path d="M32.9883 47.4993H30.4877V49.9999H32.9883V47.4993Z" fill="#3D3730"/>
<path d="M32.9883 49.9999H30.4877V52.5004H32.9883V49.9999Z" fill="#F76652"/>
<path d="M62.9889 54.9994H60.4883V57.4999H62.9889V54.9994Z" fill="#46476B"/>
<path d="M62.9889 52.4988H60.4883V54.9994H62.9889V52.4988Z" fill="#46476B"/>
<path d="M62.9889 57.4999H60.4883V60.0005H62.9889V57.4999Z" fill="#3D3730"/>
<path d="M45.488 39.9993H42.9874V42.4998H45.488V39.9993Z" fill="#46476B"/>
<path d="M62.9889 47.4993H60.4883V49.9999H62.9889V47.4993Z" fill="#3D3730"/>
<path d="M62.9889 49.9999H60.4883V52.5004H62.9889V49.9999Z" fill="#3D3730"/>
<path d="M62.9889 45.0004H60.4883V47.5009H62.9889V45.0004Z" fill="#590B0E"/>
<path d="M62.9889 42.4998H60.4883V45.0004H62.9889V42.4998Z" fill="#3D3730"/>
<path d="M35.4873 62.4995H32.9867V65H35.4873V62.4995Z" fill="#3D3730"/>
<path d="M47.9886 39.9993H45.488V42.4998H47.9886V39.9993Z" fill="#46476B"/>
<path d="M47.9886 42.4998H45.488V45.0004H47.9886V42.4998Z" fill="#5D5F8E"/>
<path d="M35.4873 60.0005H32.9867V62.501H35.4873V60.0005Z" fill="#46476B"/>
<path d="M35.4873 57.4999H32.9867V60.0005H35.4873V57.4999Z" fill="#3D3730"/>
<path d="M35.4873 54.9994H32.9867V57.4999H35.4873V54.9994Z" fill="#F76652"/>
<path d="M35.4873 49.9999H32.9867V52.5004H35.4873V49.9999Z" fill="white"/>
<path d="M35.4873 52.4988H32.9867V54.9994H35.4873V52.4988Z" fill="#F76652"/>
<path d="M40.4884 42.4998H37.9879V45.0004H40.4884V42.4998Z" fill="#5D5F8E"/>
<path d="M42.9874 42.4998H40.4868V45.0004H42.9874V42.4998Z" fill="#3D3730"/>
<path d="M45.488 42.4998H42.9874V45.0004H45.488V42.4998Z" fill="#5D5F8E"/>
<path d="M37.9879 42.4998H35.4873V45.0004H37.9879V42.4998Z" fill="#5D5F8E"/>
<path d="M35.4873 47.4993H32.9867V49.9999H35.4873V47.4993Z" fill="#3D3730"/>
<path d="M35.4873 42.4998H32.9867V45.0004H35.4873V42.4998Z" fill="#5D5F8E"/>
<path d="M35.4873 45.0004H32.9867V47.5009H35.4873V45.0004Z" fill="#7676A1"/>
<path d="M60.4883 45.0004H57.9877V47.5009H60.4883V45.0004Z" fill="#3D3730"/>
<path d="M60.4883 42.4998H57.9877V45.0004H60.4883V42.4998Z" fill="#7676A1"/>
<path d="M60.4883 49.9999H57.9877V52.5004H60.4883V49.9999Z" fill="#590B0E"/>
<path d="M60.4883 47.4993H57.9877V49.9999H60.4883V47.4993Z" fill="#C5C4C4"/>
<path d="M60.4883 39.9993H57.9877V42.4998H60.4883V39.9993Z" fill="#5D5F8E"/>
<path d="M50.4876 39.9993H47.987V42.4998H50.4876V39.9993Z" fill="#46476B"/>
<path d="M52.9882 39.9993H50.4876V42.4998H52.9882V39.9993Z" fill="#46476B"/>
<path d="M57.9878 39.9993H55.4872V42.4998H57.9878V39.9993Z" fill="#46476B"/>
<path d="M55.4887 39.9993H52.9882V42.4998H55.4887V39.9993Z" fill="#46476B"/>
<path d="M60.4883 52.4988H57.9877V54.9994H60.4883V52.4988Z" fill="#3D3730"/>
<path d="M60.4883 54.9994H57.9877V57.4999H60.4883V54.9994Z" fill="#46476B"/>
<path d="M60.4883 60.0005H57.9877V62.501H60.4883V60.0005Z" fill="#3D3730"/>
<path d="M60.4883 57.4999H57.9877V60.0005H60.4883V57.4999Z" fill="#46476B"/>
<path d="M17.9879 57.4999H15.4874V60.0005H17.9879V57.4999Z" fill="#46476B"/>
<path d="M17.9879 52.4988H15.4874V54.9994H17.9879V52.4988Z" fill="#3D3730"/>
<path d="M17.9879 49.9999H15.4874V52.5004H17.9879V49.9999Z" fill="#590B0E"/>
<path d="M17.9879 47.4993H15.4874V49.9999H17.9879V47.4993Z" fill="#590B0E"/>
<path d="M17.9879 45.0004H15.4874V47.5009H17.9879V45.0004Z" fill="#3D3730"/>
<path d="M17.9879 60.0005H15.4874V62.501H17.9879V60.0005Z" fill="#3D3730"/>
<path d="M17.9879 54.9994H15.4874V57.4999H17.9879V54.9994Z" fill="#46476B"/>
<path d="M17.9879 24.9991H15.4874V27.4997H17.9879V24.9991Z" fill="#5D5F8E"/>
<path d="M17.9879 27.4997H15.4874V30.0002H17.9879V27.4997Z" fill="#A4A6CA"/>
<path d="M20.4886 24.9991H17.988V27.4997H20.4886V24.9991Z" fill="#5D5F8E"/>
<path d="M22.9875 24.9991H20.4869V27.4997H22.9875V24.9991Z" fill="#5D5F8E"/>
<path d="M17.9879 42.4998H15.4874V45.0004H17.9879V42.4998Z" fill="#7676A1"/>
<path d="M17.9879 39.9993H15.4874V42.4998H17.9879V39.9993Z" fill="#5D5F8E"/>
<path d="M17.9879 37.5003H15.4874V40.0009H17.9879V37.5003Z" fill="#46476B"/>
<path d="M17.9879 32.4992H15.4874V34.9998H17.9879V32.4992Z" fill="#DF7B21"/>
<path d="M17.9879 34.9998H15.4874V37.5003H17.9879V34.9998Z" fill="#FBAA21"/>
<path d="M25.4881 24.9991H22.9875V27.4997H25.4881V24.9991Z" fill="#9D5F94"/>
<path d="M17.9879 30.0002H15.4874V32.5008H17.9879V30.0002Z" fill="#3D3730"/>
<path d="M75.4886 42.4998H72.988V45.0004H75.4886V42.4998Z" fill="#3D3730"/>
<path d="M75.4886 45.0004H72.988V47.5009H75.4886V45.0004Z" fill="#3D3730"/>
<path d="M75.4886 47.4993H72.988V49.9999H75.4886V47.4993Z" fill="#3D3730"/>
<path d="M75.4886 39.9993H72.988V42.4998H75.4886V39.9993Z" fill="#3D3730"/>
<path d="M75.4886 37.5003H72.988V40.0009H75.4886V37.5003Z" fill="#3D3730"/>
<path d="M57.9878 24.9991H55.4872V27.4997H57.9878V24.9991Z" fill="#7E7FB5"/>
<path d="M40.4884 24.9991H37.9879V27.4997H40.4884V24.9991Z" fill="#9D5F94"/>
<path d="M52.9882 24.9991H50.4876V27.4997H52.9882V24.9991Z" fill="#5D5F8E"/>
<path d="M42.9874 24.9991H40.4868V27.4997H42.9874V24.9991Z" fill="#5D5F8E"/>
<path d="M47.9886 24.9991H45.488V27.4997H47.9886V24.9991Z" fill="#9D5F94"/>
<path d="M50.4876 24.9991H47.987V27.4997H50.4876V24.9991Z" fill="#9D5F94"/>
<path d="M45.488 24.9991H42.9874V27.4997H45.488V24.9991Z" fill="#5D5F8E"/>
<path d="M32.9883 24.9991H30.4877V27.4997H32.9883V24.9991Z" fill="#5D5F8E"/>
<path d="M37.9879 24.9991H35.4873V27.4997H37.9879V24.9991Z" fill="#9D5F94"/>
<path d="M35.4873 24.9991H32.9867V27.4997H35.4873V24.9991Z" fill="#9D5F94"/>
<path d="M30.4877 24.9991H27.9871V27.4997H30.4877V24.9991Z" fill="#5D5F8E"/>
<path d="M55.4887 24.9991H52.9882V27.4997H55.4887V24.9991Z" fill="#5D5F8E"/>
<path d="M72.9881 24.9991H70.4875V27.4997H72.9881V24.9991Z" fill="#3D3730"/>
<path d="M67.9885 24.9991H65.4879V27.4997H67.9885V24.9991Z" fill="#9D5F94"/>
<path d="M70.4875 24.9991H67.9869V27.4997H70.4875V24.9991Z" fill="#B1749E"/>
<path d="M65.4879 24.9991H62.9873V27.4997H65.4879V24.9991Z" fill="#5D5F8E"/>
<path d="M27.9887 24.9991H25.4881V27.4997H27.9887V24.9991Z" fill="#9D5F94"/>
<path d="M60.4883 24.9991H57.9877V27.4997H60.4883V24.9991Z" fill="#7E7FB5"/>
<path d="M62.9889 24.9991H60.4883V27.4997H62.9889V24.9991Z" fill="#7E7FB5"/>
<path d="M22.9875 22.5002H20.4869V25.0007H22.9875V22.5002Z" fill="#9D5F94"/>
<path d="M20.4886 22.5002H17.988V25.0007H20.4886V22.5002Z" fill="#9D5F94"/>
<path d="M27.9871 22.5002H25.4865V25.0007H27.9871V22.5002Z" fill="#9D5F94"/>
<path d="M17.9879 22.5002H15.4874V25.0007H17.9879V22.5002Z" fill="#9D5F94"/>
<path d="M25.4881 22.5002H22.9875V25.0007H25.4881V22.5002Z" fill="#9D5F94"/>
<path d="M15.4874 30.0002H12.9868V32.5008H15.4874V30.0002Z" fill="#3D3730"/>
<path d="M15.4874 27.4997H12.9868V30.0002H15.4874V27.4997Z" fill="#7E7FB5"/>
<path d="M15.4874 22.5002H12.9868V25.0007H15.4874V22.5002Z" fill="#9D5F94"/>
<path d="M15.4874 24.9991H12.9868V27.4997H15.4874V24.9991Z" fill="#5D5F8E"/>
<path d="M15.4874 32.4992H12.9868V34.9998H15.4874V32.4992Z" fill="#2C2C48"/>
<path d="M45.488 22.5002H42.9874V25.0007H45.488V22.5002Z" fill="#B1749E"/>
<path d="M47.9886 22.5002H45.488V25.0007H47.9886V22.5002Z" fill="#B1749E"/>
<path d="M50.4876 22.5002H47.987V25.0007H50.4876V22.5002Z" fill="#9D5F94"/>
<path d="M52.9882 22.5002H50.4876V25.0007H52.9882V22.5002Z" fill="#9D5F94"/>
<path d="M42.989 22.5002H40.4885V25.0007H42.989V22.5002Z" fill="#B1749E"/>
<path d="M32.9883 22.5002H30.4877V25.0007H32.9883V22.5002Z" fill="#B1749E"/>
<path d="M35.4889 22.5002H32.9883V25.0007H35.4889V22.5002Z" fill="#B1749E"/>
<path d="M37.9879 22.5002H35.4873V25.0007H37.9879V22.5002Z" fill="#B1749E"/>
<path d="M40.4884 22.5002H37.9879V25.0007H40.4884V22.5002Z" fill="#B1749E"/>
<path d="M55.4887 22.5002H52.9882V25.0007H55.4887V22.5002Z" fill="#9D5F94"/>
<path d="M15.4874 34.9998H12.9868V37.5003H15.4874V34.9998Z" fill="#46476B"/>
<path d="M15.4874 45.0004H12.9868V47.5009H15.4874V45.0004Z" fill="#3D3730"/>
<path d="M15.4874 42.4998H12.9868V45.0004H15.4874V42.4998Z" fill="#7676A1"/>
<path d="M15.4874 39.9993H12.9868V42.4998H15.4874V39.9993Z" fill="#5D5F8E"/>
<path d="M15.4874 37.5003H12.9868V40.0009H15.4874V37.5003Z" fill="#5D5F8E"/>
<path d="M15.4874 47.4993H12.9868V49.9999H15.4874V47.4993Z" fill="#C5C4C4"/>
<path d="M15.4874 52.4988H12.9868V54.9994H15.4874V52.4988Z" fill="#46476B"/>
<path d="M15.4874 57.4999H12.9868V60.0005H15.4874V57.4999Z" fill="#3D3730"/>
<path d="M15.4874 54.9994H12.9868V57.4999H15.4874V54.9994Z" fill="#46476B"/>
<path d="M15.4874 49.9999H12.9868V52.5004H15.4874V49.9999Z" fill="#3D3730"/>
<path d="M30.4877 22.5002H27.9871V25.0007H30.4877V22.5002Z" fill="#B1749E"/>
<path d="M57.9878 22.5002H55.4872V25.0007H57.9878V22.5002Z" fill="#9D5F94"/>
<path d="M70.4875 22.5002H67.9869V25.0007H70.4875V22.5002Z" fill="#3D3730"/>
<path d="M67.9885 22.5002H65.4879V25.0007H67.9885V22.5002Z" fill="#9D5F94"/>
<path d="M62.9889 22.5002H60.4883V25.0007H62.9889V22.5002Z" fill="#9D5F94"/>
<path d="M60.4883 22.5002H57.9877V25.0007H60.4883V22.5002Z" fill="#9D5F94"/>
<path d="M65.4879 22.5002H62.9873V25.0007H65.4879V22.5002Z" fill="#9D5F94"/>
<path d="M22.9875 57.4999H20.4869V60.0005H22.9875V57.4999Z" fill="#2C2C48"/>
<path d="M22.9875 62.4995H20.4869V65H22.9875V62.4995Z" fill="#3D3730"/>
<path d="M22.9875 60.0005H20.4869V62.501H22.9875V60.0005Z" fill="#46476B"/>
<path d="M22.9875 39.9993H20.4869V42.4998H22.9875V39.9993Z" fill="#46476B"/>
<path d="M22.9875 37.5003H20.4869V40.0009H22.9875V37.5003Z" fill="#FBAA21"/>
<path d="M22.9875 42.4998H20.4869V45.0004H22.9875V42.4998Z" fill="#5D5F8E"/>
<path d="M22.9875 32.4992H20.4869V34.9998H22.9875V32.4992Z" fill="#3D3730"/>
<path d="M22.9875 34.9998H20.4869V37.5003H22.9875V34.9998Z" fill="white"/>
<path d="M22.9875 52.4988H20.4869V54.9994H22.9875V52.4988Z" fill="#F76652"/>
<path d="M22.9875 49.9999H20.4869V52.5004H22.9875V49.9999Z" fill="#F76652"/>
<path d="M22.9875 45.0004H20.4869V47.5009H22.9875V45.0004Z" fill="#A4A6CA"/>
<path d="M22.9875 54.9994H20.4869V57.4999H22.9875V54.9994Z" fill="#3D3730"/>
<path d="M22.9875 47.4993H20.4869V49.9999H22.9875V47.4993Z" fill="#3D3730"/>
<path d="M22.9875 30.0002H20.4869V32.5008H22.9875V30.0002Z" fill="#7E7FB5"/>
<path d="M70.4875 49.9999H67.9869V52.5004H70.4875V49.9999Z" fill="#46476B"/>
<path d="M25.4881 30.0002H22.9875V32.5008H25.4881V30.0002Z" fill="#7E7FB5"/>
<path d="M70.4875 39.9993H67.9869V42.4998H70.4875V39.9993Z" fill="#5D5F8E"/>
<path d="M70.4875 47.4993H67.9869V49.9999H70.4875V47.4993Z" fill="#5D5F8E"/>
<path d="M70.4875 42.4998H67.9869V45.0004H70.4875V42.4998Z" fill="#5D5F8E"/>
<path d="M70.4875 37.5003H67.9869V40.0009H70.4875V37.5003Z" fill="#5D5F8E"/>
<path d="M70.4875 45.0004H67.9869V47.5009H70.4875V45.0004Z" fill="#5D5F8E"/>
<path d="M70.4875 52.4988H67.9869V54.9994H70.4875V52.4988Z" fill="#3D3730"/>
<path d="M40.4884 30.0002H37.9879V32.5008H40.4884V30.0002Z" fill="#5D5F8E"/>
<path d="M37.9879 30.0002H35.4873V32.5008H37.9879V30.0002Z" fill="#9D5F94"/>
<path d="M42.9874 30.0002H40.4868V32.5008H42.9874V30.0002Z" fill="#5D5F8E"/>
<path d="M50.4892 30.0002H47.9886V32.5008H50.4892V30.0002Z" fill="#7E7FB5"/>
<path d="M47.9886 30.0002H45.488V32.5008H47.9886V30.0002Z" fill="#A4A6CA"/>
<path d="M45.488 30.0002H42.9874V32.5008H45.488V30.0002Z" fill="#7E7FB5"/>
<path d="M30.4877 30.0002H27.9871V32.5008H30.4877V30.0002Z" fill="#7E7FB5"/>
<path d="M35.4873 30.0002H32.9867V32.5008H35.4873V30.0002Z" fill="#5D5F8E"/>
<path d="M27.9871 30.0002H25.4865V32.5008H27.9871V30.0002Z" fill="#7E7FB5"/>
<path d="M32.9883 30.0002H30.4877V32.5008H32.9883V30.0002Z" fill="#5D5F8E"/>
<path d="M55.4887 30.0002H52.9882V32.5008H55.4887V30.0002Z" fill="#3D3730"/>
<path d="M70.4875 30.0002H67.9869V32.5008H70.4875V30.0002Z" fill="#5D5F8E"/>
<path d="M65.4879 30.0002H62.9873V32.5008H65.4879V30.0002Z" fill="#3D3730"/>
<path d="M52.9882 30.0002H50.4876V32.5008H52.9882V30.0002Z" fill="#3D3730"/>
<path d="M70.4875 32.4992H67.9869V34.9998H70.4875V32.4992Z" fill="#5D5F8E"/>
<path d="M67.9885 30.0002H65.4879V32.5008H67.9885V30.0002Z" fill="#5D5F8E"/>
<path d="M62.9889 30.0002H60.4883V32.5008H62.9889V30.0002Z" fill="#2C2C48"/>
<path d="M70.4875 34.9998H67.9869V37.5003H70.4875V34.9998Z" fill="#5D5F8E"/>
<path d="M57.9878 30.0002H55.4872V32.5008H57.9878V30.0002Z" fill="#DF7B21"/>
<path d="M60.4883 30.0002H57.9877V32.5008H60.4883V30.0002Z" fill="#DF7B21"/>
<path d="M20.4886 60.0005H17.988V62.501H20.4886V60.0005Z" fill="#3D3730"/>
<path d="M20.4886 34.9998H17.988V37.5003H20.4886V34.9998Z" fill="#FBAA21"/>
<path d="M20.4886 57.4999H17.988V60.0005H20.4886V57.4999Z" fill="#46476B"/>
<path d="M20.4886 45.0004H17.988V47.5009H20.4886V45.0004Z" fill="#7676A1"/>
<path d="M20.4886 39.9993H17.988V42.4998H20.4886V39.9993Z" fill="#46476B"/>
<path d="M20.4886 37.5003H17.988V40.0009H20.4886V37.5003Z" fill="#FBAA21"/>
<path d="M20.4886 42.4998H17.988V45.0004H20.4886V42.4998Z" fill="#5D5F8E"/>
<path d="M20.4886 52.4988H17.988V54.9994H20.4886V52.4988Z" fill="white"/>
<path d="M20.4886 47.4993H17.988V49.9999H20.4886V47.4993Z" fill="#3D3730"/>
<path d="M20.4886 54.9994H17.988V57.4999H20.4886V54.9994Z" fill="#3D3730"/>
<path d="M20.4886 49.9999H17.988V52.5004H20.4886V49.9999Z" fill="white"/>
<path d="M22.9875 27.4997H20.4869V30.0002H22.9875V27.4997Z" fill="#5D5F8E"/>
<path d="M72.9881 34.9998H70.4875V37.5003H72.9881V34.9998Z" fill="#3D3730"/>
<path d="M72.9881 37.5003H70.4875V40.0009H72.9881V37.5003Z" fill="#7E7FB5"/>
<path d="M72.9881 39.9993H70.4875V42.4998H72.9881V39.9993Z" fill="#5D5F8E"/>
<path d="M72.9881 45.0004H70.4875V47.5009H72.9881V45.0004Z" fill="#5D5F8E"/>
<path d="M67.9885 27.4997H65.4879V30.0002H67.9885V27.4997Z" fill="#5D5F8E"/>
<path d="M72.9881 30.0002H70.4875V32.5008H72.9881V30.0002Z" fill="#3D3730"/>
<path d="M72.9881 27.4997H70.4875V30.0002H72.9881V27.4997Z" fill="#3D3730"/>
<path d="M72.9881 32.4992H70.4875V34.9998H72.9881V32.4992Z" fill="#3D3730"/>
<path d="M70.4875 27.4997H67.9869V30.0002H70.4875V27.4997Z" fill="#9D5F94"/>
<path d="M72.9881 47.4993H70.4875V49.9999H72.9881V47.4993Z" fill="#46476B"/>
<path d="M72.9881 42.4998H70.4875V45.0004H72.9881V42.4998Z" fill="#5D5F8E"/>
<path d="M72.9881 49.9999H70.4875V52.5004H72.9881V49.9999Z" fill="#3D3730"/>
<path d="M42.9874 27.4997H40.4868V30.0002H42.9874V27.4997Z" fill="#5D5F8E"/>
<path d="M30.4877 27.4997H27.9871V30.0002H30.4877V27.4997Z" fill="#5D5F8E"/>
<path d="M32.9883 27.4997H30.4877V30.0002H32.9883V27.4997Z" fill="#5D5F8E"/>
<path d="M27.9871 27.4997H25.4865V30.0002H27.9871V27.4997Z" fill="#9D5F94"/>
<path d="M35.4873 27.4997H32.9867V30.0002H35.4873V27.4997Z" fill="#9D5F94"/>
<path d="M37.9879 27.4997H35.4873V30.0002H37.9879V27.4997Z" fill="#9D5F94"/>
<path d="M40.4884 27.4997H37.9879V30.0002H40.4884V27.4997Z" fill="#9D5F94"/>
<path d="M20.4886 30.0002H17.988V32.5008H20.4886V30.0002Z" fill="#3D3730"/>
<path d="M25.4881 27.4997H22.9875V30.0002H25.4881V27.4997Z" fill="#5D5F8E"/>
<path d="M20.4886 27.4997H17.988V30.0002H20.4886V27.4997Z" fill="#7E7FB5"/>
<path d="M45.488 27.4997H42.9874V30.0002H45.488V27.4997Z" fill="#5D5F8E"/>
<path d="M55.4887 27.4997H52.9882V30.0002H55.4887V27.4997Z" fill="#7E7FB5"/>
<path d="M57.9878 27.4997H55.4872V30.0002H57.9878V27.4997Z" fill="#3D3730"/>
<path d="M60.4883 27.4997H57.9877V30.0002H60.4883V27.4997Z" fill="#3D3730"/>
<path d="M62.9889 27.4997H60.4883V30.0002H62.9889V27.4997Z" fill="#3D3730"/>
<path d="M65.4879 27.4997H62.9873V30.0002H65.4879V27.4997Z" fill="#7E7FB5"/>
<path d="M47.9886 27.4997H45.488V30.0002H47.9886V27.4997Z" fill="#9D5F94"/>
<path d="M20.4886 32.4992H17.988V34.9998H20.4886V32.4992Z" fill="#DF7B21"/>
<path d="M50.4876 27.4997H47.987V30.0002H50.4876V27.4997Z" fill="#5D5F8E"/>
<path d="M52.9882 27.4997H50.4876V30.0002H52.9882V27.4997Z" fill="#5D5F8E"/>
<path d="M57.9878 4.99951H55.4872V7.50006H57.9878V4.99951Z" fill="#B1749E"/>
<path d="M62.9889 4.99951H60.4883V7.50006H62.9889V4.99951Z" fill="#B1749E"/>
<path d="M60.4883 4.99951H57.9877V7.50006H60.4883V4.99951Z" fill="#9D5F94"/>
<path d="M65.4879 4.99951H62.9873V7.50006H65.4879V4.99951Z" fill="#3D3730"/>
<path d="M55.4887 4.99951H52.9882V7.50006H55.4887V4.99951Z" fill="#3D3730"/>
<path d="M12.9884 4.99951H10.4878V7.50006H12.9884V4.99951Z" fill="#3D3730"/>
<path d="M15.4874 4.99951H12.9868V7.50006H15.4874V4.99951Z" fill="#B1749E"/>
<path d="M17.9879 4.99951H15.4874V7.50006H17.9879V4.99951Z" fill="#9D5F94"/>
<path d="M22.9875 4.99951H20.4869V7.50006H22.9875V4.99951Z" fill="#3D3730"/>
<path d="M20.4886 4.99951H17.988V7.50006H20.4886V4.99951Z" fill="#B1749E"/>
<path d="M20.4886 7.50006H17.988V10.0006H20.4886V7.50006Z" fill="#9D5F94"/>
<path d="M22.9875 7.50006H20.4869V10.0006H22.9875V7.50006Z" fill="#3D3730"/>
<path d="M17.9879 7.50006H15.4874V10.0006H17.9879V7.50006Z" fill="#3D3730"/>
<path d="M15.4874 7.50006H12.9868V10.0006H15.4874V7.50006Z" fill="#9D5F94"/>
<path d="M12.9884 7.50006H10.4878V10.0006H12.9884V7.50006Z" fill="#3D3730"/>
<path d="M55.4887 7.50006H52.9882V10.0006H55.4887V7.50006Z" fill="#3D3730"/>
<path d="M57.9878 7.50006H55.4872V10.0006H57.9878V7.50006Z" fill="#9D5F94"/>
<path d="M60.4883 7.50006H57.9877V10.0006H60.4883V7.50006Z" fill="#3D3730"/>
<path d="M62.9889 7.50006H60.4883V10.0006H62.9889V7.50006Z" fill="#9D5F94"/>
<path d="M65.4879 7.50006H62.9873V10.0006H65.4879V7.50006Z" fill="#3D3730"/>
<path d="M60.4883 0H57.9877V2.50055H60.4883V0Z" fill="#3D3730"/>
<path d="M17.9879 0H15.4874V2.50055H17.9879V0Z" fill="#3D3730"/>
<path d="M57.9878 2.50055H55.4872V5.0011H57.9878V2.50055Z" fill="#3D3730"/>
<path d="M62.9889 2.50055H60.4883V5.0011H62.9889V2.50055Z" fill="#3D3730"/>
<path d="M60.4883 2.50055H57.9877V5.0011H60.4883V2.50055Z" fill="#B1749E"/>
<path d="M15.4874 2.50055H12.9868V5.0011H15.4874V2.50055Z" fill="#3D3730"/>
<path d="M17.9879 2.50055H15.4874V5.0011H17.9879V2.50055Z" fill="#B1749E"/>
<path d="M20.4886 2.50055H17.988V5.0011H20.4886V2.50055Z" fill="#3D3730"/>
</g>
<defs>
<clipPath id="clip0_196_505">
<rect width="75" height="65" fill="white" transform="translate(0.487061)"/>
</clipPath>
</defs>
</svg>
