<svg width="74" height="59" viewBox="0 0 74 59" fill="none" xmlns="http://www.w3.org/2000/svg">
<g clip-path="url(#clip0_196_1616)">
<path d="M15.5906 23.1959H13.0728V25.7182H15.5906V23.1959Z" fill="#3D3730"/>
<path d="M30.6942 23.1959H28.1764V25.7182H30.6942V23.1959Z" fill="#FFCB05"/>
<path d="M38.2459 23.1959H35.7281V25.7182H38.2459V23.1959Z" fill="#3D3730"/>
<path d="M28.1764 23.1959H25.6586V25.7182H28.1764V23.1959Z" fill="#A1664C"/>
<path d="M35.7282 23.1959H33.2104V25.7182H35.7282V23.1959Z" fill="#FFCB05"/>
<path d="M33.2119 23.1959H30.6942V25.7182H33.2119V23.1959Z" fill="#FFCB05"/>
<path d="M23.1424 23.1959H20.6246V25.7182H23.1424V23.1959Z" fill="#C37A5B"/>
<path d="M18.1084 23.1959H15.5906V25.7182H18.1084V23.1959Z" fill="#3D3730"/>
<path d="M20.6262 23.1959H18.1084V25.7182H20.6262V23.1959Z" fill="#3D3730"/>
<path d="M45.7978 23.1959H43.28V25.7182H45.7978V23.1959Z" fill="#FFCB05"/>
<path d="M55.8673 23.1959H53.3495V25.7182H55.8673V23.1959Z" fill="#A1664C"/>
<path d="M58.3835 23.1959H55.8657V25.7182H58.3835V23.1959Z" fill="#A1664C"/>
<path d="M53.3495 23.1959H50.8317V25.7182H53.3495V23.1959Z" fill="#FFCB05"/>
<path d="M40.7638 23.1959H38.246V25.7182H40.7638V23.1959Z" fill="#89503A"/>
<path d="M60.9013 23.1959H58.3835V25.7182H60.9013V23.1959Z" fill="#89503A"/>
<path d="M43.2799 23.1959H40.7621V25.7182H43.2799V23.1959Z" fill="#3D3730"/>
<path d="M50.8317 23.1959H48.3139V25.7182H50.8317V23.1959Z" fill="#FFCB05"/>
<path d="M13.0744 23.1959H10.5566V25.7182H13.0744V23.1959Z" fill="#3D3730"/>
<path d="M48.3155 23.1959H45.7977V25.7182H48.3155V23.1959Z" fill="#FFCB05"/>
<path d="M25.6602 23.1959H23.1424V25.7182H25.6602V23.1959Z" fill="#C37A5B"/>
<path d="M63.4191 23.1959H60.9013V25.7182H63.4191V23.1959Z" fill="#A1664C"/>
<path d="M23.1424 20.6736H20.6246V23.1959H23.1424V20.6736Z" fill="#3D3730"/>
<path d="M38.2459 20.6736H35.7281V23.1959H38.2459V20.6736Z" fill="#C37A5B"/>
<path d="M40.7638 20.6736H38.246V23.1959H40.7638V20.6736Z" fill="#A1664C"/>
<path d="M43.2799 20.6736H40.7621V23.1959H43.2799V20.6736Z" fill="#C37A5B"/>
<path d="M45.7978 20.6736H43.28V23.1959H45.7978V20.6736Z" fill="#3D3730"/>
<path d="M28.1764 20.6736H25.6586V23.1959H28.1764V20.6736Z" fill="#C37A5B"/>
<path d="M30.6942 20.6736H28.1764V23.1959H30.6942V20.6736Z" fill="#A1664C"/>
<path d="M35.7282 20.6736H33.2104V23.1959H35.7282V20.6736Z" fill="#3D3730"/>
<path d="M25.6602 20.6736H23.1424V23.1959H25.6602V20.6736Z" fill="#3D3730"/>
<path d="M33.2119 20.6736H30.6942V23.1959H33.2119V20.6736Z" fill="#89503A"/>
<path d="M48.3155 20.6736H45.7977V23.1959H48.3155V20.6736Z" fill="#89503A"/>
<path d="M53.3495 20.6736H50.8317V23.1959H53.3495V20.6736Z" fill="#A1664C"/>
<path d="M63.4191 20.6736H60.9013V23.1959H63.4191V20.6736Z" fill="#A1664C"/>
<path d="M65.9353 20.6736H63.4175V23.1959H65.9353V20.6736Z" fill="#3D3730"/>
<path d="M60.9013 20.6736H58.3835V23.1959H60.9013V20.6736Z" fill="#A1664C"/>
<path d="M55.8673 20.6736H53.3495V23.1959H55.8673V20.6736Z" fill="#A1664C"/>
<path d="M50.8317 20.6736H48.3139V23.1959H50.8317V20.6736Z" fill="#89503A"/>
<path d="M58.3835 20.6736H55.8657V23.1959H58.3835V20.6736Z" fill="#89503A"/>
<path d="M60.9013 25.7166H58.3835V28.2389H60.9013V25.7166Z" fill="#A1664C"/>
<path d="M63.4191 25.7166H60.9013V28.2389H63.4191V25.7166Z" fill="#A1664C"/>
<path d="M45.7978 25.7166H43.28V28.2389H45.7978V25.7166Z" fill="#FFCB05"/>
<path d="M65.9353 25.7166H63.4175V28.2389H65.9353V25.7166Z" fill="#A1664C"/>
<path d="M58.3835 25.7166H55.8657V28.2389H58.3835V25.7166Z" fill="#A1664C"/>
<path d="M50.8317 25.7166H48.3139V28.2389H50.8317V25.7166Z" fill="#FFCB05"/>
<path d="M55.8673 25.7166H53.3495V28.2389H55.8673V25.7166Z" fill="#A1664C"/>
<path d="M48.3155 25.7166H45.7977V28.2389H48.3155V25.7166Z" fill="#3D3730"/>
<path d="M53.3495 25.7166H50.8317V28.2389H53.3495V25.7166Z" fill="#FFCB05"/>
<path d="M68.4531 25.7166H65.9353V28.2389H68.4531V25.7166Z" fill="#3D3730"/>
<path d="M70.9693 43.3694H68.4515V45.8917H70.9693V43.3694Z" fill="#3D3730"/>
<path d="M70.9693 40.8471H68.4515V43.3694H70.9693V40.8471Z" fill="#89503A"/>
<path d="M70.9693 35.8041H68.4515V38.3264H70.9693V35.8041Z" fill="#A1664C"/>
<path d="M3.00486 35.8041H0.487061V38.3264H3.00486V35.8041Z" fill="#3D3730"/>
<path d="M70.9693 33.2818H68.4515V35.8041H70.9693V33.2818Z" fill="#3D3730"/>
<path d="M70.9693 30.7612H68.4515V33.2835H70.9693V30.7612Z" fill="#C37A5B"/>
<path d="M70.9693 28.2388H68.4515V30.7611H70.9693V28.2388Z" fill="#3D3730"/>
<path d="M23.1424 25.7166H20.6246V28.2389H23.1424V25.7166Z" fill="#A1664C"/>
<path d="M43.2799 25.7166H40.7621V28.2389H43.2799V25.7166Z" fill="#FFCB05"/>
<path d="M10.5566 25.7166H8.03882V28.2389H10.5566V25.7166Z" fill="#3D3730"/>
<path d="M13.0744 25.7166H10.5566V28.2389H13.0744V25.7166Z" fill="#C37A5B"/>
<path d="M15.5906 25.7166H13.0728V28.2389H15.5906V25.7166Z" fill="#C37A5B"/>
<path d="M18.1084 25.7166H15.5906V28.2389H18.1084V25.7166Z" fill="#C37A5B"/>
<path d="M65.9353 23.1959H63.4175V25.7182H65.9353V23.1959Z" fill="#C37A5B"/>
<path d="M3.00486 30.7612H0.487061V33.2835H3.00486V30.7612Z" fill="#3D3730"/>
<path d="M8.03885 25.7166H5.52106V28.2389H8.03885V25.7166Z" fill="#3D3730"/>
<path d="M35.7282 25.7166H33.2104V28.2389H35.7282V25.7166Z" fill="#3D3730"/>
<path d="M33.2119 25.7166H30.6942V28.2389H33.2119V25.7166Z" fill="#FFCB05"/>
<path d="M38.2459 25.7166H35.7281V28.2389H38.2459V25.7166Z" fill="#FFCB05"/>
<path d="M40.7638 25.7166H38.246V28.2389H40.7638V25.7166Z" fill="#623C2A"/>
<path d="M25.6602 25.7166H23.1424V28.2389H25.6602V25.7166Z" fill="#A1664C"/>
<path d="M20.6262 25.7166H18.1084V28.2389H20.6262V25.7166Z" fill="#C37A5B"/>
<path d="M30.6942 25.7166H28.1764V28.2389H30.6942V25.7166Z" fill="#FFCB05"/>
<path d="M28.1764 25.7166H25.6586V28.2389H28.1764V25.7166Z" fill="#A1664C"/>
<path d="M70.9693 38.3264H68.4515V40.8487H70.9693V38.3264Z" fill="#3D3730"/>
<path d="M3.00486 33.2818H0.487061V35.8041H3.00486V33.2818Z" fill="#3D3730"/>
<path d="M73.487 30.7612H70.9692V33.2835H73.487V30.7612Z" fill="#3D3730"/>
<path d="M73.487 35.8041H70.9692V38.3264H73.487V35.8041Z" fill="#3D3730"/>
<path d="M68.4531 23.1959H65.9353V25.7182H68.4531V23.1959Z" fill="#3D3730"/>
<path d="M73.487 40.8471H70.9692V43.3694H73.487V40.8471Z" fill="#3D3730"/>
<path d="M43.2799 15.6306H40.7621V18.1529H43.2799V15.6306Z" fill="#C37A5B"/>
<path d="M45.7978 15.6306H43.28V18.1529H45.7978V15.6306Z" fill="#C37A5B"/>
<path d="M40.7638 15.6306H38.246V18.1529H40.7638V15.6306Z" fill="#C37A5B"/>
<path d="M50.8317 15.6306H48.3139V18.1529H50.8317V15.6306Z" fill="#C37A5B"/>
<path d="M48.3155 15.6306H45.7977V18.1529H48.3155V15.6306Z" fill="#C37A5B"/>
<path d="M38.2459 15.6306H35.7281V18.1529H38.2459V15.6306Z" fill="#C37A5B"/>
<path d="M33.2119 15.6306H30.6942V18.1529H33.2119V15.6306Z" fill="#C37A5B"/>
<path d="M53.3495 15.6306H50.8317V18.1529H53.3495V15.6306Z" fill="#C37A5B"/>
<path d="M30.6942 15.6306H28.1764V18.1529H30.6942V15.6306Z" fill="#3D3730"/>
<path d="M35.7282 15.6306H33.2104V18.1529H35.7282V15.6306Z" fill="#C37A5B"/>
<path d="M63.4191 15.6306H60.9013V18.1529H63.4191V15.6306Z" fill="#A1664C"/>
<path d="M65.9353 15.6306H63.4175V18.1529H65.9353V15.6306Z" fill="#3D3730"/>
<path d="M60.9013 15.6306H58.3835V18.1529H60.9013V15.6306Z" fill="#A1664C"/>
<path d="M58.3835 15.6306H55.8657V18.1529H58.3835V15.6306Z" fill="#A1664C"/>
<path d="M55.8673 15.6306H53.3495V18.1529H55.8673V15.6306Z" fill="#A1664C"/>
<path d="M65.9353 18.1513H63.4175V20.6736H65.9353V18.1513Z" fill="#3D3730"/>
<path d="M58.3835 18.1513H55.8657V20.6736H58.3835V18.1513Z" fill="#A1664C"/>
<path d="M63.4191 18.1513H60.9013V20.6736H63.4191V18.1513Z" fill="#A1664C"/>
<path d="M55.8673 18.1513H53.3495V20.6736H55.8673V18.1513Z" fill="#A1664C"/>
<path d="M60.9013 18.1513H58.3835V20.6736H60.9013V18.1513Z" fill="#A1664C"/>
<path d="M53.3495 18.1513H50.8317V20.6736H53.3495V18.1513Z" fill="#3D3730"/>
<path d="M28.1764 18.1513H25.6586V20.6736H28.1764V18.1513Z" fill="#3D3730"/>
<path d="M45.7978 18.1513H43.28V20.6736H45.7978V18.1513Z" fill="#C37A5B"/>
<path d="M48.3155 18.1513H45.7977V20.6736H48.3155V18.1513Z" fill="#3D3730"/>
<path d="M30.6942 18.1513H28.1764V20.6736H30.6942V18.1513Z" fill="#3D3730"/>
<path d="M50.8317 18.1513H48.3139V20.6736H50.8317V18.1513Z" fill="#3D3730"/>
<path d="M43.2799 18.1513H40.7621V20.6736H43.2799V18.1513Z" fill="#A1664C"/>
<path d="M33.2119 18.1513H30.6942V20.6736H33.2119V18.1513Z" fill="#3D3730"/>
<path d="M40.7638 18.1513H38.246V20.6736H40.7638V18.1513Z" fill="#A1664C"/>
<path d="M35.7282 18.1513H33.2104V20.6736H35.7282V18.1513Z" fill="#C37A5B"/>
<path d="M38.2459 18.1513H35.7281V20.6736H38.2459V18.1513Z" fill="#A1664C"/>
<path d="M55.8673 48.4124H53.3495V50.9347H55.8673V48.4124Z" fill="#A1664C"/>
<path d="M55.8673 40.8471H53.3495V43.3694H55.8673V40.8471Z" fill="#6B2827"/>
<path d="M50.8317 40.8471H48.3139V43.3694H50.8317V40.8471Z" fill="#6B2827"/>
<path d="M55.8673 43.3694H53.3495V45.8917H55.8673V43.3694Z" fill="#AC4243"/>
<path d="M55.8673 45.8917H53.3495V48.414H55.8673V45.8917Z" fill="#3D3730"/>
<path d="M53.3495 40.8471H50.8317V43.3694H53.3495V40.8471Z" fill="#D9C9AE"/>
<path d="M40.7638 40.8471H38.246V43.3694H40.7638V40.8471Z" fill="#3D3730"/>
<path d="M48.3155 40.8471H45.7977V43.3694H48.3155V40.8471Z" fill="#D9C9AE"/>
<path d="M43.2815 40.8471H40.7637V43.3694H43.2815V40.8471Z" fill="#3D3730"/>
<path d="M53.3495 43.3694H50.8317V45.8917H53.3495V43.3694Z" fill="#D9C9AE"/>
<path d="M55.8673 55.9777H53.3495V58.5H55.8673V55.9777Z" fill="#3D3730"/>
<path d="M55.8673 50.9347H53.3495V53.457H55.8673V50.9347Z" fill="#A1664C"/>
<path d="M38.2459 40.8471H35.7281V43.3694H38.2459V40.8471Z" fill="#3D3730"/>
<path d="M55.8673 53.457H53.3495V55.9793H55.8673V53.457Z" fill="#89503A"/>
<path d="M18.1084 48.4124H15.5906V50.9347H18.1084V48.4124Z" fill="#3D3730"/>
<path d="M18.1084 53.457H15.5906V55.9793H18.1084V53.457Z" fill="#3D3730"/>
<path d="M18.1084 50.9347H15.5906V53.457H18.1084V50.9347Z" fill="#A1664C"/>
<path d="M30.6942 40.8471H28.1764V43.3694H30.6942V40.8471Z" fill="#3D3730"/>
<path d="M35.7282 40.8471H33.2104V43.3694H35.7282V40.8471Z" fill="#3D3730"/>
<path d="M28.1764 40.8471H25.6586V43.3694H28.1764V40.8471Z" fill="#3D3730"/>
<path d="M18.1084 45.8917H15.5906V48.414H18.1084V45.8917Z" fill="#D9C9AE"/>
<path d="M33.2119 40.8471H30.6942V43.3694H33.2119V40.8471Z" fill="#3D3730"/>
<path d="M25.6602 40.8471H23.1424V43.3694H25.6602V40.8471Z" fill="#3D3730"/>
<path d="M18.1084 40.8471H15.5906V43.3694H18.1084V40.8471Z" fill="#3D3730"/>
<path d="M18.1084 43.3694H15.5906V45.8917H18.1084V43.3694Z" fill="#D9C9AE"/>
<path d="M23.1424 40.8471H20.6246V43.3694H23.1424V40.8471Z" fill="#3D3730"/>
<path d="M20.6262 40.8471H18.1084V43.3694H20.6262V40.8471Z" fill="#3D3730"/>
<path d="M20.6262 45.8917H18.1084V48.414H20.6262V45.8917Z" fill="#AC4243"/>
<path d="M20.6262 43.3694H18.1084V45.8917H20.6262V43.3694Z" fill="#6B2827"/>
<path d="M25.6602 43.3694H23.1424V45.8917H25.6602V43.3694Z" fill="#6B2827"/>
<path d="M23.1424 43.3694H20.6246V45.8917H23.1424V43.3694Z" fill="#D9C9AE"/>
<path d="M20.6262 48.4124H18.1084V50.9347H20.6262V48.4124Z" fill="#3D3730"/>
<path d="M28.1764 43.3694H25.6586V45.8917H28.1764V43.3694Z" fill="#D9C9AE"/>
<path d="M20.6262 53.457H18.1084V55.9793H20.6262V53.457Z" fill="#89503A"/>
<path d="M20.6262 50.9347H18.1084V53.457H20.6262V50.9347Z" fill="#A1664C"/>
<path d="M20.6262 55.9777H18.1084V58.5H20.6262V55.9777Z" fill="#3D3730"/>
<path d="M43.2815 43.3694H40.7637V45.8917H43.2815V43.3694Z" fill="#D9C9AE"/>
<path d="M30.6942 43.3694H28.1764V45.8917H30.6942V43.3694Z" fill="#6B2827"/>
<path d="M50.8317 43.3694H48.3139V45.8917H50.8317V43.3694Z" fill="#AC4243"/>
<path d="M45.7978 43.3694H43.28V45.8917H45.7978V43.3694Z" fill="#6B2827"/>
<path d="M40.7638 43.3694H38.246V45.8917H40.7638V43.3694Z" fill="#6B2827"/>
<path d="M33.2119 43.3694H30.6942V45.8917H33.2119V43.3694Z" fill="#D9C9AE"/>
<path d="M35.7282 43.3694H33.2104V45.8917H35.7282V43.3694Z" fill="#6B2827"/>
<path d="M38.2459 43.3694H35.7281V45.8917H38.2459V43.3694Z" fill="#D9C9AE"/>
<path d="M48.3155 43.3694H45.7977V45.8917H48.3155V43.3694Z" fill="#D9C9AE"/>
<path d="M45.7978 40.8471H43.28V43.3694H45.7978V40.8471Z" fill="#3D3730"/>
<path d="M15.5906 48.4124H13.0728V50.9347H15.5906V48.4124Z" fill="#3D3730"/>
<path d="M15.5906 38.3264H13.0728V40.8487H15.5906V38.3264Z" fill="#89503A"/>
<path d="M15.5906 50.9347H13.0728V53.457H15.5906V50.9347Z" fill="#A1664C"/>
<path d="M15.5906 43.3694H13.0728V45.8917H15.5906V43.3694Z" fill="#6B2827"/>
<path d="M15.5906 40.8471H13.0728V43.3694H15.5906V40.8471Z" fill="#3D3730"/>
<path d="M15.5906 45.8917H13.0728V48.414H15.5906V45.8917Z" fill="#AC4243"/>
<path d="M15.5906 53.457H13.0728V55.9793H15.5906V53.457Z" fill="#3D3730"/>
<path d="M38.2459 38.3264H35.7281V40.8487H38.2459V38.3264Z" fill="#A1664C"/>
<path d="M30.6942 38.3264H28.1764V40.8487H30.6942V38.3264Z" fill="#A1664C"/>
<path d="M35.7282 38.3264H33.2104V40.8487H35.7282V38.3264Z" fill="#A1664C"/>
<path d="M33.2119 38.3264H30.6942V40.8487H33.2119V38.3264Z" fill="#A1664C"/>
<path d="M25.6602 38.3264H23.1424V40.8487H25.6602V38.3264Z" fill="#A1664C"/>
<path d="M23.1424 38.3264H20.6246V40.8487H23.1424V38.3264Z" fill="#A1664C"/>
<path d="M40.7638 38.3264H38.246V40.8487H40.7638V38.3264Z" fill="#A1664C"/>
<path d="M28.1764 38.3264H25.6586V40.8487H28.1764V38.3264Z" fill="#A1664C"/>
<path d="M18.1084 38.3264H15.5906V40.8487H18.1084V38.3264Z" fill="#3D3730"/>
<path d="M20.6262 38.3264H18.1084V40.8487H20.6262V38.3264Z" fill="#89503A"/>
<path d="M43.2799 38.3264H40.7621V40.8487H43.2799V38.3264Z" fill="#A1664C"/>
<path d="M58.3835 40.8471H55.8657V43.3694H58.3835V40.8471Z" fill="#AC4243"/>
<path d="M55.8673 38.3264H53.3495V40.8487H55.8673V38.3264Z" fill="#3D3730"/>
<path d="M58.3835 38.3264H55.8657V40.8487H58.3835V38.3264Z" fill="#6B2827"/>
<path d="M58.3835 45.8917H55.8657V48.414H58.3835V45.8917Z" fill="#89503A"/>
<path d="M45.7978 38.3264H43.28V40.8487H45.7978V38.3264Z" fill="#C37A5B"/>
<path d="M58.3835 48.4124H55.8657V50.9347H58.3835V48.4124Z" fill="#A1664C"/>
<path d="M48.3155 38.3264H45.7977V40.8487H48.3155V38.3264Z" fill="#3D3730"/>
<path d="M50.8317 38.3264H48.3139V40.8487H50.8317V38.3264Z" fill="#3D3730"/>
<path d="M53.3495 38.3264H50.8317V40.8487H53.3495V38.3264Z" fill="#3D3730"/>
<path d="M58.3835 43.3694H55.8657V45.8917H58.3835V43.3694Z" fill="#3D3730"/>
<path d="M58.3835 50.9347H55.8657V53.457H58.3835V50.9347Z" fill="#89503A"/>
<path d="M58.3835 53.457H55.8657V55.9793H58.3835V53.457Z" fill="#3D3730"/>
<path d="M28.1764 50.9347H25.6586V53.457H28.1764V50.9347Z" fill="#A1664C"/>
<path d="M28.1764 53.457H25.6586V55.9793H28.1764V53.457Z" fill="#89503A"/>
<path d="M30.6942 50.9347H28.1764V53.457H30.6942V50.9347Z" fill="#A1664C"/>
<path d="M33.2119 50.9347H30.6942V53.457H33.2119V50.9347Z" fill="#A1664C"/>
<path d="M28.1764 55.9777H25.6586V58.5H28.1764V55.9777Z" fill="#3D3730"/>
<path d="M35.7282 50.9347H33.2104V53.457H35.7282V50.9347Z" fill="#A1664C"/>
<path d="M38.2459 50.9347H35.7281V53.457H38.2459V50.9347Z" fill="#A1664C"/>
<path d="M45.7978 55.9777H43.28V58.5H45.7978V55.9777Z" fill="#3D3730"/>
<path d="M40.7638 50.9347H38.246V53.457H40.7638V50.9347Z" fill="#A1664C"/>
<path d="M43.2815 50.9347H40.7637V53.457H43.2815V50.9347Z" fill="#A1664C"/>
<path d="M45.7978 50.9347H43.28V53.457H45.7978V50.9347Z" fill="#A1664C"/>
<path d="M45.7978 53.457H43.28V55.9793H45.7978V53.457Z" fill="#89503A"/>
<path d="M48.3155 55.9777H45.7977V58.5H48.3155V55.9777Z" fill="#3D3730"/>
<path d="M48.3155 53.457H45.7977V55.9793H48.3155V53.457Z" fill="#89503A"/>
<path d="M53.3495 45.8917H50.8317V48.414H53.3495V45.8917Z" fill="#3D3730"/>
<path d="M48.3155 50.9347H45.7977V53.457H48.3155V50.9347Z" fill="#A1664C"/>
<path d="M45.7978 48.4124H43.28V50.9347H45.7978V48.4124Z" fill="#3D3730"/>
<path d="M48.3155 48.4124H45.7977V50.9347H48.3155V48.4124Z" fill="#3D3730"/>
<path d="M43.2815 48.4124H40.7637V50.9347H43.2815V48.4124Z" fill="#3D3730"/>
<path d="M40.7638 48.4124H38.246V50.9347H40.7638V48.4124Z" fill="#3D3730"/>
<path d="M33.2119 55.9777H30.6942V58.5H33.2119V55.9777Z" fill="#3D3730"/>
<path d="M38.2459 55.9777H35.7281V58.5H38.2459V55.9777Z" fill="#3D3730"/>
<path d="M40.7638 55.9777H38.246V58.5H40.7638V55.9777Z" fill="#3D3730"/>
<path d="M35.7282 55.9777H33.2104V58.5H35.7282V55.9777Z" fill="#3D3730"/>
<path d="M30.6942 55.9777H28.1764V58.5H30.6942V55.9777Z" fill="#3D3730"/>
<path d="M38.2459 53.457H35.7281V55.9793H38.2459V53.457Z" fill="#89503A"/>
<path d="M43.2815 53.457H40.7637V55.9793H43.2815V53.457Z" fill="#89503A"/>
<path d="M43.2799 55.9777H40.7621V58.5H43.2799V55.9777Z" fill="#3D3730"/>
<path d="M35.7282 53.457H33.2104V55.9793H35.7282V53.457Z" fill="#89503A"/>
<path d="M33.2119 53.457H30.6942V55.9793H33.2119V53.457Z" fill="#89503A"/>
<path d="M30.6942 53.457H28.1764V55.9793H30.6942V53.457Z" fill="#89503A"/>
<path d="M40.7638 53.457H38.246V55.9793H40.7638V53.457Z" fill="#89503A"/>
<path d="M28.1764 45.8917H25.6586V48.414H28.1764V45.8917Z" fill="#D9C9AE"/>
<path d="M30.6942 45.8917H28.1764V48.414H30.6942V45.8917Z" fill="#AC4243"/>
<path d="M33.2119 45.8917H30.6942V48.414H33.2119V45.8917Z" fill="#D9C9AE"/>
<path d="M25.6602 45.8917H23.1424V48.414H25.6602V45.8917Z" fill="#AC4243"/>
<path d="M23.1424 48.4124H20.6246V50.9347H23.1424V48.4124Z" fill="#3D3730"/>
<path d="M23.1424 45.8917H20.6246V48.414H23.1424V45.8917Z" fill="#D9C9AE"/>
<path d="M23.1424 50.9347H20.6246V53.457H23.1424V50.9347Z" fill="#A1664C"/>
<path d="M23.1424 53.457H20.6246V55.9793H23.1424V53.457Z" fill="#89503A"/>
<path d="M23.1424 55.9777H20.6246V58.5H23.1424V55.9777Z" fill="#3D3730"/>
<path d="M35.7282 45.8917H33.2104V48.414H35.7282V45.8917Z" fill="#AC4243"/>
<path d="M53.3495 53.457H50.8317V55.9793H53.3495V53.457Z" fill="#89503A"/>
<path d="M53.3495 55.9777H50.8317V58.5H53.3495V55.9777Z" fill="#3D3730"/>
<path d="M53.3495 50.9347H50.8317V53.457H53.3495V50.9347Z" fill="#A1664C"/>
<path d="M53.3495 48.4124H50.8317V50.9347H53.3495V48.4124Z" fill="#A1664C"/>
<path d="M38.2459 45.8917H35.7281V48.414H38.2459V45.8917Z" fill="#D9C9AE"/>
<path d="M38.2459 48.4124H35.7281V50.9347H38.2459V48.4124Z" fill="#3D3730"/>
<path d="M25.6602 55.9777H23.1424V58.5H25.6602V55.9777Z" fill="#3D3730"/>
<path d="M30.6942 48.4124H28.1764V50.9347H30.6942V48.4124Z" fill="#3D3730"/>
<path d="M33.2119 48.4124H30.6942V50.9347H33.2119V48.4124Z" fill="#3D3730"/>
<path d="M35.7282 48.4124H33.2104V50.9347H35.7282V48.4124Z" fill="#3D3730"/>
<path d="M28.1764 48.4124H25.6586V50.9347H28.1764V48.4124Z" fill="#3D3730"/>
<path d="M25.6602 53.457H23.1424V55.9793H25.6602V53.457Z" fill="#89503A"/>
<path d="M25.6602 48.4124H23.1424V50.9347H25.6602V48.4124Z" fill="#3D3730"/>
<path d="M25.6602 50.9347H23.1424V53.457H25.6602V50.9347Z" fill="#A1664C"/>
<path d="M50.8317 50.9347H48.3139V53.457H50.8317V50.9347Z" fill="#A1664C"/>
<path d="M50.8317 48.4124H48.3139V50.9347H50.8317V48.4124Z" fill="#89503A"/>
<path d="M50.8317 55.9777H48.3139V58.5H50.8317V55.9777Z" fill="#3D3730"/>
<path d="M50.8317 53.457H48.3139V55.9793H50.8317V53.457Z" fill="#89503A"/>
<path d="M50.8317 45.8917H48.3139V48.414H50.8317V45.8917Z" fill="#3D3730"/>
<path d="M40.7638 45.8917H38.246V48.414H40.7638V45.8917Z" fill="#AC4243"/>
<path d="M43.2815 45.8917H40.7637V48.414H43.2815V45.8917Z" fill="#D9C9AE"/>
<path d="M48.3155 45.8917H45.7977V48.414H48.3155V45.8917Z" fill="#D9C9AE"/>
<path d="M45.7978 45.8917H43.28V48.414H45.7978V45.8917Z" fill="#AC4243"/>
<path d="M8.03885 30.7612H5.52106V33.2835H8.03885V30.7612Z" fill="#A1664C"/>
<path d="M8.03885 33.2818H5.52106V35.8041H8.03885V33.2818Z" fill="#A1664C"/>
<path d="M10.5566 30.7612H8.03882V33.2835H10.5566V30.7612Z" fill="#3D3730"/>
<path d="M13.0744 30.7612H10.5566V33.2835H13.0744V30.7612Z" fill="#633916"/>
<path d="M8.03885 38.3264H5.52106V40.8487H8.03885V38.3264Z" fill="#89503A"/>
<path d="M8.03885 40.8471H5.52106V43.3694H8.03885V40.8471Z" fill="#3D3730"/>
<path d="M15.5922 30.7612H13.0744V33.2835H15.5922V30.7612Z" fill="#633916"/>
<path d="M8.03885 35.8041H5.52106V38.3264H8.03885V35.8041Z" fill="#A1664C"/>
<path d="M65.9353 48.4124H63.4175V50.9347H65.9353V48.4124Z" fill="#3D3730"/>
<path d="M65.9353 40.8471H63.4175V43.3694H65.9353V40.8471Z" fill="#A1664C"/>
<path d="M65.9353 38.3264H63.4175V40.8487H65.9353V38.3264Z" fill="#A1664C"/>
<path d="M65.9353 35.8041H63.4175V38.3264H65.9353V35.8041Z" fill="#89503A"/>
<path d="M65.9353 45.8917H63.4175V48.414H65.9353V45.8917Z" fill="#89503A"/>
<path d="M65.9353 43.3694H63.4175V45.8917H65.9353V43.3694Z" fill="#A1664C"/>
<path d="M48.3155 30.7612H45.7977V33.2835H48.3155V30.7612Z" fill="#89503A"/>
<path d="M30.6942 30.7612H28.1764V33.2835H30.6942V30.7612Z" fill="#A1664C"/>
<path d="M43.2799 30.7612H40.7621V33.2835H43.2799V30.7612Z" fill="#89503A"/>
<path d="M33.2119 30.7612H30.6942V33.2835H33.2119V30.7612Z" fill="#89503A"/>
<path d="M38.2459 30.7612H35.7281V33.2835H38.2459V30.7612Z" fill="#89503A"/>
<path d="M40.7638 30.7612H38.246V33.2835H40.7638V30.7612Z" fill="#A1664C"/>
<path d="M35.7298 30.7612H33.212V33.2835H35.7298V30.7612Z" fill="#89503A"/>
<path d="M23.1424 30.7612H20.6246V33.2835H23.1424V30.7612Z" fill="#633916"/>
<path d="M65.9353 33.2818H63.4175V35.8041H65.9353V33.2818Z" fill="#A1664C"/>
<path d="M28.1764 30.7612H25.6586V33.2835H28.1764V30.7612Z" fill="#A1664C"/>
<path d="M25.6602 30.7612H23.1424V33.2835H25.6602V30.7612Z" fill="#3D3730"/>
<path d="M20.6262 30.7612H18.1084V33.2835H20.6262V30.7612Z" fill="#633916"/>
<path d="M45.7978 30.7612H43.28V33.2835H45.7978V30.7612Z" fill="#89503A"/>
<path d="M63.4191 30.7612H60.9013V33.2835H63.4191V30.7612Z" fill="#A1664C"/>
<path d="M65.9353 30.7612H63.4175V33.2835H65.9353V30.7612Z" fill="#A1664C"/>
<path d="M58.3835 30.7612H55.8657V33.2835H58.3835V30.7612Z" fill="#A1664C"/>
<path d="M60.9013 30.7612H58.3835V33.2835H60.9013V30.7612Z" fill="#A1664C"/>
<path d="M55.8673 30.7612H53.3495V33.2835H55.8673V30.7612Z" fill="#A1664C"/>
<path d="M18.1084 30.7612H15.5906V33.2835H18.1084V30.7612Z" fill="#633916"/>
<path d="M50.8317 30.7612H48.3139V33.2835H50.8317V30.7612Z" fill="#89503A"/>
<path d="M53.3495 30.7612H50.8317V33.2835H53.3495V30.7612Z" fill="#A1664C"/>
<path d="M13.0744 28.2388H10.5566V30.7611H13.0744V28.2388Z" fill="#3D3730"/>
<path d="M10.5566 28.2388H8.03882V30.7611H10.5566V28.2388Z" fill="#C37A5B"/>
<path d="M18.1084 28.2388H15.5906V30.7611H18.1084V28.2388Z" fill="#3D3730"/>
<path d="M8.03885 28.2388H5.52106V30.7611H8.03885V28.2388Z" fill="#C37A5B"/>
<path d="M15.5906 28.2388H13.0728V30.7611H15.5906V28.2388Z" fill="#3D3730"/>
<path d="M5.52268 35.8041H3.00488V38.3264H5.52268V35.8041Z" fill="#89503A"/>
<path d="M5.52268 33.2818H3.00488V35.8041H5.52268V33.2818Z" fill="#A1664C"/>
<path d="M5.52268 28.2388H3.00488V30.7611H5.52268V28.2388Z" fill="#3D3730"/>
<path d="M5.52268 30.7612H3.00488V33.2835H5.52268V30.7612Z" fill="#C37A5B"/>
<path d="M5.52268 38.3264H3.00488V40.8487H5.52268V38.3264Z" fill="#3D3730"/>
<path d="M35.7282 28.2388H33.2104V30.7611H35.7282V28.2388Z" fill="#3D3730"/>
<path d="M38.2459 28.2388H35.7281V30.7611H38.2459V28.2388Z" fill="#FFCB05"/>
<path d="M40.7638 28.2388H38.246V30.7611H40.7638V28.2388Z" fill="#89503A"/>
<path d="M43.2799 28.2388H40.7621V30.7611H43.2799V28.2388Z" fill="#FFCB05"/>
<path d="M33.2119 28.2388H30.6942V30.7611H33.2119V28.2388Z" fill="#FFCB05"/>
<path d="M23.1424 28.2388H20.6246V30.7611H23.1424V28.2388Z" fill="#3D3730"/>
<path d="M25.6602 28.2388H23.1424V30.7611H25.6602V28.2388Z" fill="#C37A5B"/>
<path d="M28.178 28.2388H25.6602V30.7611H28.178V28.2388Z" fill="#A1664C"/>
<path d="M30.6942 28.2388H28.1764V30.7611H30.6942V28.2388Z" fill="#89503A"/>
<path d="M45.7978 28.2388H43.28V30.7611H45.7978V28.2388Z" fill="#FFCB05"/>
<path d="M20.6262 28.2388H18.1084V30.7611H20.6262V28.2388Z" fill="#3D3730"/>
<path d="M48.3155 28.2388H45.7977V30.7611H48.3155V28.2388Z" fill="#3D3730"/>
<path d="M68.4531 33.2818H65.9353V35.8041H68.4531V33.2818Z" fill="#A1664C"/>
<path d="M65.9353 28.2388H63.4175V30.7611H65.9353V28.2388Z" fill="#A1664C"/>
<path d="M68.4531 30.7612H65.9353V33.2835H68.4531V30.7612Z" fill="#A1664C"/>
<path d="M68.4531 28.2388H65.9353V30.7611H68.4531V28.2388Z" fill="#C37A5B"/>
<path d="M60.9013 28.2388H58.3835V30.7611H60.9013V28.2388Z" fill="#A1664C"/>
<path d="M63.4191 28.2388H60.9013V30.7611H63.4191V28.2388Z" fill="#A1664C"/>
<path d="M58.3835 28.2388H55.8657V30.7611H58.3835V28.2388Z" fill="#89503A"/>
<path d="M53.3495 28.2388H50.8317V30.7611H53.3495V28.2388Z" fill="#89503A"/>
<path d="M50.8317 28.2388H48.3139V30.7611H50.8317V28.2388Z" fill="#FFCB05"/>
<path d="M55.8673 28.2388H53.3495V30.7611H55.8673V28.2388Z" fill="#A1664C"/>
<path d="M68.4531 35.8041H65.9353V38.3264H68.4531V35.8041Z" fill="#A1664C"/>
<path d="M68.4531 38.3264H65.9353V40.8487H68.4531V38.3264Z" fill="#89503A"/>
<path d="M68.4531 40.8471H65.9353V43.3694H68.4531V40.8471Z" fill="#A1664C"/>
<path d="M68.4531 43.3694H65.9353V45.8917H68.4531V43.3694Z" fill="#89503A"/>
<path d="M68.4531 45.8917H65.9353V48.414H68.4531V45.8917Z" fill="#3D3730"/>
<path d="M13.0744 45.8917H10.5566V48.414H13.0744V45.8917Z" fill="#3D3730"/>
<path d="M13.0744 43.3694H10.5566V45.8917H13.0744V43.3694Z" fill="#3D3730"/>
<path d="M13.0744 48.4124H10.5566V50.9347H13.0744V48.4124Z" fill="#3D3730"/>
<path d="M13.0744 38.3264H10.5566V40.8487H13.0744V38.3264Z" fill="#A1664C"/>
<path d="M13.0744 40.8471H10.5566V43.3694H13.0744V40.8471Z" fill="#3D3730"/>
<path d="M13.0744 50.9347H10.5566V53.457H13.0744V50.9347Z" fill="#A1664C"/>
<path d="M13.0744 53.457H10.5566V55.9793H13.0744V53.457Z" fill="#3D3730"/>
<path d="M13.0744 35.8041H10.5566V38.3264H13.0744V35.8041Z" fill="#89503A"/>
<path d="M15.5906 35.8041H13.0728V38.3264H15.5906V35.8041Z" fill="#3D3730"/>
<path d="M60.9013 45.8917H58.3835V48.414H60.9013V45.8917Z" fill="#A1664C"/>
<path d="M60.9013 53.457H58.3835V55.9793H60.9013V53.457Z" fill="#3D3730"/>
<path d="M60.9013 48.4124H58.3835V50.9347H60.9013V48.4124Z" fill="#A1664C"/>
<path d="M60.9013 43.3694H58.3835V45.8917H60.9013V43.3694Z" fill="#89503A"/>
<path d="M60.9013 50.9347H58.3835V53.457H60.9013V50.9347Z" fill="#89503A"/>
<path d="M30.6942 35.8041H28.1764V38.3264H30.6942V35.8041Z" fill="#89503A"/>
<path d="M28.1764 35.8041H25.6586V38.3264H28.1764V35.8041Z" fill="#A1664C"/>
<path d="M33.2119 35.8041H30.6942V38.3264H33.2119V35.8041Z" fill="#A1664C"/>
<path d="M40.7638 35.8041H38.246V38.3264H40.7638V35.8041Z" fill="#89503A"/>
<path d="M38.2459 35.8041H35.7281V38.3264H38.2459V35.8041Z" fill="#A1664C"/>
<path d="M35.7282 35.8041H33.2104V38.3264H35.7282V35.8041Z" fill="#A1664C"/>
<path d="M20.6262 35.8041H18.1084V38.3264H20.6262V35.8041Z" fill="#3D3730"/>
<path d="M25.6602 35.8041H23.1424V38.3264H25.6602V35.8041Z" fill="#A1664C"/>
<path d="M18.1084 35.8041H15.5906V38.3264H18.1084V35.8041Z" fill="#633916"/>
<path d="M23.1424 35.8041H20.6246V38.3264H23.1424V35.8041Z" fill="#89503A"/>
<path d="M45.7978 35.8041H43.28V38.3264H45.7978V35.8041Z" fill="#A1664C"/>
<path d="M60.9013 35.8041H58.3835V38.3264H60.9013V35.8041Z" fill="#3D3730"/>
<path d="M55.8673 35.8041H53.3495V38.3264H55.8673V35.8041Z" fill="#C37A5B"/>
<path d="M43.2799 35.8041H40.7621V38.3264H43.2799V35.8041Z" fill="#A1664C"/>
<path d="M60.9013 38.3264H58.3835V40.8487H60.9013V38.3264Z" fill="#3D3730"/>
<path d="M58.3835 35.8041H55.8657V38.3264H58.3835V35.8041Z" fill="#3D3730"/>
<path d="M53.3495 35.8041H50.8317V38.3264H53.3495V35.8041Z" fill="#A1664C"/>
<path d="M60.9013 40.8471H58.3835V43.3694H60.9013V40.8471Z" fill="#3D3730"/>
<path d="M48.3155 35.8041H45.7977V38.3264H48.3155V35.8041Z" fill="#A1664C"/>
<path d="M50.8317 35.8041H48.3139V38.3264H50.8317V35.8041Z" fill="#A1664C"/>
<path d="M10.5566 40.8471H8.03882V43.3694H10.5566V40.8471Z" fill="#3D3730"/>
<path d="M10.5566 50.9347H8.03882V53.457H10.5566V50.9347Z" fill="#3D3730"/>
<path d="M10.5566 48.4124H8.03882V50.9347H10.5566V48.4124Z" fill="#3D3730"/>
<path d="M13.0744 33.2818H10.5566V35.8041H13.0744V33.2818Z" fill="#3D3730"/>
<path d="M63.4191 40.8471H60.9013V43.3694H63.4191V40.8471Z" fill="#A1664C"/>
<path d="M63.4191 43.3694H60.9013V45.8917H63.4191V43.3694Z" fill="#A1664C"/>
<path d="M63.4191 45.8917H60.9013V48.414H63.4191V45.8917Z" fill="#A1664C"/>
<path d="M63.4191 50.9347H60.9013V53.457H63.4191V50.9347Z" fill="#3D3730"/>
<path d="M58.3835 33.2818H55.8657V35.8041H58.3835V33.2818Z" fill="#C37A5B"/>
<path d="M63.4191 35.8041H60.9013V38.3264H63.4191V35.8041Z" fill="#A1664C"/>
<path d="M63.4191 33.2818H60.9013V35.8041H63.4191V33.2818Z" fill="#A1664C"/>
<path d="M63.4191 38.3264H60.9013V40.8487H63.4191V38.3264Z" fill="#A1664C"/>
<path d="M60.9013 33.2818H58.3835V35.8041H60.9013V33.2818Z" fill="#C37A5B"/>
<path d="M63.4191 48.4124H60.9013V50.9347H63.4191V48.4124Z" fill="#89503A"/>
<path d="M33.2119 33.2818H30.6942V35.8041H33.2119V33.2818Z" fill="#A1664C"/>
<path d="M20.6262 33.2818H18.1084V35.8041H20.6262V33.2818Z" fill="#633916"/>
<path d="M23.1424 33.2818H20.6246V35.8041H23.1424V33.2818Z" fill="#3D3730"/>
<path d="M18.1084 33.2818H15.5906V35.8041H18.1084V33.2818Z" fill="#633916"/>
<path d="M25.6602 33.2818H23.1424V35.8041H25.6602V33.2818Z" fill="#89503A"/>
<path d="M28.1764 33.2818H25.6586V35.8041H28.1764V33.2818Z" fill="#A1664C"/>
<path d="M30.6942 33.2818H28.1764V35.8041H30.6942V33.2818Z" fill="#A1664C"/>
<path d="M10.5566 35.8041H8.03882V38.3264H10.5566V35.8041Z" fill="#A1664C"/>
<path d="M15.5906 33.2818H13.0728V35.8041H15.5906V33.2818Z" fill="#633916"/>
<path d="M10.5566 33.2818H8.03882V35.8041H10.5566V33.2818Z" fill="#89503A"/>
<path d="M35.7282 33.2818H33.2104V35.8041H35.7282V33.2818Z" fill="#A1664C"/>
<path d="M45.7978 33.2818H43.28V35.8041H45.7978V33.2818Z" fill="#A1664C"/>
<path d="M48.3155 33.2818H45.7977V35.8041H48.3155V33.2818Z" fill="#A1664C"/>
<path d="M50.8317 33.2818H48.3139V35.8041H50.8317V33.2818Z" fill="#A1664C"/>
<path d="M53.3495 33.2818H50.8317V35.8041H53.3495V33.2818Z" fill="#A1664C"/>
<path d="M55.8673 33.2818H53.3495V35.8041H55.8673V33.2818Z" fill="#A1664C"/>
<path d="M38.2459 33.2818H35.7281V35.8041H38.2459V33.2818Z" fill="#A1664C"/>
<path d="M10.5566 38.3264H8.03882V40.8487H10.5566V38.3264Z" fill="#A1664C"/>
<path d="M40.7638 33.2818H38.246V35.8041H40.7638V33.2818Z" fill="#A1664C"/>
<path d="M43.2799 33.2818H40.7621V35.8041H43.2799V33.2818Z" fill="#A1664C"/>
<path d="M38.2459 0.5H35.7281V3.0223H38.2459V0.5Z" fill="#3D3730"/>
<path d="M58.3835 0.5H55.8657V3.0223H58.3835V0.5Z" fill="#3D3730"/>
<path d="M55.8673 3.02229H53.3495V5.54459H55.8673V3.02229Z" fill="#3D3730"/>
<path d="M35.7282 3.02229H33.2104V5.54459H35.7282V3.02229Z" fill="#3D3730"/>
<path d="M38.2459 3.02229H35.7281V5.54459H38.2459V3.02229Z" fill="#C37A5B"/>
<path d="M40.7638 3.02229H38.246V5.54459H40.7638V3.02229Z" fill="#3D3730"/>
<path d="M58.3835 3.02229H55.8657V5.54459H58.3835V3.02229Z" fill="#C37A5B"/>
<path d="M60.9013 3.02229H58.3835V5.54459H60.9013V3.02229Z" fill="#3D3730"/>
<path d="M53.3495 10.5876H50.8317V13.1099H53.3495V10.5876Z" fill="#C37A5B"/>
<path d="M50.8317 10.5876H48.3139V13.1099H50.8317V10.5876Z" fill="#3D3730"/>
<path d="M60.9013 10.5876H58.3835V13.1099H60.9013V10.5876Z" fill="#D58282"/>
<path d="M58.3835 10.5876H55.8657V13.1099H58.3835V10.5876Z" fill="#A8595E"/>
<path d="M55.8673 10.5876H53.3495V13.1099H55.8673V10.5876Z" fill="#D58282"/>
<path d="M40.7638 10.5876H38.246V13.1099H40.7638V10.5876Z" fill="#D58282"/>
<path d="M45.7978 10.5876H43.28V13.1099H45.7978V10.5876Z" fill="#3D3730"/>
<path d="M38.2459 10.5876H35.7281V13.1099H38.2459V10.5876Z" fill="#A8595E"/>
<path d="M43.2799 10.5876H40.7621V13.1099H43.2799V10.5876Z" fill="#A1664C"/>
<path d="M63.4191 10.5876H60.9013V13.1099H63.4191V10.5876Z" fill="#A1664C"/>
<path d="M65.9353 10.5876H63.4175V13.1099H65.9353V10.5876Z" fill="#3D3730"/>
<path d="M35.7282 10.5876H33.2104V13.1099H35.7282V10.5876Z" fill="#D58282"/>
<path d="M33.2119 10.5876H30.6942V13.1099H33.2119V10.5876Z" fill="#A1664C"/>
<path d="M30.6942 10.5876H28.1764V13.1099H30.6942V10.5876Z" fill="#3D3730"/>
<path d="M38.2459 13.1083H35.7281V15.6306H38.2459V13.1083Z" fill="#D58282"/>
<path d="M40.7638 13.1083H38.246V15.6306H40.7638V13.1083Z" fill="#A8595E"/>
<path d="M35.7282 13.1083H33.2104V15.6306H35.7282V13.1083Z" fill="#D58282"/>
<path d="M45.7978 13.1083H43.28V15.6306H45.7978V13.1083Z" fill="#3D3730"/>
<path d="M43.2799 13.1083H40.7621V15.6306H43.2799V13.1083Z" fill="#3D3730"/>
<path d="M33.2119 13.1083H30.6942V15.6306H33.2119V13.1083Z" fill="#A1664C"/>
<path d="M48.3155 13.1083H45.7977V15.6306H48.3155V13.1083Z" fill="#3D3730"/>
<path d="M30.6942 13.1083H28.1764V15.6306H30.6942V13.1083Z" fill="#3D3730"/>
<path d="M50.8317 13.1083H48.3139V15.6306H50.8317V13.1083Z" fill="#3D3730"/>
<path d="M63.4191 13.1083H60.9013V15.6306H63.4191V13.1083Z" fill="#A1664C"/>
<path d="M65.9353 13.1083H63.4175V15.6306H65.9353V13.1083Z" fill="#3D3730"/>
<path d="M53.3495 13.1083H50.8317V15.6306H53.3495V13.1083Z" fill="#3D3730"/>
<path d="M55.8673 13.1083H53.3495V15.6306H55.8673V13.1083Z" fill="#A8595E"/>
<path d="M60.9013 13.1083H58.3835V15.6306H60.9013V13.1083Z" fill="#D58282"/>
<path d="M58.3835 13.1083H55.8657V15.6306H58.3835V13.1083Z" fill="#D58282"/>
<path d="M38.2459 5.54298H35.7281V8.06528H38.2459V5.54298Z" fill="#D58282"/>
<path d="M33.2119 5.54298H30.6942V8.06528H33.2119V5.54298Z" fill="#3D3730"/>
<path d="M35.7282 5.54298H33.2104V8.06528H35.7282V5.54298Z" fill="#C37A5B"/>
<path d="M53.3495 5.54298H50.8317V8.06528H53.3495V5.54298Z" fill="#3D3730"/>
<path d="M58.3835 5.54298H55.8657V8.06528H58.3835V5.54298Z" fill="#D58282"/>
<path d="M55.8673 5.54298H53.3495V8.06528H55.8673V5.54298Z" fill="#C37A5B"/>
<path d="M60.9013 5.54298H58.3835V8.06528H60.9013V5.54298Z" fill="#C37A5B"/>
<path d="M43.2799 5.54298H40.7621V8.06528H43.2799V5.54298Z" fill="#3D3730"/>
<path d="M40.7638 5.54298H38.246V8.06528H40.7638V5.54298Z" fill="#C37A5B"/>
<path d="M63.4191 5.54298H60.9013V8.06528H63.4191V5.54298Z" fill="#3D3730"/>
<path d="M65.9353 8.06529H63.4175V10.5876H65.9353V8.06529Z" fill="#3D3730"/>
<path d="M40.7638 8.06529H38.246V10.5876H40.7638V8.06529Z" fill="#A1664C"/>
<path d="M33.2119 8.06529H30.6942V10.5876H33.2119V8.06529Z" fill="#C37A5B"/>
<path d="M38.2459 8.06529H35.7281V10.5876H38.2459V8.06529Z" fill="#D58282"/>
<path d="M35.7282 8.06529H33.2104V10.5876H35.7282V8.06529Z" fill="#D58282"/>
<path d="M30.6942 8.06529H28.1764V10.5876H30.6942V8.06529Z" fill="#3D3730"/>
<path d="M63.4191 8.06529H60.9013V10.5876H63.4191V8.06529Z" fill="#C37A5B"/>
<path d="M60.9013 8.06529H58.3835V10.5876H60.9013V8.06529Z" fill="#D58282"/>
<path d="M58.3835 8.06529H55.8657V10.5876H58.3835V8.06529Z" fill="#D58282"/>
<path d="M55.8673 8.06529H53.3495V10.5876H55.8673V8.06529Z" fill="#A1664C"/>
<path d="M53.3495 8.06529H50.8317V10.5876H53.3495V8.06529Z" fill="#3D3730"/>
<path d="M43.2799 8.06529H40.7621V10.5876H43.2799V8.06529Z" fill="#3D3730"/>
</g>
<defs>
<clipPath id="clip0_196_1616">
<rect width="73" height="58" fill="white" transform="translate(0.487061 0.5)"/>
</clipPath>
</defs>
</svg>
