<svg width="79" height="59" viewBox="0 0 79 59" fill="none" xmlns="http://www.w3.org/2000/svg">
<g clip-path="url(#clip0_196_1062)">
<path d="M18.1007 18.1513H15.584V20.6736H18.1007V18.1513Z" fill="#B38F7D"/>
<path d="M33.1977 18.1513H30.681V20.6736H33.1977V18.1513Z" fill="#9D6F5F"/>
<path d="M40.7462 18.1513H38.2295V20.6736H40.7462V18.1513Z" fill="#9D6F5F"/>
<path d="M30.681 18.1513H28.1643V20.6736H30.681V18.1513Z" fill="#9D6F5F"/>
<path d="M38.2295 18.1513H35.7128V20.6736H38.2295V18.1513Z" fill="#9D6F5F"/>
<path d="M35.7128 18.1513H33.1961V20.6736H35.7128V18.1513Z" fill="#9D6F5F"/>
<path d="M25.6492 18.1513H23.1325V20.6736H25.6492V18.1513Z" fill="#9D6F5F"/>
<path d="M20.6158 18.1513H18.0991V20.6736H20.6158V18.1513Z" fill="#9D6F5F"/>
<path d="M23.1325 18.1513H20.6158V20.6736H23.1325V18.1513Z" fill="#9D6F5F"/>
<path d="M48.2947 18.1513H45.778V20.6736H48.2947V18.1513Z" fill="#9D6F5F"/>
<path d="M58.3583 18.1513H55.8416V20.6736H58.3583V18.1513Z" fill="#9D6F5F"/>
<path d="M60.875 18.1513H58.3583V20.6736H60.875V18.1513Z" fill="#9D6F5F"/>
<path d="M55.8432 18.1513H53.3265V20.6736H55.8432V18.1513Z" fill="#9D6F5F"/>
<path d="M43.2613 18.1513H40.7446V20.6736H43.2613V18.1513Z" fill="#7B5547"/>
<path d="M63.3901 18.1513H60.8734V20.6736H63.3901V18.1513Z" fill="#9D6F5F"/>
<path d="M45.778 18.1513H43.2613V20.6736H45.778V18.1513Z" fill="#3D3730"/>
<path d="M53.3265 18.1513H50.8098V20.6736H53.3265V18.1513Z" fill="#9D6F5F"/>
<path d="M15.584 18.1513H13.0673V20.6736H15.584V18.1513Z" fill="#3D3730"/>
<path d="M50.8098 18.1513H48.2931V20.6736H50.8098V18.1513Z" fill="#9D6F5F"/>
<path d="M28.1643 18.1513H25.6476V20.6736H28.1643V18.1513Z" fill="#9D6F5F"/>
<path d="M3.00376 18.1513H0.487061V20.6736H3.00376V18.1513Z" fill="#3D3730"/>
<path d="M8.03556 18.1513H5.51886V20.6736H8.03556V18.1513Z" fill="#9D6F5F"/>
<path d="M10.5522 18.1513H8.03552V20.6736H10.5522V18.1513Z" fill="#3D3730"/>
<path d="M5.52048 18.1513H3.00378V20.6736H5.52048V18.1513Z" fill="#7B5547"/>
<path d="M13.0689 18.1513H10.5522V20.6736H13.0689V18.1513Z" fill="#3D3730"/>
<path d="M10.5522 15.6306H8.03552V18.1529H10.5522V15.6306Z" fill="#C3A1A2"/>
<path d="M15.584 15.6306H13.0673V18.1529H15.584V15.6306Z" fill="#C3A1A2"/>
<path d="M13.0689 15.6306H10.5522V18.1529H13.0689V15.6306Z" fill="#C3A1A2"/>
<path d="M18.1007 15.6306H15.584V18.1529H18.1007V15.6306Z" fill="#3D3730"/>
<path d="M20.6158 15.6306H18.0991V18.1529H20.6158V15.6306Z" fill="#B38F7D"/>
<path d="M23.1325 15.6306H20.6158V18.1529H23.1325V15.6306Z" fill="#9D6F5F"/>
<path d="M65.9068 18.1513H63.3901V20.6736H65.9068V18.1513Z" fill="#B38F7D"/>
<path d="M25.6492 15.6306H23.1325V18.1529H25.6492V15.6306Z" fill="#9D6F5F"/>
<path d="M5.52048 15.6306H3.00378V18.1529H5.52048V15.6306Z" fill="#9D6F5F"/>
<path d="M3.00376 15.6306H0.487061V18.1529H3.00376V15.6306Z" fill="#3D3730"/>
<path d="M8.03556 15.6306H5.51886V18.1529H8.03556V15.6306Z" fill="#3D3730"/>
<path d="M40.7462 15.6306H38.2295V18.1529H40.7462V15.6306Z" fill="#9D6F5F"/>
<path d="M43.2613 15.6306H40.7446V18.1529H43.2613V15.6306Z" fill="#9D6F5F"/>
<path d="M45.778 15.6306H43.2613V18.1529H45.778V15.6306Z" fill="#9D6F5F"/>
<path d="M48.2947 15.6306H45.778V18.1529H48.2947V15.6306Z" fill="#9D6F5F"/>
<path d="M30.681 15.6306H28.1643V18.1529H30.681V15.6306Z" fill="#9D6F5F"/>
<path d="M33.1977 15.6306H30.681V18.1529H33.1977V15.6306Z" fill="#9D6F5F"/>
<path d="M38.2295 15.6306H35.7128V18.1529H38.2295V15.6306Z" fill="#9D6F5F"/>
<path d="M28.1643 15.6306H25.6476V18.1529H28.1643V15.6306Z" fill="#7B5547"/>
<path d="M35.7128 15.6306H33.1961V18.1529H35.7128V15.6306Z" fill="#9D6F5F"/>
<path d="M50.8098 15.6306H48.2931V18.1529H50.8098V15.6306Z" fill="#9D6F5F"/>
<path d="M55.8432 15.6306H53.3265V18.1529H55.8432V15.6306Z" fill="#9D6F5F"/>
<path d="M78.487 15.6306H75.9703V18.1529H78.487V15.6306Z" fill="#3D3730"/>
<path d="M65.9068 15.6306H63.3901V18.1529H65.9068V15.6306Z" fill="#3D3730"/>
<path d="M70.9386 15.6306H68.4219V18.1529H70.9386V15.6306Z" fill="#C3A1A2"/>
<path d="M73.4553 15.6306H70.9386V18.1529H73.4553V15.6306Z" fill="#3D3730"/>
<path d="M75.972 15.6306H73.4553V18.1529H75.972V15.6306Z" fill="#9D6F5F"/>
<path d="M68.4235 15.6306H65.9068V18.1529H68.4235V15.6306Z" fill="#C3A1A2"/>
<path d="M63.3901 15.6306H60.8734V18.1529H63.3901V15.6306Z" fill="#B38F7D"/>
<path d="M58.3583 15.6306H55.8416V18.1529H58.3583V15.6306Z" fill="#9D6F5F"/>
<path d="M53.3265 15.6306H50.8098V18.1529H53.3265V15.6306Z" fill="#9D6F5F"/>
<path d="M60.875 15.6306H58.3583V18.1529H60.875V15.6306Z" fill="#B38F7D"/>
<path d="M78.487 18.1513H75.9703V20.6736H78.487V18.1513Z" fill="#3D3730"/>
<path d="M63.3901 20.6736H60.8734V23.1959H63.3901V20.6736Z" fill="#9D6F5F"/>
<path d="M65.9068 20.6736H63.3901V23.1959H65.9068V20.6736Z" fill="#9D6F5F"/>
<path d="M48.2947 20.6736H45.778V23.1959H48.2947V20.6736Z" fill="#9D6F5F"/>
<path d="M68.4235 20.6736H65.9068V23.1959H68.4235V20.6736Z" fill="#3D3730"/>
<path d="M60.875 20.6736H58.3583V23.1959H60.875V20.6736Z" fill="#9D6F5F"/>
<path d="M53.3265 20.6736H50.8098V23.1959H53.3265V20.6736Z" fill="#3D3730"/>
<path d="M73.4553 20.6736H70.9386V23.1959H73.4553V20.6736Z" fill="#7B5547"/>
<path d="M58.3583 20.6736H55.8416V23.1959H58.3583V20.6736Z" fill="#B38F7D"/>
<path d="M50.8098 20.6736H48.2931V23.1959H50.8098V20.6736Z" fill="#B38F7D"/>
<path d="M55.8432 20.6736H53.3265V23.1959H55.8432V20.6736Z" fill="#B38F7D"/>
<path d="M70.9386 20.6736H68.4219V23.1959H70.9386V20.6736Z" fill="#5A3D32"/>
<path d="M73.4553 38.3264H70.9386V40.8487H73.4553V38.3264Z" fill="#3D3730"/>
<path d="M73.4553 35.8041H70.9386V38.3264H73.4553V35.8041Z" fill="#3D3730"/>
<path d="M73.4553 40.8471H70.9386V43.3694H73.4553V40.8471Z" fill="#3D3730"/>
<path d="M73.4553 45.8917H70.9386V48.414H73.4553V45.8917Z" fill="#3D3730"/>
<path d="M73.4553 43.3694H70.9386V45.8917H73.4553V43.3694Z" fill="#3D3730"/>
<path d="M73.4553 23.1959H70.9386V25.7182H73.4553V23.1959Z" fill="#3D3730"/>
<path d="M25.6492 20.6736H23.1325V23.1959H25.6492V20.6736Z" fill="#9D6F5F"/>
<path d="M45.778 20.6736H43.2613V23.1959H45.778V20.6736Z" fill="#9D6F5F"/>
<path d="M13.0689 20.6736H10.5522V23.1959H13.0689V20.6736Z" fill="#5A3D32"/>
<path d="M15.584 20.6736H13.0673V23.1959H15.584V20.6736Z" fill="#3D3730"/>
<path d="M8.03556 20.6736H5.51886V23.1959H8.03556V20.6736Z" fill="#7B5547"/>
<path d="M18.1007 20.6736H15.584V23.1959H18.1007V20.6736Z" fill="#B38F7D"/>
<path d="M5.52048 20.6736H3.00378V23.1959H5.52048V20.6736Z" fill="#3D3730"/>
<path d="M20.6158 20.6736H18.0991V23.1959H20.6158V20.6736Z" fill="#9D6F5F"/>
<path d="M68.4235 18.1513H65.9068V20.6736H68.4235V18.1513Z" fill="#3D3730"/>
<path d="M10.5522 20.6736H8.03552V23.1959H10.5522V20.6736Z" fill="#7B5547"/>
<path d="M38.2295 20.6736H35.7128V23.1959H38.2295V20.6736Z" fill="#7B5547"/>
<path d="M35.7128 20.6736H33.1961V23.1959H35.7128V20.6736Z" fill="#7B5547"/>
<path d="M40.7462 20.6736H38.2295V23.1959H40.7462V20.6736Z" fill="#7B5547"/>
<path d="M43.2613 20.6736H40.7446V23.1959H43.2613V20.6736Z" fill="#3D3730"/>
<path d="M28.1643 20.6736H25.6476V23.1959H28.1643V20.6736Z" fill="#3D3730"/>
<path d="M23.1325 20.6736H20.6158V23.1959H23.1325V20.6736Z" fill="#9D6F5F"/>
<path d="M33.1977 20.6736H30.681V23.1959H33.1977V20.6736Z" fill="#7B5547"/>
<path d="M30.681 20.6736H28.1643V23.1959H30.681V20.6736Z" fill="#3D3730"/>
<path d="M73.4553 33.2818H70.9386V35.8041H73.4553V33.2818Z" fill="#3D3730"/>
<path d="M70.9386 18.1513H68.4219V20.6736H70.9386V18.1513Z" fill="#3D3730"/>
<path d="M73.4553 18.1513H70.9386V20.6736H73.4553V18.1513Z" fill="#9D6F5F"/>
<path d="M75.972 20.6736H73.4553V23.1959H75.972V20.6736Z" fill="#3D3730"/>
<path d="M75.972 18.1513H73.4553V20.6736H75.972V18.1513Z" fill="#7B5547"/>
<path d="M45.778 10.5876H43.2613V13.1099H45.778V10.5876Z" fill="#B38F7D"/>
<path d="M48.2947 10.5876H45.778V13.1099H48.2947V10.5876Z" fill="#B38F7D"/>
<path d="M43.2613 10.5876H40.7446V13.1099H43.2613V10.5876Z" fill="#B38F7D"/>
<path d="M53.3265 10.5876H50.8098V13.1099H53.3265V10.5876Z" fill="#B38F7D"/>
<path d="M50.8098 10.5876H48.2931V13.1099H50.8098V10.5876Z" fill="#B38F7D"/>
<path d="M40.7462 10.5876H38.2295V13.1099H40.7462V10.5876Z" fill="#B38F7D"/>
<path d="M35.7128 10.5876H33.1961V13.1099H35.7128V10.5876Z" fill="#B38F7D"/>
<path d="M55.8432 10.5876H53.3265V13.1099H55.8432V10.5876Z" fill="#B38F7D"/>
<path d="M33.1977 10.5876H30.681V13.1099H33.1977V10.5876Z" fill="#B38F7D"/>
<path d="M38.2295 10.5876H35.7128V13.1099H38.2295V10.5876Z" fill="#B38F7D"/>
<path d="M30.681 10.5876H28.1643V13.1099H30.681V10.5876Z" fill="#B38F7D"/>
<path d="M70.9386 10.5876H68.4219V13.1099H70.9386V10.5876Z" fill="#92787A"/>
<path d="M75.972 10.5876H73.4553V13.1099H75.972V10.5876Z" fill="#9D6F5F"/>
<path d="M73.4553 10.5876H70.9386V13.1099H73.4553V10.5876Z" fill="#3D3730"/>
<path d="M78.487 10.5876H75.9703V13.1099H78.487V10.5876Z" fill="#3D3730"/>
<path d="M65.9068 10.5876H63.3901V13.1099H65.9068V10.5876Z" fill="#C3A1A2"/>
<path d="M68.4235 10.5876H65.9068V13.1099H68.4235V10.5876Z" fill="#C3A1A2"/>
<path d="M63.3901 10.5876H60.8734V13.1099H63.3901V10.5876Z" fill="#C3A1A2"/>
<path d="M60.875 10.5876H58.3583V13.1099H60.875V10.5876Z" fill="#C3A1A2"/>
<path d="M58.3583 10.5876H55.8416V13.1099H58.3583V10.5876Z" fill="#3D3730"/>
<path d="M5.52048 10.5876H3.00378V13.1099H5.52048V10.5876Z" fill="#3D3730"/>
<path d="M28.1643 10.5876H25.6476V13.1099H28.1643V10.5876Z" fill="#B38F7D"/>
<path d="M20.6158 10.5876H18.0991V13.1099H20.6158V10.5876Z" fill="#92787A"/>
<path d="M25.6492 10.5876H23.1325V13.1099H25.6492V10.5876Z" fill="#3D3730"/>
<path d="M18.1007 10.5876H15.584V13.1099H18.1007V10.5876Z" fill="#92787A"/>
<path d="M23.1325 10.5876H20.6158V13.1099H23.1325V10.5876Z" fill="#3D3730"/>
<path d="M10.5522 10.5876H8.03552V13.1099H10.5522V10.5876Z" fill="#3D3730"/>
<path d="M8.03556 10.5876H5.51886V13.1099H8.03556V10.5876Z" fill="#9D6F5F"/>
<path d="M13.0689 10.5876H10.5522V13.1099H13.0689V10.5876Z" fill="#92787A"/>
<path d="M15.584 10.5876H13.0673V13.1099H15.584V10.5876Z" fill="#92787A"/>
<path d="M75.972 13.1083H73.4553V15.6306H75.972V13.1083Z" fill="#9D6F5F"/>
<path d="M70.9386 13.1083H68.4219V15.6306H70.9386V13.1083Z" fill="#C3A1A2"/>
<path d="M73.4553 13.1083H70.9386V15.6306H73.4553V13.1083Z" fill="#3D3730"/>
<path d="M78.487 13.1083H75.9703V15.6306H78.487V13.1083Z" fill="#3D3730"/>
<path d="M68.4235 13.1083H65.9068V15.6306H68.4235V13.1083Z" fill="#C3A1A2"/>
<path d="M60.875 13.1083H58.3583V15.6306H60.875V13.1083Z" fill="#3D3730"/>
<path d="M65.9068 13.1083H63.3901V15.6306H65.9068V13.1083Z" fill="#C3A1A2"/>
<path d="M58.3583 13.1083H55.8416V15.6306H58.3583V13.1083Z" fill="#B38F7D"/>
<path d="M63.3901 13.1083H60.8734V15.6306H63.3901V13.1083Z" fill="#3D3730"/>
<path d="M55.8432 13.1083H53.3265V15.6306H55.8432V13.1083Z" fill="#9D6F5F"/>
<path d="M20.6158 13.1083H18.0991V15.6306H20.6158V13.1083Z" fill="#3D3730"/>
<path d="M23.1325 13.1083H20.6158V15.6306H23.1325V13.1083Z" fill="#B38F7D"/>
<path d="M25.6492 13.1083H23.1325V15.6306H25.6492V13.1083Z" fill="#B38F7D"/>
<path d="M30.681 13.1083H28.1643V15.6306H30.681V13.1083Z" fill="#9D6F5F"/>
<path d="M18.1007 13.1083H15.584V15.6306H18.1007V13.1083Z" fill="#C3A1A2"/>
<path d="M28.1643 13.1083H25.6476V15.6306H28.1643V13.1083Z" fill="#9D6F5F"/>
<path d="M10.5522 13.1083H8.03552V15.6306H10.5522V13.1083Z" fill="#92787A"/>
<path d="M8.03556 13.1083H5.51886V15.6306H8.03556V13.1083Z" fill="#3D3730"/>
<path d="M5.52048 13.1083H3.00378V15.6306H5.52048V13.1083Z" fill="#B38F7D"/>
<path d="M15.584 13.1083H13.0673V15.6306H15.584V13.1083Z" fill="#C3A1A2"/>
<path d="M13.0689 13.1083H10.5522V15.6306H13.0689V13.1083Z" fill="#C3A1A2"/>
<path d="M48.2947 13.1083H45.778V15.6306H48.2947V13.1083Z" fill="#9D6F5F"/>
<path d="M50.8098 13.1083H48.2931V15.6306H50.8098V13.1083Z" fill="#9D6F5F"/>
<path d="M33.1977 13.1083H30.681V15.6306H33.1977V13.1083Z" fill="#9D6F5F"/>
<path d="M53.3265 13.1083H50.8098V15.6306H53.3265V13.1083Z" fill="#9D6F5F"/>
<path d="M45.778 13.1083H43.2613V15.6306H45.778V13.1083Z" fill="#9D6F5F"/>
<path d="M35.7128 13.1083H33.1961V15.6306H35.7128V13.1083Z" fill="#9D6F5F"/>
<path d="M43.2613 13.1083H40.7446V15.6306H43.2613V13.1083Z" fill="#9D6F5F"/>
<path d="M38.2295 13.1083H35.7128V15.6306H38.2295V13.1083Z" fill="#9D6F5F"/>
<path d="M40.7462 13.1083H38.2295V15.6306H40.7462V13.1083Z" fill="#9D6F5F"/>
<path d="M3.00376 13.1083H0.487061V15.6306H3.00376V13.1083Z" fill="#3D3730"/>
<path d="M58.3583 43.3694H55.8416V45.8917H58.3583V43.3694Z" fill="#3D3730"/>
<path d="M58.3583 35.8041H55.8416V38.3264H58.3583V35.8041Z" fill="#7B5547"/>
<path d="M53.3265 35.8041H50.8098V38.3264H53.3265V35.8041Z" fill="#5A3D32"/>
<path d="M58.3583 38.3264H55.8416V40.8487H58.3583V38.3264Z" fill="#9D6F5F"/>
<path d="M58.3583 40.8471H55.8416V43.3694H58.3583V40.8471Z" fill="#B38F7D"/>
<path d="M55.8432 35.8041H53.3265V38.3264H55.8432V35.8041Z" fill="#5A3D32"/>
<path d="M43.2613 35.8041H40.7446V38.3264H43.2613V35.8041Z" fill="#7B5547"/>
<path d="M50.8098 35.8041H48.2931V38.3264H50.8098V35.8041Z" fill="#5A3D32"/>
<path d="M45.778 35.8041H43.2613V38.3264H45.778V35.8041Z" fill="#5A3D32"/>
<path d="M55.8432 38.3264H53.3265V40.8487H55.8432V38.3264Z" fill="#7B5547"/>
<path d="M58.3583 50.9347H55.8416V53.457H58.3583V50.9347Z" fill="#7B5547"/>
<path d="M58.3583 45.8917H55.8416V48.414H58.3583V45.8917Z" fill="white"/>
<path d="M40.7462 35.8041H38.2295V38.3264H40.7462V35.8041Z" fill="#9D6F5F"/>
<path d="M58.3583 55.9777H55.8416V58.5H58.3583V55.9777Z" fill="#3D3730"/>
<path d="M58.3583 48.4124H55.8416V50.9347H58.3583V48.4124Z" fill="#3D3730"/>
<path d="M58.3583 53.4554H55.8416V55.9777H58.3583V53.4554Z" fill="#7B5547"/>
<path d="M20.6158 43.3694H18.0991V45.8917H20.6158V43.3694Z" fill="#802328"/>
<path d="M20.6158 50.9347H18.0991V53.457H20.6158V50.9347Z" fill="#7B5547"/>
<path d="M20.6158 53.4554H18.0991V55.9777H20.6158V53.4554Z" fill="#3D3730"/>
<path d="M20.6158 48.4124H18.0991V50.9347H20.6158V48.4124Z" fill="#7B5547"/>
<path d="M20.6158 45.8917H18.0991V48.414H20.6158V45.8917Z" fill="#3D3730"/>
<path d="M33.1977 35.8041H30.681V38.3264H33.1977V35.8041Z" fill="#5A3D32"/>
<path d="M38.2295 35.8041H35.7128V38.3264H38.2295V35.8041Z" fill="#9D6F5F"/>
<path d="M30.681 35.8041H28.1643V38.3264H30.681V35.8041Z" fill="#5A3D32"/>
<path d="M20.6158 40.8471H18.0991V43.3694H20.6158V40.8471Z" fill="#3D3730"/>
<path d="M35.7128 35.8041H33.1961V38.3264H35.7128V35.8041Z" fill="#9D6F5F"/>
<path d="M28.1643 35.8041H25.6476V38.3264H28.1643V35.8041Z" fill="#5A3D32"/>
<path d="M20.6158 35.8041H18.0991V38.3264H20.6158V35.8041Z" fill="#7B5547"/>
<path d="M20.6158 38.3264H18.0991V40.8487H20.6158V38.3264Z" fill="#B38F7D"/>
<path d="M25.6492 35.8041H23.1325V38.3264H25.6492V35.8041Z" fill="#5A3D32"/>
<path d="M23.1325 35.8041H20.6158V38.3264H23.1325V35.8041Z" fill="#5A3D32"/>
<path d="M23.1325 40.8471H20.6158V43.3694H23.1325V40.8471Z" fill="#B38F7D"/>
<path d="M23.1325 38.3264H20.6158V40.8487H23.1325V38.3264Z" fill="#7B5547"/>
<path d="M28.1643 38.3264H25.6476V40.8487H28.1643V38.3264Z" fill="#7B5547"/>
<path d="M25.6492 38.3264H23.1325V40.8487H25.6492V38.3264Z" fill="#7B5547"/>
<path d="M23.1325 43.3694H20.6158V45.8917H23.1325V43.3694Z" fill="#3D3730"/>
<path d="M23.1325 53.4554H20.6158V55.9777H23.1325V53.4554Z" fill="#7B5547"/>
<path d="M30.681 38.3264H28.1643V40.8487H30.681V38.3264Z" fill="#7B5547"/>
<path d="M23.1325 55.9777H20.6158V58.5H23.1325V55.9777Z" fill="#3D3730"/>
<path d="M23.1325 48.4124H20.6158V50.9347H23.1325V48.4124Z" fill="#3D3730"/>
<path d="M23.1325 45.8917H20.6158V48.414H23.1325V45.8917Z" fill="#802328"/>
<path d="M23.1325 50.9347H20.6158V53.457H23.1325V50.9347Z" fill="#9D6F5F"/>
<path d="M45.778 38.3264H43.2613V40.8487H45.778V38.3264Z" fill="#7B5547"/>
<path d="M33.1977 38.3264H30.681V40.8487H33.1977V38.3264Z" fill="#3D3730"/>
<path d="M53.3265 38.3264H50.8098V40.8487H53.3265V38.3264Z" fill="#7B5547"/>
<path d="M48.2947 38.3264H45.778V40.8487H48.2947V38.3264Z" fill="#7B5547"/>
<path d="M43.2613 38.3264H40.7446V40.8487H43.2613V38.3264Z" fill="#9D6F5F"/>
<path d="M35.7128 38.3264H33.1961V40.8487H35.7128V38.3264Z" fill="#3D3730"/>
<path d="M38.2295 38.3264H35.7128V40.8487H38.2295V38.3264Z" fill="#3D3730"/>
<path d="M40.7462 38.3264H38.2295V40.8487H40.7462V38.3264Z" fill="#3D3730"/>
<path d="M50.8098 38.3264H48.2931V40.8487H50.8098V38.3264Z" fill="#7B5547"/>
<path d="M48.2947 35.8041H45.778V38.3264H48.2947V35.8041Z" fill="#5A3D32"/>
<path d="M18.1007 43.3694H15.584V45.8917H18.1007V43.3694Z" fill="#3D3730"/>
<path d="M18.1007 33.2818H15.584V35.8041H18.1007V33.2818Z" fill="#7B5547"/>
<path d="M18.1007 45.8917H15.584V48.414H18.1007V45.8917Z" fill="#7B5547"/>
<path d="M18.1007 38.3264H15.584V40.8487H18.1007V38.3264Z" fill="#B38F7D"/>
<path d="M18.1007 35.8041H15.584V38.3264H18.1007V35.8041Z" fill="#9D6F5F"/>
<path d="M18.1007 40.8471H15.584V43.3694H18.1007V40.8471Z" fill="#3D3730"/>
<path d="M18.1007 48.4124H15.584V50.9347H18.1007V48.4124Z" fill="#7B5547"/>
<path d="M18.1007 50.9347H15.584V53.457H18.1007V50.9347Z" fill="#3D3730"/>
<path d="M40.7462 33.2818H38.2295V35.8041H40.7462V33.2818Z" fill="#5A3D32"/>
<path d="M33.1977 33.2818H30.681V35.8041H33.1977V33.2818Z" fill="#AF1516"/>
<path d="M38.2295 33.2818H35.7128V35.8041H38.2295V33.2818Z" fill="#5A3D32"/>
<path d="M35.7128 33.2818H33.1961V35.8041H35.7128V33.2818Z" fill="#3D3730"/>
<path d="M28.1643 33.2818H25.6476V35.8041H28.1643V33.2818Z" fill="#F76652"/>
<path d="M25.6492 33.2818H23.1325V35.8041H25.6492V33.2818Z" fill="#F76652"/>
<path d="M43.2629 33.2818H40.7462V35.8041H43.2629V33.2818Z" fill="#3D3730"/>
<path d="M30.681 33.2818H28.1643V35.8041H30.681V33.2818Z" fill="#F76652"/>
<path d="M20.6158 33.2818H18.0991V35.8041H20.6158V33.2818Z" fill="#5A3D32"/>
<path d="M23.1325 33.2818H20.6158V35.8041H23.1325V33.2818Z" fill="#F76652"/>
<path d="M45.778 33.2818H43.2613V35.8041H45.778V33.2818Z" fill="#AF1516"/>
<path d="M60.875 35.8041H58.3583V38.3264H60.875V35.8041Z" fill="#9D6F5F"/>
<path d="M58.3583 33.2818H55.8416V35.8041H58.3583V33.2818Z" fill="#5A3D32"/>
<path d="M60.875 33.2818H58.3583V35.8041H60.875V33.2818Z" fill="#7B5547"/>
<path d="M60.875 40.8471H58.3583V43.3694H60.875V40.8471Z" fill="#3D3730"/>
<path d="M48.2947 33.2818H45.778V35.8041H48.2947V33.2818Z" fill="#F76652"/>
<path d="M60.875 43.3694H58.3583V45.8917H60.875V43.3694Z" fill="#802328"/>
<path d="M50.8098 33.2818H48.2931V35.8041H50.8098V33.2818Z" fill="#F76652"/>
<path d="M53.3265 33.2818H50.8098V35.8041H53.3265V33.2818Z" fill="#F76652"/>
<path d="M55.8432 33.2818H53.3265V35.8041H55.8432V33.2818Z" fill="#F76652"/>
<path d="M60.875 38.3264H58.3583V40.8487H60.875V38.3264Z" fill="#B38F7D"/>
<path d="M60.875 45.8917H58.3583V48.414H60.875V45.8917Z" fill="#3D3730"/>
<path d="M60.875 48.4124H58.3583V50.9347H60.875V48.4124Z" fill="#7B5547"/>
<path d="M60.875 55.9777H58.3583V58.5H60.875V55.9777Z" fill="#3D3730"/>
<path d="M60.875 50.9347H58.3583V53.457H60.875V50.9347Z" fill="#9D6F5F"/>
<path d="M60.875 53.4554H58.3583V55.9777H60.875V53.4554Z" fill="#7B5547"/>
<path d="M30.681 45.8917H28.1643V48.414H30.681V45.8917Z" fill="#3D3730"/>
<path d="M30.681 48.4124H28.1643V50.9347H30.681V48.4124Z" fill="white"/>
<path d="M33.1977 45.8917H30.681V48.414H33.1977V45.8917Z" fill="#3D3730"/>
<path d="M35.7128 45.8917H33.1961V48.414H35.7128V45.8917Z" fill="#3D3730"/>
<path d="M30.681 50.9347H28.1643V53.457H30.681V50.9347Z" fill="#3D3730"/>
<path d="M30.681 53.4554H28.1643V55.9777H30.681V53.4554Z" fill="#7B5547"/>
<path d="M30.681 55.9777H28.1643V58.5H30.681V55.9777Z" fill="#3D3730"/>
<path d="M38.2295 45.8917H35.7128V48.414H38.2295V45.8917Z" fill="#3D3730"/>
<path d="M48.2947 53.4554H45.778V55.9777H48.2947V53.4554Z" fill="#7B5547"/>
<path d="M40.7462 45.8917H38.2295V48.414H40.7462V45.8917Z" fill="#3D3730"/>
<path d="M48.2947 55.9777H45.778V58.5H48.2947V55.9777Z" fill="#3D3730"/>
<path d="M48.2947 50.9347H45.778V53.457H48.2947V50.9347Z" fill="#3D3730"/>
<path d="M43.2613 45.8917H40.7446V48.414H43.2613V45.8917Z" fill="#3D3730"/>
<path d="M45.778 45.8917H43.2613V48.414H45.778V45.8917Z" fill="#3D3730"/>
<path d="M48.2947 45.8917H45.778V48.414H48.2947V45.8917Z" fill="#3D3730"/>
<path d="M48.2947 48.4124H45.778V50.9347H48.2947V48.4124Z" fill="#802328"/>
<path d="M50.8098 53.4554H48.2931V55.9777H50.8098V53.4554Z" fill="#7B5547"/>
<path d="M50.8098 50.9347H48.2931V53.457H50.8098V50.9347Z" fill="#3D3730"/>
<path d="M50.8098 55.9777H48.2931V58.5H50.8098V55.9777Z" fill="#3D3730"/>
<path d="M50.8098 48.4124H48.2931V50.9347H50.8098V48.4124Z" fill="#802328"/>
<path d="M55.8432 40.8471H53.3265V43.3694H55.8432V40.8471Z" fill="#B38F7D"/>
<path d="M50.8098 45.8917H48.2931V48.414H50.8098V45.8917Z" fill="#3D3730"/>
<path d="M48.2947 43.3694H45.778V45.8917H48.2947V43.3694Z" fill="#B38F7D"/>
<path d="M50.8098 43.3694H48.2931V45.8917H50.8098V43.3694Z" fill="#B38F7D"/>
<path d="M45.778 43.3694H43.2613V45.8917H45.778V43.3694Z" fill="#B38F7D"/>
<path d="M35.7128 55.9777H33.1961V58.5H35.7128V55.9777Z" fill="#3D3730"/>
<path d="M35.7128 53.4554H33.1961V55.9777H35.7128V53.4554Z" fill="#7B5547"/>
<path d="M43.2613 43.3694H40.7446V45.8917H43.2613V43.3694Z" fill="#B38F7D"/>
<path d="M35.7128 50.9347H33.1961V53.457H35.7128V50.9347Z" fill="#3D3730"/>
<path d="M40.7462 50.9347H38.2295V53.457H40.7462V50.9347Z" fill="#3D3730"/>
<path d="M40.7462 55.9777H38.2295V58.5H40.7462V55.9777Z" fill="#3D3730"/>
<path d="M38.2295 55.9777H35.7128V58.5H38.2295V55.9777Z" fill="#3D3730"/>
<path d="M38.2295 53.4554H35.7128V55.9777H38.2295V53.4554Z" fill="#7B5547"/>
<path d="M40.7462 53.4554H38.2295V55.9777H40.7462V53.4554Z" fill="#7B5547"/>
<path d="M43.2613 50.9347H40.7446V53.457H43.2613V50.9347Z" fill="#3D3730"/>
<path d="M43.2613 55.9777H40.7446V58.5H43.2613V55.9777Z" fill="#3D3730"/>
<path d="M43.2613 53.4554H40.7446V55.9777H43.2613V53.4554Z" fill="#7B5547"/>
<path d="M38.2295 50.9347H35.7128V53.457H38.2295V50.9347Z" fill="#3D3730"/>
<path d="M33.1977 55.9777H30.681V58.5H33.1977V55.9777Z" fill="#3D3730"/>
<path d="M33.1977 53.4554H30.681V55.9777H33.1977V53.4554Z" fill="#7B5547"/>
<path d="M33.1977 50.9347H30.681V53.457H33.1977V50.9347Z" fill="#3D3730"/>
<path d="M40.7462 48.4124H38.2295V50.9347H40.7462V48.4124Z" fill="#802328"/>
<path d="M45.778 48.4124H43.2613V50.9347H45.778V48.4124Z" fill="#802328"/>
<path d="M45.778 53.4554H43.2613V55.9777H45.778V53.4554Z" fill="#7B5547"/>
<path d="M45.778 50.9347H43.2613V53.457H45.778V50.9347Z" fill="#3D3730"/>
<path d="M45.778 55.9777H43.2613V58.5H45.778V55.9777Z" fill="#3D3730"/>
<path d="M38.2295 48.4124H35.7128V50.9347H38.2295V48.4124Z" fill="#802328"/>
<path d="M35.7128 48.4124H33.1961V50.9347H35.7128V48.4124Z" fill="#802328"/>
<path d="M33.1977 48.4124H30.681V50.9347H33.1977V48.4124Z" fill="#802328"/>
<path d="M43.2613 48.4124H40.7446V50.9347H43.2613V48.4124Z" fill="#802328"/>
<path d="M25.6492 55.9777H23.1325V58.5H25.6492V55.9777Z" fill="#3D3730"/>
<path d="M25.6492 53.4554H23.1325V55.9777H25.6492V53.4554Z" fill="#7B5547"/>
<path d="M30.681 40.8471H28.1643V43.3694H30.681V40.8471Z" fill="#9D6F5F"/>
<path d="M33.1977 40.8471H30.681V43.3694H33.1977V40.8471Z" fill="#7B5547"/>
<path d="M35.7128 40.8471H33.1961V43.3694H35.7128V40.8471Z" fill="#3D3730"/>
<path d="M28.1643 40.8471H25.6476V43.3694H28.1643V40.8471Z" fill="#9D6F5F"/>
<path d="M25.6492 43.3694H23.1325V45.8917H25.6492V43.3694Z" fill="#3D3730"/>
<path d="M25.6492 40.8471H23.1325V43.3694H25.6492V40.8471Z" fill="#B38F7D"/>
<path d="M25.6492 45.8917H23.1325V48.414H25.6492V45.8917Z" fill="white"/>
<path d="M25.6492 48.4124H23.1325V50.9347H25.6492V48.4124Z" fill="#3D3730"/>
<path d="M25.6492 50.9347H23.1325V53.457H25.6492V50.9347Z" fill="#7B5547"/>
<path d="M55.8432 55.9777H53.3265V58.5H55.8432V55.9777Z" fill="#3D3730"/>
<path d="M55.8432 53.4554H53.3265V55.9777H55.8432V53.4554Z" fill="#7B5547"/>
<path d="M38.2295 40.8471H35.7128V43.3694H38.2295V40.8471Z" fill="#3D3730"/>
<path d="M55.8432 48.4124H53.3265V50.9347H55.8432V48.4124Z" fill="#802328"/>
<path d="M55.8432 50.9347H53.3265V53.457H55.8432V50.9347Z" fill="#3D3730"/>
<path d="M55.8432 45.8917H53.3265V48.414H55.8432V45.8917Z" fill="#802328"/>
<path d="M55.8432 43.3694H53.3265V45.8917H55.8432V43.3694Z" fill="#3D3730"/>
<path d="M40.7462 40.8471H38.2295V43.3694H40.7462V40.8471Z" fill="#7B5547"/>
<path d="M40.7462 43.3694H38.2295V45.8917H40.7462V43.3694Z" fill="#B38F7D"/>
<path d="M28.1643 55.9777H25.6476V58.5H28.1643V55.9777Z" fill="#3D3730"/>
<path d="M28.1643 50.9347H25.6476V53.457H28.1643V50.9347Z" fill="#3D3730"/>
<path d="M28.1643 53.4554H25.6476V55.9777H28.1643V53.4554Z" fill="#7B5547"/>
<path d="M33.1977 43.3694H30.681V45.8917H33.1977V43.3694Z" fill="#B38F7D"/>
<path d="M35.7128 43.3694H33.1961V45.8917H35.7128V43.3694Z" fill="#B38F7D"/>
<path d="M38.2295 43.3694H35.7128V45.8917H38.2295V43.3694Z" fill="#B38F7D"/>
<path d="M30.681 43.3694H28.1643V45.8917H30.681V43.3694Z" fill="#B38F7D"/>
<path d="M28.1643 48.4124H25.6476V50.9347H28.1643V48.4124Z" fill="#802328"/>
<path d="M28.1643 43.3694H25.6476V45.8917H28.1643V43.3694Z" fill="#B38F7D"/>
<path d="M28.1643 45.8917H25.6476V48.414H28.1643V45.8917Z" fill="#3D3730"/>
<path d="M53.3265 45.8917H50.8098V48.414H53.3265V45.8917Z" fill="#3D3730"/>
<path d="M53.3265 43.3694H50.8098V45.8917H53.3265V43.3694Z" fill="#B38F7D"/>
<path d="M53.3265 50.9347H50.8098V53.457H53.3265V50.9347Z" fill="#3D3730"/>
<path d="M53.3265 48.4124H50.8098V50.9347H53.3265V48.4124Z" fill="white"/>
<path d="M53.3265 40.8471H50.8098V43.3694H53.3265V40.8471Z" fill="#9D6F5F"/>
<path d="M43.2613 40.8471H40.7446V43.3694H43.2613V40.8471Z" fill="#9D6F5F"/>
<path d="M45.778 40.8471H43.2613V43.3694H45.778V40.8471Z" fill="#9D6F5F"/>
<path d="M50.8098 40.8471H48.2931V43.3694H50.8098V40.8471Z" fill="#9D6F5F"/>
<path d="M48.2947 40.8471H45.778V43.3694H48.2947V40.8471Z" fill="#9D6F5F"/>
<path d="M53.3265 53.4554H50.8098V55.9777H53.3265V53.4554Z" fill="#7B5547"/>
<path d="M53.3265 55.9777H50.8098V58.5H53.3265V55.9777Z" fill="#3D3730"/>
<path d="M13.0689 25.7166H10.5522V28.2389H13.0689V25.7166Z" fill="#3D3730"/>
<path d="M15.584 25.7166H13.0673V28.2389H15.584V25.7166Z" fill="#9D6F5F"/>
<path d="M10.5522 43.3694H8.03552V45.8917H10.5522V43.3694Z" fill="#3D3730"/>
<path d="M10.5522 40.8471H8.03552V43.3694H10.5522V40.8471Z" fill="#3D3730"/>
<path d="M10.5522 38.3264H8.03552V40.8487H10.5522V38.3264Z" fill="#3D3730"/>
<path d="M10.5522 33.2818H8.03552V35.8041H10.5522V33.2818Z" fill="#3D3730"/>
<path d="M10.5522 35.8041H8.03552V38.3264H10.5522V35.8041Z" fill="#3D3730"/>
<path d="M18.1007 25.7166H15.584V28.2389H18.1007V25.7166Z" fill="#B38F7D"/>
<path d="M68.4235 43.3694H65.9068V45.8917H68.4235V43.3694Z" fill="#9D6F5F"/>
<path d="M68.4235 45.8917H65.9068V48.414H68.4235V45.8917Z" fill="#9D6F5F"/>
<path d="M68.4235 48.4124H65.9068V50.9347H68.4235V48.4124Z" fill="#7B5547"/>
<path d="M68.4235 50.9347H65.9068V53.457H68.4235V50.9347Z" fill="#3D3730"/>
<path d="M68.4235 35.8041H65.9068V38.3264H68.4235V35.8041Z" fill="#9D6F5F"/>
<path d="M68.4235 33.2818H65.9068V35.8041H68.4235V33.2818Z" fill="#9D6F5F"/>
<path d="M68.4235 30.7612H65.9068V33.2835H68.4235V30.7612Z" fill="#7B5547"/>
<path d="M68.4235 40.8471H65.9068V43.3694H68.4235V40.8471Z" fill="#7B5547"/>
<path d="M68.4235 38.3264H65.9068V40.8487H68.4235V38.3264Z" fill="#9D6F5F"/>
<path d="M50.8098 25.7166H48.2931V28.2389H50.8098V25.7166Z" fill="#AF1516"/>
<path d="M33.1977 25.7166H30.681V28.2389H33.1977V25.7166Z" fill="#9D6F5F"/>
<path d="M45.778 25.7166H43.2613V28.2389H45.778V25.7166Z" fill="#B38F7D"/>
<path d="M35.7128 25.7166H33.1961V28.2389H35.7128V25.7166Z" fill="#9D6F5F"/>
<path d="M40.7462 25.7166H38.2295V28.2389H40.7462V25.7166Z" fill="#9D6F5F"/>
<path d="M43.2613 25.7166H40.7446V28.2389H43.2613V25.7166Z" fill="#9D6F5F"/>
<path d="M38.2295 25.7166H35.7128V28.2389H38.2295V25.7166Z" fill="#3D3730"/>
<path d="M25.6492 25.7166H23.1325V28.2389H25.6492V25.7166Z" fill="#B38F7D"/>
<path d="M68.4235 28.2388H65.9068V30.7611H68.4235V28.2388Z" fill="#7B5547"/>
<path d="M30.681 25.7166H28.1643V28.2389H30.681V25.7166Z" fill="#B38F7D"/>
<path d="M28.1643 25.7166H25.6476V28.2389H28.1643V25.7166Z" fill="#B38F7D"/>
<path d="M23.1325 25.7166H20.6158V28.2389H23.1325V25.7166Z" fill="#B38F7D"/>
<path d="M48.2947 25.7166H45.778V28.2389H48.2947V25.7166Z" fill="#3D3730"/>
<path d="M65.9068 25.7166H63.3901V28.2389H65.9068V25.7166Z" fill="#9D6F5F"/>
<path d="M68.4235 25.7166H65.9068V28.2389H68.4235V25.7166Z" fill="#7B5547"/>
<path d="M60.875 25.7166H58.3583V28.2389H60.875V25.7166Z" fill="#3D3730"/>
<path d="M63.3901 25.7166H60.8734V28.2389H63.3901V25.7166Z" fill="#9D6F5F"/>
<path d="M58.3583 25.7166H55.8416V28.2389H58.3583V25.7166Z" fill="#AF1516"/>
<path d="M20.6175 25.7166H18.1008V28.2389H20.6175V25.7166Z" fill="#B38F7D"/>
<path d="M53.3265 25.7166H50.8098V28.2389H53.3265V25.7166Z" fill="#AF1516"/>
<path d="M55.8432 25.7166H53.3265V28.2389H55.8432V25.7166Z" fill="#AF1516"/>
<path d="M15.584 23.1959H13.0673V25.7182H15.584V23.1959Z" fill="#B38F7D"/>
<path d="M13.0689 23.1959H10.5522V25.7182H13.0689V23.1959Z" fill="#3D3730"/>
<path d="M20.6158 23.1959H18.0991V25.7182H20.6158V23.1959Z" fill="#9D6F5F"/>
<path d="M10.5522 23.1959H8.03552V25.7182H10.5522V23.1959Z" fill="#3D3730"/>
<path d="M18.1007 23.1959H15.584V25.7182H18.1007V23.1959Z" fill="#9D6F5F"/>
<path d="M8.03556 23.1959H5.51886V25.7182H8.03556V23.1959Z" fill="#3D3730"/>
<path d="M38.2295 23.1959H35.7128V25.7182H38.2295V23.1959Z" fill="#7B5547"/>
<path d="M40.7462 23.1959H38.2295V25.7182H40.7462V23.1959Z" fill="#3D3730"/>
<path d="M43.2613 23.1959H40.7446V25.7182H43.2613V23.1959Z" fill="#9D6F5F"/>
<path d="M45.778 23.1959H43.2613V25.7182H45.778V23.1959Z" fill="#9D6F5F"/>
<path d="M35.7144 23.1959H33.1977V25.7182H35.7144V23.1959Z" fill="#3D3730"/>
<path d="M25.6492 23.1959H23.1325V25.7182H25.6492V23.1959Z" fill="#9D6F5F"/>
<path d="M28.1659 23.1959H25.6492V25.7182H28.1659V23.1959Z" fill="#9D6F5F"/>
<path d="M30.681 23.1959H28.1643V25.7182H30.681V23.1959Z" fill="#9D6F5F"/>
<path d="M33.1977 23.1959H30.681V25.7182H33.1977V23.1959Z" fill="#3D3730"/>
<path d="M48.2947 23.1959H45.778V25.7182H48.2947V23.1959Z" fill="#B38F7D"/>
<path d="M23.1325 23.1959H20.6158V25.7182H23.1325V23.1959Z" fill="#9D6F5F"/>
<path d="M50.8098 23.1959H48.2931V25.7182H50.8098V23.1959Z" fill="#3D3730"/>
<path d="M70.9386 28.2388H68.4219V30.7611H70.9386V28.2388Z" fill="#3D3730"/>
<path d="M68.4235 23.1959H65.9068V25.7182H68.4235V23.1959Z" fill="#7B5547"/>
<path d="M70.9386 25.7166H68.4219V28.2389H70.9386V25.7166Z" fill="#3D3730"/>
<path d="M70.9386 23.1959H68.4219V25.7182H70.9386V23.1959Z" fill="#3D3730"/>
<path d="M63.3901 23.1959H60.8734V25.7182H63.3901V23.1959Z" fill="#9D6F5F"/>
<path d="M65.9068 23.1959H63.3901V25.7182H65.9068V23.1959Z" fill="#9D6F5F"/>
<path d="M60.875 23.1959H58.3583V25.7182H60.875V23.1959Z" fill="#B38F7D"/>
<path d="M55.8432 23.1959H53.3265V25.7182H55.8432V23.1959Z" fill="#3D3730"/>
<path d="M53.3265 23.1959H50.8098V25.7182H53.3265V23.1959Z" fill="#3D3730"/>
<path d="M58.3583 23.1959H55.8416V25.7182H58.3583V23.1959Z" fill="#3D3730"/>
<path d="M70.9386 30.7612H68.4219V33.2835H70.9386V30.7612Z" fill="#3D3730"/>
<path d="M70.9386 48.4124H68.4219V50.9347H70.9386V48.4124Z" fill="#3D3730"/>
<path d="M70.9386 43.3694H68.4219V45.8917H70.9386V43.3694Z" fill="#9D6F5F"/>
<path d="M70.9386 45.8917H68.4219V48.414H70.9386V45.8917Z" fill="#7B5547"/>
<path d="M70.9386 33.2818H68.4219V35.8041H70.9386V33.2818Z" fill="#B38F7D"/>
<path d="M70.9386 35.8041H68.4219V38.3264H70.9386V35.8041Z" fill="#9D6F5F"/>
<path d="M70.9386 38.3264H68.4219V40.8487H70.9386V38.3264Z" fill="#9D6F5F"/>
<path d="M70.9386 40.8471H68.4219V43.3694H70.9386V40.8471Z" fill="#9D6F5F"/>
<path d="M15.584 40.8471H13.0673V43.3694H15.584V40.8471Z" fill="#9D6F5F"/>
<path d="M15.584 38.3264H13.0673V40.8487H15.584V38.3264Z" fill="#9D6F5F"/>
<path d="M15.584 43.3694H13.0673V45.8917H15.584V43.3694Z" fill="#9D6F5F"/>
<path d="M15.584 33.2818H13.0673V35.8041H15.584V33.2818Z" fill="#9D6F5F"/>
<path d="M15.584 35.8041H13.0673V38.3264H15.584V35.8041Z" fill="#9D6F5F"/>
<path d="M15.584 50.9347H13.0673V53.457H15.584V50.9347Z" fill="#3D3730"/>
<path d="M15.584 45.8917H13.0673V48.414H15.584V45.8917Z" fill="#7B5547"/>
<path d="M15.584 48.4124H13.0673V50.9347H15.584V48.4124Z" fill="#7B5547"/>
<path d="M15.584 30.7612H13.0673V33.2835H15.584V30.7612Z" fill="#9D6F5F"/>
<path d="M63.3901 50.9347H60.8734V53.457H63.3901V50.9347Z" fill="#7B5547"/>
<path d="M18.1007 30.7612H15.584V33.2835H18.1007V30.7612Z" fill="#5A3D32"/>
<path d="M63.3901 40.8471H60.8734V43.3694H63.3901V40.8471Z" fill="#3D3730"/>
<path d="M63.3901 48.4124H60.8734V50.9347H63.3901V48.4124Z" fill="#9D6F5F"/>
<path d="M63.3901 43.3694H60.8734V45.8917H63.3901V43.3694Z" fill="#3D3730"/>
<path d="M63.3901 38.3264H60.8734V40.8487H63.3901V38.3264Z" fill="#B38F7D"/>
<path d="M63.3901 45.8917H60.8734V48.414H63.3901V45.8917Z" fill="#7B5547"/>
<path d="M63.3901 53.4554H60.8734V55.9777H63.3901V53.4554Z" fill="#3D3730"/>
<path d="M33.1977 30.7612H30.681V33.2835H33.1977V30.7612Z" fill="#3D3730"/>
<path d="M30.681 30.7612H28.1643V33.2835H30.681V30.7612Z" fill="#AF1516"/>
<path d="M35.7128 30.7612H33.1961V33.2835H35.7128V30.7612Z" fill="#B38F7D"/>
<path d="M43.2629 30.7612H40.7462V33.2835H43.2629V30.7612Z" fill="#B38F7D"/>
<path d="M40.7462 30.7612H38.2295V33.2835H40.7462V30.7612Z" fill="#9D6F5F"/>
<path d="M38.2295 30.7612H35.7128V33.2835H38.2295V30.7612Z" fill="#9D6F5F"/>
<path d="M23.1325 30.7612H20.6158V33.2835H23.1325V30.7612Z" fill="white"/>
<path d="M28.1643 30.7612H25.6476V33.2835H28.1643V30.7612Z" fill="#AF1516"/>
<path d="M20.6158 30.7612H18.0991V33.2835H20.6158V30.7612Z" fill="#AF1516"/>
<path d="M25.6492 30.7612H23.1325V33.2835H25.6492V30.7612Z" fill="#AF1516"/>
<path d="M48.2947 30.7612H45.778V33.2835H48.2947V30.7612Z" fill="#AF1516"/>
<path d="M63.3901 30.7612H60.8734V33.2835H63.3901V30.7612Z" fill="#9D6F5F"/>
<path d="M58.3583 30.7612H55.8416V33.2835H58.3583V30.7612Z" fill="#F76652"/>
<path d="M45.778 30.7612H43.2613V33.2835H45.778V30.7612Z" fill="#3D3730"/>
<path d="M63.3901 33.2818H60.8734V35.8041H63.3901V33.2818Z" fill="#9D6F5F"/>
<path d="M60.875 30.7612H58.3583V33.2835H60.875V30.7612Z" fill="#5A3D32"/>
<path d="M55.8432 30.7612H53.3265V33.2835H55.8432V30.7612Z" fill="#F76652"/>
<path d="M63.3901 35.8041H60.8734V38.3264H63.3901V35.8041Z" fill="#9D6F5F"/>
<path d="M50.8098 30.7612H48.2931V33.2835H50.8098V30.7612Z" fill="#F76652"/>
<path d="M53.3265 30.7612H50.8098V33.2835H53.3265V30.7612Z" fill="#F76652"/>
<path d="M13.0689 35.8041H10.5522V38.3264H13.0689V35.8041Z" fill="#9D6F5F"/>
<path d="M13.0689 45.8917H10.5522V48.414H13.0689V45.8917Z" fill="#3D3730"/>
<path d="M13.0689 40.8471H10.5522V43.3694H13.0689V40.8471Z" fill="#9D6F5F"/>
<path d="M13.0689 38.3264H10.5522V40.8487H13.0689V38.3264Z" fill="#9D6F5F"/>
<path d="M13.0689 43.3694H10.5522V45.8917H13.0689V43.3694Z" fill="#7B5547"/>
<path d="M13.0689 48.4124H10.5522V50.9347H13.0689V48.4124Z" fill="#3D3730"/>
<path d="M15.584 28.2388H13.0673V30.7611H15.584V28.2388Z" fill="#9D6F5F"/>
<path d="M65.9068 35.8041H63.3901V38.3264H65.9068V35.8041Z" fill="#9D6F5F"/>
<path d="M65.9068 38.3264H63.3901V40.8487H65.9068V38.3264Z" fill="#9D6F5F"/>
<path d="M65.9068 40.8471H63.3901V43.3694H65.9068V40.8471Z" fill="#9D6F5F"/>
<path d="M65.9068 45.8917H63.3901V48.414H65.9068V45.8917Z" fill="#9D6F5F"/>
<path d="M60.875 28.2388H58.3583V30.7611H60.875V28.2388Z" fill="#AF1516"/>
<path d="M65.9068 30.7612H63.3901V33.2835H65.9068V30.7612Z" fill="#9D6F5F"/>
<path d="M65.9068 28.2388H63.3901V30.7611H65.9068V28.2388Z" fill="#9D6F5F"/>
<path d="M65.9068 33.2818H63.3901V35.8041H65.9068V33.2818Z" fill="#7B5547"/>
<path d="M63.3901 28.2388H60.8734V30.7611H63.3901V28.2388Z" fill="#9D6F5F"/>
<path d="M65.9068 48.4124H63.3901V50.9347H65.9068V48.4124Z" fill="#7B5547"/>
<path d="M65.9068 43.3694H63.3901V45.8917H65.9068V43.3694Z" fill="#9D6F5F"/>
<path d="M65.9068 50.9347H63.3901V53.457H65.9068V50.9347Z" fill="#3D3730"/>
<path d="M35.7128 28.2388H33.1961V30.7611H35.7128V28.2388Z" fill="#9D6F5F"/>
<path d="M23.1325 28.2388H20.6158V30.7611H23.1325V28.2388Z" fill="#3D3730"/>
<path d="M25.6492 28.2388H23.1325V30.7611H25.6492V28.2388Z" fill="#3D3730"/>
<path d="M20.6158 28.2388H18.0991V30.7611H20.6158V28.2388Z" fill="#3D3730"/>
<path d="M28.1643 28.2388H25.6476V30.7611H28.1643V28.2388Z" fill="#3D3730"/>
<path d="M30.681 28.2388H28.1643V30.7611H30.681V28.2388Z" fill="#3D3730"/>
<path d="M33.1977 28.2388H30.681V30.7611H33.1977V28.2388Z" fill="#B38F7D"/>
<path d="M13.0689 30.7612H10.5522V33.2835H13.0689V30.7612Z" fill="#3D3730"/>
<path d="M18.1007 28.2388H15.584V30.7611H18.1007V28.2388Z" fill="#3D3730"/>
<path d="M13.0689 28.2388H10.5522V30.7611H13.0689V28.2388Z" fill="#3D3730"/>
<path d="M38.2295 28.2388H35.7128V30.7611H38.2295V28.2388Z" fill="#9D6F5F"/>
<path d="M48.2947 28.2388H45.778V30.7611H48.2947V28.2388Z" fill="white"/>
<path d="M50.8098 28.2388H48.2931V30.7611H50.8098V28.2388Z" fill="#F76652"/>
<path d="M53.3265 28.2388H50.8098V30.7611H53.3265V28.2388Z" fill="#F76652"/>
<path d="M55.8432 28.2388H53.3265V30.7611H55.8432V28.2388Z" fill="#F76652"/>
<path d="M58.3583 28.2388H55.8416V30.7611H58.3583V28.2388Z" fill="#F76652"/>
<path d="M40.7462 28.2388H38.2295V30.7611H40.7462V28.2388Z" fill="#9D6F5F"/>
<path d="M13.0689 33.2818H10.5522V35.8041H13.0689V33.2818Z" fill="#B38F7D"/>
<path d="M43.2613 28.2388H40.7446V30.7611H43.2613V28.2388Z" fill="#B38F7D"/>
<path d="M45.778 28.2388H43.2613V30.7611H45.778V28.2388Z" fill="#3D3730"/>
<path d="M55.8432 5.54298H53.3265V8.06528H55.8432V5.54298Z" fill="#3D3730"/>
<path d="M63.3901 5.54298H60.8734V8.06528H63.3901V5.54298Z" fill="#3D3730"/>
<path d="M60.875 5.54298H58.3583V8.06528H60.875V5.54298Z" fill="#3D3730"/>
<path d="M58.3583 5.54298H55.8416V8.06528H58.3583V5.54298Z" fill="#9D6F5F"/>
<path d="M75.972 5.54298H73.4553V8.06528H75.972V5.54298Z" fill="#3D3730"/>
<path d="M65.9068 5.54298H63.3901V8.06528H65.9068V5.54298Z" fill="#3D3730"/>
<path d="M70.9386 5.54298H68.4219V8.06528H70.9386V5.54298Z" fill="#9D6F5F"/>
<path d="M68.4235 5.54298H65.9068V8.06528H68.4235V5.54298Z" fill="#3D3730"/>
<path d="M73.4553 5.54298H70.9386V8.06528H73.4553V5.54298Z" fill="#B38F7D"/>
<path d="M8.03556 5.54298H5.51886V8.06528H8.03556V5.54298Z" fill="#3D3730"/>
<path d="M10.5522 5.54298H8.03552V8.06528H10.5522V5.54298Z" fill="#B38F7D"/>
<path d="M25.6492 5.54298H23.1325V8.06528H25.6492V5.54298Z" fill="#3D3730"/>
<path d="M20.6158 5.54298H18.0991V8.06528H20.6158V5.54298Z" fill="#9D6F5F"/>
<path d="M18.1007 5.54298H15.584V8.06528H18.1007V5.54298Z" fill="#9D6F5F"/>
<path d="M23.1325 5.54298H20.6158V8.06528H23.1325V5.54298Z" fill="#B38F7D"/>
<path d="M15.584 5.54298H13.0673V8.06528H15.584V5.54298Z" fill="#9D6F5F"/>
<path d="M13.0689 5.54298H10.5522V8.06528H13.0689V5.54298Z" fill="#9D6F5F"/>
<path d="M73.4553 3.02229H70.9386V5.54459H73.4553V3.02229Z" fill="#3D3730"/>
<path d="M13.0689 8.06529H10.5522V10.5876H13.0689V8.06529Z" fill="#3D3730"/>
<path d="M15.584 8.06529H13.0673V10.5876H15.584V8.06529Z" fill="#3D3730"/>
<path d="M10.5522 8.06529H8.03552V10.5876H10.5522V8.06529Z" fill="#9D6F5F"/>
<path d="M20.6158 8.06529H18.0991V10.5876H20.6158V8.06529Z" fill="#3D3730"/>
<path d="M18.1007 8.06529H15.584V10.5876H18.1007V8.06529Z" fill="#3D3730"/>
<path d="M8.03556 8.06529H5.51886V10.5876H8.03556V8.06529Z" fill="#B38F7D"/>
<path d="M5.52048 8.06529H3.00378V10.5876H5.52048V8.06529Z" fill="#3D3730"/>
<path d="M23.1325 8.06529H20.6158V10.5876H23.1325V8.06529Z" fill="#9D6F5F"/>
<path d="M78.487 8.06529H75.9703V10.5876H78.487V8.06529Z" fill="#3D3730"/>
<path d="M40.7462 8.06529H38.2295V10.5876H40.7462V8.06529Z" fill="#3D3730"/>
<path d="M25.6492 8.06529H23.1325V10.5876H25.6492V8.06529Z" fill="#3D3730"/>
<path d="M43.2613 8.06529H40.7446V10.5876H43.2613V8.06529Z" fill="#3D3730"/>
<path d="M38.2295 8.06529H35.7128V10.5876H38.2295V8.06529Z" fill="#3D3730"/>
<path d="M48.2947 8.06529H45.778V10.5876H48.2947V8.06529Z" fill="#3D3730"/>
<path d="M45.778 8.06529H43.2613V10.5876H45.778V8.06529Z" fill="#3D3730"/>
<path d="M35.7128 8.06529H33.1961V10.5876H35.7128V8.06529Z" fill="#3D3730"/>
<path d="M28.1643 8.06529H25.6476V10.5876H28.1643V8.06529Z" fill="#3D3730"/>
<path d="M30.681 8.06529H28.1643V10.5876H30.681V8.06529Z" fill="#3D3730"/>
<path d="M75.972 8.06529H73.4553V10.5876H75.972V8.06529Z" fill="#B38F7D"/>
<path d="M50.8098 8.06529H48.2931V10.5876H50.8098V8.06529Z" fill="#3D3730"/>
<path d="M33.1977 8.06529H30.681V10.5876H33.1977V8.06529Z" fill="#3D3730"/>
<path d="M53.3265 8.06529H50.8098V10.5876H53.3265V8.06529Z" fill="#3D3730"/>
<path d="M70.9386 8.06529H68.4219V10.5876H70.9386V8.06529Z" fill="#3D3730"/>
<path d="M73.4553 8.06529H70.9386V10.5876H73.4553V8.06529Z" fill="#9D6F5F"/>
<path d="M65.9068 8.06529H63.3901V10.5876H65.9068V8.06529Z" fill="#92787A"/>
<path d="M68.4235 8.06529H65.9068V10.5876H68.4235V8.06529Z" fill="#92787A"/>
<path d="M55.8432 8.06529H53.3265V10.5876H55.8432V8.06529Z" fill="#3D3730"/>
<path d="M58.3583 8.06529H55.8416V10.5876H58.3583V8.06529Z" fill="#3D3730"/>
<path d="M63.3901 8.06529H60.8734V10.5876H63.3901V8.06529Z" fill="#92787A"/>
<path d="M60.875 8.06529H58.3583V10.5876H60.875V8.06529Z" fill="#92787A"/>
<path d="M70.9386 3.02229H68.4219V5.54459H70.9386V3.02229Z" fill="#B38F7D"/>
<path d="M60.875 0.5H58.3583V3.0223H60.875V0.5Z" fill="#3D3730"/>
<path d="M58.3583 0.5H55.8416V3.0223H58.3583V0.5Z" fill="#3D3730"/>
<path d="M63.3901 0.5H60.8734V3.0223H63.3901V0.5Z" fill="#3D3730"/>
<path d="M65.9068 0.5H63.3901V3.0223H65.9068V0.5Z" fill="#3D3730"/>
<path d="M68.4235 3.02229H65.9068V5.54459H68.4235V3.02229Z" fill="#9D6F5F"/>
<path d="M23.1325 3.02229H20.6158V5.54459H23.1325V3.02229Z" fill="#3D3730"/>
<path d="M20.6158 3.02229H18.0991V5.54459H20.6158V3.02229Z" fill="#3D3730"/>
<path d="M65.9068 3.02229H63.3901V5.54459H65.9068V3.02229Z" fill="#9D6F5F"/>
<path d="M63.3901 3.02229H60.8734V5.54459H63.3901V3.02229Z" fill="#9D6F5F"/>
<path d="M60.875 3.02229H58.3583V5.54459H60.875V3.02229Z" fill="#9D6F5F"/>
<path d="M18.1007 3.02229H15.584V5.54459H18.1007V3.02229Z" fill="#3D3730"/>
<path d="M58.3583 3.02229H55.8416V5.54459H58.3583V3.02229Z" fill="#B38F7D"/>
<path d="M55.8432 3.02229H53.3265V5.54459H55.8432V3.02229Z" fill="#3D3730"/>
<path d="M68.4235 0.5H65.9068V3.0223H68.4235V0.5Z" fill="#3D3730"/>
<path d="M10.5522 3.02229H8.03552V5.54459H10.5522V3.02229Z" fill="#3D3730"/>
<path d="M13.0689 3.02229H10.5522V5.54459H13.0689V3.02229Z" fill="#3D3730"/>
<path d="M15.584 3.02229H13.0673V5.54459H15.584V3.02229Z" fill="#3D3730"/>
<path d="M70.9386 0.5H68.4219V3.0223H70.9386V0.5Z" fill="#3D3730"/>
</g>
<defs>
<clipPath id="clip0_196_1062">
<rect width="78" height="58" fill="white" transform="translate(0.487061 0.5)"/>
</clipPath>
</defs>
</svg>
