<svg width="82" height="163" viewBox="0 0 82 163" fill="none" xmlns="http://www.w3.org/2000/svg">
<g clip-path="url(#clip0_196_174)">
<path d="M41.1665 0H36.0989V5.09398H41.1665V0Z" fill="#3D3730"/>
<path d="M46.2342 0H41.1666V5.09398H46.2342V0Z" fill="#3D3730"/>
<path d="M51.3018 0H46.2342V5.09398H51.3018V0Z" fill="#3D3730"/>
<path d="M20.896 5.09398H15.8284V10.188H20.896V5.09398Z" fill="#3D3730"/>
<path d="M25.9637 5.09398H20.896V10.188H25.9637V5.09398Z" fill="#3D3730"/>
<path d="M31.0313 5.09398H25.9637V10.188H31.0313V5.09398Z" fill="#3D3730"/>
<path d="M36.0989 5.09398H31.0313V10.188H36.0989V5.09398Z" fill="#3D3730"/>
<path d="M41.1665 5.09398H36.0989V10.188H41.1665V5.09398Z" fill="#3D3730"/>
<path d="M46.2342 5.09398H41.1666V10.188H46.2342V5.09398Z" fill="#3D3730"/>
<path d="M51.3018 5.09398H46.2342V10.188H51.3018V5.09398Z" fill="#3D3730"/>
<path d="M56.368 5.09398H51.3004V10.188H56.368V5.09398Z" fill="#3D3730"/>
<path d="M15.8298 10.188H10.7622V15.2819H15.8298V10.188Z" fill="#3D3730"/>
<path d="M20.896 10.188H15.8284V15.2819H20.896V10.188Z" fill="#3D3730"/>
<path d="M25.9637 10.188H20.896V15.2819H25.9637V10.188Z" fill="#3D3730"/>
<path d="M31.0313 10.188H25.9637V15.2819H31.0313V10.188Z" fill="#3D3730"/>
<path d="M36.0989 10.188H31.0313V15.2819H36.0989V10.188Z" fill="#3D3730"/>
<path d="M41.1665 10.188H36.0989V15.2819H41.1665V10.188Z" fill="#3D3730"/>
<path d="M46.2342 10.188H41.1666V15.2819H46.2342V10.188Z" fill="#3D3730"/>
<path d="M51.3018 10.188H46.2342V15.2819H51.3018V10.188Z" fill="#3D3730"/>
<path d="M56.368 10.188H51.3004V15.2819H56.368V10.188Z" fill="#3D3730"/>
<path d="M61.4356 10.188H56.368V15.2819H61.4356V10.188Z" fill="#3D3730"/>
<path d="M5.69459 15.2819H0.626953V20.3759H5.69459V15.2819Z" fill="#3D3730"/>
<path d="M10.7622 15.2819H5.69458V20.3759H10.7622V15.2819Z" fill="#3D3730"/>
<path d="M15.8298 15.2819H10.7622V20.3759H15.8298V15.2819Z" fill="#3D3730"/>
<path d="M20.896 15.2819H15.8284V20.3759H20.896V15.2819Z" fill="#3D3730"/>
<path d="M25.9637 15.2819H20.896V20.3759H25.9637V15.2819Z" fill="#3D3730"/>
<path d="M31.0313 15.2819H25.9637V20.3759H31.0313V15.2819Z" fill="#3D3730"/>
<path d="M36.0989 15.2819H31.0313V20.3759H36.0989V15.2819Z" fill="#3D3730"/>
<path d="M41.1665 15.2819H36.0989V20.3759H41.1665V15.2819Z" fill="#3D3730"/>
<path d="M46.2342 15.2819H41.1666V20.3759H46.2342V15.2819Z" fill="#3D3730"/>
<path d="M51.3018 15.2819H46.2342V20.3759H51.3018V15.2819Z" fill="#3D3730"/>
<path d="M56.368 15.2819H51.3004V20.3759H56.368V15.2819Z" fill="#3D3730"/>
<path d="M61.4356 15.2819H56.368V20.3759H61.4356V15.2819Z" fill="#3D3730"/>
<path d="M66.5032 15.2819H61.4356V20.3759H66.5032V15.2819Z" fill="#3D3730"/>
<path d="M10.7622 20.3744H5.69458V25.4684H10.7622V20.3744Z" fill="#3D3730"/>
<path d="M15.8298 20.3744H10.7622V25.4684H15.8298V20.3744Z" fill="#3D3730"/>
<path d="M20.896 20.3744H15.8284V25.4684H20.896V20.3744Z" fill="#3D3730"/>
<path d="M25.9637 20.3744H20.896V25.4684H25.9637V20.3744Z" fill="#3D3730"/>
<path d="M31.0313 20.3744H25.9637V25.4684H31.0313V20.3744Z" fill="#3D3730"/>
<path d="M36.0989 20.3744H31.0313V25.4684H36.0989V20.3744Z" fill="#3D3730"/>
<path d="M41.1665 20.3744H36.0989V25.4684H41.1665V20.3744Z" fill="#3D3730"/>
<path d="M46.2342 20.3744H41.1666V25.4684H46.2342V20.3744Z" fill="#3D3730"/>
<path d="M51.3018 20.3744H46.2342V25.4684H51.3018V20.3744Z" fill="#3D3730"/>
<path d="M56.368 20.3744H51.3004V25.4684H56.368V20.3744Z" fill="#3D3730"/>
<path d="M61.4356 20.3744H56.368V25.4684H61.4356V20.3744Z" fill="#3D3730"/>
<path d="M66.5032 20.3744H61.4356V25.4684H66.5032V20.3744Z" fill="#3D3730"/>
<path d="M71.5709 20.3744H66.5032V25.4684H71.5709V20.3744Z" fill="#3D3730"/>
<path d="M15.8298 25.4684H10.7622V30.5624H15.8298V25.4684Z" fill="#3D3730"/>
<path d="M20.896 25.4684H15.8284V30.5624H20.896V25.4684Z" fill="#3D3730"/>
<path d="M25.9637 25.4684H20.896V30.5624H25.9637V25.4684Z" fill="#3D3730"/>
<path d="M31.0313 25.4684H25.9637V30.5624H31.0313V25.4684Z" fill="#3D3730"/>
<path d="M36.0989 25.4684H31.0313V30.5624H36.0989V25.4684Z" fill="#3D3730"/>
<path d="M41.1665 25.4684H36.0989V30.5624H41.1665V25.4684Z" fill="#3D3730"/>
<path d="M46.2342 25.4684H41.1666V30.5624H46.2342V25.4684Z" fill="#D9A066"/>
<path d="M51.3018 25.4684H46.2342V30.5624H51.3018V25.4684Z" fill="#3D3730"/>
<path d="M56.368 25.4684H51.3004V30.5624H56.368V25.4684Z" fill="#3D3730"/>
<path d="M61.4356 25.4684H56.368V30.5624H61.4356V25.4684Z" fill="#D9A066"/>
<path d="M66.5032 25.4684H61.4356V30.5624H66.5032V25.4684Z" fill="#3D3730"/>
<path d="M71.5709 25.4684H66.5032V30.5624H71.5709V25.4684Z" fill="#3D3730"/>
<path d="M15.8298 30.5624H10.7622V35.6564H15.8298V30.5624Z" fill="#3D3730"/>
<path d="M20.896 30.5624H15.8284V35.6564H20.896V30.5624Z" fill="#3D3730"/>
<path d="M25.9637 30.5624H20.896V35.6564H25.9637V30.5624Z" fill="#3D3730"/>
<path d="M31.0313 30.5624H25.9637V35.6564H31.0313V30.5624Z" fill="#3D3730"/>
<path d="M36.0989 30.5624H31.0313V35.6564H36.0989V30.5624Z" fill="#D9A066"/>
<path d="M41.1665 30.5624H36.0989V35.6564H41.1665V30.5624Z" fill="#D9A066"/>
<path d="M46.2342 30.5624H41.1666V35.6564H46.2342V30.5624Z" fill="#EEC39A"/>
<path d="M51.3018 30.5624H46.2342V35.6564H51.3018V30.5624Z" fill="#EEC39A"/>
<path d="M56.368 30.5624H51.3004V35.6564H56.368V30.5624Z" fill="#3D3730"/>
<path d="M61.4356 30.5624H56.368V35.6564H61.4356V30.5624Z" fill="#D9A066"/>
<path d="M66.5032 30.5624H61.4356V35.6564H66.5032V30.5624Z" fill="#3D3730"/>
<path d="M71.5709 30.5624H66.5032V35.6564H71.5709V30.5624Z" fill="#3D3730"/>
<path d="M20.896 35.6564H15.8284V40.7504H20.896V35.6564Z" fill="#3D3730"/>
<path d="M25.9637 35.6564H20.896V40.7504H25.9637V35.6564Z" fill="#3D3730"/>
<path d="M31.0313 35.6564H25.9637V40.7504H31.0313V35.6564Z" fill="#D9A066"/>
<path d="M36.0989 35.6564H31.0313V40.7504H36.0989V35.6564Z" fill="#EEC39A"/>
<path d="M41.1665 35.6564H36.0989V40.7504H41.1665V35.6564Z" fill="#EEC39A"/>
<path d="M46.2342 35.6564H41.1666V40.7504H46.2342V35.6564Z" fill="#3D3730"/>
<path d="M51.3018 35.6564H46.2342V40.7504H51.3018V35.6564Z" fill="#EEC39A"/>
<path d="M56.368 35.6564H51.3004V40.7504H56.368V35.6564Z" fill="#EEC39A"/>
<path d="M61.4356 35.6564H56.368V40.7504H61.4356V35.6564Z" fill="#3D3730"/>
<path d="M66.5032 35.6564H61.4356V40.7504H66.5032V35.6564Z" fill="#D9A066"/>
<path d="M71.5709 35.6564H66.5032V40.7504H71.5709V35.6564Z" fill="#3D3730"/>
<path d="M20.896 40.7504H15.8284V45.8443H20.896V40.7504Z" fill="#3D3730"/>
<path d="M25.9637 40.7504H20.896V45.8443H25.9637V40.7504Z" fill="#D9A066"/>
<path d="M31.0313 40.7504H25.9637V45.8443H31.0313V40.7504Z" fill="#EEC39A"/>
<path d="M36.0989 40.7504H31.0313V45.8443H36.0989V40.7504Z" fill="#EEC39A"/>
<path d="M41.1665 40.7504H36.0989V45.8443H41.1665V40.7504Z" fill="#EEC39A"/>
<path d="M46.2342 40.7504H41.1666V45.8443H46.2342V40.7504Z" fill="#3D3730"/>
<path d="M51.3018 40.7504H46.2342V45.8443H51.3018V40.7504Z" fill="#EEC39A"/>
<path d="M56.368 40.7504H51.3004V45.8443H56.368V40.7504Z" fill="#EEC39A"/>
<path d="M61.4356 40.7504H56.368V45.8443H61.4356V40.7504Z" fill="#3D3730"/>
<path d="M66.5032 40.7504H61.4356V45.8443H66.5032V40.7504Z" fill="#EEC39A"/>
<path d="M71.5709 40.7504H66.5032V45.8443H71.5709V40.7504Z" fill="#3D3730"/>
<path d="M20.896 45.8429H15.8284V50.9368H20.896V45.8429Z" fill="#3D3730"/>
<path d="M25.9637 45.8429H20.896V50.9368H25.9637V45.8429Z" fill="#EEC39A"/>
<path d="M31.0313 45.8429H25.9637V50.9368H31.0313V45.8429Z" fill="#EEC39A"/>
<path d="M36.0989 45.8429H31.0313V50.9368H36.0989V45.8429Z" fill="#EEC39A"/>
<path d="M41.1665 45.8429H36.0989V50.9368H41.1665V45.8429Z" fill="#EEC39A"/>
<path d="M46.2342 45.8429H41.1666V50.9368H46.2342V45.8429Z" fill="#EEC39A"/>
<path d="M51.3018 45.8429H46.2342V50.9368H51.3018V45.8429Z" fill="#EEC39A"/>
<path d="M56.368 45.8429H51.3004V50.9368H56.368V45.8429Z" fill="#EEC39A"/>
<path d="M61.4356 45.8429H56.368V50.9368H61.4356V45.8429Z" fill="#EEC39A"/>
<path d="M66.5032 45.8429H61.4356V50.9368H66.5032V45.8429Z" fill="#EEC39A"/>
<path d="M71.5709 45.8429H66.5032V50.9368H71.5709V45.8429Z" fill="#3D3730"/>
<path d="M25.9637 50.9369H20.896V56.0308H25.9637V50.9369Z" fill="#3D3730"/>
<path d="M31.0313 50.9369H25.9637V56.0308H31.0313V50.9369Z" fill="#D9A066"/>
<path d="M36.0989 50.9369H31.0313V56.0308H36.0989V50.9369Z" fill="#EEC39A"/>
<path d="M41.1665 50.9369H36.0989V56.0308H41.1665V50.9369Z" fill="#EEC39A"/>
<path d="M46.2342 50.9369H41.1666V56.0308H46.2342V50.9369Z" fill="#EEC39A"/>
<path d="M51.3018 50.9369H46.2342V56.0308H51.3018V50.9369Z" fill="#3D3730"/>
<path d="M56.368 50.9369H51.3004V56.0308H56.368V50.9369Z" fill="#3D3730"/>
<path d="M61.4356 50.9369H56.368V56.0308H61.4356V50.9369Z" fill="#EEC39A"/>
<path d="M66.5032 50.9369H61.4356V56.0308H66.5032V50.9369Z" fill="#3D3730"/>
<path d="M31.0313 56.0308H25.9637V61.1248H31.0313V56.0308Z" fill="#3D3730"/>
<path d="M36.0989 56.0308H31.0313V61.1248H36.0989V56.0308Z" fill="#D9A066"/>
<path d="M41.1665 56.0308H36.0989V61.1248H41.1665V56.0308Z" fill="#D9A066"/>
<path d="M46.2342 56.0308H41.1666V61.1248H46.2342V56.0308Z" fill="#EEC39A"/>
<path d="M51.3018 56.0308H46.2342V61.1248H51.3018V56.0308Z" fill="#EEC39A"/>
<path d="M56.368 56.0308H51.3004V61.1248H56.368V56.0308Z" fill="#D9A066"/>
<path d="M61.4356 56.0308H56.368V61.1248H61.4356V56.0308Z" fill="#3D3730"/>
<path d="M36.0989 61.1248H31.0313V66.2188H36.0989V61.1248Z" fill="#3D3730"/>
<path d="M41.1665 61.1248H36.0989V66.2188H41.1665V61.1248Z" fill="#3D3730"/>
<path d="M46.2342 61.1248H41.1666V66.2188H46.2342V61.1248Z" fill="#3D3730"/>
<path d="M51.3018 61.1248H46.2342V66.2188H51.3018V61.1248Z" fill="#3D3730"/>
<path d="M56.368 61.1248H51.3004V66.2188H56.368V61.1248Z" fill="#3D3730"/>
<path d="M31.0313 66.2188H25.9637V71.3128H31.0313V66.2188Z" fill="#3D3730"/>
<path d="M36.0989 66.2188H31.0313V71.3128H36.0989V66.2188Z" fill="#DACECE"/>
<path d="M41.1665 66.2188H36.0989V71.3128H41.1665V66.2188Z" fill="white"/>
<path d="M46.2342 66.2188H41.1666V71.3128H46.2342V66.2188Z" fill="white"/>
<path d="M51.3018 66.2188H46.2342V71.3128H51.3018V66.2188Z" fill="white"/>
<path d="M56.368 66.2188H51.3004V71.3128H56.368V66.2188Z" fill="#DACECE"/>
<path d="M61.4356 66.2188H56.368V71.3128H61.4356V66.2188Z" fill="#3D3730"/>
<path d="M25.9637 71.3128H20.896V76.4068H25.9637V71.3128Z" fill="#3D3730"/>
<path d="M31.0313 71.3128H25.9637V76.4068H31.0313V71.3128Z" fill="#675E53"/>
<path d="M36.0989 71.3128H31.0313V76.4068H36.0989V71.3128Z" fill="#675E53"/>
<path d="M41.1665 71.3128H36.0989V76.4068H41.1665V71.3128Z" fill="#DACECE"/>
<path d="M46.2342 71.3128H41.1666V76.4068H46.2342V71.3128Z" fill="white"/>
<path d="M51.3018 71.3128H46.2342V76.4068H51.3018V71.3128Z" fill="white"/>
<path d="M56.368 71.3128H51.3004V76.4068H56.368V71.3128Z" fill="#DACECE"/>
<path d="M61.4356 71.3128H56.368V76.4068H61.4356V71.3128Z" fill="#675E53"/>
<path d="M66.5032 71.3128H61.4356V76.4068H66.5032V71.3128Z" fill="#3D3730"/>
<path d="M20.896 76.4068H15.8284V81.5007H20.896V76.4068Z" fill="#DACECE"/>
<path d="M25.9637 76.4068H20.896V81.5007H25.9637V76.4068Z" fill="#3D3730"/>
<path d="M31.0313 76.4068H25.9637V81.5007H31.0313V76.4068Z" fill="#948B81"/>
<path d="M36.0989 76.4068H31.0313V81.5007H36.0989V76.4068Z" fill="#948B81"/>
<path d="M41.1665 76.4068H36.0989V81.5007H41.1665V76.4068Z" fill="#675E53"/>
<path d="M46.2342 76.4068H41.1666V81.5007H46.2342V76.4068Z" fill="#DACECE"/>
<path d="M51.3018 76.4068H46.2342V81.5007H51.3018V76.4068Z" fill="#DACECE"/>
<path d="M56.368 76.4068H51.3004V81.5007H56.368V76.4068Z" fill="#675E53"/>
<path d="M61.4356 76.4068H56.368V81.5007H61.4356V76.4068Z" fill="#948B81"/>
<path d="M66.5032 76.4068H61.4356V81.5007H66.5032V76.4068Z" fill="#675E53"/>
<path d="M71.5709 76.4068H66.5032V81.5007H71.5709V76.4068Z" fill="#3D3730"/>
<path d="M20.896 81.4993H15.8284V86.5932H20.896V81.4993Z" fill="#3D3730"/>
<path d="M25.9637 81.4993H20.896V86.5932H25.9637V81.4993Z" fill="#948B81"/>
<path d="M31.0313 81.4993H25.9637V86.5932H31.0313V81.4993Z" fill="#948B81"/>
<path d="M36.0989 81.4993H31.0313V86.5932H36.0989V81.4993Z" fill="#948B81"/>
<path d="M41.1665 81.4993H36.0989V86.5932H41.1665V81.4993Z" fill="#948B81"/>
<path d="M46.2342 81.4993H41.1666V86.5932H46.2342V81.4993Z" fill="#675E53"/>
<path d="M51.3018 81.4993H46.2342V86.5932H51.3018V81.4993Z" fill="#3D3730"/>
<path d="M56.368 81.4993H51.3004V86.5932H56.368V81.4993Z" fill="#948B81"/>
<path d="M61.4356 81.4993H56.368V86.5932H61.4356V81.4993Z" fill="#948B81"/>
<path d="M66.5032 81.4993H61.4356V86.5932H66.5032V81.4993Z" fill="#675E53"/>
<path d="M71.5709 81.4993H66.5032V86.5932H71.5709V81.4993Z" fill="#3D3730"/>
<path d="M15.8298 86.5932H10.7622V91.6872H15.8298V86.5932Z" fill="white"/>
<path d="M20.896 86.5932H15.8284V91.6872H20.896V86.5932Z" fill="#3D3730"/>
<path d="M25.9637 86.5932H20.896V91.6872H25.9637V86.5932Z" fill="#948B81"/>
<path d="M31.0313 86.5932H25.9637V91.6872H31.0313V86.5932Z" fill="#948B81"/>
<path d="M36.0989 86.5932H31.0313V91.6872H36.0989V86.5932Z" fill="#948B81"/>
<path d="M41.1665 86.5932H36.0989V91.6872H41.1665V86.5932Z" fill="#948B81"/>
<path d="M46.2342 86.5932H41.1666V91.6872H46.2342V86.5932Z" fill="#948B81"/>
<path d="M51.3018 86.5932H46.2342V91.6872H51.3018V86.5932Z" fill="#675E53"/>
<path d="M56.368 86.5932H51.3004V91.6872H56.368V86.5932Z" fill="#948B81"/>
<path d="M61.4356 86.5932H56.368V91.6872H61.4356V86.5932Z" fill="#948B81"/>
<path d="M66.5032 86.5932H61.4356V91.6872H66.5032V86.5932Z" fill="#675E53"/>
<path d="M71.5709 86.5932H66.5032V91.6872H71.5709V86.5932Z" fill="#3D3730"/>
<path d="M15.8298 91.6872H10.7622V96.7812H15.8298V91.6872Z" fill="#DACECE"/>
<path d="M20.896 91.6872H15.8284V96.7812H20.896V91.6872Z" fill="#3D3730"/>
<path d="M25.9637 91.6872H20.896V96.7812H25.9637V91.6872Z" fill="#948B81"/>
<path d="M31.0313 91.6872H25.9637V96.7812H31.0313V91.6872Z" fill="#675E53"/>
<path d="M36.0989 91.6872H31.0313V96.7812H36.0989V91.6872Z" fill="#948B81"/>
<path d="M41.1665 91.6872H36.0989V96.7812H41.1665V91.6872Z" fill="#948B81"/>
<path d="M46.2342 91.6872H41.1666V96.7812H46.2342V91.6872Z" fill="#948B81"/>
<path d="M51.3018 91.6872H46.2342V96.7812H51.3018V91.6872Z" fill="#3D3730"/>
<path d="M56.368 91.6872H51.3004V96.7812H56.368V91.6872Z" fill="#948B81"/>
<path d="M61.4356 91.6872H56.368V96.7812H61.4356V91.6872Z" fill="#948B81"/>
<path d="M66.5032 91.6872H61.4356V96.7812H66.5032V91.6872Z" fill="#675E53"/>
<path d="M71.5709 91.6872H66.5032V96.7812H71.5709V91.6872Z" fill="#3D3730"/>
<path d="M15.8298 96.7812H10.7622V101.875H15.8298V96.7812Z" fill="#DACECE"/>
<path d="M20.896 96.7812H15.8284V101.875H20.896V96.7812Z" fill="#3D3730"/>
<path d="M25.9637 96.7812H20.896V101.875H25.9637V96.7812Z" fill="#948B81"/>
<path d="M31.0313 96.7812H25.9637V101.875H31.0313V96.7812Z" fill="#675E53"/>
<path d="M36.0989 96.7812H31.0313V101.875H36.0989V96.7812Z" fill="#948B81"/>
<path d="M41.1665 96.7812H36.0989V101.875H41.1665V96.7812Z" fill="#948B81"/>
<path d="M46.2342 96.7812H41.1666V101.875H46.2342V96.7812Z" fill="#948B81"/>
<path d="M51.3018 96.7812H46.2342V101.875H51.3018V96.7812Z" fill="#675E53"/>
<path d="M56.368 96.7812H51.3004V101.875H56.368V96.7812Z" fill="#948B81"/>
<path d="M61.4356 96.7812H56.368V101.875H61.4356V96.7812Z" fill="#948B81"/>
<path d="M66.5032 96.7812H61.4356V101.875H66.5032V96.7812Z" fill="#675E53"/>
<path d="M71.5709 96.7812H66.5032V101.875H71.5709V96.7812Z" fill="#3D3730"/>
<path d="M76.6385 96.7812H71.5709V101.875H76.6385V96.7812Z" fill="white"/>
<path d="M15.8298 101.875H10.7622V106.969H15.8298V101.875Z" fill="white"/>
<path d="M20.896 101.875H15.8284V106.969H20.896V101.875Z" fill="#3D3730"/>
<path d="M25.9637 101.875H20.896V106.969H25.9637V101.875Z" fill="#948B81"/>
<path d="M31.0313 101.875H25.9637V106.969H31.0313V101.875Z" fill="#948B81"/>
<path d="M36.0989 101.875H31.0313V106.969H36.0989V101.875Z" fill="#675E53"/>
<path d="M41.1665 101.875H36.0989V106.969H41.1665V101.875Z" fill="#948B81"/>
<path d="M46.2342 101.875H41.1666V106.969H46.2342V101.875Z" fill="#948B81"/>
<path d="M51.3018 101.875H46.2342V106.969H51.3018V101.875Z" fill="#3D3730"/>
<path d="M56.368 101.875H51.3004V106.969H56.368V101.875Z" fill="#948B81"/>
<path d="M61.4356 101.875H56.368V106.969H61.4356V101.875Z" fill="#948B81"/>
<path d="M66.5032 101.875H61.4356V106.969H66.5032V101.875Z" fill="#675E53"/>
<path d="M71.5709 101.875H66.5032V106.969H71.5709V101.875Z" fill="#3D3730"/>
<path d="M76.6385 101.875H71.5709V106.969H76.6385V101.875Z" fill="#DACECE"/>
<path d="M15.8298 106.968H10.7622V112.062H15.8298V106.968Z" fill="#3D3730"/>
<path d="M20.896 106.968H15.8284V112.062H20.896V106.968Z" fill="#3D3730"/>
<path d="M25.9637 106.968H20.896V112.062H25.9637V106.968Z" fill="#675E53"/>
<path d="M31.0313 106.968H25.9637V112.062H31.0313V106.968Z" fill="#948B81"/>
<path d="M36.0989 106.968H31.0313V112.062H36.0989V106.968Z" fill="#948B81"/>
<path d="M41.1665 106.968H36.0989V112.062H41.1665V106.968Z" fill="#675E53"/>
<path d="M46.2342 106.968H41.1666V112.062H46.2342V106.968Z" fill="#948B81"/>
<path d="M51.3018 106.968H46.2342V112.062H51.3018V106.968Z" fill="#675E53"/>
<path d="M56.368 106.968H51.3004V112.062H56.368V106.968Z" fill="#948B81"/>
<path d="M61.4356 106.968H56.368V112.062H61.4356V106.968Z" fill="#948B81"/>
<path d="M66.5032 106.968H61.4356V112.062H66.5032V106.968Z" fill="#675E53"/>
<path d="M71.5709 106.968H66.5032V112.062H71.5709V106.968Z" fill="#3D3730"/>
<path d="M76.6385 106.968H71.5709V112.062H76.6385V106.968Z" fill="#3D3730"/>
<path d="M10.7622 112.062H5.69458V117.156H10.7622V112.062Z" fill="#3D3730"/>
<path d="M15.8298 112.062H10.7622V117.156H15.8298V112.062Z" fill="#EEC39A"/>
<path d="M20.896 112.062H15.8284V117.156H20.896V112.062Z" fill="#3D3730"/>
<path d="M25.9637 112.062H20.896V117.156H25.9637V112.062Z" fill="#675E53"/>
<path d="M31.0313 112.062H25.9637V117.156H31.0313V112.062Z" fill="#675E53"/>
<path d="M36.0989 112.062H31.0313V117.156H36.0989V112.062Z" fill="#948B81"/>
<path d="M41.1665 112.062H36.0989V117.156H41.1665V112.062Z" fill="#948B81"/>
<path d="M46.2342 112.062H41.1666V117.156H46.2342V112.062Z" fill="#948B81"/>
<path d="M51.3018 112.062H46.2342V117.156H51.3018V112.062Z" fill="#3D3730"/>
<path d="M56.368 112.062H51.3004V117.156H56.368V112.062Z" fill="#675E53"/>
<path d="M61.4356 112.062H56.368V117.156H61.4356V112.062Z" fill="#675E53"/>
<path d="M66.5032 112.062H61.4356V117.156H66.5032V112.062Z" fill="#675E53"/>
<path d="M71.5709 112.062H66.5032V117.156H71.5709V112.062Z" fill="#3D3730"/>
<path d="M76.6385 112.062H71.5709V117.156H76.6385V112.062Z" fill="#EEC39A"/>
<path d="M81.7062 112.062H76.6385V117.156H81.7062V112.062Z" fill="#3D3730"/>
<path d="M10.7622 117.156H5.69458V122.25H10.7622V117.156Z" fill="#3D3730"/>
<path d="M15.8298 117.156H10.7622V122.25H15.8298V117.156Z" fill="#D9A066"/>
<path d="M20.896 117.156H15.8284V122.25H20.896V117.156Z" fill="#D9A066"/>
<path d="M25.9637 117.156H20.896V122.25H25.9637V117.156Z" fill="#3D3730"/>
<path d="M31.0313 117.156H25.9637V122.25H31.0313V117.156Z" fill="#5E6C74"/>
<path d="M36.0989 117.156H31.0313V122.25H36.0989V117.156Z" fill="#9BADB7"/>
<path d="M41.1665 117.156H36.0989V122.25H41.1665V117.156Z" fill="#9BADB7"/>
<path d="M46.2342 117.156H41.1666V122.25H46.2342V117.156Z" fill="#5E6C74"/>
<path d="M51.3018 117.156H46.2342V122.25H51.3018V117.156Z" fill="#5E6C74"/>
<path d="M56.368 117.156H51.3004V122.25H56.368V117.156Z" fill="#9BADB7"/>
<path d="M61.4356 117.156H56.368V122.25H61.4356V117.156Z" fill="#5E6C74"/>
<path d="M66.5032 117.156H61.4356V122.25H66.5032V117.156Z" fill="#3D3730"/>
<path d="M71.5709 117.156H66.5032V122.25H71.5709V117.156Z" fill="#D9A066"/>
<path d="M76.6385 117.156H71.5709V122.25H76.6385V117.156Z" fill="#D9A066"/>
<path d="M81.7062 117.156H76.6385V122.25H81.7062V117.156Z" fill="#3D3730"/>
<path d="M15.8298 122.25H10.7622V127.344H15.8298V122.25Z" fill="#3D3730"/>
<path d="M20.896 122.25H15.8284V127.344H20.896V122.25Z" fill="#3D3730"/>
<path d="M25.9637 122.25H20.896V127.344H25.9637V122.25Z" fill="#3D3730"/>
<path d="M31.0313 122.25H25.9637V127.344H31.0313V122.25Z" fill="#9BADB7"/>
<path d="M36.0989 122.25H31.0313V127.344H36.0989V122.25Z" fill="#9BADB7"/>
<path d="M41.1665 122.25H36.0989V127.344H41.1665V122.25Z" fill="#5E6C74"/>
<path d="M46.2342 122.25H41.1666V127.344H46.2342V122.25Z" fill="#3D3730"/>
<path d="M51.3018 122.25H46.2342V127.344H51.3018V122.25Z" fill="#3D3730"/>
<path d="M56.368 122.25H51.3004V127.344H56.368V122.25Z" fill="#9BADB7"/>
<path d="M61.4356 122.25H56.368V127.344H61.4356V122.25Z" fill="#9BADB7"/>
<path d="M66.5032 122.25H61.4356V127.344H66.5032V122.25Z" fill="#3D3730"/>
<path d="M71.5709 122.25H66.5032V127.344H71.5709V122.25Z" fill="#3D3730"/>
<path d="M76.6385 122.25H71.5709V127.344H76.6385V122.25Z" fill="#3D3730"/>
<path d="M25.9637 127.344H20.896V132.438H25.9637V127.344Z" fill="#3D3730"/>
<path d="M31.0313 127.344H25.9637V132.438H31.0313V127.344Z" fill="#9BADB7"/>
<path d="M36.0989 127.344H31.0313V132.438H36.0989V127.344Z" fill="#5E6C74"/>
<path d="M41.1665 127.344H36.0989V132.438H41.1665V127.344Z" fill="#3D3730"/>
<path d="M51.3018 127.344H46.2342V132.438H51.3018V127.344Z" fill="#3D3730"/>
<path d="M56.368 127.344H51.3004V132.438H56.368V127.344Z" fill="#5E6C74"/>
<path d="M61.4356 127.344H56.368V132.438H61.4356V127.344Z" fill="#9BADB7"/>
<path d="M66.5032 127.344H61.4356V132.438H66.5032V127.344Z" fill="#3D3730"/>
<path d="M25.9637 132.438H20.896V137.532H25.9637V132.438Z" fill="#3D3730"/>
<path d="M31.0313 132.438H25.9637V137.532H31.0313V132.438Z" fill="#9BADB7"/>
<path d="M36.0989 132.438H31.0313V137.532H36.0989V132.438Z" fill="#5E6C74"/>
<path d="M41.1665 132.438H36.0989V137.532H41.1665V132.438Z" fill="#3D3730"/>
<path d="M51.3018 132.438H46.2342V137.532H51.3018V132.438Z" fill="#3D3730"/>
<path d="M56.368 132.438H51.3004V137.532H56.368V132.438Z" fill="#5E6C74"/>
<path d="M61.4356 132.438H56.368V137.532H61.4356V132.438Z" fill="#9BADB7"/>
<path d="M66.5032 132.438H61.4356V137.532H66.5032V132.438Z" fill="#3D3730"/>
<path d="M25.9637 137.532H20.896V142.626H25.9637V137.532Z" fill="#3D3730"/>
<path d="M31.0313 137.532H25.9637V142.626H31.0313V137.532Z" fill="#9BADB7"/>
<path d="M36.0989 137.532H31.0313V142.626H36.0989V137.532Z" fill="#5E6C74"/>
<path d="M41.1665 137.532H36.0989V142.626H41.1665V137.532Z" fill="#3D3730"/>
<path d="M51.3018 137.532H46.2342V142.626H51.3018V137.532Z" fill="#3D3730"/>
<path d="M56.368 137.532H51.3004V142.626H56.368V137.532Z" fill="#5E6C74"/>
<path d="M61.4356 137.532H56.368V142.626H61.4356V137.532Z" fill="#9BADB7"/>
<path d="M66.5032 137.532H61.4356V142.626H66.5032V137.532Z" fill="#3D3730"/>
<path d="M25.9637 142.624H20.896V147.718H25.9637V142.624Z" fill="#3D3730"/>
<path d="M31.0313 142.624H25.9637V147.718H31.0313V142.624Z" fill="#9BADB7"/>
<path d="M36.0989 142.624H31.0313V147.718H36.0989V142.624Z" fill="#5E6C74"/>
<path d="M41.1665 142.624H36.0989V147.718H41.1665V142.624Z" fill="#3D3730"/>
<path d="M51.3018 142.624H46.2342V147.718H51.3018V142.624Z" fill="#3D3730"/>
<path d="M56.368 142.624H51.3004V147.718H56.368V142.624Z" fill="#5E6C74"/>
<path d="M61.4356 142.624H56.368V147.718H61.4356V142.624Z" fill="#9BADB7"/>
<path d="M66.5032 142.624H61.4356V147.718H66.5032V142.624Z" fill="#3D3730"/>
<path d="M25.9637 147.718H20.896V152.812H25.9637V147.718Z" fill="#3D3730"/>
<path d="M31.0313 147.718H25.9637V152.812H31.0313V147.718Z" fill="#5E6C74"/>
<path d="M36.0989 147.718H31.0313V152.812H36.0989V147.718Z" fill="#5E6C74"/>
<path d="M41.1665 147.718H36.0989V152.812H41.1665V147.718Z" fill="#3D3730"/>
<path d="M51.3018 147.718H46.2342V152.812H51.3018V147.718Z" fill="#3D3730"/>
<path d="M56.368 147.718H51.3004V152.812H56.368V147.718Z" fill="#5E6C74"/>
<path d="M61.4356 147.718H56.368V152.812H61.4356V147.718Z" fill="#5E6C74"/>
<path d="M66.5032 147.718H61.4356V152.812H66.5032V147.718Z" fill="#3D3730"/>
<path d="M25.9637 152.812H20.896V157.906H25.9637V152.812Z" fill="#3D3730"/>
<path d="M31.0313 152.812H25.9637V157.906H31.0313V152.812Z" fill="#3D3730"/>
<path d="M36.0989 152.812H31.0313V157.906H36.0989V152.812Z" fill="#3D3730"/>
<path d="M41.1665 152.812H36.0989V157.906H41.1665V152.812Z" fill="#3D3730"/>
<path d="M51.3018 152.812H46.2342V157.906H51.3018V152.812Z" fill="#3D3730"/>
<path d="M56.368 152.812H51.3004V157.906H56.368V152.812Z" fill="#3D3730"/>
<path d="M61.4356 152.812H56.368V157.906H61.4356V152.812Z" fill="#3D3730"/>
<path d="M66.5032 152.812H61.4356V157.906H66.5032V152.812Z" fill="#3D3730"/>
<path d="M31.0313 157.906H25.9637V163H31.0313V157.906Z" fill="#3D3730"/>
<path d="M36.0989 157.906H31.0313V163H36.0989V157.906Z" fill="#3D3730"/>
<path d="M41.1665 157.906H36.0989V163H41.1665V157.906Z" fill="#3D3730"/>
<path d="M56.368 157.906H51.3004V163H56.368V157.906Z" fill="#3D3730"/>
<path d="M61.4356 157.906H56.368V163H61.4356V157.906Z" fill="#3D3730"/>
<path d="M66.5032 157.906H61.4356V163H66.5032V157.906Z" fill="#3D3730"/>
</g>
<defs>
<clipPath id="clip0_196_174">
<rect width="81.0777" height="163" fill="white" transform="translate(0.626953)"/>
</clipPath>
</defs>
</svg>
