<svg width="131" height="90" viewBox="0 0 131 90" fill="none" xmlns="http://www.w3.org/2000/svg">
<g clip-path="url(#clip0_473_2864)">
<path d="M104.439 67.1205C104.439 67.8205 104.409 68.5131 104.357 69.1984C104.291 70.09 104.18 70.9743 104.025 71.8511H26.9674C26.8124 70.9743 26.7018 70.09 26.6354 69.1984C26.5837 68.5131 26.5542 67.8205 26.5542 67.1205C26.5542 49.2001 43.9889 34.6692 65.4963 34.6692C87.0038 34.6692 104.439 49.2001 104.439 67.1205Z" fill="#FF7427"/>
<path d="M115.557 43.4747C115.557 41.3599 113.838 39.643 111.721 39.643C109.603 39.643 107.884 41.3599 107.884 43.4747C107.884 44.2558 108.12 44.9779 108.526 45.5895L93.3269 57.1656C92.6555 57.674 91.6889 57.475 91.2757 56.7456L67.3261 14.4793C68.5214 13.8309 69.3403 12.5782 69.3403 11.1266C69.3403 9.0118 67.6212 7.29492 65.5037 7.29492C63.3861 7.29492 61.667 9.0118 61.667 11.1266C61.667 12.5782 62.486 13.8309 63.6813 14.4793L39.7316 56.7456C39.3184 57.475 38.3519 57.674 37.6805 57.1656L22.4814 45.5895C22.8798 44.9853 23.1233 44.2558 23.1233 43.4747C23.1233 41.3599 21.4042 39.643 19.2866 39.643C17.1691 39.643 15.45 41.3599 15.45 43.4747C15.45 45.4569 16.9699 47.078 18.903 47.2695L23.5881 86.0136C23.6693 86.7136 24.2669 87.2368 24.9678 87.2368H106.054C106.755 87.2368 107.353 86.7136 107.434 86.0136L112.119 47.2695C114.06 47.078 115.572 45.4642 115.572 43.4747H115.557Z" fill="#FFCA36"/>
<path d="M80.629 65.8237C80.629 66.9732 80.5552 68.1006 80.4076 69.1985C80.3043 70.1049 80.142 70.9965 79.9354 71.8512H51.0645C50.8579 70.9965 50.6956 70.1049 50.5923 69.1985C50.4448 68.1006 50.371 66.9732 50.371 65.8237C50.371 54.7119 57.1442 45.7001 65.4963 45.7001C73.8484 45.7001 80.629 54.7119 80.629 65.8237Z" fill="#FF7427"/>
<path d="M108.578 84.6799H22.4223C21.7174 84.6799 21.1459 85.2506 21.1459 85.9546C21.1459 86.6587 21.7174 87.2294 22.4223 87.2294H108.578C109.283 87.2294 109.854 86.6587 109.854 85.9546C109.854 85.2506 109.283 84.6799 108.578 84.6799Z" fill="#FFB624"/>
<path d="M111.758 70.4732V70.5764C111.758 71.2838 111.182 71.8512 110.481 71.8512H20.5114C19.8105 71.8512 19.235 71.2838 19.235 70.5764V70.4732C19.235 69.7659 19.8105 69.1985 20.5114 69.1985H110.481C111.182 69.1985 111.758 69.7659 111.758 70.4732Z" fill="#FFB624"/>
<path d="M69.582 77.3669L66.4048 74.1938C65.9063 73.6959 65.0981 73.6959 64.5996 74.1938L61.4224 77.3669C60.9239 77.8647 60.9239 78.6718 61.4224 79.1697L64.5996 82.3428C65.0981 82.8406 65.9063 82.8406 66.4048 82.3428L69.582 79.1697C70.0805 78.6718 70.0805 77.8647 69.582 77.3669Z" fill="#FF7427"/>
<path d="M79.2021 76.4182L78.2578 77.3613C77.7593 77.8591 77.7593 78.6663 78.2578 79.1641L79.2021 80.1072C79.7006 80.605 80.5088 80.605 81.0072 80.1072L81.9516 79.1641C82.45 78.6663 82.45 77.8591 81.9516 77.3613L81.0072 76.4182C80.5088 75.9204 79.7006 75.9204 79.2021 76.4182Z" fill="#FF7427"/>
<path d="M91.7509 76.4198L90.8066 77.3629C90.3081 77.8607 90.3081 78.6678 90.8066 79.1657L91.7509 80.1088C92.2494 80.6066 93.0576 80.6066 93.5561 80.1088L94.5004 79.1657C94.9989 78.6678 94.9989 77.8607 94.5004 77.3629L93.5561 76.4198C93.0576 75.922 92.2494 75.922 91.7509 76.4198Z" fill="#FF7427"/>
<path d="M37.4346 76.4251L36.4903 77.3682C35.9919 77.866 35.9919 78.6732 36.4903 79.171L37.4346 80.1141C37.9331 80.6119 38.7413 80.6119 39.2398 80.1141L40.1841 79.171C40.6826 78.6732 40.6826 77.866 40.1841 77.3682L39.2398 76.4251C38.7413 75.9273 37.9331 75.9273 37.4346 76.4251Z" fill="#FF7427"/>
<path d="M49.9834 76.4266L49.039 77.3697C48.5406 77.8675 48.5406 78.6747 49.039 79.1725L49.9834 80.1156C50.4818 80.6134 51.29 80.6134 51.7885 80.1156L52.7328 79.1725C53.2313 78.6747 53.2313 77.8675 52.7328 77.3697L51.7885 76.4266C51.29 75.9288 50.4818 75.9288 49.9834 76.4266Z" fill="#FF7427"/>
<path opacity="0.17" d="M129.613 87.2294H1.3871C0.621027 87.2294 0 87.8497 0 88.6147C0 89.3798 0.621027 90 1.3871 90H129.613C130.379 90 131 89.3798 131 88.6147C131 87.8497 130.379 87.2294 129.613 87.2294Z" fill="#444444"/>
<path d="M75.5454 77.4586C73.9074 78.2176 73.1253 79.1682 72.4908 81.1356C72.2842 81.7914 71.5169 81.7914 71.3029 81.1356C70.6758 79.1608 69.8863 78.2176 68.2484 77.4586C67.7024 77.2081 67.7024 76.2797 68.2484 76.0291C69.8863 75.2702 70.6684 74.3196 71.3029 72.3522C71.5095 71.6964 72.2769 71.6964 72.4908 72.3522C73.118 74.327 73.9074 75.2702 75.5454 76.0291C76.0914 76.2797 76.0914 77.2081 75.5454 77.4586Z" fill="white"/>
<path d="M119.763 42.0452C118.125 42.8042 117.343 43.7547 116.708 45.7221C116.502 46.3779 115.734 46.3779 115.52 45.7221C114.893 43.7473 114.104 42.8042 112.466 42.0452C111.92 41.7947 111.92 40.8662 112.466 40.6157C114.104 39.8567 114.886 38.9062 115.52 36.9388C115.727 36.2829 116.494 36.2829 116.708 36.9388C117.336 38.9135 118.125 39.8567 119.763 40.6157C120.309 40.8662 120.309 41.7947 119.763 42.0452Z" fill="white"/>
<path d="M61.4825 5.60012C59.8446 6.35908 59.0625 7.30963 58.428 9.27705C58.2214 9.93285 57.454 9.93285 57.2401 9.27705C56.6129 7.30227 55.8235 6.35908 54.1855 5.60012C53.6395 5.34959 53.6395 4.42114 54.1855 4.17061C55.8235 3.41165 56.6055 2.4611 57.2401 0.493685C57.4467 -0.16212 58.214 -0.16212 58.428 0.493685C59.0551 2.46847 59.8446 3.41165 61.4825 4.17061C62.0285 4.42114 62.0285 5.34959 61.4825 5.60012Z" fill="white"/>
<path d="M30.2801 38.4346C28.6422 39.1936 27.8601 40.1441 27.2256 42.1115C27.019 42.7673 26.2516 42.7673 26.0377 42.1115C25.4105 40.1367 24.6211 39.1936 22.9831 38.4346C22.4371 38.1841 22.4371 37.2556 22.9831 37.0051C24.6211 36.2461 25.4032 35.2956 26.0377 33.3282C26.2443 32.6724 27.0116 32.6724 27.2256 33.3282C27.8527 35.3029 28.6422 36.2461 30.2801 37.0051C30.8261 37.2556 30.8261 38.1841 30.2801 38.4346Z" fill="white"/>
</g>
<defs>
<clipPath id="clip0_473_2864">
<rect width="131" height="90" fill="white"/>
</clipPath>
</defs>
</svg>
