<svg width="149" height="68" viewBox="0 0 149 68" fill="none" xmlns="http://www.w3.org/2000/svg">
<g clip-path="url(#clip0_359_23)">
<path d="M34.3017 34.4067L32.0546 46.0727L28.7115 34.4067H26.0687L22.7255 46.0727L20.4785 34.4067H17.0879L21.115 51.8939H24.2156L27.4621 39.6749L30.5627 51.8939H33.6651L37.6923 34.4067H34.3017Z" fill="#353D4C"/>
<path d="M48.2251 35.0253C47.2603 34.4924 46.1441 34.226 44.8783 34.226C43.6126 34.226 42.4963 34.4924 41.5297 35.0253C40.5649 35.5581 39.8171 36.3118 39.2881 37.2862C38.7592 38.2607 38.4948 39.3884 38.4948 40.6713V45.6256C38.4948 46.9085 38.7592 48.0362 39.2881 49.0107C39.8171 49.9851 40.5649 50.7388 41.5297 51.2716C42.4945 51.8045 43.6107 52.0709 44.8783 52.0709C46.1459 52.0709 47.2603 51.8045 48.2251 51.2716C49.19 50.7388 49.9378 49.9851 50.4667 49.0107C50.9956 48.0362 51.2601 46.9085 51.2601 45.6256V40.6713C51.2601 39.3884 50.9956 38.2607 50.4667 37.2862C49.9378 36.3118 49.19 35.5581 48.2251 35.0253ZM47.8458 45.7114C47.8458 46.3209 47.7236 46.8574 47.4792 47.3227C47.2348 47.7881 46.8882 48.1457 46.4396 48.3994C45.9909 48.6512 45.4693 48.7789 44.8765 48.7789C44.2837 48.7789 43.7621 48.653 43.3134 48.3994C42.8648 48.1475 42.5182 47.7881 42.2738 47.3227C42.0294 46.8574 41.9072 46.3209 41.9072 45.7114V40.5873C41.9072 39.9778 42.0294 39.4413 42.2738 38.976C42.5182 38.5107 42.8648 38.153 43.3134 37.8994C43.7621 37.6475 44.2837 37.5198 44.8765 37.5198C45.4693 37.5198 45.9909 37.6457 46.4396 37.8994C46.8882 38.1512 47.2348 38.5107 47.4792 38.976C47.7236 39.4413 47.8458 39.9778 47.8458 40.5873V45.7114Z" fill="#353D4C"/>
<path d="M62.9093 44.684C63.316 44.5763 63.6972 44.4176 64.0528 44.2077C64.786 43.7752 65.3532 43.1639 65.7545 42.3738C66.1558 41.5836 66.3546 40.6676 66.3546 39.6256C66.3546 38.5836 66.1539 37.6676 65.7545 36.8774C65.3532 36.0873 64.7897 35.476 64.0601 35.0435C63.3306 34.611 62.4861 34.3939 61.5231 34.3939H53.8665V51.892H57.1604V44.8555H59.1575L63.0971 51.892H67.0878L62.9093 44.6822V44.684ZM62.1469 41.4304C61.8897 41.5982 61.5942 41.6822 61.2568 41.6822H57.1586V37.569H61.2568C61.6015 37.569 61.9025 37.653 62.1578 37.8209C62.415 37.9888 62.612 38.2296 62.7524 38.5417C62.8928 38.8537 62.9621 39.215 62.9621 39.6238C62.9548 40.0325 62.8801 40.3939 62.7396 40.7059C62.5992 41.0179 62.4004 41.2588 62.145 41.4267L62.1469 41.4304Z" fill="#353D4C"/>
<path d="M47.2366 24.7187H49.4326C49.7846 24.7187 50.0709 24.4322 50.0709 24.08C50.0709 23.7278 49.7846 23.4413 49.4326 23.4413H47.2366C46.8846 23.4413 46.5983 23.7278 46.5983 24.08C46.5983 24.4322 46.8846 24.7187 47.2366 24.7187Z" fill="#353D4C"/>
<path d="M41.3802 24.7187H43.5761C43.9281 24.7187 44.2145 24.4322 44.2145 24.08C44.2145 23.7278 43.9281 23.4413 43.5761 23.4413H41.3802C41.0282 23.4413 40.7418 23.7278 40.7418 24.08C40.7418 24.4322 41.0282 24.7187 41.3802 24.7187Z" fill="#353D4C"/>
<path d="M35.5256 24.7187H37.7215C38.0735 24.7187 38.3599 24.4322 38.3599 24.08C38.3599 23.7278 38.0735 23.4413 37.7215 23.4413H35.5256C35.1736 23.4413 34.8872 23.7278 34.8872 24.08C34.8872 24.4322 35.1736 24.7187 35.5256 24.7187Z" fill="#353D4C"/>
<path d="M17.9616 24.7187H20.1575C20.5096 24.7187 20.7959 24.4322 20.7959 24.08C20.7959 23.7278 20.5096 23.4413 20.1575 23.4413H17.9616C17.6096 23.4413 17.3232 23.7278 17.3232 24.08C17.3232 24.4322 17.6096 24.7187 17.9616 24.7187Z" fill="#353D4C"/>
<path d="M4.74937 33.4797C4.7822 33.4851 4.81503 33.487 4.84604 33.487C5.1561 33.487 5.42785 33.2607 5.4771 32.945C5.57924 32.2662 5.75615 31.5983 6.00055 30.9559C6.1264 30.6256 5.96043 30.257 5.63213 30.1311C5.30201 30.0052 4.93358 30.1713 4.80773 30.4997C4.5305 31.226 4.3317 31.9833 4.21497 32.7516C4.16208 33.1001 4.40101 33.4267 4.74937 33.4797Z" fill="#353D4C"/>
<path d="M58.946 24.7187H61.1419C61.4939 24.7187 61.7803 24.4322 61.7803 24.08C61.7803 23.7278 61.4939 23.4413 61.1419 23.4413H58.946C58.594 23.4413 58.3076 23.7278 58.3076 24.08C58.3076 24.4322 58.594 24.7187 58.946 24.7187Z" fill="#353D4C"/>
<path d="M29.6708 24.7187H31.8668C32.2188 24.7187 32.5051 24.4322 32.5051 24.08C32.5051 23.7278 32.2188 23.4413 31.8668 23.4413H29.6708C29.3188 23.4413 29.0325 23.7278 29.0325 24.08C29.0325 24.4322 29.3188 24.7187 29.6708 24.7187Z" fill="#353D4C"/>
<path d="M23.8162 24.7187H26.0122C26.3642 24.7187 26.6505 24.4322 26.6505 24.08C26.6505 23.7278 26.3642 23.4413 26.0122 23.4413H23.8162C23.4642 23.4413 23.1779 23.7278 23.1779 24.08C23.1779 24.4322 23.4642 24.7187 23.8162 24.7187Z" fill="#353D4C"/>
<path d="M88.7993 62.206C88.874 62.206 88.9488 62.1932 89.0236 62.1658C89.7495 61.8939 90.4499 61.5418 91.1028 61.122C91.4001 60.9304 91.4858 60.5363 91.2943 60.2388C91.1028 59.9414 90.7089 59.8556 90.4116 60.0472C89.8334 60.4195 89.2169 60.7297 88.5749 60.9688C88.2448 61.0928 88.077 61.4615 88.201 61.7899C88.2977 62.0472 88.5403 62.2042 88.7993 62.2042V62.206Z" fill="#353D4C"/>
<path d="M95.4235 53.341C95.4399 53.341 95.4563 53.3428 95.4745 53.3428C95.8047 53.3428 96.0837 53.0892 96.1111 52.7534C96.133 52.4669 96.1439 52.1767 96.1439 51.8884V50.5089C96.1439 50.1567 95.8576 49.8702 95.5056 49.8702C95.1536 49.8702 94.8672 50.1567 94.8672 50.5089V51.8884C94.8672 52.1439 94.8581 52.4012 94.838 52.6548C94.8107 53.007 95.0733 53.3136 95.4253 53.341H95.4235Z" fill="#353D4C"/>
<path d="M4.72747 39.3391C5.07948 39.3391 5.36583 39.0526 5.36583 38.7005V36.5034C5.36583 36.1512 5.07948 35.8647 4.72747 35.8647C4.37546 35.8647 4.08911 36.1512 4.08911 36.5034V38.7005C4.08911 39.0526 4.37546 39.3391 4.72747 39.3391Z" fill="#353D4C"/>
<path d="M93.0398 58.6165C93.1547 58.7041 93.2896 58.7461 93.4246 58.7461C93.6179 58.7461 93.8095 58.6585 93.9353 58.4924C94.404 57.872 94.8071 57.2005 95.1318 56.4961C95.2795 56.1767 95.1409 55.7972 94.8217 55.6475C94.5025 55.4997 94.1232 55.6384 93.9736 55.9577C93.6854 56.58 93.3298 57.1731 92.9157 57.7224C92.7024 58.0034 92.7589 58.4048 93.0398 58.6165Z" fill="#353D4C"/>
<path d="M64.8006 24.7187H66.9965C67.3485 24.7187 67.6349 24.4322 67.6349 24.08C67.6349 23.7278 67.3485 23.4413 66.9965 23.4413H64.8006C64.4486 23.4413 64.1622 23.7278 64.1622 24.08C64.1622 24.4322 64.4486 24.7187 64.8006 24.7187Z" fill="#353D4C"/>
<path d="M95.5038 44.0125C95.1518 44.0125 94.8655 44.299 94.8655 44.6512V46.8483C94.8655 47.2005 95.1518 47.487 95.5038 47.487C95.8558 47.487 96.1422 47.2005 96.1422 46.8483V44.6512C96.1422 44.299 95.8558 44.0125 95.5038 44.0125Z" fill="#353D4C"/>
<path d="M82.981 62.8592H85.2189C85.5709 62.8592 85.8573 62.5727 85.8573 62.2205C85.8573 61.8683 85.5709 61.5818 85.2189 61.5818H82.981C82.629 61.5818 82.3427 61.8683 82.3427 62.2205C82.3427 62.5727 82.629 62.8592 82.981 62.8592Z" fill="#353D4C"/>
<path d="M71.2718 62.8592H73.4677C73.8197 62.8592 74.1061 62.5727 74.1061 62.2205C74.1061 61.8683 73.8197 61.5818 73.4677 61.5818H71.2718C70.9198 61.5818 70.6334 61.8683 70.6334 62.2205C70.6334 62.5727 70.9198 62.8592 71.2718 62.8592Z" fill="#353D4C"/>
<path d="M77.1264 62.8592H79.3223C79.6744 62.8592 79.9607 62.5727 79.9607 62.2205C79.9607 61.8683 79.6744 61.5818 79.3223 61.5818H77.1264C76.7744 61.5818 76.488 61.8683 76.488 62.2205C76.488 62.5727 76.7744 62.8592 77.1264 62.8592Z" fill="#353D4C"/>
<path d="M50.049 61.5818H47.8531C47.5011 61.5818 47.2147 61.8683 47.2147 62.2205C47.2147 62.5727 47.5011 62.8592 47.8531 62.8592H50.049C50.401 62.8592 50.6874 62.5727 50.6874 62.2205C50.6874 61.8683 50.401 61.5818 50.049 61.5818Z" fill="#353D4C"/>
<path d="M55.2855 24.7187C55.6375 24.7187 55.9238 24.4322 55.9238 24.08C55.9238 23.7278 55.6375 23.4413 55.2855 23.4413H53.0895C52.7375 23.4413 52.4512 23.7278 52.4512 24.08C52.4512 24.4322 52.7375 24.7187 53.0895 24.7187H55.2855Z" fill="#353D4C"/>
<path d="M55.9038 61.5818H53.7078C53.3558 61.5818 53.0695 61.8683 53.0695 62.2205C53.0695 62.5727 53.3558 62.8592 53.7078 62.8592H55.9038C56.2558 62.8592 56.5421 62.5727 56.5421 62.2205C56.5421 61.8683 56.2558 61.5818 55.9038 61.5818Z" fill="#353D4C"/>
<path d="M44.1944 61.5818H41.9985C41.6465 61.5818 41.3601 61.8683 41.3601 62.2205C41.3601 62.5727 41.6465 62.8592 41.9985 62.8592H44.1944C44.5464 62.8592 44.8328 62.5727 44.8328 62.2205C44.8328 61.8683 44.5464 61.5818 44.1944 61.5818Z" fill="#353D4C"/>
<path d="M38.3398 61.5818H36.1439C35.7918 61.5818 35.5055 61.8683 35.5055 62.2205C35.5055 62.5727 35.7918 62.8592 36.1439 62.8592H38.3398C38.6918 62.8592 38.9782 62.5727 38.9782 62.2205C38.9782 61.8683 38.6918 61.5818 38.3398 61.5818Z" fill="#353D4C"/>
<path d="M67.613 61.5818H65.417C65.065 61.5818 64.7787 61.8683 64.7787 62.2205C64.7787 62.5727 65.065 62.8592 65.417 62.8592H67.613C67.965 62.8592 68.2513 62.5727 68.2513 62.2205C68.2513 61.8683 67.965 61.5818 67.613 61.5818Z" fill="#353D4C"/>
<path d="M72.8512 23.4413H70.6552C70.3032 23.4413 70.0168 23.7278 70.0168 24.08C70.0168 24.4322 70.3032 24.7187 70.6552 24.7187H72.8512C73.2032 24.7187 73.4895 24.4322 73.4895 24.08C73.4895 23.7278 73.2032 23.4413 72.8512 23.4413Z" fill="#353D4C"/>
<path d="M61.7584 61.5818H59.5624C59.2104 61.5818 58.9241 61.8683 58.9241 62.2205C58.9241 62.5727 59.2104 62.8592 59.5624 62.8592H61.7584C62.1104 62.8592 62.3967 62.5727 62.3967 62.2205C62.3967 61.8683 62.1104 61.5818 61.7584 61.5818Z" fill="#353D4C"/>
<path d="M4.72747 45.1968C5.07948 45.1968 5.36583 44.9103 5.36583 44.5581V42.361C5.36583 42.0088 5.07948 41.7224 4.72747 41.7224C4.37546 41.7224 4.08911 42.0088 4.08911 42.361V44.5581C4.08911 44.9103 4.37546 45.1968 4.72747 45.1968Z" fill="#353D4C"/>
<path d="M32.4832 61.5818H30.2873C29.9353 61.5818 29.6489 61.8683 29.6489 62.2205C29.6489 62.5727 29.9353 62.8592 30.2873 62.8592H32.4832C32.8352 62.8592 33.1216 62.5727 33.1216 62.2205C33.1216 61.8683 32.8352 61.5818 32.4832 61.5818Z" fill="#353D4C"/>
<path d="M93.6945 29.7899C93.8094 30.0034 94.03 30.1238 94.2562 30.1238C94.3583 30.1238 94.4641 30.0983 94.5608 30.0453C94.8709 29.8775 94.9858 29.4888 94.8161 29.1786C94.4459 28.4979 94.0009 27.8537 93.4957 27.2643C93.2658 26.9979 92.8628 26.9669 92.5947 27.1968C92.3265 27.4267 92.2974 27.83 92.5272 28.0983C92.974 28.6202 93.368 29.1895 93.6945 29.7917V29.7899Z" fill="#353D4C"/>
<path d="M26.6286 61.5818H24.4327C24.0807 61.5818 23.7943 61.8683 23.7943 62.2205C23.7943 62.5727 24.0807 62.8592 24.4327 62.8592H26.6286C26.9806 62.8592 27.267 62.5727 27.267 62.2205C27.267 61.8683 26.9806 61.5818 26.6286 61.5818Z" fill="#353D4C"/>
<path d="M7.76239 28.0308C8.21471 27.5143 8.72175 27.0435 9.27256 26.6348C9.55526 26.4249 9.61363 26.0235 9.40388 25.7406C9.19413 25.4578 8.79288 25.3994 8.51018 25.6092C7.88824 26.0727 7.31371 26.6037 6.80303 27.1877C6.57139 27.4541 6.59693 27.8574 6.86322 28.0892C6.98359 28.195 7.13497 28.2479 7.28271 28.2479C7.45962 28.2479 7.63654 28.1749 7.76239 28.0308Z" fill="#353D4C"/>
<path d="M5.36583 50.4158V48.2187C5.36583 47.8665 5.07948 47.58 4.72747 47.58C4.37546 47.58 4.08911 47.8665 4.08911 48.2187V50.4158C4.08911 50.768 4.37546 51.0545 4.72747 51.0545C5.07948 51.0545 5.36583 50.768 5.36583 50.4158Z" fill="#353D4C"/>
<path d="M9.74686 59.9979C9.17416 59.622 8.63794 59.1822 8.15644 58.6932C7.90839 58.4413 7.50349 58.4395 7.25362 58.6859C7.00192 58.934 7.0001 59.3373 7.24632 59.5891C7.79166 60.1421 8.39719 60.6384 9.04467 61.0636C9.15227 61.1348 9.27447 61.1676 9.39485 61.1676C9.60277 61.1676 9.80705 61.0654 9.92925 60.8793C10.1226 60.5837 10.0405 60.1877 9.74503 59.9943L9.74686 59.9979Z" fill="#353D4C"/>
<path d="M5.58113 53.9267C5.50635 53.5818 5.16711 53.3629 4.82239 53.4358C4.47768 53.5107 4.25882 53.8501 4.33177 54.195C4.4941 54.9541 4.7385 55.6986 5.0595 56.4066C5.16528 56.642 5.39874 56.7826 5.64132 56.7826C5.72886 56.7826 5.81823 56.7643 5.90395 56.726C6.22496 56.58 6.36722 56.2023 6.22313 55.8811C5.94043 55.257 5.72521 54.6001 5.58113 53.9285V53.9267Z" fill="#353D4C"/>
<path d="M20.774 61.5818H18.5781C18.226 61.5818 17.9397 61.8683 17.9397 62.2205C17.9397 62.5727 18.226 62.8592 18.5781 62.8592H20.774C21.126 62.8592 21.4124 62.5727 21.4124 62.2205C21.4124 61.8683 21.126 61.5818 20.774 61.5818Z" fill="#353D4C"/>
<path d="M14.9284 61.58C14.239 61.5709 13.5532 61.4888 12.8875 61.3373C12.5446 61.2588 12.2017 61.4742 12.1233 61.8172C12.0449 62.1603 12.2601 62.5034 12.603 62.5818C13.3562 62.7534 14.1332 62.8464 14.912 62.8574H14.9211C15.2695 62.8574 15.554 62.5764 15.5595 62.226C15.5631 61.8738 15.2823 61.5837 14.9284 61.58Z" fill="#353D4C"/>
<path d="M12.3258 25.1074C12.9824 24.9158 13.6627 24.7935 14.3485 24.7424C14.7005 24.7169 14.9649 24.4103 14.9394 24.0599C14.9139 23.7096 14.6056 23.445 14.2573 23.4687C13.4803 23.5253 12.7106 23.664 11.9683 23.8811C11.6291 23.9797 11.4357 24.3355 11.5342 24.6731C11.6163 24.9523 11.8698 25.1329 12.147 25.1329C12.2072 25.1329 12.2674 25.1238 12.3276 25.1074H12.3258Z" fill="#353D4C"/>
<path d="M87.7614 18.4705C95.4217 18.4705 103.04 14.1074 110.507 9.83003C116.712 6.27528 123.128 2.6001 129.375 1.61835C136.379 0.516161 142.263 2.86105 147.891 8.99426C148.13 9.25339 148.533 9.27163 148.794 9.03258C149.055 8.79353 149.071 8.39025 148.832 8.1293C135.762 -6.10975 122.601 1.42857 109.872 8.72054C103.667 12.2753 97.251 15.9505 91.0043 16.9322C84.0006 18.0326 78.1167 15.6895 72.4882 9.55631C72.2493 9.29718 71.8462 9.27893 71.5854 9.51799C71.3246 9.75704 71.3082 10.1603 71.5471 10.4213C76.9494 16.3063 82.3645 18.4724 87.7614 18.4724V18.4705Z" fill="#353D4C"/>
<path d="M110.505 17.9322C116.71 14.3775 123.126 10.7023 129.373 9.72052C136.377 8.61833 142.261 10.9632 147.889 17.0964C148.128 17.3556 148.531 17.3738 148.792 17.1348C149.053 16.8957 149.069 16.4924 148.83 16.2315C135.76 1.99242 122.599 9.53074 109.87 16.8227C105.378 19.3957 100.777 22.0307 96.2078 23.664C93.5814 20.9286 89.8935 19.2187 85.8135 19.2187H74.0112C73.5005 18.7278 72.9935 18.2096 72.4864 17.6585C72.2475 17.3994 71.8444 17.3811 71.5836 17.6202C71.3228 17.8592 71.3064 18.2625 71.5453 18.5234C71.7642 18.7625 71.9849 18.9924 72.2037 19.2205H14.4178C6.46748 19.2187 0 25.6913 0 33.6439V52.6548C0 60.6092 6.46748 67.08 14.4178 67.08H85.8153C93.7656 67.08 100.233 60.6092 100.233 52.6548V47.7077C103.682 46.1457 107.109 44.1822 110.507 42.2369C116.712 38.6822 123.128 35.007 129.375 34.0253C136.379 32.9231 142.263 35.268 147.891 41.4012C148.13 41.6603 148.533 41.6786 148.794 41.4395C149.055 41.2004 149.071 40.7972 148.832 40.5362C135.762 26.2972 122.601 33.8355 109.872 41.1275C106.697 42.9468 103.467 44.7953 100.233 46.3008V39.6056C103.682 38.0435 107.109 36.08 110.507 34.1348C116.712 30.58 123.128 26.9048 129.375 25.9231C136.379 24.8227 142.263 27.1658 147.891 33.299C148.13 33.5581 148.533 33.5764 148.794 33.3373C149.055 33.0983 149.071 32.695 148.832 32.434C135.764 18.195 122.601 25.7333 109.872 33.0253C106.697 34.8446 103.467 36.6932 100.233 38.1986V33.6439C100.233 32.9395 100.18 32.2497 100.082 31.5727C103.582 29.9997 107.06 28.007 110.507 26.0344C116.712 22.4796 123.128 18.8045 129.375 17.8227C136.379 16.7205 142.263 19.0654 147.891 25.1986C148.13 25.4577 148.533 25.476 148.794 25.2369C149.055 24.9979 149.071 24.5946 148.832 24.3337C135.762 10.0928 122.601 17.6329 109.872 24.9249C106.567 26.8191 103.201 28.7461 99.8337 30.2826C99.3376 28.2114 98.3946 26.3136 97.1106 24.695C101.614 23.0253 106.088 20.4632 110.507 17.9322H110.505ZM85.8153 20.4961C89.3154 20.4961 92.4999 21.8756 94.8563 24.1165C93.5668 24.5198 92.2828 24.8337 91.0043 25.0344C90.9186 25.0472 90.8347 25.0581 90.7508 25.0709C90.6942 24.9687 90.6121 24.8793 90.5027 24.8191C89.8224 24.4413 89.102 24.1348 88.3597 23.9103C88.0222 23.8081 87.6666 23.9979 87.5644 24.3355C87.4623 24.6731 87.6538 25.0289 87.9894 25.1311C88.1426 25.1767 88.294 25.2296 88.4454 25.2826C86.6397 25.3464 84.9089 25.1585 83.2309 24.7169H84.5587C84.9107 24.7169 85.1971 24.4304 85.1971 24.0782C85.1971 23.726 84.9107 23.4395 84.5587 23.4395H82.3627C82.0107 23.4395 81.7244 23.726 81.7244 24.0782C81.7244 24.1402 81.7353 24.2005 81.7536 24.257C79.5686 23.465 77.4747 22.215 75.4302 20.4961H85.8135H85.8153ZM98.9564 46.8775C96.2954 48.0362 93.6343 48.9286 91.0043 49.341C87.4404 49.9012 84.1666 49.5672 81.0696 48.299L77.2212 41.6293L78.2353 40.2169C81.4125 42.0271 84.5897 42.7753 87.7614 42.7753C90.2474 42.7753 92.7278 42.3136 95.201 41.5472C95.2922 41.5964 95.3944 41.6275 95.5038 41.6275C95.7573 41.6275 95.9762 41.4778 96.0783 41.2625C97.0395 40.9377 97.997 40.5672 98.9546 40.164V46.8756L98.9564 46.8775ZM72.5667 42.049V35.7935C73.5753 36.8063 74.5857 37.6932 75.5962 38.4632L72.9606 42.4687C72.8293 42.33 72.698 42.1895 72.5667 42.0472V42.049ZM98.6445 30.8081C96.0874 31.9012 93.5322 32.7388 91.0043 33.1366C84.0006 34.2369 78.1168 31.8939 72.4883 25.7607C72.2493 25.5015 71.8463 25.4833 71.5854 25.7223C71.3246 25.9614 71.3082 26.3647 71.5471 26.6256C76.9495 32.5107 82.3646 34.6767 87.7614 34.6767C90.1215 34.6767 92.478 34.2607 94.829 33.5618C94.8527 33.8446 94.8673 34.1293 94.8673 34.414V35.1329C94.8673 35.4851 95.1536 35.7716 95.5056 35.7716C95.8576 35.7716 96.144 35.4851 96.144 35.1329V34.414C96.144 33.9979 96.1203 33.5782 96.0728 33.1658C97.0048 32.8501 97.935 32.4942 98.8634 32.1037C98.9236 32.611 98.9564 33.1238 98.9564 33.6457V38.7753C98.0189 39.184 97.0796 39.5581 96.144 39.8921V38.7935C96.144 38.4413 95.8576 38.1548 95.5056 38.1548C95.1536 38.1548 94.8673 38.4413 94.8673 38.7935V40.3191C93.5741 40.7223 92.2865 41.0399 91.0061 41.2406C86.6306 41.9286 82.6929 41.2716 78.9794 39.1859L82.4138 34.4085H78.2663L76.2983 37.4012C75.0107 36.4067 73.7431 35.2296 72.4901 33.8647C72.2512 33.6056 71.8481 33.5873 71.5873 33.8264C71.4195 33.9796 71.3556 34.2004 71.3921 34.4085H69.2746V51.8957H72.5685V48.1092L74.3833 45.5837C75.1238 46.2187 75.8643 46.7899 76.6048 47.299L79.2403 51.8975H83.147L82.0563 50.007C83.9605 50.611 85.8628 50.8811 87.7632 50.8811C91.5095 50.8811 95.2448 49.8355 98.9582 48.2698V52.6585C98.9582 59.9085 93.0634 65.8063 85.8172 65.8063H14.4178C7.17149 65.8063 1.27672 59.9085 1.27672 52.6585V33.6475C1.27672 26.3975 7.17149 20.4997 14.4178 20.4997H73.5078C74.7681 21.6676 76.0266 22.6402 77.2869 23.4432H76.5099C76.1579 23.4432 75.8716 23.7296 75.8716 24.0818C75.8716 24.434 76.1579 24.7205 76.5099 24.7205H78.7059C78.8883 24.7205 79.0524 24.6421 79.1691 24.518C82.0344 25.965 84.9016 26.5745 87.7614 26.5745C90.4571 26.5745 93.1473 26.0326 95.8284 25.1457C97.1909 26.7497 98.1758 28.684 98.6445 30.8099V30.8081Z" fill="#353D4C"/>
</g>
<defs>
<clipPath id="clip0_359_23">
<rect width="149" height="67" fill="white" transform="translate(0 0.0800171)"/>
</clipPath>
</defs>
</svg>
