<svg width="411" height="379" viewBox="0 0 411 379" fill="none" xmlns="http://www.w3.org/2000/svg">
<g clip-path="url(#clip0_365_66)">
<path d="M403.427 378.59H40.946L31.7105 276.094L11.3231 49.7611L10.7266 43.1279C10.6092 41.8003 11.5871 40.6196 12.9169 40.502L39.9388 38.0574C41.2637 37.9399 42.4371 38.9197 42.5593 40.2473L43.0531 45.7243L43.7327 53.2785C43.8109 54.1212 43.7425 54.9687 43.5323 55.7721C43.2487 56.8793 42.7011 57.9032 41.9042 58.7458C39.3326 61.4549 38.0614 65.3741 38.9757 69.4501C40.1393 74.6479 44.7888 78.4446 50.1032 78.5524C50.8121 78.5671 51.5064 78.5181 52.181 78.4201C58.2435 77.4844 62.6094 71.9681 62.0521 65.766C61.7392 62.3123 59.9644 59.3435 57.3879 57.4231C55.7598 56.2081 54.7038 54.371 54.5229 52.3428L53.7407 43.6864L53.3446 39.2724C53.2273 37.9448 54.2051 36.769 55.5349 36.6465L87.5877 33.7463C88.9175 33.6288 90.0909 34.6086 90.2083 35.9411L90.4723 38.8854L91.3816 48.9675C91.4501 49.7464 91.4012 50.5302 91.2252 51.2798C90.9563 52.4555 90.3989 53.548 89.558 54.4347C87.1135 57.0116 85.8423 60.676 86.5072 64.5364C87.485 70.2192 92.5892 74.4029 98.3437 74.2413C98.4023 74.2413 98.4561 74.2364 98.5148 74.2315C105.252 73.9571 110.302 68.1028 109.706 61.4549C109.393 58.0012 107.613 55.0373 105.042 53.112C103.414 51.897 102.358 50.0599 102.177 48.0317L101.174 36.8964L100.998 34.9613C100.876 33.6337 101.859 32.4579 103.184 32.3354L135.242 29.4352C136.571 29.3177 137.745 30.2975 137.862 31.63L137.901 32.0562L139.035 44.6564C139.099 45.3765 139.06 46.1016 138.918 46.7972C138.664 48.0317 138.092 49.1928 137.207 50.1236C134.767 52.7005 133.496 56.3649 134.161 60.2253C135.031 65.3006 139.197 69.1806 144.179 69.8371C144.775 69.9155 145.381 69.9498 145.997 69.9302C152.813 69.744 157.961 63.8505 157.36 57.1487C157.047 53.6901 155.267 50.7262 152.696 48.8009C151.067 47.5859 150.011 45.7488 149.831 43.7255L148.652 30.6551C148.633 30.464 148.638 30.2828 148.667 30.1015C148.814 29.0139 149.699 28.1321 150.838 28.0292L182.895 25.129C183.629 25.0605 184.318 25.3299 184.807 25.8198C185.198 26.2019 185.462 26.7261 185.516 27.3189L186.689 40.3453C186.733 40.8254 186.728 41.3055 186.679 41.7758C186.523 43.2797 185.907 44.7102 184.861 45.8125C182.289 48.5265 181.018 52.4408 181.932 56.5217C182.812 60.4506 185.692 63.586 189.344 64.9185C190.517 65.3545 191.769 65.5995 193.06 65.624C200.168 65.7709 205.63 59.7305 205.009 52.8376C204.701 49.379 202.921 46.4151 200.349 44.4947C198.721 43.2748 197.665 41.4426 197.479 39.4145L196.306 26.344C196.184 25.0115 197.162 23.8357 198.491 23.7181L221.001 21.6802L230.549 20.8179C231.043 20.7739 231.517 20.8816 231.918 21.107C232.603 21.4744 233.091 22.175 233.17 23.0078L234.309 35.6324L234.343 36.0391C234.524 38.0329 233.893 40.0513 232.515 41.5063C229.943 44.2154 228.672 48.1346 229.586 52.2106C230.246 55.1647 232.031 57.6631 234.426 59.2896C236.245 60.5339 238.416 61.2639 240.714 61.3129C247.822 61.4598 253.283 55.4194 252.662 48.5265C252.349 45.0728 250.575 42.104 247.998 40.1836C246.37 38.9637 245.319 37.1315 245.133 35.1034L243.955 22.0329C243.838 20.7004 244.815 19.5246 246.145 19.407L268.772 17.3593L278.198 16.5068C278.721 16.4628 279.22 16.5852 279.64 16.8351C280.291 17.2172 280.75 17.8933 280.823 18.6967L281.752 29.0286L281.997 31.728C282.173 33.7267 281.547 35.7402 280.168 37.1952C277.597 39.9044 276.326 43.8235 277.235 47.8995C277.675 49.8591 278.604 51.6129 279.88 53.0483C281.997 55.4341 285.053 56.9332 288.367 57.0018C295.476 57.1487 300.937 51.1083 300.316 44.2154C300.003 40.7617 298.224 37.7929 295.652 35.8725C294.024 34.6575 292.968 32.8204 292.787 30.7923L291.609 17.7218C291.491 16.3942 292.469 15.2184 293.794 15.0959L316.489 13.0433L325.852 12.1957C326.404 12.1468 326.932 12.2888 327.363 12.5681C327.974 12.9551 328.404 13.6116 328.472 14.3905L329.191 22.3856L329.646 27.4169C329.827 29.4156 329.201 31.4291 327.822 32.8841C325.378 35.461 324.106 39.1254 324.771 42.9809C324.982 44.2154 325.392 45.3814 325.955 46.4445C327.993 50.2804 332.1 52.818 336.603 52.6907C343.418 52.5045 348.566 46.611 347.965 39.9043C347.652 36.4506 345.873 33.4867 343.301 31.5614C341.673 30.3465 340.617 28.5093 340.436 26.4812L339.258 13.4107C339.135 12.0831 340.118 10.9073 341.443 10.7848L358.345 9.25636L367.653 8.41374C368.983 8.29617 370.157 9.27596 370.274 10.6085L390.422 234.276L403.422 378.59H403.427Z" fill="#DBB12A"/>
<path d="M411 378.59H46.324L31.7105 276.094L0.0244567 53.8173C-0.161328 52.4995 0.752929 51.2698 2.07298 51.0837L11.3231 49.761L28.9335 47.238C30.2536 47.0518 31.4759 47.9679 31.6665 49.2907L33.5097 62.2386C33.7933 64.2276 33.2702 66.2705 31.9697 67.7941C29.5398 70.6355 28.474 74.6135 29.5936 78.6404C31.0261 83.7696 35.8663 87.3214 41.1807 87.1548C46.6173 86.9834 50.9099 83.2405 52.1811 78.42C52.5771 76.9405 52.6847 75.3679 52.4549 73.761C51.9611 70.3269 50.0348 67.4561 47.3654 65.6728C45.6737 64.5412 44.5248 62.7628 44.2412 60.7494L43.5323 55.772L42.3883 47.7573C42.2758 46.9832 42.5447 46.2435 43.0532 45.7242C43.4101 45.3568 43.8892 45.0971 44.4368 45.0188L53.7407 43.6862L76.2989 40.4578C77.6189 40.2716 78.8412 41.1878 79.0319 42.5105L80.8751 55.4634C81.1586 57.4475 80.6355 59.4903 79.335 61.0139C77.0274 63.7181 75.9469 67.4414 76.8122 71.2626C78.0834 76.8866 83.3978 80.796 89.1327 80.3404C93.2835 80.0072 96.701 77.5871 98.5148 74.2313C99.6833 72.0954 100.192 69.5773 99.8202 66.9809C99.3313 63.5467 97.4001 60.6759 94.7307 58.8927C93.0391 57.761 91.895 55.9827 91.6066 53.9692L91.2252 51.2845L89.7536 40.9771C89.6363 40.1737 89.9296 39.4094 90.4723 38.8852C90.8243 38.5521 91.2839 38.317 91.8021 38.2386L101.175 36.8963L123.664 33.6776C124.984 33.4915 126.207 34.4076 126.397 35.7303L128.24 48.6832C128.524 50.6673 128.001 52.715 126.7 54.2386C124.393 56.938 123.312 60.6661 124.178 64.4824C125.449 70.1064 130.763 74.0207 136.498 73.5602C139.583 73.3103 142.262 71.9141 144.179 69.837C146.496 67.3336 147.704 63.8455 147.186 60.2056C146.697 56.7665 144.765 53.9006 142.096 52.1125C140.409 50.9808 139.26 49.2025 138.972 47.189L138.918 46.7971L137.119 34.1969C137.002 33.3641 137.319 32.5705 137.901 32.0561C138.243 31.7425 138.679 31.5319 139.167 31.4633L148.667 30.1014L171.03 26.9023C172.35 26.7113 173.572 27.6323 173.763 28.955L175.606 41.903C175.889 43.8871 175.366 45.9349 174.066 47.4584C171.636 50.2998 170.57 54.2778 171.694 58.2999C173.122 63.4291 177.967 66.9809 183.277 66.8143C185.545 66.7408 187.613 66.05 189.344 64.9184C193.045 62.5081 195.216 58.0892 194.551 53.4254C194.062 49.9912 192.131 47.1204 189.461 45.3323C188.166 44.4652 187.193 43.2208 186.68 41.7756C186.518 41.3347 186.406 40.8791 186.337 40.4088L184.484 27.4167C184.401 26.8387 184.533 26.2851 184.807 25.8197C185.169 25.222 185.785 24.7909 186.533 24.6831L218.395 20.1222C219.544 19.9556 220.615 20.6317 221.001 21.68C221.059 21.8368 221.103 22.0034 221.128 22.1748L222.971 35.1228C223.255 37.1069 222.732 39.1547 221.431 40.6783C219.001 43.5197 217.935 47.4976 219.06 51.5197C220.487 56.6489 225.333 60.2007 230.642 60.0341C231.982 59.99 233.253 59.7304 234.426 59.2895C239.472 57.4083 242.708 52.2056 241.916 46.6452C241.427 43.211 239.496 40.3402 236.827 38.5521C235.727 37.8173 234.856 36.8081 234.309 35.6323C234.011 35.0101 233.805 34.3341 233.703 33.6286L231.918 21.1069L231.85 20.6366C231.664 19.3138 232.578 18.0891 233.898 17.9029L265.76 13.342C267.08 13.1509 268.303 14.0719 268.493 15.3947L268.772 17.3591L270.341 28.3426C270.62 30.3316 270.102 32.3745 268.796 33.8981C266.371 36.7395 265.301 40.7175 266.425 44.7395C267.853 49.8687 272.698 53.4205 278.007 53.2539C278.648 53.2343 279.274 53.1657 279.88 53.0482C285.996 51.892 290.171 46.1014 289.282 39.865C288.793 36.4308 286.862 33.5601 284.192 31.7719C283.146 31.0763 282.31 30.1259 281.752 29.0285C281.415 28.3524 281.18 27.6176 281.068 26.8485L279.64 16.835L279.215 13.8564C279.029 12.5385 279.943 11.3089 281.264 11.1227L313.126 6.5618C314.446 6.37074 315.668 7.29175 315.859 8.61447L316.489 13.0431L317.707 21.5625C317.99 23.5514 317.467 25.5943 316.162 27.1179C313.854 29.8172 312.779 33.5454 313.639 37.3617C314.91 42.9857 320.22 46.9 325.955 46.4444C332.755 45.9006 337.591 39.7475 336.642 33.0849C336.153 29.6507 334.222 26.7799 331.553 24.9966C330.55 24.3255 329.739 23.4241 329.186 22.3855C328.805 21.6702 328.546 20.8913 328.428 20.0732L327.358 12.5679L326.575 7.08109C326.39 5.75837 327.304 4.53362 328.624 4.34256L354.683 0.614444C356.003 0.423384 357.225 1.34439 357.411 2.66711L358.35 9.25624L390.427 234.276L411 378.59Z" fill="#F2F2F2"/>
</g>
<defs>
<clipPath id="clip0_365_66">
<rect width="411" height="378" fill="white" transform="translate(0 0.590088)"/>
</clipPath>
</defs>
</svg>
