<svg width="876" height="1423" viewBox="0 0 876 1423" fill="none" xmlns="http://www.w3.org/2000/svg">
<g clip-path="url(#clip0_1_71)">
<path d="M745.47 218.89H677.31C665.911 218.89 656.67 228.131 656.67 239.53V307.69C656.67 319.089 665.911 328.33 677.31 328.33H745.47C756.869 328.33 766.11 319.089 766.11 307.69V239.53C766.11 228.131 756.869 218.89 745.47 218.89Z" fill="#F76652"/>
<path d="M198.25 437.78H130.09C118.691 437.78 109.45 447.021 109.45 458.42V526.58C109.45 537.979 118.691 547.22 130.09 547.22H198.25C209.649 547.22 218.89 537.979 218.89 526.58V458.42C218.89 447.021 209.649 437.78 198.25 437.78Z" fill="#F76652"/>
<path d="M858.61 656.66H855.08C855.03 656.66 854.98 656.66 854.92 656.66H786.75C776.67 656.66 768.28 649.43 766.48 639.87C766.48 639.7 766.46 639.54 766.46 639.37V455.07C766.46 445.52 758.72 437.78 749.17 437.78H745.56C745.56 437.78 745.51 437.78 745.48 437.78H567.87C557.76 437.78 549.34 430.49 547.58 420.89C547.36 419.67 547.24 418.43 547.24 417.14V314.46C547.46 313.35 547.58 312.21 547.58 311.04V236.18C547.58 226.63 539.84 218.89 530.29 218.89H458.43C448.3 218.89 439.88 211.58 438.14 201.97V201.82C438.14 201.82 438.14 201.77 438.13 201.75C438.13 201.7 438.13 201.65 438.13 201.6V126.74C438.13 117.19 430.39 109.45 420.84 109.45H236.54C236.54 109.45 236.51 109.45 236.5 109.45H218.91V198.26C218.91 199.54 219.03 200.81 219.25 202.02C219.25 202.04 219.25 202.05 219.27 202.07C219.52 211.4 227.15 218.89 236.54 218.89H307.72C319.12 218.89 328.36 228.13 328.36 239.53V526.58C328.36 537.98 319.12 547.22 307.72 547.22H236.54C227.15 547.22 219.51 554.71 219.28 564.04C219.26 564.06 219.26 564.07 219.26 564.09C219.04 565.3 218.92 566.57 218.92 567.85V745.46C218.92 756.87 209.68 766.11 198.27 766.11H127.11C117.72 766.11 110.07 773.59 109.83 782.93C109.81 782.95 109.81 782.98 109.81 783C109.59 784.22 109.47 785.46 109.47 786.75V854.92C109.47 866.32 100.23 875.56 88.83 875.56H17.64C8.25 875.56 0.6 883.04 0.36 892.38C0.34 892.4 0.34 892.43 0.34 892.45C0.12 893.66 0 894.91 0 896.2V1292.7C0 1293.98 0.12 1295.23 0.34 1296.45C0.34 1296.48 0.34 1296.5 0.36 1296.54C0.6 1305.87 8.25 1313.34 17.64 1313.34H88.8C100.2 1313.34 109.44 1322.58 109.44 1333.98V1402.15C109.44 1403.43 109.56 1404.68 109.78 1405.9C109.78 1405.93 109.78 1405.95 109.8 1405.99C110.04 1415.32 117.69 1422.79 127.08 1422.79H311.38C320.93 1422.79 328.68 1415.06 328.68 1405.51V1330.65C328.68 1329.49 328.56 1328.36 328.34 1327.26V1312.75H232.01C224.65 1310.77 219.25 1304.06 219.25 1296.07V1111.77C219.25 1102.2 226.98 1094.47 236.53 1094.47H657.02V1313.35H564.88C555.32 1313.35 547.58 1321.1 547.58 1330.65V1405.9C547.58 1405.9 547.58 1405.93 547.6 1405.95C547.82 1415.29 555.47 1422.79 564.88 1422.79H639.72C649.28 1422.79 657.02 1415.06 657.02 1405.51V1330.27C658.77 1320.65 667.18 1313.35 677.31 1313.35H749.18C758.73 1313.35 766.46 1305.62 766.46 1296.07V1220.83C768.2 1211.22 776.61 1203.92 786.73 1203.91H858.61C868.16 1203.91 875.9 1196.17 875.9 1186.62V673.99C875.9 664.44 868.16 656.7 858.61 656.7V656.66Z" fill="#F76652"/>
<path d="M127.08 109.44H218.89V95.58C219.11 94.47 219.23 93.32 219.23 92.14V17.29C219.23 7.74 211.49 0 201.94 0H127.08C117.69 0 110.07 7.49 109.81 16.81C109.58 18.05 109.44 19.33 109.44 20.63V88.8C109.44 90.11 109.58 91.38 109.81 92.62C110.07 101.95 117.69 109.43 127.08 109.43V109.44Z" fill="#F76652"/>
<path d="M219.24 1111.74V1312.73H328.68V1220.78C330.29 1211.98 337.49 1205.12 346.48 1204.05H420.69C430.24 1204.05 437.97 1196.3 437.97 1186.75V1112.33C439.3 1102.23 447.96 1094.45 458.42 1094.45H236.52C226.97 1094.45 219.24 1102.18 219.24 1111.75V1111.74Z" fill="#F7E352"/>
<path d="M547.57 1093.84V1094.44H526.59C537.99 1094.44 547.23 1103.68 547.23 1115.08V1329.02C547.23 1330.3 547.35 1331.55 547.57 1332.77V1330.63C547.57 1321.08 555.3 1313.33 564.87 1313.33H657.01V1093.85H547.57V1093.84Z" fill="#F7E352"/>
<path d="M219.24 892.84V967.7C219.24 977.25 211.49 985 201.94 985H127.08C117.53 985 109.78 992.73 109.78 1002.28V1186.58C109.78 1196.14 117.53 1203.88 127.08 1203.88H201.94C211.49 1203.88 219.24 1196.15 219.24 1186.58V1111.74C219.24 1102.17 226.97 1094.44 236.52 1094.44H328.68V875.56H236.52C226.97 875.56 219.24 883.29 219.24 892.84Z" fill="#FF9A5B"/>
<path d="M749.17 766.11H674.31C664.76 766.11 657.01 758.36 657.01 748.81V564.51C657.01 554.96 649.28 547.21 639.71 547.21H564.87C555.31 547.21 547.57 539.48 547.57 529.93V328.33H438.13V639.37C438.13 648.92 430.38 656.65 420.83 656.65H345.97C336.42 656.65 328.69 664.4 328.69 673.95V875.55H639.72C649.28 875.55 657.02 883.28 657.02 892.83V1186.57C657.02 1196.13 664.77 1203.87 674.32 1203.87H749.18C758.73 1203.87 766.46 1196.14 766.46 1186.57V783.38C766.46 773.83 758.73 766.1 749.18 766.1L749.17 766.11Z" fill="#FF9A5B"/>
<path d="M438.12 236.18C438.12 226.63 430.38 218.89 420.83 218.89H345.97C336.42 218.89 328.68 226.63 328.68 236.18V328.33H438.12V236.18Z" fill="#FF9A5B"/>
<path d="M749.16 218.89H674.3C664.751 218.89 657.01 226.631 657.01 236.18V311.04C657.01 320.589 664.751 328.33 674.3 328.33H749.16C758.709 328.33 766.45 320.589 766.45 311.04V236.18C766.45 226.631 758.709 218.89 749.16 218.89Z" fill="#FF9A5B"/>
<path d="M639.71 874.96H328.68V1094.44H657.01V892.24C657.01 882.69 649.28 874.96 639.71 874.96Z" fill="#FFBB68"/>
<path d="M201.94 437.78H127.08C117.531 437.78 109.79 445.521 109.79 455.07V529.93C109.79 539.479 117.531 547.22 127.08 547.22H201.94C211.489 547.22 219.23 539.479 219.23 529.93V455.07C219.23 445.521 211.489 437.78 201.94 437.78Z" fill="#FFBB68"/>
</g>
<defs>
<clipPath id="clip0_1_71">
<rect width="875.9" height="1422.77" fill="white"/>
</clipPath>
</defs>
</svg>
