<svg width="4811" height="1248" viewBox="0 0 4811 1248" fill="none" xmlns="http://www.w3.org/2000/svg">
<path fill-rule="evenodd" clip-rule="evenodd" d="M4003.02 513.486V491.231C4003.02 471.959 4010.99 455.659 4022.25 443.699C4035.09 430.061 4052.64 422 4072.23 422H4721.78C4742.06 422 4758.69 430.916 4770.39 442.628C4782.2 454.44 4790.98 471.084 4790.98 491.231V582.91C4790.98 603.253 4782.01 620.252 4769.32 632.206C4757.37 643.473 4741.06 651.449 4721.78 651.449H4600.26V1054.9C4600.26 1073.48 4593.1 1090.73 4580 1103.83L4579.95 1103.88L4579.91 1103.92C4567.8 1115.97 4551.18 1124.12 4531.71 1124.12H4422.47C4403.14 1124.12 4386.86 1116.12 4374.92 1104.87C4361.19 1091.93 4353.26 1074.35 4353.26 1054.9V1050.55C4352.47 1050.58 4351.67 1050.59 4350.86 1050.59H4295.55V1054.9C4295.55 1073.35 4288.5 1090.63 4275.31 1103.83C4263.26 1115.89 4246.62 1124.12 4227.1 1124.12H3672.37C3653.77 1124.12 3636.53 1116.94 3623.43 1103.83C3610.33 1090.73 3603.17 1073.49 3603.17 1054.9V1019.8C3603.17 1006.09 3607.06 993.013 3614.5 981.772C3607.13 970.606 3603.19 957.564 3603.19 943.783V877.128C3602.41 877.154 3601.63 877.168 3600.84 877.168H3596.55V900.691C3596.55 916.096 3591.58 930.333 3582.68 942.017C3592.1 954.268 3597.44 969.245 3597.44 985.588V1050.56C3597.44 1071.05 3589.07 1089.3 3574.9 1102.78C3562.21 1114.85 3545.07 1123.17 3524.93 1123.17H3068.25C3048.03 1123.17 3030.94 1114.78 3018.34 1102.86L3018.3 1102.82L3018.26 1102.78C3003.99 1089.21 2995.75 1070.9 2995.75 1050.56V1042.41H2918.74C2898.8 1042.41 2881.64 1034.29 2868.8 1022.15C2854.44 1008.63 2846.06 990.292 2846.06 969.796V920.221H2831.98C2812.5 920.221 2794.5 912.774 2780.72 899.076C2769.76 888.203 2762.42 874.253 2760.1 858.428L2760.1 858.419C2759.61 855.067 2759.3 851.45 2759.3 847.609V619.911C2759.3 599.903 2767.49 582.755 2779.61 569.949L2779.61 569.945C2793.1 555.69 2811.39 547.299 2831.91 547.299H2845.81V533.362C2845.81 512.377 2854.93 494.944 2867.46 482.415C2879.88 469.986 2897.28 460.75 2918.39 460.75H3109.65C3130.74 460.75 3148.12 469.972 3160.54 482.343L3160.61 482.415L3160.68 482.488C3173.05 494.911 3182.25 512.294 3182.25 533.362V547.299H3196.16C3200.43 547.299 3204.56 547.676 3208.52 548.384C3211.81 541.51 3216.15 535.367 3221.13 530.075C3234.06 516.342 3251.65 508.395 3271.11 508.395H3379.7C3399.24 508.395 3416.73 516.394 3429.59 529.982L3429.64 530.028L3429.68 530.075C3431.96 532.497 3434.11 535.097 3436.08 537.865C3438.36 534.719 3440.85 531.804 3443.5 529.137C3455.35 517.184 3472.06 508.395 3492.19 508.395H3600.95C3614.55 508.395 3626.5 512.398 3636.43 518.59C3647 512.027 3659.27 508.414 3672.39 508.414H3977.44C3986.77 508.414 3995.34 510.296 4003.02 513.486ZM4353.26 755.708C4352.47 755.735 4351.67 755.749 4350.86 755.749H4280.8C4289.78 767.095 4295.55 781.46 4295.55 797.851V802.835H4350.86C4351.67 802.835 4352.47 802.849 4353.26 802.876V755.708ZM3930.96 825.438C3924.45 827.611 3917.38 828.85 3909.81 828.85H3850.18V839.433H3931.15C3931.02 837.739 3930.96 836.02 3930.96 834.276V825.438ZM3604.43 564.599C3604.8 562.726 3605.24 560.888 3605.75 559.088C3604.2 558.626 3602.61 558.395 3600.95 558.395H3492.19C3487.35 558.395 3482.93 560.374 3479 564.351C3477.76 565.598 3476.71 566.888 3475.86 568.222L3397.4 570.434C3396.46 568.303 3395.09 566.275 3393.28 564.351C3389.51 560.374 3385 558.395 3379.7 558.395H3271.11C3265.81 558.395 3261.28 560.374 3257.53 564.351C3254.6 567.471 3252.8 570.863 3252.17 574.527L3397.4 570.434C3398.4 572.707 3398.9 575.098 3398.9 577.607V807.956C3398.9 808.648 3398.94 809.32 3399.02 809.992C3399.48 814.43 3401.44 818.273 3404.93 821.539C3408.93 825.304 3413.38 827.168 3418.3 827.168H3454.36C3459.28 827.168 3463.62 825.304 3467.4 821.539C3470.68 818.273 3472.55 814.43 3472.97 809.992L3472.97 809.992C3473.03 809.32 3473.06 808.647 3473.06 807.956V577.607C3473.06 574.271 3474 571.142 3475.86 568.222L3604.43 564.599ZM3276.48 912.976H3227.41C3234.36 909.566 3240.61 905.112 3246.06 899.963C3252.99 893.444 3258.71 885.605 3262.68 876.669C3265.45 877 3268.27 877.168 3271.11 877.168H3275.4V900.691C3275.4 904.882 3275.76 908.986 3276.48 912.976Z" fill="#3D3730"/>
<path fill-rule="evenodd" clip-rule="evenodd" d="M3450.11 523.224C3461.26 514.396 3475.56 508.395 3492.19 508.395H3600.95C3614.55 508.395 3626.5 512.398 3636.43 518.59C3647 512.027 3659.27 508.414 3672.39 508.414H3977.44C3979.33 508.414 3981.2 508.492 3983.02 508.642C3990.21 509.232 3996.9 510.943 4003.02 513.486V491.231C4003.02 471.959 4010.99 455.659 4022.25 443.699C4035.09 430.061 4052.64 422 4072.23 422H4721.78C4742.06 422 4758.69 430.916 4770.39 442.628C4782.2 454.44 4790.98 471.084 4790.98 491.231V582.91C4790.98 603.253 4782.01 620.252 4769.32 632.206C4757.37 643.473 4741.06 651.449 4721.78 651.449H4600.26V1054.9C4600.26 1073.48 4593.1 1090.73 4580 1103.83L4579.95 1103.88L4579.91 1103.92C4567.8 1115.97 4551.18 1124.12 4531.71 1124.12H4422.47C4403.14 1124.12 4386.86 1116.12 4374.92 1104.87C4363.03 1093.66 4355.48 1078.96 4353.68 1062.58C4353.4 1060.06 4353.26 1057.5 4353.26 1054.9V1050.55C4352.47 1050.58 4351.67 1050.59 4350.86 1050.59H4295.55V1054.9C4295.55 1073.35 4288.5 1090.63 4275.31 1103.83C4263.26 1115.89 4246.62 1124.12 4227.1 1124.12H3672.37C3653.77 1124.12 3636.53 1116.94 3623.43 1103.83C3618.07 1098.48 3613.71 1092.43 3610.42 1085.88C3605.67 1076.41 3603.17 1065.89 3603.17 1054.9V1019.8C3603.17 1007.62 3606.24 995.929 3612.15 985.588C3612.89 984.294 3613.68 983.022 3614.5 981.772C3607.77 971.576 3603.9 959.814 3603.27 947.355C3603.22 946.171 3603.19 944.98 3603.19 943.783V877.128C3602.41 877.155 3601.63 877.168 3600.84 877.168H3596.55V900.691C3596.55 915.803 3591.76 929.791 3583.19 941.347C3583.02 941.571 3582.85 941.794 3582.68 942.017C3582.85 942.237 3583.02 942.458 3583.19 942.679C3583.46 943.045 3583.73 943.413 3584 943.783C3590.23 952.414 3594.48 962.311 3596.36 973.028C3597.07 977.104 3597.44 981.299 3597.44 985.588V1050.56C3597.44 1052.02 3597.39 1053.47 3597.31 1054.9C3596.67 1065.92 3593.58 1076.21 3588.47 1085.37C3584.89 1091.78 3580.32 1097.63 3574.9 1102.78C3562.21 1114.85 3545.07 1123.17 3524.93 1123.17H3068.25C3048.03 1123.17 3030.94 1114.78 3018.34 1102.86L3018.3 1102.82L3018.26 1102.78C3003.99 1089.21 2995.75 1070.9 2995.75 1050.56V1042.41H2918.74C2898.8 1042.41 2881.64 1034.29 2868.8 1022.15C2854.44 1008.63 2846.06 990.293 2846.06 969.796V920.221H2831.98C2812.5 920.221 2794.5 912.774 2780.72 899.076C2769.76 888.203 2762.42 874.253 2760.1 858.428L2760.1 858.419C2759.61 855.067 2759.3 851.45 2759.3 847.609V619.911C2759.3 599.903 2767.49 582.755 2779.61 569.949L2779.61 569.945C2793.1 555.69 2811.39 547.299 2831.91 547.299H2845.81V533.362C2845.81 512.377 2854.93 494.944 2867.46 482.415C2879.88 469.986 2897.28 460.75 2918.39 460.75H3109.65C3130.74 460.75 3148.12 469.973 3160.54 482.343L3160.61 482.415L3160.68 482.488C3173.05 494.911 3182.25 512.294 3182.25 533.362V547.299H3196.16C3200.43 547.299 3204.56 547.676 3208.52 548.384C3211.81 541.51 3216.15 535.367 3221.13 530.075C3234.06 516.342 3251.65 508.395 3271.11 508.395H3379.7C3395.69 508.395 3410.31 513.751 3422.14 523.143C3424.77 525.229 3427.26 527.513 3429.59 529.982L3429.64 530.028L3429.68 530.075C3431.96 532.497 3434.11 535.097 3436.08 537.865C3438.36 534.719 3440.85 531.804 3443.5 529.137C3445.56 527.061 3447.77 525.08 3450.11 523.224ZM3436.17 508.778C3450.6 496.855 3469.69 488.395 3492.19 488.395H3600.95C3614.02 488.395 3625.95 491.261 3636.47 495.988C3647.55 491.053 3659.7 488.414 3672.39 488.414H3977.44C3979.34 488.414 3981.21 488.475 3983.06 488.593C3983.76 464.691 3993.94 444.587 4007.69 429.988C4024.16 412.493 4046.92 402 4072.23 402H4721.78C4748.27 402 4769.77 413.712 4784.54 428.489C4799.45 443.409 4810.98 464.936 4810.98 491.231V582.91C4810.98 609.477 4799.18 631.547 4783.04 646.761C4767.91 661.016 4746.86 671.449 4721.78 671.449H4620.26V1054.9C4620.26 1078.8 4610.99 1101.12 4594.14 1117.97L4594.14 1117.98L4594.13 1117.99L4594.07 1118.04L4594.06 1118.05L4594.02 1118.09L4594.02 1118.1C4578.6 1133.45 4557.04 1144.12 4531.71 1144.12H4422.47C4397.33 1144.12 4376.3 1133.65 4361.21 1119.43C4347.33 1106.35 4337.99 1089.44 4334.64 1070.59H4314.19C4311.07 1088.37 4302.62 1104.8 4289.45 1117.97C4274.1 1133.34 4252.53 1144.12 4227.1 1144.12H3672.37C3648.46 1144.12 3626.13 1134.82 3609.28 1117.97C3605.47 1114.15 3602.04 1110.05 3599.01 1105.71C3595.91 1109.82 3592.45 1113.69 3588.68 1117.27C3572.8 1132.38 3550.88 1143.17 3524.93 1143.17H3068.25C3042.2 1143.17 3020.34 1132.29 3004.59 1117.38L3004.59 1117.37L3004.49 1117.28L3004.48 1117.27C2989.16 1102.71 2979.21 1083.66 2976.5 1062.41H2918.74C2893.09 1062.41 2871.16 1051.9 2855.07 1036.69C2836.86 1019.53 2826.06 995.998 2826.06 969.796V940.039C2803.55 938.642 2782.74 929.283 2766.63 913.266C2752.71 899.461 2743.28 881.592 2740.31 861.326L2740.31 861.322C2740.31 861.32 2740.31 861.319 2740.31 861.317M3436.17 508.778C3420.66 495.881 3401.1 488.395 3379.7 488.395H3271.11C3245.98 488.395 3223.17 498.734 3206.57 516.364C3204.84 518.201 3203.17 520.124 3201.56 522.13C3198.81 499.972 3188.1 481.682 3174.86 468.378L3174.86 468.377L3174.75 468.276L3174.65 468.176L3174.65 468.175C3159.17 452.751 3136.92 440.75 3109.65 440.75H2918.39C2891.09 440.75 2868.81 452.77 2853.31 468.277C2838.82 482.771 2827.57 503.002 2826 527.483C2802.16 528.978 2780.91 539.481 2765.09 556.191M2765.08 556.199L2765.08 556.204C2749.91 572.238 2739.3 594.16 2739.3 619.911V847.609C2739.3 852.5 2739.69 857.085 2740.31 861.308M3397.4 570.434C3396.46 568.303 3395.09 566.275 3393.28 564.351C3389.51 560.374 3385 558.395 3379.7 558.395H3271.11C3265.81 558.395 3261.28 560.374 3257.53 564.351C3254.6 567.471 3252.8 570.863 3252.17 574.527L3397.4 570.434C3398.4 572.707 3398.9 575.098 3398.9 577.607V807.956C3398.9 808.648 3398.94 809.32 3399.02 809.993C3399.48 814.43 3401.44 818.273 3404.93 821.539C3408.93 825.304 3413.38 827.168 3418.3 827.168H3454.36C3459.28 827.168 3463.62 825.304 3467.4 821.539C3470.68 818.273 3472.55 814.43 3472.97 809.993C3473.03 809.32 3473.06 808.648 3473.06 807.956V577.607C3473.06 574.271 3474 571.142 3475.86 568.222L3604.43 564.599C3604.8 562.726 3605.24 560.889 3605.75 559.088C3605.61 559.046 3605.47 559.005 3605.33 558.967C3604.98 558.873 3604.62 558.79 3604.27 558.719C3603.19 558.503 3602.08 558.395 3600.95 558.395H3492.19C3487.35 558.395 3482.93 560.374 3479 564.351C3477.76 565.598 3476.71 566.888 3475.86 568.222L3397.4 570.434ZM3453.06 588.873L3418.9 589.836V807.168H3453.06V588.873ZM3418.9 807.956V807.927C3418.9 807.938 3418.9 807.948 3418.9 807.956ZM2765.09 556.195C2765.09 556.196 2765.09 556.198 2765.08 556.199L2765.09 556.195ZM4350.86 755.75C4351.67 755.75 4352.47 755.736 4353.26 755.708V802.876C4352.47 802.849 4351.67 802.835 4350.86 802.835H4295.55V797.851C4295.55 789.98 4294.22 782.576 4291.84 775.75C4289.27 768.36 4285.47 761.647 4280.8 755.75H4350.86ZM4312.73 775.75H4333.26V782.835H4314.27C4313.85 780.429 4313.34 778.066 4312.73 775.75ZM3850.18 839.433H3931.15C3931.02 837.739 3930.96 836.02 3930.96 834.276V825.438C3924.78 827.501 3918.09 828.722 3910.96 828.841C3910.58 828.847 3910.19 828.85 3909.81 828.85H3850.18V839.433ZM3276.48 912.976C3275.76 908.986 3275.4 904.882 3275.4 900.691V877.168H3271.11C3268.27 877.168 3265.45 877.001 3262.68 876.669C3262.6 876.836 3262.53 877.002 3262.45 877.168C3260.49 881.494 3258.12 885.559 3255.4 889.338C3254.5 890.582 3253.57 891.795 3252.6 892.976C3250.57 895.447 3248.38 897.779 3246.06 899.963C3240.61 905.112 3234.36 909.566 3227.41 912.976H3276.48Z" fill="#3D3730"/>
<path fill-rule="evenodd" clip-rule="evenodd" d="M1732.35 435.004L1732.29 434.944L1732.23 434.885C1715.77 417.6 1693.03 407 1667.47 407H1554.81C1529.32 407 1506.42 417.555 1489.82 435.148C1475.27 450.565 1464.9 471.833 1464.9 496.942V525.629C1456.65 522.967 1447.69 521.444 1438.12 521.444H1325.28C1298.72 521.444 1277 533.149 1261.96 548.261C1248.79 561.499 1238.29 579.837 1235.94 602.001V496.942C1235.94 471.691 1225.44 450.504 1211.13 435.267L1211.01 435.145L1210.9 435.023C1194.4 417.624 1171.61 407 1146.02 407H911.904C886.447 407 863.601 417.527 847.032 435.004L847.026 435.01C832.495 450.339 821.991 471.595 821.991 496.846V609.734C821.991 634.968 832.467 656.231 847.026 671.589L847.032 671.595C863.723 689.2 886.619 699.58 911.904 699.58H928.643V880.409C928.643 905.638 939.096 926.81 953.423 942.088C970.195 959.996 993.239 970.427 1018.58 970.427H1019.68V1049.05C1019.68 1074.33 1030.06 1097.3 1047.83 1114.05C1063.21 1128.56 1084.45 1138.97 1109.62 1138.97H1286.22C1308.95 1138.97 1328.77 1130.45 1343.91 1117.44C1359.15 1130.54 1379.01 1138.97 1401.61 1138.97H1514.97C1540.1 1138.97 1561.37 1128.58 1576.78 1114.02C1594.37 1097.41 1604.9 1074.51 1604.9 1049.05V1038.06C1618.54 1051.02 1635.53 1059.22 1653.94 1061.81C1656.81 1082 1666.45 1100.14 1681.16 1114.02C1696.62 1128.64 1717.91 1138.97 1742.96 1138.97H1900.54C1925.67 1138.97 1946.88 1128.59 1962.26 1114.11C1968.16 1108.55 1973.25 1102.31 1977.42 1095.53C1981.14 1101.66 1985.63 1107.4 1990.87 1112.62C2007.96 1129.74 2030.51 1138.97 2054.45 1138.97H2167.11C2191.18 1138.97 2213.68 1129.66 2230.71 1112.62L2230.83 1112.5L2230.96 1112.37C2247.66 1095.5 2257.04 1073.16 2257.04 1048.99V814.024H2272.61C2299.4 814.024 2321.54 802.105 2336.79 786.02L2336.79 786.014C2351.26 770.75 2361.83 749.485 2361.83 724.178V611.29C2361.83 585.984 2351.26 564.719 2336.79 549.455L2336.79 549.448C2321.54 533.363 2299.4 521.444 2272.61 521.444H2206.95C2183.51 521.444 2163.8 530.542 2149.12 543.132C2133.22 529.378 2112.96 521.444 2090.85 521.444H2054.45C2029.17 521.444 2006.2 531.826 1989.46 549.586C1985 554.309 1980.94 559.575 1977.45 565.324C1973.42 558.77 1968.68 552.924 1963.56 547.856L1963.5 547.798L1963.45 547.74C1948.52 533.012 1926.98 521.444 1900.54 521.444H1757.39V496.846C1757.39 471.591 1746.88 450.332 1732.35 435.004ZM1757.64 591.444L1963.5 547.798L1919.92 606.846C1919.9 606.779 1919.88 606.712 1919.87 606.646C1918.98 603.408 1917.12 600.386 1914.29 597.573C1910.16 593.5 1905.59 591.444 1900.54 591.444H1757.64ZM1646.79 950.957C1634.79 960.577 1620.49 967.009 1604.9 969.394V1033.63L1647.11 976.443C1646.9 975.24 1646.79 973.993 1646.79 972.702V950.957ZM1920.47 635.023V647.985C1920.47 649.233 1920.59 650.453 1920.83 651.644C1920.84 651.671 1920.84 651.697 1920.85 651.723C1947.28 657.208 1955.11 654.733 1920.47 635.023ZM1844.21 783.773C1844.21 783.901 1844.21 784.029 1844.21 784.158V875.567C1844.21 881.081 1842.26 885.807 1838.32 889.707C1834.38 893.626 1829.89 895.566 1824.8 895.566H1819.39C1814.3 895.566 1809.67 893.626 1805.52 889.707C1801.35 885.807 1799.3 881.081 1799.3 875.567V784.158C1799.3 783.908 1799.3 783.658 1799.32 783.408C1799.51 778.663 1801.57 774.436 1805.52 770.709C1809.67 766.809 1814.3 764.85 1819.39 764.85H1824.8C1829.89 764.85 1834.38 766.809 1838.32 770.709M1844.21 783.773C1844.21 783.652 1844.2 783.53 1844.2 783.408L1844.21 783.773ZM1839.3 829.609C1839.77 829.806 1840.23 830.007 1840.68 830.212C1840.25 830.408 1839.81 830.601 1839.36 830.79C1834.66 832.777 1829.73 834.03 1824.8 834.559C1823.9 834.656 1822.99 834.729 1822.09 834.777C1821.2 834.729 1820.29 834.657 1819.39 834.56C1814.33 834.019 1809.14 832.71 1804.12 830.528C1803.88 830.424 1803.64 830.318 1803.4 830.212C1803.66 830.097 1803.92 829.983 1804.18 829.871C1809.22 827.687 1814.38 826.394 1819.39 825.857C1820.29 825.76 1821.2 825.688 1822.09 825.64C1822.99 825.688 1823.9 825.761 1824.8 825.858C1829.68 826.383 1834.59 827.62 1839.3 829.609Z" fill="#3D3730"/>
<rect x="1460" y="746" width="660" height="293" fill="#3D3730"/>
<rect x="1740" y="548" width="220" height="119" fill="#3D3730"/>
<rect x="2636" y="624" width="286" height="269" fill="#3D3730"/>
<rect x="2759" y="548" width="68" height="50" fill="#3D3730"/>
<rect x="3140" y="525" width="447" height="368" fill="#3D3730"/>
<rect x="3354" y="509" width="138" height="79" fill="#3D3730"/>
<rect x="4185" y="773" width="245" height="58" fill="#3D3730"/>
<path fill-rule="evenodd" clip-rule="evenodd" d="M2814.63 792.729L2814.62 792.723C2799.37 778.246 2778.1 767.662 2752.77 767.662H2701.92C2699.39 750.65 2692.05 735.191 2681.05 722.532C2691.33 710.587 2699.38 695.238 2702 677.162C2722.46 674.112 2739.53 664.089 2752.1 651.538C2767.05 636.63 2778.82 614.996 2778.82 588.371V551.58C2778.82 524.922 2767.02 503.267 2752.05 488.357L2752.04 488.357C2737.07 473.441 2715.43 461.83 2688.98 461.83H2652.05C2625.32 461.83 2603.23 473.712 2588.02 489.683L2587.96 489.743L2587.9 489.802C2575.82 502.549 2566.61 519.316 2563.8 538.973C2558.8 539.672 2553.99 540.785 2549.38 542.252V502.129C2549.38 476.796 2538.81 455.529 2524.32 440.249C2507.83 422.85 2485.04 412.226 2459.45 412.226H2346.79C2321.31 412.226 2298.4 422.777 2281.8 440.367L2281.8 440.374C2267.25 455.793 2256.87 477.061 2256.87 502.167V1048.07C2256.87 1072.07 2266.15 1094.59 2283.2 1111.66C2300.15 1128.61 2322.64 1138.01 2346.79 1138.01H2459.45C2481.42 1138.01 2501.84 1130.24 2518.02 1116.32C2532.86 1128.97 2552.71 1138.01 2576.14 1138.01H2752.77C2778.1 1138.01 2799.37 1127.43 2814.62 1112.95L2814.63 1112.95C2832.21 1096.27 2842.61 1073.39 2842.61 1048.07V857.604C2842.61 832.226 2832.18 809.381 2814.63 792.729ZM2550.41 678.224C2550.51 678.119 2550.61 678.013 2550.71 677.907L2550.66 677.962C2550.58 678.049 2550.5 678.137 2550.41 678.224Z" fill="#3D3730"/>
<path fill-rule="evenodd" clip-rule="evenodd" d="M750.839 589.709C750.831 589.688 750.822 589.667 750.813 589.647C750.822 589.667 750.831 589.688 750.839 589.709ZM481.04 168.691V170.447H482.781C504.364 170.447 524.024 178.637 538.834 192.073C553.64 178.647 573.29 170.466 594.867 170.466L597.084 170.466L597.147 170.466H650.311L650.374 170.466L653.129 170.466C699.254 170.466 736.59 207.867 736.59 253.934V312.222C736.59 333.791 728.404 353.461 714.964 368.281C728.427 383.106 736.628 402.792 736.628 424.38V511.321H738.369C784.492 511.321 821.83 548.725 821.83 594.789V994.009C821.83 1040.07 784.492 1077.48 738.369 1077.48H736.628V1079.25C736.628 1125.32 699.289 1162.72 653.167 1162.72H651.426V1164.49C651.426 1210.49 614.171 1247.96 567.964 1247.96H509.703C464.344 1247.96 427.337 1211.77 426.262 1166.5L426.242 1165.67V1112C426.055 1109.71 425.954 1107.37 425.954 1104.98V1072.67C417.06 1075.91 407.459 1077.67 397.445 1077.67H395.838L395.838 1164.49C395.838 1210.56 358.499 1247.96 312.376 1247.96H168.913C125.455 1247.96 89.6061 1214.72 85.7838 1172.04C85.4284 1169.05 85.2194 1165.95 85.1875 1162.76H83.7299C40.2715 1162.76 4.42348 1129.51 0.600723 1086.84C0.21347 1083.57 0 1080.19 0 1076.7V767.925C0 764.435 0.213394 761.049 0.600471 757.788C4.41863 715.145 40.2131 681.845 83.7299 681.845H85.1875C85.2194 678.657 85.4283 675.558 85.7837 672.565C89.6019 629.922 125.396 596.621 168.913 596.621H170.386V566.156H168.932C125.446 566.156 89.7886 532.929 85.8349 490.505C85.4156 487.063 85.2024 483.58 85.2024 480.075V427.012C85.2024 423.507 85.4156 420.024 85.8351 416.581C89.7895 374.158 125.447 340.932 168.932 340.932H171.1L171.275 340.932H224.313L224.487 340.932H227.193C237.151 340.932 246.699 342.675 255.55 345.872V310.466H254.096C210.411 310.466 174.819 276.998 170.99 234.564C170.638 231.598 170.422 228.486 170.39 225.243H168.913C125.439 225.243 89.9812 192.098 85.8651 149.956C85.3991 146.292 85.1832 142.684 85.1832 139.162V86.0802C85.1832 82.1692 85.4588 78.6317 85.8361 75.5837C89.8159 33.2237 125.4 0 168.913 0H227.174C273.297 0 310.635 37.4037 310.635 83.4674V85.2234H397.579C443.701 85.2234 481.04 122.627 481.04 168.691ZM240.654 935.797V994.086L240.654 1079.27L240.654 1079.31V935.778L240.654 935.797Z" fill="#3D3730"/>
<g clip-path="url(#clip0_55_200)">
<path d="M1684.55 480.075C1680.65 475.983 1675.96 473.908 1670.47 473.908H1557.81C1552.32 473.908 1547.61 475.983 1543.74 480.094C1539.84 484.225 1537.9 488.816 1537.9 493.85V877.393C1537.9 882.446 1535.8 887.018 1531.66 891.149C1527.49 895.28 1522.88 897.335 1517.79 897.335H1481.06C1475.51 897.335 1470.76 895.28 1466.85 891.149C1462.91 887.018 1460.95 882.446 1460.95 877.393V608.275C1460.95 603.242 1458.9 598.65 1454.79 594.539C1450.7 590.408 1446.13 588.352 1441.12 588.352H1328.28C1323.27 588.352 1318.7 590.408 1314.59 594.539C1310.5 598.65 1308.44 603.242 1308.44 608.275V877.393C1308.44 882.446 1306.49 887.018 1302.61 891.149C1298.71 895.28 1294.25 897.335 1289.22 897.335H1188.87C1183.82 897.335 1179.25 895.28 1175.12 891.149C1170.99 887.018 1168.94 882.446 1168.94 877.393V493.85C1168.94 488.816 1166.98 484.225 1163.1 480.094C1159.2 475.983 1154.52 473.908 1149.02 473.908H914.904C909.412 473.908 904.707 475.983 900.829 480.075C896.93 484.186 894.991 488.739 894.991 493.754V606.642C894.991 611.675 896.93 616.229 900.829 620.34C904.707 624.432 909.412 626.488 914.904 626.488H981.73C987.222 626.488 991.907 628.447 995.805 632.367C999.703 636.267 1001.64 640.762 1001.64 645.815V877.317C1001.64 882.388 1003.6 886.98 1007.5 891.13C1011.38 895.28 1016.08 897.335 1021.58 897.335H1072.77C1078.26 897.335 1082.95 899.295 1086.85 903.176C1090.72 907.076 1092.68 911.763 1092.68 917.258V1045.96C1092.68 1051.45 1094.74 1056.16 1098.87 1060.04C1102.99 1063.94 1107.56 1065.88 1112.62 1065.88H1289.22C1294.25 1065.88 1298.71 1063.94 1302.61 1060.04C1306.49 1056.16 1308.44 1051.45 1308.44 1045.96V917.258C1308.44 911.763 1310.5 907.076 1314.63 903.176C1318.76 899.295 1323.33 897.335 1328.38 897.335H1365.46C1370.51 897.335 1375.08 899.295 1379.21 903.176C1383.32 907.076 1385.39 911.763 1385.39 917.258V1045.96C1385.39 1051.45 1387.33 1056.16 1391.23 1060.04C1395.11 1063.94 1399.58 1065.88 1404.61 1065.88H1517.97C1523 1065.88 1527.59 1063.94 1531.71 1060.04C1535.82 1056.16 1537.9 1051.45 1537.9 1045.96V917.258C1537.9 911.763 1539.84 907.076 1543.74 903.176C1547.61 899.295 1552.32 897.335 1557.81 897.335H1594.22C1599.71 897.335 1604.4 895.28 1608.29 891.13C1612.19 886.98 1614.13 882.388 1614.13 877.317V645.815C1614.13 640.762 1616.09 636.267 1619.99 632.367C1623.87 628.447 1628.57 626.488 1634.06 626.488H1670.47C1675.96 626.488 1680.65 624.432 1684.55 620.34C1688.45 616.229 1690.39 611.675 1690.39 606.642V493.754C1690.39 488.739 1688.45 484.186 1684.55 480.075Z" fill="#FFAC48"/>
<path d="M1993.54 670.502C1989.41 666.583 1984.82 664.642 1979.79 664.642H1942.69C1937.66 664.642 1933.18 662.587 1929.31 658.495C1925.41 654.422 1923.47 649.888 1923.47 644.893V608.102C1923.47 603.107 1921.41 598.573 1917.29 594.481C1913.16 590.408 1908.59 588.353 1903.54 588.353H1745.96C1740.93 588.353 1736.34 590.408 1732.23 594.481C1728.1 598.573 1726.05 603.107 1726.05 608.102V644.893C1726.05 649.888 1724.09 654.422 1720.21 658.495C1716.31 662.587 1711.61 664.642 1706.11 664.642H1669.7C1664.21 664.642 1659.51 666.583 1655.63 670.502C1651.73 674.402 1649.79 678.878 1649.79 683.931V969.61C1649.79 975.124 1651.73 979.831 1655.63 983.75C1659.51 987.65 1664.21 989.609 1669.7 989.609H1706.11C1711.61 989.609 1716.31 991.55 1720.21 995.45C1724.09 999.35 1726.05 1004.04 1726.05 1009.53V1045.96C1726.05 1051.45 1728.1 1056.16 1732.23 1060.04C1736.34 1063.94 1740.93 1065.88 1745.96 1065.88H1903.54C1908.59 1065.88 1913.16 1063.94 1917.29 1060.04C1921.41 1056.16 1923.47 1051.45 1923.47 1045.96V1009.53C1923.47 1004.04 1925.41 999.35 1929.31 995.45C1933.18 991.55 1937.66 989.609 1942.69 989.609H1979.79C1984.82 989.609 1989.41 987.65 1993.54 983.75C1997.65 979.831 1999.72 975.124 1999.72 969.61V683.931C1999.72 678.878 1997.65 674.402 1993.54 670.502ZM1847.21 781.066V872.475C1847.21 877.989 1845.26 882.715 1841.32 886.615C1837.38 890.534 1832.89 892.475 1827.8 892.475H1822.39C1817.3 892.475 1812.67 890.534 1808.52 886.615C1804.35 882.715 1802.3 877.989 1802.3 872.475V781.066C1802.3 780.816 1802.3 780.566 1802.32 780.316C1802.51 775.571 1804.57 771.345 1808.52 767.617C1812.67 763.717 1817.3 761.758 1822.39 761.758H1827.8C1832.89 761.758 1837.38 763.717 1841.32 767.617C1845.06 771.345 1847.02 775.571 1847.2 780.316C1847.21 780.566 1847.21 780.816 1847.21 781.066Z" fill="#FFAC48"/>
<path d="M2288.99 594.519C2285.09 590.408 2280.64 588.353 2275.61 588.353H2209.95C2204.9 588.353 2200.33 590.408 2196.22 594.539C2192.09 598.65 2190.04 603.242 2190.04 608.275V645.392C2190.04 650.445 2188.08 655.017 2184.2 659.129C2180.3 663.259 2175.62 665.315 2170.11 665.315H2133.7C2128.67 665.315 2124.08 663.259 2119.97 659.129C2115.84 655.017 2113.79 650.445 2113.79 645.392V608.275C2113.79 603.242 2111.83 598.65 2107.95 594.539C2104.05 590.408 2099.35 588.353 2093.85 588.353H2057.45C2051.95 588.353 2047.25 590.408 2043.37 594.539C2039.47 598.65 2037.53 603.242 2037.53 608.275V1045.96C2037.53 1051.45 2039.47 1056.16 2043.37 1060.04C2047.25 1063.94 2051.95 1065.88 2057.45 1065.88H2170.11C2175.62 1065.88 2180.3 1063.94 2184.2 1060.04C2188.08 1056.12 2190.04 1051.41 2190.04 1045.9V760.913C2190.04 755.399 2192.09 750.692 2196.22 746.792C2198.43 744.679 2200.79 743.142 2203.27 742.181C2205.38 741.336 2207.61 740.932 2209.95 740.932H2275.61C2280.64 740.932 2285.09 738.877 2288.99 734.765C2292.87 730.673 2294.83 726.101 2294.83 721.087V608.198C2294.83 603.184 2292.87 598.612 2288.99 594.519Z" fill="#FFAC48"/>
<path d="M2769.44 840.411C2765.35 836.53 2760.78 834.57 2755.77 834.57H2655.05C2650.04 834.57 2645.59 832.611 2641.71 828.711C2637.83 824.792 2635.91 820.085 2635.91 814.552V777.953C2635.91 772.44 2633.85 767.733 2629.74 763.813C2625.63 759.913 2621.08 757.935 2616.07 757.935H2579.14C2574.11 757.935 2569.56 755.879 2565.45 751.729C2562.53 748.771 2560.67 745.601 2559.83 742.181C2559.48 740.798 2559.31 739.376 2559.31 737.916V701.318C2559.31 695.804 2561.36 691.097 2565.45 687.178C2569.56 683.278 2574.11 681.318 2579.14 681.318H2616.07C2621.08 681.318 2625.63 679.243 2629.74 675.132C2633.85 671.001 2635.91 666.429 2635.91 661.376V624.259C2635.91 619.226 2637.83 614.769 2641.71 610.869C2645.59 606.969 2650.04 605.028 2655.05 605.028H2691.98C2696.99 605.028 2701.56 602.992 2705.65 598.9C2709.76 594.808 2711.82 590.274 2711.82 585.279V548.488C2711.82 543.493 2709.76 538.959 2705.65 534.867C2701.56 530.794 2696.99 528.738 2691.98 528.738H2655.05C2650.04 528.738 2645.59 530.794 2641.71 534.867C2637.83 538.959 2635.91 543.493 2635.91 548.488V585.279C2635.91 590.274 2633.85 594.808 2629.74 598.9C2625.63 602.992 2621.08 605.028 2616.07 605.028H2579.14C2574.11 605.028 2569.56 606.969 2565.45 610.869C2561.36 614.769 2559.31 619.226 2559.31 624.259V661.376C2559.31 666.429 2557.35 671.001 2553.41 675.132C2549.5 679.243 2544.98 681.318 2539.91 681.318H2502.47C2497.38 681.318 2492.77 679.262 2488.6 675.151C2484.44 671.04 2482.38 666.467 2482.38 661.415V499.037C2482.38 494.003 2480.42 489.431 2476.53 485.32C2472.63 481.208 2467.94 479.134 2462.45 479.134H2349.79C2344.3 479.134 2339.59 481.208 2335.71 485.32C2331.81 489.45 2329.87 494.042 2329.87 499.075V1044.98C2329.87 1050.47 2331.81 1055.18 2335.71 1059.08C2339.59 1062.96 2344.3 1064.92 2349.79 1064.92H2462.45C2467.94 1064.92 2472.63 1062.96 2476.53 1059.08C2480.42 1055.18 2482.38 1050.47 2482.38 1044.98V854.512C2482.38 848.998 2484.44 844.311 2488.6 840.411C2492.77 836.53 2497.38 834.57 2502.47 834.57H2539.91C2544.98 834.57 2549.5 836.53 2553.41 840.411C2557.35 844.311 2559.31 848.998 2559.31 854.512V1044.98C2559.31 1050.47 2561.36 1055.18 2565.45 1059.08C2569.56 1062.96 2574.11 1064.92 2579.14 1064.92H2755.77C2760.78 1064.92 2765.35 1062.96 2769.44 1059.08C2773.55 1055.18 2775.61 1050.47 2775.61 1044.98V854.512C2775.61 848.998 2773.55 844.311 2769.44 840.411Z" fill="#FFAC48"/>
<path d="M1614.13 809.096V877.336C1614.13 882.408 1612.19 886.999 1608.29 891.149C1604.4 895.299 1599.71 897.355 1594.22 897.355H1557.81C1552.32 897.355 1547.61 899.314 1543.74 903.195C1539.86 907.076 1537.9 911.783 1537.9 917.277V1045.98C1537.9 1051.47 1535.82 1056.18 1531.71 1060.06C1527.59 1063.96 1523 1065.9 1517.97 1065.9H1404.61C1399.58 1065.9 1395.11 1063.96 1391.23 1060.06C1387.33 1056.18 1385.39 1051.47 1385.39 1045.98V917.277C1385.39 911.783 1383.32 907.095 1379.21 903.195C1375.08 899.314 1370.51 897.355 1365.46 897.355H1328.38C1323.33 897.355 1318.76 899.314 1314.63 903.195C1310.5 907.095 1308.44 911.783 1308.44 917.277V1045.98C1308.44 1051.47 1306.49 1056.18 1302.61 1060.06C1298.71 1063.96 1294.25 1065.9 1289.22 1065.9H1112.62C1107.56 1065.9 1102.99 1063.96 1098.87 1060.06C1094.74 1056.18 1092.68 1051.47 1092.68 1045.98V917.277C1092.68 911.783 1090.72 907.095 1086.85 903.195C1082.95 899.314 1078.26 897.355 1072.77 897.355H1021.58C1016.08 897.355 1011.38 895.299 1007.5 891.149C1003.6 886.999 1001.64 882.408 1001.64 877.336V809.096H1168.94V877.413C1168.94 882.465 1170.99 887.038 1175.12 891.168C1179.25 895.299 1183.82 897.355 1188.87 897.355H1289.22C1294.25 897.355 1298.71 895.299 1302.61 891.168C1306.49 887.038 1308.44 882.465 1308.44 877.413V809.096H1460.95V877.413C1460.95 882.465 1462.91 887.038 1466.85 891.168C1470.76 895.299 1475.51 897.355 1481.06 897.355H1517.79C1522.88 897.355 1527.49 895.299 1531.66 891.168C1535.8 887.038 1537.9 882.465 1537.9 877.413V809.096H1614.13Z" fill="#EF9737"/>
<path d="M1999.72 809.076V969.61C1999.72 975.124 1997.65 979.831 1993.54 983.75C1989.41 987.65 1984.82 989.609 1979.79 989.609H1942.69C1937.66 989.609 1933.18 991.55 1929.31 995.45C1925.41 999.35 1923.47 1004.04 1923.47 1009.53V1045.96C1923.47 1051.45 1921.41 1056.16 1917.29 1060.04C1913.16 1063.94 1908.59 1065.88 1903.54 1065.88H1745.96C1740.93 1065.88 1736.34 1063.94 1732.23 1060.04C1728.1 1056.16 1726.05 1051.45 1726.05 1045.96V1009.53C1726.05 1004.04 1724.09 999.35 1720.21 995.45C1716.31 991.55 1711.61 989.609 1706.11 989.609H1669.7C1664.21 989.609 1659.51 987.65 1655.63 983.75C1651.73 979.831 1649.79 975.124 1649.79 969.61V809.076H1802.3V872.475C1802.3 877.989 1804.35 882.715 1808.52 886.615C1812.67 890.534 1817.3 892.475 1822.39 892.475H1827.8C1832.89 892.475 1837.38 890.534 1841.32 886.615C1845.26 882.715 1847.21 877.989 1847.21 872.475V809.076H1999.72Z" fill="#EF9737"/>
<path d="M2037.53 809.096H2190.04V1045.92C2190.04 1051.43 2188.08 1056.14 2184.2 1060.06C2180.3 1063.96 2175.62 1065.9 2170.11 1065.9H2057.45C2051.95 1065.9 2047.25 1063.96 2043.37 1060.06C2039.47 1056.18 2037.53 1051.47 2037.53 1045.98V809.096Z" fill="#EF9737"/>
<path d="M2775.61 854.532V1045C2775.61 1050.49 2773.55 1055.2 2769.44 1059.1C2765.35 1062.98 2760.78 1064.94 2755.77 1064.94H2579.14C2574.11 1064.94 2569.56 1062.98 2565.45 1059.1C2561.36 1055.2 2559.31 1050.49 2559.31 1045V854.532C2559.31 849.018 2557.35 844.33 2553.41 840.43C2549.5 836.549 2544.98 834.59 2539.91 834.59H2502.47C2497.38 834.59 2492.77 836.549 2488.6 840.43C2484.44 844.33 2482.38 849.018 2482.38 854.532V1045C2482.38 1050.49 2480.42 1055.2 2476.53 1059.1C2472.63 1062.98 2467.94 1064.94 2462.45 1064.94H2349.79C2344.3 1064.94 2339.59 1062.98 2335.71 1059.1C2331.81 1055.2 2329.87 1050.49 2329.87 1045V809.096H2635.91V814.571C2635.91 820.104 2637.83 824.811 2641.71 828.73C2645.59 832.63 2650.04 834.59 2655.05 834.59H2755.77C2760.78 834.59 2765.35 836.549 2769.44 840.43C2773.55 844.33 2775.61 849.018 2775.61 854.532Z" fill="#EF9737"/>
<path d="M1168.94 742.2H1001.64V780.335H1168.94V742.2Z" fill="#EF9737"/>
<path d="M1460.95 742.2H1308.44V780.335H1460.95V742.2Z" fill="#EF9737"/>
<path d="M1614.13 742.2H1537.9V780.335H1614.13V742.2Z" fill="#EF9737"/>
<path d="M1999.72 742.181V780.317H1847.2C1847.02 775.571 1845.06 771.345 1841.32 767.618C1837.38 763.718 1832.89 761.758 1827.8 761.758H1822.39C1817.3 761.758 1812.67 763.718 1808.52 767.618C1804.57 771.345 1802.51 775.571 1802.32 780.317H1649.79V742.181H1999.72Z" fill="#EF9737"/>
<path d="M2037.53 742.2H2203.27C2200.79 743.161 2198.43 744.698 2196.22 746.811C2192.1 750.711 2190.04 755.418 2190.04 760.932V780.335H2037.53V742.2Z" fill="#EF9737"/>
<path d="M2635.91 777.972V780.335H2329.87V742.2H2559.83C2560.67 745.62 2562.53 748.79 2565.45 751.748C2569.56 755.898 2574.11 757.954 2579.14 757.954H2616.07C2621.08 757.954 2625.63 759.933 2629.74 763.833C2633.85 767.752 2635.91 772.459 2635.91 777.972Z" fill="#EF9737"/>
<path d="M1168.94 702.989H1001.64V718.57H1168.94V702.989Z" fill="#EF9737"/>
<path d="M1460.95 702.989H1308.44V718.57H1460.95V702.989Z" fill="#EF9737"/>
<path d="M1614.13 702.989H1537.9V718.57H1614.13V702.989Z" fill="#EF9737"/>
<path d="M1999.72 702.989H1649.79V718.57H1999.72V702.989Z" fill="#EF9737"/>
<path d="M2294.83 702.989H2037.53V718.57H2294.83V702.989Z" fill="#EF9737"/>
<path d="M2559.31 702.989H2329.87V718.57H2559.31V702.989Z" fill="#EF9737"/>
<path d="M3543.43 961.387C3538.74 956.969 3533.54 954.759 3527.84 954.759H3157.09C3151.37 954.759 3146.3 952.569 3141.88 948.131C3137.46 943.732 3135.26 938.391 3135.26 932.147V884.617C3135.26 878.393 3137.44 873.052 3141.88 868.633C3146.3 864.234 3151.37 862.005 3157.09 862.005H3199.16C3204.88 862.005 3210.09 859.796 3214.75 855.377C3218.52 851.842 3220.76 847.692 3221.49 842.966C3221.69 841.813 3221.76 840.622 3221.76 839.393V611.695C3221.76 605.989 3219.42 600.783 3214.75 596.095C3210.09 591.407 3204.88 589.083 3199.16 589.083H3157.09C3151.37 589.083 3146.3 586.873 3141.88 582.455C3137.46 578.055 3135.26 572.983 3135.26 567.258V525.146C3135.26 519.44 3132.91 514.234 3128.25 509.546C3123.56 504.878 3118.36 502.534 3112.65 502.534H2921.39C2915.67 502.534 2910.49 504.878 2905.82 509.546C2901.14 514.234 2898.81 519.44 2898.81 525.146V567.258C2898.81 572.983 2896.58 578.055 2892.19 582.455C2887.77 586.873 2882.45 589.083 2876.21 589.083H2834.91C2828.66 589.083 2823.35 591.427 2818.93 596.095C2814.49 600.783 2812.3 605.989 2812.3 611.695V839.393C2812.3 840.603 2812.4 841.794 2812.57 842.966C2813.26 847.692 2815.38 851.842 2818.95 855.377C2823.38 859.796 2828.72 862.005 2834.98 862.005H2876.4C2882.66 862.005 2887.98 864.214 2892.42 868.633C2896.85 873.052 2899.06 878.373 2899.06 884.617V961.579C2899.06 967.823 2901.4 973.145 2906.11 977.564C2910.79 982.002 2916.02 984.192 2921.74 984.192H3026.88C3032.6 984.192 3037.67 986.401 3042.1 990.82C3046.54 995.219 3048.75 1000.56 3048.75 1006.8V1042.35C3048.75 1048.57 3051.07 1053.91 3055.72 1058.33C3060.36 1062.73 3065.55 1064.96 3071.25 1064.96H3527.93C3533.62 1064.96 3538.8 1062.75 3543.45 1058.33C3548.09 1053.91 3550.44 1048.59 3550.44 1042.35V977.372C3550.44 971.147 3548.09 965.806 3543.43 961.387ZM2992.39 800.239C2987.66 795.84 2985.32 790.499 2985.32 784.255V663.97C2985.32 658.264 2987.68 653.058 2992.39 648.37C2997.11 643.702 3002.35 641.358 3008.13 641.358H3026.74C3032.5 641.358 3037.61 643.702 3042.06 648.37C3046.52 653.058 3048.75 658.264 3048.75 663.97V784.255C3048.75 790.48 3046.52 795.82 3042.06 800.239C3041.53 800.777 3040.95 801.315 3040.37 801.776C3036.32 805.157 3031.77 806.867 3026.74 806.867H3008.13C3003.08 806.867 2998.44 805.157 2994.17 801.776C2993.56 801.296 2992.96 800.777 2992.39 800.239Z" fill="#F4EBDF"/>
<path d="M3617.13 556.134C3613.17 552.158 3608.79 550.179 3603.95 550.179H3495.19C3490.35 550.179 3485.93 552.158 3482 556.134C3478.04 560.111 3476.06 564.53 3476.06 569.39V799.74C3476.06 800.431 3476.03 801.104 3475.97 801.776C3475.55 806.214 3473.68 810.056 3470.4 813.322C3466.62 817.088 3462.28 818.951 3457.36 818.951H3421.3C3416.38 818.951 3411.93 817.088 3407.93 813.322C3404.44 810.056 3402.48 806.214 3402.02 801.776C3401.94 801.104 3401.9 800.431 3401.9 799.74V569.39C3401.9 564.53 3400.02 560.111 3396.28 556.134C3392.51 552.158 3388 550.179 3382.7 550.179H3274.11C3268.81 550.179 3264.28 552.158 3260.53 556.134C3256.79 560.111 3254.91 564.53 3254.91 569.39V799.74C3254.91 800.431 3254.95 801.104 3255 801.776C3255.43 806.214 3257.27 810.056 3260.53 813.322C3264.28 817.088 3268.81 818.951 3274.11 818.951H3309.19C3314.49 818.951 3319.02 820.834 3322.77 824.58C3326.51 828.327 3328.4 832.861 3328.4 838.163V892.475C3328.4 897.777 3330.37 902.311 3334.35 906.057C3338.32 909.823 3342.72 911.686 3347.6 911.686H3530.35C3535.21 911.686 3539.63 909.823 3543.6 906.057C3547.58 902.311 3549.55 897.777 3549.55 892.475V838.163C3549.55 832.861 3551.44 828.327 3555.18 824.58C3558.92 820.834 3563.23 818.951 3568.08 818.951H3603.84C3608.7 818.951 3613.11 817.088 3617.09 813.322C3620.55 810.056 3622.49 806.214 3622.95 801.776C3623 801.104 3623.04 800.431 3623.04 799.74V569.39C3623.04 564.53 3621.06 560.111 3617.09 556.134H3617.13Z" fill="#F4EBDF"/>
<path d="M3997.19 886.846C3993.21 883.099 3988.8 881.217 3983.94 881.217H3822.39C3817.53 881.217 3813.11 879.334 3809.14 875.588C3805.16 871.841 3803.18 867.307 3803.18 862.005V789.846C3803.18 784.562 3805.16 780.028 3809.14 776.263C3813.11 772.517 3817.51 770.634 3822.39 770.634H3912.81C3917.67 770.634 3922.09 768.655 3926.06 764.678C3926.96 763.775 3927.77 762.853 3928.46 761.892C3930.82 758.684 3932.03 755.188 3932.03 751.422V715.65C3932.03 710.789 3930.06 706.505 3926.08 702.739C3922.11 698.993 3917.69 697.11 3912.83 697.11H3822.4C3817.55 697.11 3813.13 695.132 3809.15 691.155C3805.18 687.178 3803.2 682.778 3803.2 677.918V642.933C3803.2 638.073 3805.18 633.654 3809.15 629.677C3813.13 625.7 3817.53 623.721 3822.4 623.721H3980.44C3985.3 623.721 3989.72 621.839 3993.69 618.092C3997.67 614.346 3999.65 610.043 3999.65 605.182V569.41C3999.65 564.549 3997.67 560.13 3993.69 556.154C3989.72 552.177 3985.3 550.198 3980.44 550.198H3675.39C3670.09 550.198 3665.56 552.177 3661.81 556.154C3658.05 560.13 3656.19 564.549 3656.19 569.41V935.567C3656.19 940.869 3658.07 945.403 3661.81 949.149C3665.56 952.915 3670.07 954.779 3675.39 954.779H3983.96C3988.82 954.779 3993.23 952.915 3997.21 949.149C4001.18 945.403 4003.18 940.869 4003.18 935.567V900.467C4003.18 895.164 4001.18 890.65 3997.21 886.884L3997.19 886.846Z" fill="#F4EBDF"/>
<path d="M4130.95 716.572C4130.95 711.769 4132.93 707.389 4136.89 703.45C4140.84 699.512 4145.22 697.533 4150.06 697.533H4353.86C4358.68 697.533 4363.08 695.65 4367.03 691.904C4370.99 688.158 4372.97 683.854 4372.97 678.994V643.221C4372.97 638.361 4370.99 633.942 4367.03 629.965C4363.08 625.988 4358.68 623.99 4353.86 623.99H4076.65C4071.79 623.99 4067.37 625.988 4063.4 629.965C4059.42 633.942 4057.45 638.361 4057.45 643.221V678.994C4057.45 683.854 4055.56 688.158 4051.82 691.904C4048.06 695.65 4043.54 697.533 4038.24 697.533H4003.16C3997.86 697.533 3993.33 699.512 3989.58 703.489C3985.82 707.465 3983.96 711.884 3983.96 716.745V826.06C3983.96 830.92 3985.84 835.339 3989.58 839.316C3991 840.814 3992.54 842.044 3994.17 842.966C3996.86 844.503 3999.88 845.271 4003.16 845.271L4038.24 844.618C4043.54 844.618 4048.06 846.501 4051.82 850.286C4055.56 854.051 4057.45 858.585 4057.45 863.907V899.18C4057.45 904.079 4059.42 908.497 4063.4 912.493C4067.37 916.489 4071.77 918.487 4076.65 918.487H4111.75C4117.05 918.487 4121.56 920.389 4125.33 924.155C4129.07 927.92 4130.95 932.454 4130.95 937.795V973.068C4130.95 978.39 4129.07 982.943 4125.33 986.708C4121.58 990.493 4117.07 992.376 4111.75 992.376H3675.37C3670.09 992.376 3665.54 994.259 3661.79 998.005C3658.03 1001.75 3656.17 1006.29 3656.17 1011.59V1046.69C3656.17 1051.99 3658.05 1056.52 3661.79 1060.27C3665.54 1064.02 3670.07 1065.9 3675.37 1065.9H4230.1C4234.92 1065.9 4239.2 1064.02 4242.94 1060.27C4246.69 1056.52 4248.55 1051.99 4248.55 1046.69V1011.59C4248.55 1006.29 4250.53 1001.75 4254.48 998.005C4258.44 994.259 4262.82 992.376 4267.66 992.376H4353.86C4358.68 992.376 4363.08 990.493 4367.03 986.708C4370.99 982.943 4372.97 978.39 4372.97 973.068V863.907C4372.97 858.585 4370.99 854.051 4367.03 850.286C4363.08 846.501 4358.68 844.618 4353.86 844.618H4267.66C4265.1 844.618 4262.68 844.08 4260.4 842.966C4258.33 841.986 4256.35 840.545 4254.48 838.663C4250.53 834.686 4248.55 830.267 4248.55 825.406V789.634C4248.55 784.773 4246.67 780.47 4242.94 776.705C4239.2 772.958 4234.92 771.076 4230.1 771.076H4150.08C4145.24 771.076 4140.84 769.116 4136.91 765.158C4135.85 764.102 4134.93 763.007 4134.16 761.892C4132.03 758.857 4130.97 755.552 4130.97 752.037V716.572H4130.95Z" fill="#F4EBDF"/>
<path d="M4738.03 469.758C4734.05 465.781 4729.64 463.783 4724.78 463.783H4075.23C4069.93 463.783 4065.4 465.781 4061.65 469.758C4057.91 473.735 4056.02 478.154 4056.02 483.014V574.693C4056.02 579.554 4057.91 583.857 4061.65 587.603C4065.4 591.35 4069.93 593.232 4075.23 593.232H4387.06C4392.36 593.232 4396.87 595.211 4400.64 599.188C4404.38 603.165 4406.26 607.584 4406.26 612.444V1046.69C4406.26 1051.99 4408.24 1056.52 4412.22 1060.27C4416.19 1064.02 4420.59 1065.9 4425.47 1065.9H4534.71C4539.57 1065.9 4543.87 1064.02 4547.63 1060.27C4551.38 1056.52 4553.26 1051.99 4553.26 1046.69V612.444C4553.26 607.584 4555.24 603.165 4559.21 599.188C4563.19 595.211 4567.6 593.232 4572.46 593.232H4724.78C4729.64 593.232 4734.05 591.35 4738.03 587.603C4742 583.857 4743.98 579.554 4743.98 574.693V483.014C4743.98 478.154 4742 473.735 4738.03 469.758Z" fill="#F4EBDF"/>
<path d="M3530.35 911.706C3535.21 911.706 3539.63 909.842 3543.6 906.077C3547.58 902.33 3549.55 897.796 3549.55 892.494V886.865H3328.4V892.494C3328.4 897.796 3330.37 902.33 3334.35 906.077C3338.32 909.842 3342.72 911.706 3347.6 911.706H3530.35Z" fill="#FFC3AB"/>
<path d="M3527.84 954.759H3157.09C3151.37 954.759 3146.3 952.569 3141.88 948.131C3137.46 943.732 3135.26 938.391 3135.26 932.147V886.846H2899.04V961.56C2899.04 967.804 2901.39 973.126 2906.09 977.544C2910.78 981.982 2916 984.173 2921.72 984.173H3026.86C3032.58 984.173 3037.65 986.382 3042.08 990.801C3046.52 995.2 3048.73 1000.54 3048.73 1006.78V1042.33C3048.73 1048.55 3051.05 1053.89 3055.7 1058.31C3060.35 1062.71 3065.53 1064.94 3071.23 1064.94H3527.91C3533.6 1064.94 3538.78 1062.73 3543.43 1058.31C3548.08 1053.89 3550.42 1048.57 3550.42 1042.33V977.352C3550.42 971.128 3548.08 965.787 3543.41 961.368C3538.72 956.949 3533.52 954.74 3527.82 954.74L3527.84 954.759Z" fill="#FFC3AB"/>
<path d="M3675.37 954.759H3983.94C3988.8 954.759 3993.21 952.896 3997.19 949.13C4001.16 945.384 4003.16 940.85 4003.16 935.548V900.448C4003.16 895.145 4001.16 890.63 3997.19 886.865H3656.17V935.548C3656.17 940.85 3658.05 945.384 3661.79 949.13C3665.54 952.896 3670.05 954.759 3675.37 954.759Z" fill="#FFC3AB"/>
<path d="M4057.45 899.18C4057.45 904.079 4059.42 908.497 4063.4 912.493C4067.37 916.49 4071.77 918.488 4076.65 918.488H4111.75C4117.05 918.488 4121.56 920.39 4125.33 924.155C4129.07 927.921 4130.95 932.455 4130.95 937.795V973.068C4130.95 978.39 4129.07 982.943 4125.33 986.709C4121.58 990.493 4117.07 992.376 4111.75 992.376H3675.37C3670.09 992.376 3665.54 994.259 3661.79 998.005C3658.03 1001.75 3656.17 1006.29 3656.17 1011.59V1046.69C3656.17 1051.99 3658.05 1056.52 3661.79 1060.27C3665.54 1064.02 3670.07 1065.9 3675.37 1065.9H4230.1C4234.92 1065.9 4239.2 1064.02 4242.94 1060.27C4246.69 1056.52 4248.55 1051.99 4248.55 1046.69V1011.59C4248.55 1006.29 4250.53 1001.75 4254.48 998.005C4258.44 994.259 4262.82 992.376 4267.66 992.376H4353.86C4358.68 992.376 4363.08 990.493 4367.03 986.709C4370.99 982.943 4372.97 978.39 4372.97 973.068V886.865H4057.43V899.199L4057.45 899.18Z" fill="#FFC3AB"/>
<path d="M4406.26 1046.67C4406.26 1051.97 4408.24 1056.5 4412.22 1060.25C4416.19 1064 4420.59 1065.88 4425.47 1065.88H4534.71C4539.57 1065.88 4543.87 1064 4547.63 1060.25C4551.38 1056.5 4553.26 1051.97 4553.26 1046.67V886.846H4406.26V1046.67Z" fill="#FFC3AB"/>
<path d="M3221.78 839.412V801.776H3040.39C3036.34 805.157 3031.79 806.867 3026.76 806.867H3008.15C3003.1 806.867 2998.46 805.157 2994.19 801.776H2812.3V839.412C2812.3 840.622 2812.4 841.813 2812.57 842.985H3221.51C3221.71 841.833 3221.78 840.642 3221.78 839.412Z" fill="#FFC3AB"/>
<path d="M3470.38 813.322C3466.6 817.088 3462.26 818.951 3457.34 818.951H3421.28C3416.36 818.951 3411.91 817.088 3407.91 813.322C3404.42 810.056 3402.46 806.214 3402 801.776H3254.98C3255.41 806.214 3257.25 810.056 3260.51 813.322C3264.26 817.088 3268.79 818.951 3274.09 818.951H3309.17C3314.47 818.951 3319.01 820.834 3322.75 824.58C3326.49 828.327 3328.38 832.861 3328.38 838.163V842.947H3549.53V838.163C3549.53 832.861 3551.42 828.327 3555.16 824.58C3558.91 820.834 3563.21 818.951 3568.06 818.951H3603.82C3608.68 818.951 3613.1 817.088 3617.07 813.322C3620.53 810.056 3622.47 806.214 3622.93 801.776H3475.91C3475.49 806.214 3473.63 810.056 3470.34 813.322H3470.38Z" fill="#FFC3AB"/>
<path d="M3803.18 801.776H3656.17V842.966H3803.18V801.776Z" fill="#FFC3AB"/>
<path d="M3994.17 842.966H4260.4C4258.33 841.986 4256.35 840.545 4254.48 838.663C4250.53 834.686 4248.55 830.267 4248.55 825.407V801.776H3983.94V826.06C3983.94 830.92 3985.82 835.339 3989.56 839.316C3990.99 840.814 3992.52 842.044 3994.15 842.966H3994.17Z" fill="#FFC3AB"/>
<path d="M4553.26 801.776H4406.26V842.966H4553.26V801.776Z" fill="#FFC3AB"/>
<path d="M2985.32 741.451H2812.3V761.912H2985.32V741.451Z" fill="#FFC3AB"/>
<path d="M3221.78 741.451H3048.77V761.912H3221.78V741.451Z" fill="#FFC3AB"/>
<path d="M3401.88 741.451H3254.89V761.912H3401.88V741.451Z" fill="#FFC3AB"/>
<path d="M3623.06 741.451H3476.05V761.912H3623.06V741.451Z" fill="#FFC3AB"/>
<path d="M3932.01 751.441V741.451H3656.17V761.912H3928.44C3930.8 758.703 3932.01 755.207 3932.01 751.441Z" fill="#FFC3AB"/>
<path d="M4130.95 752.037V741.451H3983.94V761.912H4134.14C4132.01 758.876 4130.95 755.572 4130.95 752.056V752.037Z" fill="#FFC3AB"/>
<path d="M4553.26 741.451H4406.26V761.912H4553.26V741.451Z" fill="#FFC3AB"/>
<path d="M653.248 240.466H600.21C591.333 240.466 584.137 247.665 584.137 256.546V309.609C584.137 318.49 591.333 325.689 600.21 325.689H653.248C662.125 325.689 669.321 318.49 669.321 309.609V256.546C669.321 247.665 662.125 240.466 653.248 240.466Z" fill="#F76652"/>
<path d="M227.313 410.932H174.275C165.398 410.932 158.202 418.131 158.202 427.012V480.075C158.202 488.956 165.398 496.155 174.275 496.155H227.313C236.19 496.155 243.386 488.956 243.386 480.075V427.012C243.386 418.131 236.19 410.932 227.313 410.932Z" fill="#F76652"/>
<path d="M741.331 581.379H738.585C738.585 581.379 738.508 581.379 738.47 581.379H685.413C677.559 581.379 671.03 575.75 669.647 568.296C669.647 568.161 669.628 568.046 669.628 567.911V424.38C669.628 416.945 663.598 410.913 656.167 410.913H653.363C653.363 410.913 653.325 410.913 653.306 410.913H515.046C507.173 410.913 500.625 405.245 499.242 397.753C499.07 396.811 498.974 395.832 498.974 394.833V314.873C499.146 314.009 499.242 313.125 499.242 312.203V253.914C499.242 246.479 493.213 240.447 485.781 240.447H429.844C421.951 240.447 415.403 234.76 414.04 227.268V227.152C414.04 227.152 414.04 227.114 414.04 227.095C414.04 227.056 414.04 227.018 414.04 226.979V168.691C414.04 161.256 408.01 155.223 400.579 155.223H257.115C257.115 155.223 257.096 155.223 257.077 155.223H243.386V224.386C243.386 225.385 243.482 226.365 243.654 227.325C243.654 227.325 243.654 227.344 243.654 227.364C243.846 234.626 249.78 240.466 257.096 240.466H312.496C321.368 240.466 328.55 247.67 328.55 256.527V480.075C328.55 488.951 321.349 496.136 312.496 496.136H257.096C249.78 496.136 243.846 501.977 243.654 509.239C243.654 509.239 243.654 509.258 243.654 509.277C243.482 510.218 243.386 511.217 243.386 512.216V650.541C243.386 659.436 236.185 666.621 227.313 666.621H171.913C164.597 666.621 158.644 672.443 158.452 679.724C158.452 679.724 158.452 679.762 158.452 679.781C158.279 680.723 158.183 681.703 158.183 682.702V735.784C158.183 744.66 150.982 751.845 142.13 751.845H86.7299C79.4137 751.845 73.4609 757.666 73.2688 764.947C73.2688 764.947 73.2688 764.986 73.2688 765.005C73.096 765.946 73 766.926 73 767.925V1076.7C73 1077.7 73.096 1078.68 73.2688 1079.62C73.2688 1079.64 73.2688 1079.66 73.2688 1079.67C73.4609 1086.94 79.4137 1092.76 86.7299 1092.76H142.13C151.001 1092.76 158.183 1099.96 158.183 1108.82V1161.9C158.183 1162.9 158.279 1163.88 158.452 1164.82C158.452 1164.84 158.452 1164.86 158.452 1164.88C158.644 1172.14 164.597 1177.96 171.913 1177.96H315.376C322.808 1177.96 328.838 1171.93 328.838 1164.49V1106.19C328.838 1105.28 328.742 1104.4 328.569 1103.55V1092.26H253.582C247.86 1090.72 243.654 1085.5 243.654 1079.27V935.74C243.654 928.286 249.684 922.272 257.115 922.272H584.426V1092.74H512.703C505.253 1092.74 499.242 1098.77 499.242 1106.21V1164.8C499.242 1164.8 499.242 1164.82 499.242 1164.84C499.415 1172.12 505.368 1177.96 512.703 1177.96H570.964C578.415 1177.96 584.426 1171.93 584.426 1164.49V1105.9C585.789 1098.41 592.337 1092.72 600.229 1092.72H656.167C663.598 1092.72 669.628 1086.69 669.628 1079.25V1020.66C670.991 1013.16 677.539 1007.48 685.413 1007.48H741.369C748.801 1007.48 754.83 1001.44 754.83 994.009V594.789C754.83 587.354 748.801 581.321 741.369 581.321L741.331 581.379Z" fill="#F76652"/>
<path d="M171.913 155.223H243.366V144.426C243.539 143.562 243.635 142.659 243.635 141.756V83.4674C243.635 76.0325 237.606 70 230.174 70H171.913C164.597 70 158.663 75.8212 158.471 83.1024C158.298 84.063 158.183 85.062 158.183 86.0802V139.162C158.183 140.181 158.279 141.18 158.471 142.14C158.663 149.402 164.597 155.243 171.913 155.243V155.223Z" fill="#F76652"/>
<path d="M243.654 935.778V1092.3H328.838V1020.69C330.086 1013.84 335.693 1008.49 342.683 1007.67H400.445C407.876 1007.67 413.906 1001.64 413.906 994.201V936.259C414.943 928.401 421.683 922.33 429.825 922.33H257.096C249.665 922.33 243.635 928.363 243.635 935.798L243.654 935.778Z" fill="#F7E352"/>
<path d="M499.223 921.85V922.311H482.901C491.773 922.311 498.954 929.515 498.954 938.372V1104.98C498.954 1105.98 499.05 1106.96 499.223 1107.9V1106.23C499.223 1098.79 505.253 1092.76 512.684 1092.76H584.406V921.831H499.223V921.85Z" fill="#F7E352"/>
<path d="M243.654 765.312V823.62C243.654 831.055 237.625 837.087 230.193 837.087H171.913C164.482 837.087 158.452 843.12 158.452 850.555V994.086C158.452 1001.54 164.482 1007.55 171.913 1007.55H230.193C237.625 1007.55 243.654 1001.52 243.654 994.086V935.797C243.654 928.343 249.684 922.33 257.116 922.33H328.857V751.864H257.116C249.684 751.864 243.654 757.896 243.654 765.331V765.312Z" fill="#F99850"/>
<path d="M656.148 666.621H597.867C590.436 666.621 584.406 660.589 584.406 653.154V509.623C584.406 502.188 578.377 496.155 570.945 496.155H512.684C505.234 496.155 499.223 490.123 499.223 482.688V325.689H414.04V567.911C414.04 575.346 408.01 581.379 400.579 581.379H342.299C334.867 581.379 328.838 587.411 328.838 594.846V751.845H570.945C578.396 751.845 584.406 757.877 584.406 765.312V994.067C584.406 1001.52 590.436 1007.53 597.867 1007.53H656.148C663.579 1007.53 669.609 1001.5 669.609 994.067V680.089C669.609 672.654 663.579 666.621 656.148 666.621Z" fill="#F99850"/>
<path d="M414.04 253.934C414.04 246.499 408.01 240.466 400.579 240.466H342.318C334.886 240.466 328.857 246.499 328.857 253.934V325.689H414.04V253.934Z" fill="#F99850"/>
<path d="M656.129 240.466H597.867C590.433 240.466 584.406 246.496 584.406 253.934V312.222C584.406 319.66 590.433 325.689 597.867 325.689H656.129C663.563 325.689 669.59 319.66 669.59 312.222V253.934C669.59 246.496 663.563 240.466 656.129 240.466Z" fill="#F99850"/>
<path d="M570.945 751.384H328.838V922.311H584.406V764.851C584.406 757.416 578.377 751.384 570.945 751.384Z" fill="#FFAC48"/>
<path d="M230.193 410.932H171.932C164.498 410.932 158.471 416.961 158.471 424.399V482.688C158.471 490.126 164.498 496.155 171.932 496.155H230.193C237.628 496.155 243.654 490.126 243.654 482.688V424.399C243.654 416.961 237.628 410.932 230.193 410.932Z" fill="#FFAC48"/>
</g>
<defs>
<clipPath id="clip0_55_200">
<rect width="4671" height="1108" fill="white" transform="translate(73 70)"/>
</clipPath>
</defs>
</svg>
