<svg width="1876" height="1434" viewBox="0 0 1876 1434" fill="none" xmlns="http://www.w3.org/2000/svg">
<g clip-path="url(#clip0_1_2)">
<path d="M311.183 948.601C311.183 931.295 304.621 915.26 292.173 902.18C279.358 888.757 262.421 881.358 244.487 881.358H227.32C209.879 881.358 193.136 888.424 180.126 901.287C167.071 914.241 159.879 931.043 159.879 948.601V1127.86C159.879 1146.43 167.426 1163.7 181.077 1176.46C194.098 1188.65 210.085 1195.1 227.309 1195.1H244.475C261.928 1195.1 278.557 1188.15 291.234 1175.57C304.095 1162.86 311.172 1145.91 311.172 1127.86V948.601H311.183Z" fill="#3D3730"/>
<path d="M1856.18 804.997C1843.87 792.685 1827.88 785.904 1811.16 785.904H1501.13C1504.35 778.62 1506.02 770.717 1506.02 762.573V730.343C1506.02 714.32 1499.58 699.373 1487.88 688.286C1476.87 677.829 1462.63 672.068 1447.81 672.068H1421.33C1419.55 664.016 1416.06 656.468 1411 649.814C1416.23 642.896 1419.79 635.062 1421.52 626.769C1432.4 624.467 1442.48 618.992 1450.64 610.826C1461.82 599.693 1467.98 585.136 1467.98 569.834V547.901C1467.98 532.599 1461.82 518.03 1450.64 506.909C1439.52 495.844 1425.01 489.74 1409.77 489.74H1387.75C1372.04 489.74 1357.28 496.154 1346.13 507.859C1338.47 515.934 1333.34 525.738 1331.15 536.241V518.419C1331.15 503.587 1325.39 489.35 1314.92 478.309C1303.83 466.604 1288.89 460.167 1272.88 460.167H1205.69C1198.23 460.167 1191 461.587 1184.29 464.267C1184.37 463.065 1184.43 461.862 1184.43 460.648V281.687C1184.43 257.704 1168.24 237.431 1146.22 231.223V205.269C1146.22 196.164 1143.87 187.608 1139.79 180.14C1143.89 172.673 1146.22 164.106 1146.22 154.989V128.852C1146.22 99.9431 1122.71 76.4291 1093.81 76.4291H1067.67C1058.57 76.4291 1049.98 78.7542 1042.5 82.8545C1038.62 80.7242 1034.45 79.0634 1030.06 77.9753C1024.38 55.1714 1003.74 38.2203 979.193 38.2203H953.232C947.025 16.2067 926.766 0.0114288 902.785 0.0114288H876.652C849.281 0.0114288 827.019 20.5361 824.476 47.3716C824.236 49.4447 824.11 51.5292 824.11 53.6023V77.4027C824.11 79.4757 824.236 81.5603 824.476 83.6334C826.56 105.636 841.895 123.388 862.44 129.069V137.465L870.353 144.658C872.185 147.601 874.315 150.338 876.686 152.847H876.652C849.9 152.847 827.694 172.89 824.625 199.096C824.293 201.524 824.121 203.987 824.121 206.438V230.238C824.121 232.689 824.293 235.14 824.625 237.568C826.515 253.66 835.619 267.416 848.548 275.651C845.536 277.575 842.685 279.797 840.074 282.351C835.894 286.429 832.47 291.09 829.893 296.164L824.236 302.956V307.618C815.899 309.954 808.226 314.352 801.87 320.549C798.48 323.847 795.606 327.535 793.258 331.51L786.043 338.737V355.688C785.963 356.879 785.929 358.07 785.929 359.262V457.051H733.386C717.319 457.051 702.351 463.534 691.266 475.285C680.867 486.304 675.13 500.529 675.13 515.327V526.425C671.431 525.669 667.64 525.28 663.792 525.28H596.5C581.166 525.28 566.599 531.442 555.467 542.632C552.581 545.53 550.039 548.645 547.852 551.955V515.327C547.852 500.586 542.149 486.395 531.796 475.366L531.647 475.205C520.55 463.5 505.616 457.051 489.595 457.051H349.971C333.95 457.051 319.017 463.5 307.931 475.182C297.475 486.201 291.715 500.437 291.715 515.27V582.57C291.715 597.403 297.475 611.639 307.92 622.658C319.005 634.352 333.939 640.788 349.971 640.788H355.32V743.939C355.32 750.719 356.534 757.385 358.835 763.661C348.254 756.938 336.206 753.319 323.781 753.319H147.316C129.829 753.319 113.086 760.443 100.145 773.374C87.2155 786.305 80.0923 803.061 80.0923 820.562V833.15H67.5065C49.0228 833.15 31.7989 840.617 19.0184 854.19C6.75329 867.178 0.271423 883.156 0.271423 900.393V1178.71C0.271423 1196.75 7.31444 1213.67 20.0949 1226.37C32.7953 1239 49.6527 1245.96 67.5752 1245.96H80.3213V1291.39C80.3213 1309.91 87.8224 1327.16 101.45 1339.96C114.437 1352.18 130.401 1358.64 147.625 1358.64H218.433V1365.89C218.433 1384.3 225.854 1401.48 239.368 1414.31C252.366 1426.61 268.341 1433.12 285.577 1433.12H706.921C724.156 1433.12 740.132 1426.61 753.176 1414.27C766.643 1401.47 774.064 1384.29 774.064 1365.89V1305.96C774.064 1291.21 769.3 1277.28 760.505 1265.77C768.773 1254.82 773.251 1241.63 773.251 1227.68V1206.24H776.973C777.603 1206.24 778.221 1206.21 778.851 1206.19V1267.39C778.851 1280.04 782.493 1292.11 789.272 1302.45C782.493 1312.78 778.851 1324.85 778.851 1337.5V1369.88C778.851 1387.02 785.516 1403.1 797.633 1415.2C809.726 1427.32 825.816 1433.99 842.948 1433.99H1354.75C1371.48 1433.99 1387.36 1427.3 1399.46 1415.16C1411.52 1403.05 1418.16 1386.97 1418.16 1369.88V1366.17H1468.95C1469.61 1366.17 1470.26 1366.15 1470.91 1366.13V1369.88C1470.91 1387.51 1478.02 1403.95 1490.95 1416.14C1503.32 1427.82 1518.55 1433.99 1535.01 1433.99H1635.81C1652.51 1433.99 1668.37 1427.35 1680.47 1415.26L1680.59 1415.15C1692.66 1403.03 1699.3 1386.96 1699.3 1369.87V998.034H1811.17C1827.39 998.034 1843.05 991.7 1855.22 980.201C1868.15 968.003 1875.27 951.785 1875.27 934.548V849.998C1875.27 833.276 1868.49 817.287 1856.19 804.986L1856.18 804.997Z" fill="#3D3730"/>
<path d="M808.959 507.115C806.634 504.675 803.84 503.438 800.564 503.438H733.375C730.1 503.438 727.294 504.675 724.981 507.126C722.656 509.589 721.499 512.326 721.499 515.327V743.984C721.499 746.997 720.251 749.723 717.777 752.185C715.292 754.648 712.544 755.873 709.509 755.873H687.601C684.292 755.873 681.463 754.648 679.127 752.185C676.779 749.723 675.611 746.997 675.611 743.984V583.544C675.611 580.543 674.386 577.806 671.935 575.355C669.496 572.892 666.77 571.667 663.781 571.667H596.489C593.5 571.667 590.774 572.892 588.323 575.355C585.884 577.806 584.659 580.543 584.659 583.544V743.984C584.659 746.997 583.491 749.723 581.177 752.185C578.852 754.648 576.196 755.873 573.195 755.873H513.347C510.335 755.873 507.609 754.648 505.147 752.185C502.685 749.723 501.459 746.997 501.459 743.984V515.327C501.459 512.326 500.291 509.589 497.978 507.126C495.653 504.675 492.859 503.438 489.584 503.438H349.96C346.685 503.438 343.879 504.675 341.566 507.115C339.241 509.566 338.084 512.28 338.084 515.27V582.57C338.084 585.571 339.241 588.286 341.566 590.737C343.879 593.176 346.685 594.402 349.96 594.402H389.813C393.089 594.402 395.883 595.57 398.208 597.907C400.532 600.232 401.689 602.912 401.689 605.924V743.939C401.689 746.962 402.857 749.7 405.182 752.174C407.495 754.648 410.301 755.873 413.576 755.873H444.107C447.383 755.873 450.177 757.041 452.502 759.355C454.815 761.68 455.983 764.475 455.983 767.75V844.477C455.983 847.753 457.209 850.559 459.671 852.873C462.133 855.198 464.859 856.355 467.871 856.355H573.195C576.196 856.355 578.852 855.198 581.177 852.873C583.491 850.559 584.659 847.753 584.659 844.477V767.75C584.659 764.475 585.884 761.68 588.346 759.355C590.808 757.041 593.534 755.873 596.546 755.873H618.66C621.672 755.873 624.397 757.041 626.859 759.355C629.31 761.68 630.547 764.475 630.547 767.75V844.477C630.547 847.753 631.704 850.559 634.028 852.873C636.342 855.198 639.01 856.355 642.011 856.355H709.612C712.612 856.355 715.35 855.198 717.812 852.873C720.262 850.559 721.499 847.753 721.499 844.477V767.75C721.499 764.475 722.656 761.68 724.981 759.355C727.294 757.041 730.1 755.873 733.375 755.873H755.088C758.363 755.873 761.158 754.648 763.483 752.174C765.807 749.7 766.964 746.962 766.964 743.939V605.924C766.964 602.912 768.132 600.232 770.457 597.907C772.77 595.57 775.576 594.402 778.851 594.402H800.564C803.84 594.402 806.634 593.176 808.959 590.737C811.283 588.286 812.44 585.571 812.44 582.57V515.27C812.44 512.28 811.283 509.566 808.959 507.115Z" fill="#FFBB68"/>
<path d="M993.234 620.642C990.772 618.305 988.035 617.148 985.034 617.148H962.909C959.908 617.148 957.24 615.923 954.927 613.483C952.602 611.055 951.445 608.352 951.445 605.374V583.441C951.445 580.463 950.22 577.76 947.758 575.32C945.295 572.892 942.57 571.667 939.558 571.667H845.582C842.582 571.667 839.845 572.892 837.394 575.32C834.932 577.76 833.707 580.463 833.707 583.441V605.374C833.707 608.352 832.538 611.055 830.225 613.483C827.9 615.923 825.095 617.148 821.819 617.148H800.106C796.831 617.148 794.025 618.305 791.712 620.642C789.387 622.967 788.23 625.635 788.23 628.648V798.961C788.23 802.248 789.387 805.054 791.712 807.391C794.025 809.716 796.831 810.884 800.106 810.884H821.819C825.095 810.884 827.9 812.041 830.225 814.366C832.538 816.691 833.707 819.486 833.707 822.761V844.477C833.707 847.753 834.932 850.559 837.394 852.873C839.845 855.198 842.582 856.355 845.582 856.355H939.558C942.57 856.355 945.295 855.198 947.758 852.873C950.22 850.559 951.445 847.753 951.445 844.477V822.761C951.445 819.486 952.602 816.691 954.927 814.366C957.24 812.041 959.908 810.884 962.909 810.884H985.034C988.035 810.884 990.772 809.716 993.234 807.391C995.685 805.054 996.921 802.248 996.921 798.961V628.648C996.921 625.635 995.685 622.967 993.234 620.642ZM905.969 686.557V741.052C905.969 744.339 904.801 747.157 902.453 749.482C900.106 751.819 897.426 752.975 894.391 752.975H891.162C888.127 752.975 885.367 751.819 882.893 749.482C880.408 747.157 879.183 744.339 879.183 741.052V686.557C879.183 686.408 879.183 686.259 879.194 686.11C879.309 683.281 880.534 680.761 882.893 678.539C885.367 676.214 888.127 675.046 891.162 675.046H894.391C897.426 675.046 900.106 676.214 902.453 678.539C904.686 680.761 905.855 683.281 905.958 686.11C905.969 686.259 905.969 686.408 905.969 686.557Z" fill="#FFBB68"/>
<path d="M1169.44 575.343C1167.11 572.892 1164.45 571.667 1161.45 571.667H1122.3C1119.29 571.667 1116.56 572.892 1114.11 575.355C1111.65 577.806 1110.42 580.543 1110.42 583.544V605.672C1110.42 608.684 1109.25 611.41 1106.94 613.861C1104.62 616.324 1101.82 617.549 1098.54 617.549H1076.82C1073.82 617.549 1071.08 616.324 1068.63 613.861C1066.17 611.41 1064.95 608.684 1064.95 605.672V583.544C1064.95 580.543 1063.78 577.806 1061.47 575.355C1059.14 572.892 1056.33 571.667 1053.06 571.667H1031.35C1028.07 571.667 1025.27 572.892 1022.95 575.355C1020.63 577.806 1019.47 580.543 1019.47 583.544V844.477C1019.47 847.753 1020.63 850.559 1022.95 852.873C1025.27 855.198 1028.07 856.355 1031.35 856.355H1098.54C1101.82 856.355 1104.62 855.198 1106.94 852.873C1109.25 850.536 1110.42 847.73 1110.42 844.443V674.542C1110.42 671.255 1111.65 668.449 1114.11 666.124C1115.43 664.864 1116.84 663.947 1118.31 663.375C1119.57 662.871 1120.9 662.63 1122.3 662.63H1161.45C1164.45 662.63 1167.11 661.405 1169.44 658.954C1171.75 656.514 1172.92 653.788 1172.92 650.799V583.498C1172.92 580.509 1171.75 577.783 1169.44 575.343Z" fill="#FFBB68"/>
<path d="M1455.97 721.936C1453.53 719.623 1450.8 718.455 1447.81 718.455H1387.75C1384.76 718.455 1382.1 717.286 1379.79 714.961C1377.47 712.625 1376.33 709.819 1376.33 706.52V684.701C1376.33 681.414 1375.1 678.608 1372.65 676.271C1370.2 673.946 1367.49 672.767 1364.5 672.767H1342.48C1339.48 672.767 1336.76 671.541 1334.31 669.067C1332.57 667.303 1331.46 665.413 1330.96 663.375C1330.75 662.55 1330.65 661.702 1330.65 660.832V639.013C1330.65 635.726 1331.87 632.92 1334.31 630.583C1336.76 628.258 1339.48 627.09 1342.48 627.09H1364.5C1367.49 627.09 1370.2 625.853 1372.65 623.402C1375.1 620.94 1376.33 618.214 1376.33 615.201V593.073C1376.33 590.072 1377.47 587.415 1379.79 585.09C1382.1 582.765 1384.76 581.608 1387.75 581.608H1409.77C1412.76 581.608 1415.48 580.394 1417.92 577.955C1420.37 575.515 1421.6 572.812 1421.6 569.834V547.901C1421.6 544.923 1420.37 542.22 1417.92 539.78C1415.48 537.352 1412.76 536.126 1409.77 536.126H1387.75C1384.76 536.126 1382.1 537.352 1379.79 539.78C1377.47 542.22 1376.33 544.923 1376.33 547.901V569.834C1376.33 572.812 1375.1 575.515 1372.65 577.955C1370.2 580.394 1367.49 581.608 1364.5 581.608H1342.48C1339.48 581.608 1336.76 582.765 1334.31 585.09C1331.87 587.415 1330.65 590.072 1330.65 593.073V615.201C1330.65 618.214 1329.48 620.94 1327.13 623.402C1324.79 625.853 1322.1 627.09 1319.08 627.09H1296.75C1293.71 627.09 1290.96 625.865 1288.48 623.413C1285.99 620.962 1284.77 618.237 1284.77 615.224V518.419C1284.77 515.419 1283.6 512.693 1281.28 510.242C1278.95 507.791 1276.16 506.554 1272.88 506.554H1205.69C1202.42 506.554 1199.61 507.791 1197.3 510.242C1194.97 512.704 1193.82 515.441 1193.82 518.442V762.573C1193.82 765.849 1194.97 768.655 1197.3 770.98C1199.61 773.294 1202.42 774.462 1205.69 774.462H1272.88C1276.16 774.462 1278.95 773.294 1281.28 770.98C1283.6 768.655 1284.77 765.849 1284.77 762.573V730.343C1284.77 727.056 1285.99 724.261 1288.48 721.936C1290.96 719.623 1293.71 718.455 1296.75 718.455H1319.08C1322.1 718.455 1324.79 719.623 1327.13 721.936C1329.48 724.261 1330.65 727.056 1330.65 730.343V762.573C1330.65 765.849 1331.87 768.655 1334.31 770.98C1336.76 773.294 1339.48 774.462 1342.48 774.462H1447.81C1450.8 774.462 1453.53 773.294 1455.97 770.98C1458.42 768.655 1459.64 765.849 1459.64 762.573V730.343C1459.64 727.056 1458.42 724.261 1455.97 721.936Z" fill="#FFBB68"/>
<path d="M721.202 1291.23C716.884 1287.15 712.086 1285.12 706.818 1285.12H364.756C359.477 1285.12 354.804 1283.09 350.727 1279.01C346.65 1274.95 344.623 1270.02 344.623 1264.27V1220.43C344.623 1214.68 346.65 1209.76 350.727 1205.69C354.804 1201.62 359.477 1199.58 364.756 1199.58H403.579C408.858 1199.58 413.656 1197.54 417.962 1193.47C421.432 1190.2 423.505 1186.38 424.181 1182.01C424.353 1180.95 424.433 1179.85 424.433 1178.72V900.405C424.433 895.136 422.28 890.337 417.962 886.019C413.656 881.701 408.858 879.548 403.579 879.548H364.756C359.477 879.548 354.804 877.509 350.727 873.432C346.65 869.366 344.623 864.693 344.623 859.413V820.574C344.623 815.305 342.459 810.506 338.153 806.188C333.836 801.882 329.037 799.717 323.769 799.717H147.304C142.025 799.717 137.238 801.882 132.932 806.188C128.615 810.506 126.462 815.305 126.462 820.574V859.413C126.462 864.693 124.412 869.366 120.346 873.432C116.269 877.509 111.356 879.548 105.607 879.548H67.495C61.7347 879.548 56.8217 881.701 52.7562 886.019C48.6679 890.337 46.6408 895.136 46.6408 900.405V1178.72C46.6408 1179.85 46.721 1180.95 46.8813 1182.01C47.5112 1186.38 49.4695 1190.2 52.7677 1193.47C56.8561 1197.54 61.7805 1199.58 67.5638 1199.58H105.779C111.551 1199.58 116.464 1201.62 120.552 1205.69C124.652 1209.76 126.691 1214.68 126.691 1220.43V1291.4C126.691 1297.17 128.855 1302.08 133.184 1306.14C137.513 1310.23 142.323 1312.26 147.614 1312.26H244.613C249.892 1312.26 254.576 1314.3 258.664 1318.38C262.753 1322.44 264.803 1327.37 264.803 1333.12V1365.9C264.803 1371.65 266.944 1376.56 271.239 1380.64C275.533 1384.7 280.309 1386.74 285.565 1386.74H706.909C712.154 1386.74 716.93 1384.7 721.224 1380.64C725.519 1376.56 727.672 1371.65 727.672 1365.9V1305.97C727.672 1300.22 725.519 1295.3 721.202 1291.23ZM212.799 1142.6C208.447 1138.53 206.271 1133.61 206.271 1127.86V948.601C206.271 943.332 208.447 938.533 212.799 934.215C217.151 929.909 221.995 927.744 227.32 927.744H244.487C249.8 927.744 254.519 929.909 258.63 934.215C262.741 938.533 264.803 943.332 264.803 948.601V1127.86C264.803 1133.61 262.741 1138.53 258.63 1142.6C258.126 1143.1 257.599 1143.59 257.072 1144.02C253.339 1147.15 249.136 1148.72 244.487 1148.72H227.32C222.659 1148.72 218.364 1147.15 214.448 1144.02C213.887 1143.59 213.337 1143.1 212.799 1142.6Z" fill="#F4EBDF"/>
<path d="M789.192 917.459C785.551 913.794 781.497 911.961 777.03 911.961H676.687C672.221 911.961 668.156 913.794 664.514 917.459C660.872 921.124 659.04 925.202 659.04 929.68V1142.14C659.04 1142.78 659.005 1143.4 658.948 1144.02C658.559 1148.11 656.841 1151.66 653.806 1154.67C650.313 1158.14 646.305 1159.86 641.781 1159.86H608.502C603.967 1159.86 599.855 1158.14 596.168 1154.67C592.938 1151.66 591.129 1148.11 590.717 1144.02C590.648 1143.4 590.614 1142.78 590.614 1142.14V929.68C590.614 925.202 588.884 921.124 585.426 917.459C581.956 913.794 577.787 911.961 572.897 911.961H472.703C467.813 911.961 463.633 913.794 460.175 917.459C456.716 921.124 454.987 925.202 454.987 929.68V1142.14C454.987 1142.78 455.021 1143.4 455.079 1144.02C455.468 1148.11 457.163 1151.66 460.175 1154.67C463.633 1158.14 467.813 1159.86 472.703 1159.86H505.078C509.968 1159.86 514.148 1161.6 517.607 1165.06C521.065 1168.52 522.806 1172.7 522.806 1177.59V1227.69C522.806 1232.58 524.638 1236.76 528.303 1240.22C531.968 1243.69 536.033 1245.41 540.522 1245.41H709.143C713.62 1245.41 717.697 1243.69 721.362 1240.22C725.027 1236.76 726.859 1232.58 726.859 1227.69V1177.59C726.859 1172.7 728.588 1168.52 732.058 1165.06C735.505 1161.6 739.479 1159.86 743.968 1159.86H776.962C781.439 1159.86 785.516 1158.14 789.181 1154.67C792.365 1151.66 794.163 1148.11 794.586 1144.02C794.644 1143.4 794.678 1142.78 794.678 1142.14V929.68C794.678 925.202 792.846 921.124 789.192 917.459Z" fill="#F4EBDF"/>
<path d="M1139.85 1222.49C1136.19 1219.03 1132.11 1217.3 1127.64 1217.3H978.575C974.086 1217.3 970.02 1215.57 966.356 1212.1C962.691 1208.64 960.859 1204.46 960.859 1199.58V1133.03C960.859 1128.15 962.691 1123.97 966.356 1120.51C970.02 1117.05 974.086 1115.31 978.575 1115.31H1062C1066.48 1115.31 1070.56 1113.47 1074.22 1109.81C1075.06 1108.97 1075.79 1108.13 1076.43 1107.24C1078.62 1104.28 1079.72 1101.06 1079.72 1097.59V1064.59C1079.72 1060.11 1077.89 1056.15 1074.22 1052.68C1070.56 1049.22 1066.48 1047.48 1062 1047.48H978.575C974.086 1047.48 970.02 1045.66 966.356 1041.98C962.691 1038.32 960.859 1034.25 960.859 1029.77V997.507C960.859 993.029 962.691 988.952 966.356 985.287C970.02 981.621 974.086 979.789 978.575 979.789H1124.39C1128.87 979.789 1132.95 978.059 1136.61 974.589C1140.28 971.141 1142.11 967.167 1142.11 962.677V929.68C1142.11 925.202 1140.28 921.124 1136.61 917.459C1132.95 913.794 1128.87 911.961 1124.39 911.961H842.937C838.047 911.961 833.867 913.794 830.42 917.459C826.95 921.124 825.221 925.202 825.221 929.68V1267.4C825.221 1272.29 826.95 1276.47 830.42 1279.93C833.867 1283.4 838.047 1285.12 842.937 1285.12H1127.64C1132.11 1285.12 1136.19 1283.4 1139.85 1279.93C1143.52 1276.47 1145.36 1272.29 1145.36 1267.4V1235.02C1145.36 1230.13 1143.52 1225.96 1139.85 1222.49Z" fill="#F4EBDF"/>
<path d="M1263.27 1065.44C1263.27 1061.01 1265.09 1056.97 1268.75 1053.33C1272.39 1049.7 1276.44 1047.88 1280.91 1047.88H1468.94C1473.4 1047.88 1477.45 1046.15 1481.1 1042.69C1484.74 1039.23 1486.58 1035.26 1486.58 1030.78V997.782C1486.58 993.304 1484.74 989.226 1481.1 985.561C1477.45 981.896 1473.4 980.052 1468.94 980.052H1213.17C1208.68 980.052 1204.62 981.896 1200.95 985.561C1197.29 989.226 1195.45 993.304 1195.45 997.782V1030.78C1195.45 1035.26 1193.71 1039.23 1190.27 1042.69C1186.8 1046.15 1182.63 1047.88 1177.74 1047.88H1145.36C1140.47 1047.88 1136.29 1049.71 1132.83 1053.38C1129.36 1057.04 1127.64 1061.12 1127.64 1065.6V1166.42C1127.64 1170.91 1129.36 1174.98 1132.83 1178.64C1134.14 1180.03 1135.56 1181.15 1137.07 1182.01C1139.56 1183.43 1142.33 1184.14 1145.36 1184.14L1177.74 1183.53C1182.63 1183.53 1186.8 1185.28 1190.27 1188.76C1193.71 1192.23 1195.45 1196.42 1195.45 1201.32V1233.86C1195.45 1238.37 1197.29 1242.45 1200.95 1246.14C1204.62 1249.83 1208.68 1251.66 1213.17 1251.66H1245.56C1250.45 1251.66 1254.62 1253.41 1258.07 1256.88C1261.53 1260.35 1263.27 1264.55 1263.27 1269.46V1302C1263.27 1306.9 1261.53 1311.1 1258.07 1314.57C1254.62 1318.06 1250.45 1319.8 1245.56 1319.8H842.937C838.058 1319.8 833.867 1321.53 830.42 1324.99C826.95 1328.44 825.221 1332.63 825.221 1337.52V1369.89C825.221 1374.79 826.95 1378.97 830.42 1382.42C833.867 1385.88 838.058 1387.61 842.937 1387.61H1354.74C1359.2 1387.61 1363.15 1385.88 1366.59 1382.42C1370.04 1378.97 1371.77 1374.79 1371.77 1369.89V1337.52C1371.77 1332.63 1373.59 1328.44 1377.24 1324.99C1380.89 1321.53 1384.94 1319.8 1389.41 1319.8H1468.94C1473.4 1319.8 1477.45 1318.06 1481.1 1314.57C1484.74 1311.1 1486.58 1306.9 1486.58 1302V1201.32C1486.58 1196.42 1484.74 1192.23 1481.1 1188.76C1477.45 1185.28 1473.4 1183.53 1468.94 1183.53H1389.41C1387.06 1183.53 1384.83 1183.03 1382.71 1182.01C1380.79 1181.11 1378.97 1179.78 1377.24 1178.04C1373.59 1174.36 1371.77 1170.29 1371.77 1165.82V1132.82C1371.77 1128.34 1370.04 1124.37 1366.59 1120.9C1363.15 1117.45 1359.2 1115.71 1354.74 1115.71H1280.91C1276.44 1115.71 1272.39 1113.9 1268.75 1110.26C1267.77 1109.28 1266.93 1108.27 1266.22 1107.24C1264.25 1104.44 1263.27 1101.4 1263.27 1098.15V1065.44Z" fill="#F4EBDF"/>
<path d="M1823.38 837.8C1819.72 834.135 1815.64 832.291 1811.16 832.291H1211.86C1206.97 832.291 1202.8 834.135 1199.34 837.8C1195.88 841.465 1194.15 845.543 1194.15 850.021V934.57C1194.15 939.049 1195.88 943.023 1199.34 946.482C1202.8 949.941 1206.97 951.671 1211.86 951.671H1499.56C1504.45 951.671 1508.62 953.503 1512.08 957.168C1515.54 960.833 1517.28 964.911 1517.28 969.389V1369.89C1517.28 1374.79 1519.11 1378.97 1522.78 1382.42C1526.44 1385.88 1530.51 1387.61 1535 1387.61H1635.8C1640.28 1387.61 1644.25 1385.88 1647.72 1382.42C1651.17 1378.97 1652.91 1374.79 1652.91 1369.89V969.389C1652.91 964.911 1654.74 960.833 1658.4 957.168C1662.08 953.503 1666.15 951.671 1670.62 951.671H1811.16C1815.64 951.671 1819.72 949.941 1823.38 946.482C1827.05 943.023 1828.88 939.049 1828.88 934.57V850.021C1828.88 845.543 1827.05 841.465 1823.38 837.8Z" fill="#F4EBDF"/>
<path d="M766.964 703.256V743.939C766.964 746.962 765.807 749.7 763.483 752.174C761.158 754.648 758.363 755.873 755.088 755.873H733.375C730.1 755.873 727.294 757.041 724.981 759.355C722.667 761.669 721.499 764.475 721.499 767.75V844.477C721.499 847.753 720.262 850.559 717.812 852.873C715.35 855.198 712.612 856.355 709.612 856.355H642.011C639.01 856.355 636.342 855.198 634.028 852.873C631.704 850.559 630.547 847.753 630.547 844.477V767.75C630.547 764.475 629.31 761.68 626.859 759.355C624.397 757.041 621.672 755.873 618.66 755.873H596.546C593.534 755.873 590.808 757.041 588.346 759.355C585.884 761.68 584.659 764.475 584.659 767.75V844.477C584.659 847.753 583.491 850.559 581.177 852.873C578.852 855.198 576.196 856.355 573.195 856.355H467.871C464.859 856.355 462.133 855.198 459.671 852.873C457.209 850.559 455.983 847.753 455.983 844.477V767.75C455.983 764.475 454.815 761.68 452.502 759.355C450.177 757.041 447.383 755.873 444.107 755.873H413.576C410.301 755.873 407.495 754.648 405.182 752.174C402.857 749.7 401.689 746.962 401.689 743.939V703.256H501.459V743.984C501.459 746.997 502.685 749.723 505.147 752.185C507.609 754.648 510.335 755.873 513.347 755.873H573.195C576.196 755.873 578.852 754.648 581.177 752.185C583.491 749.723 584.659 746.997 584.659 743.984V703.256H675.611V743.984C675.611 746.997 676.779 749.723 679.127 752.185C681.463 754.648 684.292 755.873 687.601 755.873H709.509C712.544 755.873 715.292 754.648 717.777 752.185C720.251 749.723 721.499 746.997 721.499 743.984V703.256H766.964Z" fill="#FF9A5B"/>
<path d="M996.921 703.256V798.961C996.921 802.248 995.685 805.054 993.234 807.391C990.772 809.716 988.035 810.884 985.034 810.884H962.909C959.908 810.884 957.24 812.041 954.927 814.366C952.602 816.691 951.445 819.486 951.445 822.761V844.477C951.445 847.753 950.22 850.559 947.758 852.873C945.295 855.198 942.57 856.355 939.558 856.355H845.582C842.582 856.355 839.845 855.198 837.394 852.873C834.932 850.559 833.707 847.753 833.707 844.477V822.761C833.707 819.486 832.538 816.691 830.225 814.366C827.9 812.041 825.095 810.884 821.819 810.884H800.106C796.831 810.884 794.025 809.716 791.712 807.391C789.387 805.054 788.23 802.248 788.23 798.961V703.256H879.183V741.052C879.183 744.339 880.408 747.157 882.893 749.482C885.367 751.819 888.127 752.975 891.162 752.975H894.391C897.426 752.975 900.106 751.819 902.453 749.482C904.801 747.157 905.969 744.339 905.969 741.052V703.256H996.921Z" fill="#FF9A5B"/>
<path d="M1019.47 703.256H1110.42V844.443C1110.42 847.73 1109.25 850.536 1106.94 852.873C1104.62 855.198 1101.82 856.355 1098.54 856.355H1031.35C1028.07 856.355 1025.27 855.198 1022.95 852.873C1020.63 850.559 1019.47 847.753 1019.47 844.477V703.256Z" fill="#FF9A5B"/>
<path d="M1459.64 730.343V762.573C1459.64 765.849 1458.42 768.655 1455.97 770.98C1453.53 773.294 1450.8 774.462 1447.81 774.462H1342.48C1339.48 774.462 1336.76 773.294 1334.31 770.98C1331.87 768.655 1330.65 765.849 1330.65 762.573V730.343C1330.65 727.056 1329.48 724.261 1327.13 721.936C1324.79 719.623 1322.1 718.455 1319.08 718.455H1296.75C1293.71 718.455 1290.96 719.623 1288.48 721.936C1285.99 724.261 1284.77 727.056 1284.77 730.343V762.573C1284.77 765.849 1283.6 768.655 1281.28 770.98C1278.95 773.294 1276.16 774.462 1272.88 774.462H1205.69C1202.42 774.462 1199.61 773.294 1197.3 770.98C1194.97 768.655 1193.82 765.849 1193.82 762.573V703.256H1376.33V706.52C1376.33 709.819 1377.47 712.625 1379.79 714.961C1382.1 717.286 1384.76 718.455 1387.75 718.455H1447.81C1450.8 718.455 1453.53 719.623 1455.97 721.936C1458.42 724.261 1459.64 727.056 1459.64 730.343Z" fill="#FF9A5B"/>
<path d="M501.459 663.375H401.689V686.11H501.459V663.375Z" fill="#FF9A5B"/>
<path d="M675.611 663.375H584.659V686.11H675.611V663.375Z" fill="#FF9A5B"/>
<path d="M766.964 663.375H721.499V686.11H766.964V663.375Z" fill="#FF9A5B"/>
<path d="M996.921 663.375V686.11H905.958C905.855 683.281 904.686 680.761 902.453 678.539C900.106 676.214 897.426 675.046 894.391 675.046H891.162C888.127 675.046 885.367 676.214 882.893 678.539C880.534 680.761 879.309 683.281 879.194 686.11H788.23V663.375H996.921Z" fill="#FF9A5B"/>
<path d="M1019.47 663.375H1118.31C1116.84 663.947 1115.43 664.864 1114.11 666.124C1111.65 668.449 1110.42 671.255 1110.42 674.542V686.11H1019.47V663.375Z" fill="#FF9A5B"/>
<path d="M1376.33 684.701V686.11H1193.82V663.375H1330.96C1331.46 665.413 1332.57 667.303 1334.31 669.067C1336.76 671.541 1339.48 672.767 1342.48 672.767H1364.5C1367.49 672.767 1370.2 673.946 1372.65 676.271C1375.1 678.608 1376.33 681.414 1376.33 684.701Z" fill="#FF9A5B"/>
<path d="M501.459 639.998H401.689V649.287H501.459V639.998Z" fill="#FF9A5B"/>
<path d="M675.611 639.998H584.659V649.287H675.611V639.998Z" fill="#FF9A5B"/>
<path d="M766.964 639.998H721.499V649.287H766.964V639.998Z" fill="#FF9A5B"/>
<path d="M996.921 639.998H788.23V649.287H996.921V639.998Z" fill="#FF9A5B"/>
<path d="M1172.92 639.998H1019.47V649.287H1172.92V639.998Z" fill="#FF9A5B"/>
<path d="M1330.65 639.998H1193.82V649.287H1330.65V639.998Z" fill="#FF9A5B"/>
<path d="M709.143 1245.41C713.62 1245.41 717.697 1243.69 721.362 1240.22C725.027 1236.76 726.859 1232.58 726.859 1227.69V1222.49H522.806V1227.69C522.806 1232.58 524.638 1236.76 528.303 1240.22C531.968 1243.69 536.033 1245.41 540.522 1245.41H709.143Z" fill="#FFC3AB"/>
<path d="M706.818 1285.12H364.756C359.477 1285.12 354.804 1283.09 350.727 1279.01C346.65 1274.95 344.623 1270.02 344.623 1264.27V1222.49H126.691V1291.4C126.691 1297.17 128.855 1302.08 133.184 1306.14C137.513 1310.23 142.323 1312.26 147.614 1312.26H244.613C249.892 1312.26 254.576 1314.3 258.664 1318.38C262.753 1322.44 264.803 1327.37 264.803 1333.12V1365.9C264.803 1371.65 266.944 1376.56 271.239 1380.64C275.533 1384.7 280.309 1386.74 285.565 1386.74H706.909C712.154 1386.74 716.93 1384.7 721.224 1380.64C725.519 1376.56 727.672 1371.65 727.672 1365.9V1305.97C727.672 1300.22 725.519 1295.3 721.202 1291.23C716.884 1287.15 712.086 1285.12 706.818 1285.12Z" fill="#FFC3AB"/>
<path d="M842.937 1285.12H1127.64C1132.11 1285.12 1136.19 1283.4 1139.85 1279.93C1143.52 1276.47 1145.36 1272.29 1145.36 1267.4V1235.02C1145.36 1230.13 1143.52 1225.96 1139.85 1222.49H825.221V1267.4C825.221 1272.29 826.95 1276.47 830.42 1279.93C833.867 1283.4 838.047 1285.12 842.937 1285.12Z" fill="#FFC3AB"/>
<path d="M1195.45 1233.86C1195.45 1238.37 1197.29 1242.45 1200.95 1246.14C1204.62 1249.83 1208.68 1251.66 1213.17 1251.66H1245.56C1250.45 1251.66 1254.62 1253.41 1258.07 1256.88C1261.53 1260.35 1263.27 1264.55 1263.27 1269.46V1302C1263.27 1306.9 1261.53 1311.1 1258.07 1314.57C1254.62 1318.06 1250.45 1319.8 1245.56 1319.8H842.937C838.058 1319.8 833.867 1321.53 830.42 1324.99C826.95 1328.44 825.221 1332.63 825.221 1337.52V1369.89C825.221 1374.79 826.95 1378.97 830.42 1382.42C833.867 1385.88 838.058 1387.61 842.937 1387.61H1354.74C1359.2 1387.61 1363.15 1385.88 1366.59 1382.42C1370.04 1378.97 1371.77 1374.79 1371.77 1369.89V1337.52C1371.77 1332.63 1373.59 1328.44 1377.24 1324.99C1380.89 1321.53 1384.94 1319.8 1389.41 1319.8H1468.94C1473.4 1319.8 1477.45 1318.06 1481.1 1314.57C1484.74 1311.1 1486.58 1306.9 1486.58 1302V1222.49H1195.45V1233.86Z" fill="#FFC3AB"/>
<path d="M1517.28 1369.89C1517.28 1374.79 1519.11 1378.97 1522.78 1382.42C1526.44 1385.88 1530.51 1387.61 1535 1387.61H1635.8C1640.28 1387.61 1644.25 1385.88 1647.72 1382.42C1651.17 1378.97 1652.91 1374.79 1652.91 1369.89V1222.49H1517.28V1369.89Z" fill="#FFC3AB"/>
<path d="M424.433 1178.72V1144.02H257.072C253.339 1147.15 249.136 1148.72 244.487 1148.72H227.32C222.659 1148.72 218.364 1147.15 214.448 1144.02H46.6408V1178.72C46.6408 1179.85 46.721 1180.95 46.8813 1182.01H424.181C424.353 1180.95 424.433 1179.85 424.433 1178.72Z" fill="#FFC3AB"/>
<path d="M653.806 1154.67C650.313 1158.14 646.305 1159.86 641.781 1159.86H608.502C603.967 1159.86 599.855 1158.14 596.168 1154.67C592.938 1151.66 591.129 1148.11 590.717 1144.02H455.079C455.468 1148.11 457.163 1151.66 460.175 1154.67C463.633 1158.14 467.813 1159.86 472.703 1159.86H505.078C509.968 1159.86 514.148 1161.6 517.607 1165.06C521.065 1168.52 522.806 1172.7 522.806 1177.59V1182.01H726.859V1177.59C726.859 1172.7 728.588 1168.52 732.058 1165.06C735.505 1161.6 739.479 1159.86 743.968 1159.86H776.962C781.439 1159.86 785.516 1158.14 789.181 1154.67C792.365 1151.66 794.163 1148.11 794.586 1144.02H658.948C658.559 1148.11 656.841 1151.66 653.806 1154.67Z" fill="#FFC3AB"/>
<path d="M960.859 1144.02H825.221V1182.01H960.859V1144.02Z" fill="#FFC3AB"/>
<path d="M1137.07 1182.01H1382.71C1380.79 1181.11 1378.97 1179.78 1377.24 1178.04C1373.59 1174.36 1371.77 1170.29 1371.77 1165.82V1144.02H1127.64V1166.42C1127.64 1170.91 1129.36 1174.98 1132.83 1178.64C1134.14 1180.03 1135.56 1181.15 1137.07 1182.01Z" fill="#FFC3AB"/>
<path d="M1652.91 1144.02H1517.28V1182.01H1652.91V1144.02Z" fill="#FFC3AB"/>
<path d="M206.271 1088.38H46.6408V1107.24H206.271V1088.38Z" fill="#FFC3AB"/>
<path d="M424.433 1088.38H264.803V1107.24H424.433V1088.38Z" fill="#FFC3AB"/>
<path d="M590.614 1088.38H454.987V1107.24H590.614V1088.38Z" fill="#FFC3AB"/>
<path d="M794.678 1088.38H659.04V1107.24H794.678V1088.38Z" fill="#FFC3AB"/>
<path d="M1079.72 1097.59V1088.38H825.221V1107.24H1076.43C1078.62 1104.28 1079.72 1101.06 1079.72 1097.59Z" fill="#FFC3AB"/>
<path d="M1263.27 1098.15V1088.38H1127.64V1107.24H1266.22C1264.25 1104.44 1263.27 1101.4 1263.27 1098.15Z" fill="#FFC3AB"/>
<path d="M1652.91 1088.38H1517.28V1107.24H1652.91V1088.38Z" fill="#FFC3AB"/>
<path d="M1092.51 122.804H1068.71C1064.74 122.804 1061.51 126.03 1061.51 130.009V153.809C1061.51 157.788 1064.74 161.013 1068.71 161.013H1092.51C1096.49 161.013 1099.72 157.788 1099.72 153.809V130.009C1099.72 126.03 1096.49 122.804 1092.51 122.804Z" fill="#F76652"/>
<path d="M901.503 199.222H877.705C873.727 199.222 870.502 202.447 870.502 206.426V230.227C870.502 234.205 873.727 237.431 877.705 237.431H901.503C905.481 237.431 908.706 234.205 908.706 230.227V206.426C908.706 202.447 905.481 199.222 901.503 199.222Z" fill="#F76652"/>
<path d="M1132 275.628H1130.76C1130.76 275.628 1130.73 275.628 1130.7 275.628H1106.91C1103.39 275.628 1100.46 273.108 1099.83 269.764C1099.83 269.707 1099.83 269.65 1099.83 269.592V205.247C1099.83 201.914 1097.13 199.211 1093.79 199.211H1092.53H1092.51H1030.51C1026.98 199.211 1024.04 196.668 1023.42 193.312C1023.34 192.888 1023.31 192.453 1023.31 192.006V156.157C1023.39 155.767 1023.42 155.367 1023.42 154.966V128.829C1023.42 125.496 1020.72 122.793 1017.39 122.793H992.306C988.767 122.793 985.836 120.239 985.217 116.883V116.826C985.217 116.826 985.217 116.814 985.217 116.803C985.217 116.791 985.217 116.768 985.217 116.757V90.62C985.217 87.2871 982.515 84.584 979.182 84.584H914.844C914.844 84.584 914.844 84.584 914.833 84.584H908.695V115.589C908.695 116.035 908.74 116.482 908.809 116.906C908.809 116.906 908.809 116.917 908.809 116.929C908.901 120.181 911.558 122.804 914.833 122.804H939.684C943.658 122.804 946.887 126.034 946.887 130.009V230.227C946.887 234.201 943.658 237.431 939.684 237.431H914.833C911.558 237.431 908.889 240.042 908.809 243.307C908.809 243.307 908.809 243.318 908.809 243.329C908.729 243.753 908.695 244.2 908.695 244.647V306.656C908.695 310.642 905.465 313.871 901.48 313.871H876.64C873.365 313.871 870.697 316.483 870.605 319.747V319.77C870.525 320.194 870.491 320.629 870.491 321.076V344.876C870.491 348.85 867.261 352.08 863.287 352.08H838.448C835.172 352.08 832.504 354.692 832.413 357.956V357.979C832.332 358.403 832.298 358.838 832.298 359.285V497.7C832.298 498.147 832.344 498.582 832.413 499.006C832.413 499.017 832.413 499.029 832.413 499.04C832.493 502.293 835.161 504.904 838.448 504.904H863.287C867.261 504.904 870.491 508.134 870.491 512.109V535.909C870.491 536.356 870.536 536.791 870.605 537.215C870.605 537.226 870.605 537.237 870.605 537.249C870.685 540.502 873.354 543.113 876.64 543.113H940.978C944.311 543.113 947.013 540.41 947.013 537.077V510.94C947.013 510.539 946.967 510.139 946.899 509.761V504.698H913.275C910.71 504.011 908.821 501.663 908.821 498.868V434.523C908.821 431.178 911.523 428.487 914.856 428.487H1061.64V504.904H1029.47C1026.12 504.904 1023.43 507.607 1023.43 510.94V537.215C1023.43 537.215 1023.43 537.226 1023.43 537.237C1023.51 540.502 1026.18 543.113 1029.47 543.113H1055.59C1058.93 543.113 1061.63 540.41 1061.63 537.077V510.814C1062.23 507.458 1065.18 504.904 1068.71 504.904H1093.81C1097.14 504.904 1099.84 502.201 1099.84 498.868V472.605C1100.45 469.25 1103.38 466.707 1106.92 466.695H1132.01C1135.34 466.695 1138.05 463.992 1138.05 460.659V281.699C1138.05 278.366 1135.34 275.663 1132.01 275.663L1132 275.628Z" fill="#F76652"/>
<path d="M876.652 84.5955H908.695V79.7621C908.775 79.3727 908.809 78.9718 908.809 78.5595V52.4226C908.809 49.0897 906.107 46.3866 902.774 46.3866H876.64C873.365 46.3866 870.697 48.998 870.617 52.2508C870.536 52.6861 870.491 53.1328 870.491 53.5909V77.3912C870.491 77.8494 870.536 78.2961 870.617 78.7313C870.708 81.9841 873.365 84.5955 876.64 84.5955H876.652Z" fill="#F76652"/>
<path d="M908.821 434.5V504.664H947.025V472.56C947.586 469.49 950.105 467.096 953.232 466.718H979.136C982.469 466.718 985.172 464.015 985.172 460.682V434.706C985.641 431.178 988.664 428.464 992.306 428.464H914.856C911.523 428.464 908.821 431.167 908.821 434.5Z" fill="#F7E352"/>
<path d="M1023.43 428.257V428.464H1016.11C1020.09 428.464 1023.32 431.694 1023.32 435.668V510.356C1023.32 510.803 1023.36 511.238 1023.43 511.662V510.917C1023.43 507.584 1026.14 504.881 1029.47 504.881H1061.64V428.257H1023.43Z" fill="#F7E352"/>
<path d="M908.821 358.082V384.219C908.821 387.552 906.118 390.255 902.785 390.255H876.652C873.319 390.255 870.617 392.958 870.617 396.291V460.637C870.617 463.981 873.319 466.673 876.652 466.673H902.785C906.118 466.673 908.821 463.969 908.821 460.637V434.511C908.821 431.167 911.523 428.475 914.856 428.475H947.025V352.057H914.856C911.523 352.057 908.821 354.76 908.821 358.093V358.082Z" fill="#FF9A5B"/>
<path d="M1093.81 313.849H1067.67C1064.34 313.849 1061.64 311.146 1061.64 307.813V243.467C1061.64 240.134 1058.93 237.431 1055.6 237.431H1029.48C1026.14 237.431 1023.44 234.728 1023.44 231.395V161.013H985.24V269.604C985.24 272.937 982.538 275.64 979.205 275.64H953.071C949.739 275.64 947.036 278.343 947.036 281.676V352.057H1055.6C1058.95 352.057 1061.64 354.76 1061.64 358.093V460.636C1061.64 463.981 1064.34 466.672 1067.67 466.672H1093.81C1097.14 466.672 1099.84 463.969 1099.84 460.636V319.885C1099.84 316.552 1097.14 313.849 1093.81 313.849Z" fill="#FF9A5B"/>
<path d="M985.229 128.84C985.229 125.507 982.526 122.804 979.194 122.804H953.06C949.727 122.804 947.025 125.507 947.025 128.84V161.013H985.229V128.84Z" fill="#FF9A5B"/>
<path d="M1093.81 122.804H1067.67C1064.34 122.804 1061.64 125.507 1061.64 128.84V154.977C1061.64 158.311 1064.34 161.013 1067.67 161.013H1093.81C1097.14 161.013 1099.84 158.311 1099.84 154.977V128.84C1099.84 125.507 1097.14 122.804 1093.81 122.804Z" fill="#FF9A5B"/>
<path d="M1055.59 351.84H947.025V428.464H1061.64V357.876C1061.64 354.543 1058.93 351.84 1055.6 351.84H1055.59Z" fill="#FFBB68"/>
<path d="M902.785 199.222H876.652C873.319 199.222 870.617 201.924 870.617 205.258V231.395C870.617 234.728 873.319 237.431 876.652 237.431H902.785C906.119 237.431 908.821 234.728 908.821 231.395V205.258C908.821 201.924 906.119 199.222 902.785 199.222Z" fill="#FFBB68"/>
</g>
<defs>
<clipPath id="clip0_1_2">
<rect width="1875" height="1434" fill="white" transform="translate(0.26001)"/>
</clipPath>
</defs>
</svg>
