<svg width="4671" height="1108" viewBox="0 0 4671 1108" fill="none" xmlns="http://www.w3.org/2000/svg">
<g clip-path="url(#clip0_1_524)">
<path d="M1611.55 410.075C1607.65 405.983 1602.96 403.908 1597.47 403.908H1484.81C1479.32 403.908 1474.61 405.983 1470.74 410.094C1466.84 414.225 1464.9 418.816 1464.9 423.85V807.394C1464.9 812.446 1462.8 817.019 1458.66 821.149C1454.49 825.28 1449.88 827.335 1444.79 827.335H1408.06C1402.51 827.335 1397.76 825.28 1393.85 821.149C1389.91 817.019 1387.95 812.446 1387.95 807.394V538.275C1387.95 533.242 1385.9 528.65 1381.79 524.539C1377.7 520.408 1373.13 518.353 1368.12 518.353H1255.28C1250.27 518.353 1245.7 520.408 1241.59 524.539C1237.5 528.65 1235.44 533.242 1235.44 538.275V807.394C1235.44 812.446 1233.49 817.019 1229.61 821.149C1225.71 825.28 1221.25 827.335 1216.22 827.335H1115.87C1110.82 827.335 1106.25 825.28 1102.12 821.149C1097.99 817.019 1095.94 812.446 1095.94 807.394V423.85C1095.94 418.816 1093.98 414.225 1090.1 410.094C1086.2 405.983 1081.52 403.908 1076.02 403.908H841.904C836.412 403.908 831.708 405.983 827.829 410.075C823.93 414.186 821.991 418.74 821.991 423.754V536.642C821.991 541.676 823.93 546.229 827.829 550.34C831.708 554.432 836.412 556.488 841.904 556.488H908.73C914.222 556.488 918.907 558.447 922.805 562.367C926.703 566.267 928.643 570.762 928.643 575.815V807.317C928.643 812.389 930.601 816.98 934.5 821.13C938.379 825.28 943.083 827.335 948.575 827.335H999.77C1005.26 827.335 1009.95 829.295 1013.85 833.176C1017.72 837.076 1019.68 841.763 1019.68 847.258V975.958C1019.68 981.452 1021.74 986.159 1025.87 990.04C1029.99 993.94 1034.56 995.88 1039.62 995.88H1216.22C1221.25 995.88 1225.71 993.94 1229.61 990.04C1233.49 986.159 1235.44 981.452 1235.44 975.958V847.258C1235.44 841.763 1237.5 837.076 1241.63 833.176C1245.76 829.295 1250.33 827.335 1255.38 827.335H1292.46C1297.51 827.335 1302.08 829.295 1306.21 833.176C1310.32 837.076 1312.39 841.763 1312.39 847.258V975.958C1312.39 981.452 1314.33 986.159 1318.23 990.04C1322.11 993.94 1326.58 995.88 1331.61 995.88H1444.97C1450 995.88 1454.59 993.94 1458.71 990.04C1462.82 986.159 1464.9 981.452 1464.9 975.958V847.258C1464.9 841.763 1466.84 837.076 1470.74 833.176C1474.61 829.295 1479.32 827.335 1484.81 827.335H1521.22C1526.71 827.335 1531.4 825.28 1535.29 821.13C1539.19 816.98 1541.13 812.389 1541.13 807.317V575.815C1541.13 570.762 1543.09 566.267 1546.99 562.367C1550.87 558.447 1555.57 556.488 1561.06 556.488H1597.47C1602.96 556.488 1607.65 554.432 1611.55 550.34C1615.45 546.229 1617.39 541.676 1617.39 536.642V423.754C1617.39 418.74 1615.45 414.186 1611.55 410.075Z" fill="#FFAC48"/>
<path d="M1920.54 600.502C1916.41 596.583 1911.82 594.642 1906.79 594.642H1869.69C1864.66 594.642 1860.19 592.587 1856.31 588.495C1852.41 584.422 1850.47 579.888 1850.47 574.893V538.102C1850.47 533.107 1848.41 528.573 1844.29 524.481C1840.16 520.408 1835.59 518.353 1830.54 518.353H1672.96C1667.93 518.353 1663.34 520.408 1659.23 524.481C1655.1 528.573 1653.05 533.107 1653.05 538.102V574.893C1653.05 579.888 1651.09 584.422 1647.21 588.495C1643.31 592.587 1638.61 594.642 1633.11 594.642H1596.7C1591.21 594.642 1586.51 596.583 1582.63 600.502C1578.73 604.402 1576.79 608.878 1576.79 613.931V899.61C1576.79 905.124 1578.73 909.831 1582.63 913.75C1586.51 917.65 1591.21 919.609 1596.7 919.609H1633.11C1638.61 919.609 1643.31 921.55 1647.21 925.45C1651.09 929.35 1653.05 934.037 1653.05 939.532V975.957C1653.05 981.452 1655.1 986.159 1659.23 990.04C1663.34 993.94 1667.93 995.88 1672.96 995.88H1830.54C1835.59 995.88 1840.16 993.94 1844.29 990.04C1848.41 986.159 1850.47 981.452 1850.47 975.957V939.532C1850.47 934.037 1852.41 929.35 1856.31 925.45C1860.19 921.55 1864.66 919.609 1869.69 919.609H1906.79C1911.82 919.609 1916.41 917.65 1920.54 913.75C1924.65 909.831 1926.72 905.124 1926.72 899.61V613.931C1926.72 608.878 1924.65 604.402 1920.54 600.502ZM1774.21 711.066V802.475C1774.21 807.989 1772.26 812.715 1768.32 816.615C1764.38 820.534 1759.89 822.475 1754.8 822.475H1749.39C1744.3 822.475 1739.67 820.534 1735.52 816.615C1731.35 812.715 1729.3 807.989 1729.3 802.475V711.066C1729.3 710.816 1729.3 710.566 1729.32 710.316C1729.51 705.571 1731.57 701.345 1735.52 697.617C1739.67 693.717 1744.3 691.758 1749.39 691.758H1754.8C1759.89 691.758 1764.38 693.717 1768.32 697.617C1772.06 701.345 1774.02 705.571 1774.2 710.316C1774.21 710.566 1774.21 710.816 1774.21 711.066Z" fill="#FFAC48"/>
<path d="M2215.99 524.519C2212.09 520.408 2207.64 518.353 2202.61 518.353H2136.95C2131.9 518.353 2127.33 520.408 2123.22 524.539C2119.1 528.65 2117.04 533.242 2117.04 538.275V575.392C2117.04 580.445 2115.08 585.017 2111.2 589.129C2107.3 593.259 2102.62 595.315 2097.11 595.315H2060.7C2055.67 595.315 2051.08 593.259 2046.97 589.129C2042.84 585.017 2040.79 580.445 2040.79 575.392V538.275C2040.79 533.242 2038.83 528.65 2034.95 524.539C2031.05 520.408 2026.35 518.353 2020.85 518.353H1984.45C1978.95 518.353 1974.25 520.408 1970.37 524.539C1966.47 528.65 1964.53 533.242 1964.53 538.275V975.957C1964.53 981.452 1966.47 986.159 1970.37 990.04C1974.25 993.94 1978.95 995.88 1984.45 995.88H2097.11C2102.62 995.88 2107.3 993.94 2111.2 990.04C2115.08 986.121 2117.04 981.414 2117.04 975.9V690.913C2117.04 685.399 2119.1 680.692 2123.22 676.792C2125.43 674.679 2127.79 673.142 2130.27 672.181C2132.38 671.336 2134.61 670.932 2136.95 670.932H2202.61C2207.64 670.932 2212.09 668.877 2215.99 664.765C2219.87 660.673 2221.83 656.101 2221.83 651.087V538.198C2221.83 533.184 2219.87 528.612 2215.99 524.519Z" fill="#FFAC48"/>
<path d="M2696.44 770.411C2692.35 766.53 2687.78 764.57 2682.77 764.57H2582.05C2577.04 764.57 2572.59 762.611 2568.71 758.711C2564.83 754.792 2562.91 750.085 2562.91 744.552V707.953C2562.91 702.44 2560.85 697.733 2556.74 693.814C2552.63 689.914 2548.08 687.935 2543.07 687.935H2506.14C2501.11 687.935 2496.56 685.879 2492.45 681.729C2489.53 678.771 2487.67 675.601 2486.83 672.181C2486.48 670.798 2486.31 669.376 2486.31 667.916V631.318C2486.31 625.804 2488.36 621.097 2492.45 617.178C2496.56 613.278 2501.11 611.318 2506.14 611.318H2543.07C2548.08 611.318 2552.63 609.243 2556.74 605.132C2560.85 601.002 2562.91 596.429 2562.91 591.376V554.259C2562.91 549.226 2564.83 544.769 2568.71 540.869C2572.59 536.969 2577.04 535.028 2582.05 535.028H2618.98C2623.99 535.028 2628.56 532.992 2632.65 528.9C2636.76 524.808 2638.82 520.274 2638.82 515.279V478.488C2638.82 473.493 2636.76 468.959 2632.65 464.867C2628.56 460.794 2623.99 458.738 2618.98 458.738H2582.05C2577.04 458.738 2572.59 460.794 2568.71 464.867C2564.83 468.959 2562.91 473.493 2562.91 478.488V515.279C2562.91 520.274 2560.85 524.808 2556.74 528.9C2552.63 532.992 2548.08 535.028 2543.07 535.028H2506.14C2501.11 535.028 2496.56 536.969 2492.45 540.869C2488.36 544.769 2486.31 549.226 2486.31 554.259V591.376C2486.31 596.429 2484.35 601.002 2480.41 605.132C2476.5 609.243 2471.98 611.318 2466.91 611.318H2429.47C2424.38 611.318 2419.77 609.263 2415.6 605.151C2411.44 601.04 2409.38 596.468 2409.38 591.415V429.037C2409.38 424.004 2407.42 419.431 2403.53 415.32C2399.63 411.209 2394.94 409.134 2389.45 409.134H2276.79C2271.3 409.134 2266.59 411.209 2262.71 415.32C2258.81 419.45 2256.87 424.042 2256.87 429.075V974.978C2256.87 980.472 2258.81 985.179 2262.71 989.079C2266.59 992.96 2271.3 994.919 2276.79 994.919H2389.45C2394.94 994.919 2399.63 992.96 2403.53 989.079C2407.42 985.179 2409.38 980.472 2409.38 974.978V784.512C2409.38 778.999 2411.44 774.311 2415.6 770.411C2419.77 766.53 2424.38 764.57 2429.47 764.57H2466.91C2471.98 764.57 2476.5 766.53 2480.41 770.411C2484.35 774.311 2486.31 778.999 2486.31 784.512V974.978C2486.31 980.472 2488.36 985.179 2492.45 989.079C2496.56 992.96 2501.11 994.919 2506.14 994.919H2682.77C2687.78 994.919 2692.35 992.96 2696.44 989.079C2700.55 985.179 2702.61 980.472 2702.61 974.978V784.512C2702.61 778.999 2700.55 774.311 2696.44 770.411Z" fill="#FFAC48"/>
<path d="M1541.13 739.096V807.336C1541.13 812.408 1539.19 816.999 1535.29 821.149C1531.4 825.299 1526.71 827.355 1521.22 827.355H1484.81C1479.32 827.355 1474.61 829.314 1470.74 833.195C1466.86 837.076 1464.9 841.783 1464.9 847.277V975.977C1464.9 981.471 1462.82 986.178 1458.71 990.059C1454.59 993.959 1450 995.899 1444.97 995.899H1331.61C1326.58 995.899 1322.11 993.959 1318.23 990.059C1314.33 986.178 1312.39 981.471 1312.39 975.977V847.277C1312.39 841.783 1310.32 837.095 1306.21 833.195C1302.08 829.314 1297.51 827.355 1292.46 827.355H1255.38C1250.33 827.355 1245.76 829.314 1241.63 833.195C1237.5 837.095 1235.44 841.783 1235.44 847.277V975.977C1235.44 981.471 1233.49 986.178 1229.61 990.059C1225.71 993.959 1221.25 995.899 1216.22 995.899H1039.62C1034.56 995.899 1029.99 993.959 1025.87 990.059C1021.74 986.178 1019.68 981.471 1019.68 975.977V847.277C1019.68 841.783 1017.72 837.095 1013.85 833.195C1009.95 829.314 1005.26 827.355 999.77 827.355H948.575C943.083 827.355 938.379 825.299 934.5 821.149C930.601 816.999 928.643 812.408 928.643 807.336V739.096H1095.94V807.413C1095.94 812.465 1097.99 817.038 1102.12 821.168C1106.25 825.299 1110.82 827.355 1115.87 827.355H1216.22C1221.25 827.355 1225.71 825.299 1229.61 821.168C1233.49 817.038 1235.44 812.465 1235.44 807.413V739.096H1387.95V807.413C1387.95 812.465 1389.91 817.038 1393.85 821.168C1397.76 825.299 1402.51 827.355 1408.06 827.355H1444.79C1449.88 827.355 1454.49 825.299 1458.66 821.168C1462.8 817.038 1464.9 812.465 1464.9 807.413V739.096H1541.13Z" fill="#EF9737"/>
<path d="M1926.72 739.076V899.61C1926.72 905.124 1924.65 909.831 1920.54 913.75C1916.41 917.65 1911.82 919.609 1906.79 919.609H1869.69C1864.66 919.609 1860.18 921.55 1856.31 925.45C1852.41 929.35 1850.47 934.037 1850.47 939.532V975.957C1850.47 981.452 1848.41 986.159 1844.29 990.04C1840.16 993.94 1835.59 995.88 1830.54 995.88H1672.96C1667.93 995.88 1663.34 993.94 1659.23 990.04C1655.1 986.159 1653.05 981.452 1653.05 975.957V939.532C1653.05 934.037 1651.09 929.35 1647.21 925.45C1643.31 921.55 1638.61 919.609 1633.11 919.609H1596.7C1591.21 919.609 1586.51 917.65 1582.63 913.75C1578.73 909.831 1576.79 905.124 1576.79 899.61V739.076H1729.3V802.475C1729.3 807.989 1731.35 812.715 1735.52 816.615C1739.67 820.534 1744.3 822.475 1749.39 822.475H1754.8C1759.89 822.475 1764.38 820.534 1768.32 816.615C1772.26 812.715 1774.21 807.989 1774.21 802.475V739.076H1926.72Z" fill="#EF9737"/>
<path d="M1964.53 739.096H2117.04V975.919C2117.04 981.433 2115.08 986.14 2111.2 990.059C2107.3 993.959 2102.62 995.899 2097.11 995.899H1984.45C1978.95 995.899 1974.25 993.959 1970.37 990.059C1966.47 986.178 1964.53 981.471 1964.53 975.977V739.096Z" fill="#EF9737"/>
<path d="M2702.61 784.532V974.997C2702.61 980.492 2700.55 985.198 2696.44 989.098C2692.35 992.979 2687.78 994.939 2682.77 994.939H2506.14C2501.11 994.939 2496.56 992.979 2492.45 989.098C2488.36 985.198 2486.31 980.492 2486.31 974.997V784.532C2486.31 779.018 2484.35 774.33 2480.41 770.43C2476.5 766.549 2471.98 764.59 2466.91 764.59H2429.47C2424.38 764.59 2419.77 766.549 2415.6 770.43C2411.44 774.33 2409.38 779.018 2409.38 784.532V974.997C2409.38 980.492 2407.42 985.198 2403.53 989.098C2399.63 992.979 2394.94 994.939 2389.45 994.939H2276.79C2271.3 994.939 2266.59 992.979 2262.71 989.098C2258.81 985.198 2256.87 980.492 2256.87 974.997V739.096H2562.91V744.571C2562.91 750.104 2564.83 754.811 2568.71 758.73C2572.59 762.63 2577.04 764.59 2582.05 764.59H2682.77C2687.78 764.59 2692.35 766.549 2696.44 770.43C2700.55 774.33 2702.61 779.018 2702.61 784.532Z" fill="#EF9737"/>
<path d="M1095.94 672.2H928.643V710.335H1095.94V672.2Z" fill="#EF9737"/>
<path d="M1387.95 672.2H1235.44V710.335H1387.95V672.2Z" fill="#EF9737"/>
<path d="M1541.13 672.2H1464.9V710.335H1541.13V672.2Z" fill="#EF9737"/>
<path d="M1926.72 672.181V710.317H1774.2C1774.02 705.571 1772.06 701.345 1768.32 697.618C1764.38 693.718 1759.89 691.758 1754.8 691.758H1749.39C1744.3 691.758 1739.67 693.718 1735.52 697.618C1731.57 701.345 1729.51 705.571 1729.32 710.317H1576.79V672.181H1926.72Z" fill="#EF9737"/>
<path d="M1964.53 672.2H2130.27C2127.79 673.161 2125.43 674.698 2123.22 676.811C2119.1 680.711 2117.04 685.418 2117.04 690.932V710.335H1964.53V672.2Z" fill="#EF9737"/>
<path d="M2562.91 707.972V710.335H2256.87V672.2H2486.83C2487.67 675.62 2489.53 678.79 2492.45 681.748C2496.56 685.898 2501.11 687.954 2506.14 687.954H2543.07C2548.08 687.954 2552.63 689.933 2556.74 693.833C2560.85 697.752 2562.91 702.459 2562.91 707.972Z" fill="#EF9737"/>
<path d="M1095.94 632.989H928.643V648.57H1095.94V632.989Z" fill="#EF9737"/>
<path d="M1387.95 632.989H1235.44V648.57H1387.95V632.989Z" fill="#EF9737"/>
<path d="M1541.13 632.989H1464.9V648.57H1541.13V632.989Z" fill="#EF9737"/>
<path d="M1926.72 632.989H1576.79V648.57H1926.72V632.989Z" fill="#EF9737"/>
<path d="M2221.83 632.989H1964.53V648.57H2221.83V632.989Z" fill="#EF9737"/>
<path d="M2486.31 632.989H2256.87V648.57H2486.31V632.989Z" fill="#EF9737"/>
<path d="M3470.43 891.387C3465.74 886.969 3460.54 884.759 3454.84 884.759H3084.09C3078.37 884.759 3073.3 882.569 3068.88 878.131C3064.46 873.732 3062.26 868.391 3062.26 862.147V814.617C3062.26 808.393 3064.44 803.052 3068.88 798.633C3073.3 794.234 3078.37 792.005 3084.09 792.005H3126.16C3131.88 792.005 3137.09 789.796 3141.75 785.377C3145.52 781.842 3147.76 777.692 3148.49 772.966C3148.69 771.813 3148.76 770.622 3148.76 769.393V541.695C3148.76 535.989 3146.42 530.783 3141.75 526.095C3137.09 521.407 3131.88 519.083 3126.16 519.083H3084.09C3078.37 519.083 3073.3 516.873 3068.88 512.455C3064.46 508.055 3062.26 502.983 3062.26 497.258V455.146C3062.26 449.44 3059.91 444.234 3055.25 439.546C3050.56 434.878 3045.36 432.534 3039.65 432.534H2848.39C2842.67 432.534 2837.49 434.878 2832.82 439.546C2828.14 444.234 2825.81 449.44 2825.81 455.146V497.258C2825.81 502.983 2823.58 508.055 2819.19 512.455C2814.77 516.873 2809.45 519.083 2803.21 519.083H2761.91C2755.66 519.083 2750.35 521.427 2745.93 526.095C2741.49 530.783 2739.3 535.989 2739.3 541.695V769.393C2739.3 770.603 2739.4 771.794 2739.57 772.966C2740.26 777.692 2742.38 781.842 2745.95 785.377C2750.38 789.796 2755.72 792.005 2761.98 792.005H2803.4C2809.66 792.005 2814.98 794.214 2819.42 798.633C2823.85 803.052 2826.06 808.373 2826.06 814.617V891.579C2826.06 897.823 2828.4 903.145 2833.11 907.564C2837.79 912.002 2843.02 914.192 2848.74 914.192H2953.88C2959.6 914.192 2964.67 916.401 2969.1 920.82C2973.54 925.219 2975.75 930.56 2975.75 936.804V972.346C2975.75 978.57 2978.07 983.911 2982.72 988.33C2987.36 992.729 2992.55 994.958 2998.25 994.958H3454.93C3460.62 994.958 3465.8 992.749 3470.45 988.33C3475.09 983.911 3477.44 978.59 3477.44 972.346V907.372C3477.44 901.147 3475.09 895.806 3470.43 891.387ZM2919.39 730.239C2914.66 725.84 2912.32 720.499 2912.32 714.255V593.97C2912.32 588.264 2914.68 583.058 2919.39 578.37C2924.11 573.702 2929.35 571.358 2935.13 571.358H2953.74C2959.5 571.358 2964.61 573.702 2969.06 578.37C2973.52 583.058 2975.75 588.264 2975.75 593.97V714.255C2975.75 720.48 2973.52 725.82 2969.06 730.239C2968.53 730.777 2967.95 731.315 2967.37 731.776C2963.32 735.157 2958.77 736.867 2953.74 736.867H2935.13C2930.08 736.867 2925.44 735.157 2921.17 731.776C2920.56 731.296 2919.96 730.777 2919.39 730.239Z" fill="#F4EBDF"/>
<path d="M3544.13 486.134C3540.17 482.158 3535.79 480.179 3530.95 480.179H3422.19C3417.35 480.179 3412.93 482.158 3409 486.134C3405.04 490.111 3403.06 494.53 3403.06 499.39V729.74C3403.06 730.431 3403.03 731.104 3402.97 731.776C3402.55 736.214 3400.68 740.056 3397.4 743.322C3393.62 747.088 3389.28 748.951 3384.36 748.951H3348.3C3343.38 748.951 3338.93 747.088 3334.93 743.322C3331.44 740.056 3329.48 736.214 3329.02 731.776C3328.94 731.104 3328.9 730.431 3328.9 729.74V499.39C3328.9 494.53 3327.02 490.111 3323.28 486.134C3319.51 482.158 3315 480.179 3309.7 480.179H3201.11C3195.81 480.179 3191.28 482.158 3187.53 486.134C3183.79 490.111 3181.91 494.53 3181.91 499.39V729.74C3181.91 730.431 3181.95 731.104 3182 731.776C3182.43 736.214 3184.27 740.056 3187.53 743.322C3191.28 747.088 3195.81 748.951 3201.11 748.951H3236.19C3241.49 748.951 3246.02 750.834 3249.77 754.58C3253.51 758.327 3255.4 762.861 3255.4 768.163V822.475C3255.4 827.777 3257.37 832.311 3261.35 836.057C3265.32 839.823 3269.72 841.686 3274.6 841.686H3457.35C3462.21 841.686 3466.63 839.823 3470.6 836.057C3474.58 832.311 3476.55 827.777 3476.55 822.475V768.163C3476.55 762.861 3478.44 758.327 3482.18 754.58C3485.92 750.834 3490.23 748.951 3495.08 748.951H3530.84C3535.7 748.951 3540.11 747.088 3544.09 743.322C3547.55 740.056 3549.49 736.214 3549.95 731.776C3550 731.104 3550.04 730.431 3550.04 729.74V499.39C3550.04 494.53 3548.06 490.111 3544.09 486.134H3544.13Z" fill="#F4EBDF"/>
<path d="M3924.19 816.846C3920.21 813.099 3915.8 811.217 3910.94 811.217H3749.39C3744.53 811.217 3740.11 809.334 3736.14 805.588C3732.16 801.841 3730.18 797.307 3730.18 792.005V719.846C3730.18 714.562 3732.16 710.028 3736.14 706.263C3740.11 702.517 3744.51 700.634 3749.39 700.634H3839.81C3844.67 700.634 3849.09 698.655 3853.06 694.678C3853.96 693.775 3854.77 692.853 3855.46 691.892C3857.82 688.684 3859.03 685.188 3859.03 681.422V645.65C3859.03 640.789 3857.06 636.505 3853.08 632.739C3849.11 628.993 3844.69 627.11 3839.83 627.11H3749.4C3744.55 627.11 3740.13 625.132 3736.15 621.155C3732.18 617.178 3730.2 612.778 3730.2 607.918V572.933C3730.2 568.073 3732.18 563.654 3736.15 559.677C3740.13 555.7 3744.53 553.721 3749.4 553.721H3907.44C3912.3 553.721 3916.72 551.839 3920.69 548.092C3924.67 544.346 3926.65 540.043 3926.65 535.182V499.41C3926.65 494.549 3924.67 490.13 3920.69 486.154C3916.72 482.177 3912.3 480.198 3907.44 480.198H3602.39C3597.09 480.198 3592.56 482.177 3588.81 486.154C3585.05 490.13 3583.19 494.549 3583.19 499.41V865.567C3583.19 870.869 3585.07 875.403 3588.81 879.149C3592.56 882.915 3597.07 884.779 3602.39 884.779H3910.96C3915.82 884.779 3920.23 882.915 3924.21 879.149C3928.18 875.403 3930.18 870.869 3930.18 865.567V830.467C3930.18 825.164 3928.18 820.65 3924.21 816.884L3924.19 816.846Z" fill="#F4EBDF"/>
<path d="M4057.95 646.572C4057.95 641.769 4059.93 637.389 4063.89 633.45C4067.84 629.512 4072.22 627.533 4077.06 627.533H4280.86C4285.68 627.533 4290.08 625.65 4294.03 621.904C4297.99 618.158 4299.97 613.854 4299.97 608.994V573.221C4299.97 568.361 4297.99 563.942 4294.03 559.965C4290.08 555.988 4285.68 553.99 4280.86 553.99H4003.65C3998.79 553.99 3994.37 555.988 3990.4 559.965C3986.42 563.942 3984.45 568.361 3984.45 573.221V608.994C3984.45 613.854 3982.56 618.158 3978.82 621.904C3975.06 625.65 3970.54 627.533 3965.24 627.533H3930.16C3924.86 627.533 3920.33 629.512 3916.58 633.489C3912.82 637.465 3910.96 641.884 3910.96 646.745V756.06C3910.96 760.92 3912.84 765.339 3916.58 769.316C3918 770.814 3919.54 772.044 3921.17 772.966C3923.86 774.503 3926.88 775.271 3930.16 775.271L3965.24 774.618C3970.54 774.618 3975.06 776.501 3978.82 780.286C3982.56 784.051 3984.45 788.585 3984.45 793.907V829.18C3984.45 834.079 3986.42 838.497 3990.4 842.493C3994.37 846.489 3998.77 848.487 4003.65 848.487H4038.75C4044.05 848.487 4048.56 850.389 4052.33 854.155C4056.07 857.92 4057.95 862.454 4057.95 867.795V903.068C4057.95 908.39 4056.07 912.943 4052.33 916.708C4048.58 920.493 4044.07 922.376 4038.75 922.376H3602.37C3597.09 922.376 3592.54 924.259 3588.79 928.005C3585.03 931.751 3583.17 936.285 3583.17 941.588V976.688C3583.17 981.99 3585.05 986.524 3588.79 990.27C3592.54 994.017 3597.07 995.899 3602.37 995.899H4157.1C4161.92 995.899 4166.2 994.017 4169.94 990.27C4173.69 986.524 4175.55 981.99 4175.55 976.688V941.588C4175.55 936.285 4177.53 931.751 4181.48 928.005C4185.44 924.259 4189.82 922.376 4194.66 922.376H4280.86C4285.68 922.376 4290.08 920.493 4294.03 916.708C4297.99 912.943 4299.97 908.39 4299.97 903.068V793.907C4299.97 788.585 4297.99 784.051 4294.03 780.286C4290.08 776.501 4285.68 774.618 4280.86 774.618H4194.66C4192.1 774.618 4189.68 774.08 4187.4 772.966C4185.33 771.986 4183.35 770.545 4181.48 768.663C4177.53 764.686 4175.55 760.267 4175.55 755.406V719.634C4175.55 714.773 4173.67 710.47 4169.94 706.705C4166.2 702.958 4161.92 701.076 4157.1 701.076H4077.08C4072.24 701.076 4067.84 699.116 4063.91 695.158C4062.85 694.102 4061.93 693.007 4061.16 691.892C4059.03 688.857 4057.97 685.552 4057.97 682.037V646.572H4057.95Z" fill="#F4EBDF"/>
<path d="M4665.03 399.758C4661.05 395.781 4656.64 393.783 4651.78 393.783H4002.23C3996.93 393.783 3992.4 395.781 3988.65 399.758C3984.91 403.735 3983.02 408.154 3983.02 413.014V504.693C3983.02 509.554 3984.91 513.857 3988.65 517.603C3992.4 521.35 3996.93 523.232 4002.23 523.232H4314.06C4319.36 523.232 4323.87 525.211 4327.64 529.188C4331.38 533.165 4333.26 537.584 4333.26 542.444V976.688C4333.26 981.99 4335.24 986.524 4339.22 990.27C4343.19 994.017 4347.59 995.899 4352.47 995.899H4461.71C4466.57 995.899 4470.87 994.017 4474.63 990.27C4478.38 986.524 4480.26 981.99 4480.26 976.688V542.444C4480.26 537.584 4482.24 533.165 4486.21 529.188C4490.19 525.211 4494.6 523.232 4499.46 523.232H4651.78C4656.64 523.232 4661.05 521.35 4665.03 517.603C4669 513.857 4670.98 509.554 4670.98 504.693V413.014C4670.98 408.154 4669 403.735 4665.03 399.758Z" fill="#F4EBDF"/>
<path d="M3457.35 841.706C3462.21 841.706 3466.63 839.842 3470.6 836.077C3474.58 832.33 3476.55 827.796 3476.55 822.494V816.865H3255.4V822.494C3255.4 827.796 3257.37 832.33 3261.35 836.077C3265.32 839.842 3269.72 841.706 3274.6 841.706H3457.35Z" fill="#FFC3AB"/>
<path d="M3454.84 884.759H3084.09C3078.37 884.759 3073.3 882.569 3068.88 878.131C3064.46 873.732 3062.26 868.391 3062.26 862.147V816.846H2826.04V891.56C2826.04 897.804 2828.39 903.126 2833.09 907.544C2837.78 911.982 2843 914.173 2848.72 914.173H2953.86C2959.58 914.173 2964.65 916.382 2969.08 920.801C2973.52 925.2 2975.73 930.541 2975.73 936.785V972.326C2975.73 978.551 2978.05 983.892 2982.7 988.311C2987.35 992.71 2992.53 994.939 2998.23 994.939H3454.91C3460.6 994.939 3465.78 992.729 3470.43 988.311C3475.08 983.892 3477.42 978.57 3477.42 972.326V907.352C3477.42 901.128 3475.08 895.787 3470.41 891.368C3465.72 886.949 3460.52 884.74 3454.82 884.74L3454.84 884.759Z" fill="#FFC3AB"/>
<path d="M3602.37 884.759H3910.94C3915.8 884.759 3920.21 882.896 3924.19 879.13C3928.16 875.384 3930.16 870.85 3930.16 865.548V830.448C3930.16 825.145 3928.16 820.63 3924.19 816.865H3583.17V865.548C3583.17 870.85 3585.05 875.384 3588.79 879.13C3592.54 882.896 3597.05 884.759 3602.37 884.759Z" fill="#FFC3AB"/>
<path d="M3984.45 829.18C3984.45 834.079 3986.42 838.497 3990.4 842.493C3994.37 846.49 3998.77 848.488 4003.65 848.488H4038.75C4044.05 848.488 4048.56 850.39 4052.33 854.155C4056.07 857.921 4057.95 862.455 4057.95 867.795V903.068C4057.95 908.39 4056.07 912.943 4052.33 916.709C4048.58 920.493 4044.07 922.376 4038.75 922.376H3602.37C3597.09 922.376 3592.54 924.259 3588.79 928.005C3585.03 931.751 3583.17 936.285 3583.17 941.588V976.688C3583.17 981.99 3585.05 986.524 3588.79 990.27C3592.54 994.017 3597.07 995.899 3602.37 995.899H4157.1C4161.92 995.899 4166.2 994.017 4169.94 990.27C4173.69 986.524 4175.55 981.99 4175.55 976.688V941.588C4175.55 936.285 4177.53 931.751 4181.48 928.005C4185.44 924.259 4189.82 922.376 4194.66 922.376H4280.86C4285.68 922.376 4290.08 920.493 4294.03 916.709C4297.99 912.943 4299.97 908.39 4299.97 903.068V816.865H3984.43V829.199L3984.45 829.18Z" fill="#FFC3AB"/>
<path d="M4333.26 976.668C4333.26 981.971 4335.24 986.505 4339.22 990.251C4343.19 993.997 4347.59 995.88 4352.47 995.88H4461.71C4466.57 995.88 4470.87 993.997 4474.63 990.251C4478.38 986.505 4480.26 981.971 4480.26 976.668V816.846H4333.26V976.668Z" fill="#FFC3AB"/>
<path d="M3148.78 769.412V731.776H2967.39C2963.34 735.157 2958.79 736.867 2953.76 736.867H2935.15C2930.1 736.867 2925.46 735.157 2921.19 731.776H2739.3V769.412C2739.3 770.622 2739.4 771.813 2739.57 772.985H3148.51C3148.71 771.833 3148.78 770.642 3148.78 769.412Z" fill="#FFC3AB"/>
<path d="M3397.38 743.322C3393.6 747.088 3389.26 748.951 3384.34 748.951H3348.28C3343.36 748.951 3338.91 747.088 3334.91 743.322C3331.42 740.056 3329.46 736.214 3329 731.776H3181.98C3182.41 736.214 3184.25 740.056 3187.51 743.322C3191.26 747.088 3195.79 748.951 3201.09 748.951H3236.17C3241.47 748.951 3246.01 750.834 3249.75 754.58C3253.49 758.327 3255.38 762.861 3255.38 768.163V772.947H3476.53V768.163C3476.53 762.861 3478.42 758.327 3482.16 754.58C3485.91 750.834 3490.21 748.951 3495.06 748.951H3530.82C3535.68 748.951 3540.1 747.088 3544.07 743.322C3547.53 740.056 3549.47 736.214 3549.93 731.776H3402.91C3402.49 736.214 3400.63 740.056 3397.34 743.322H3397.38Z" fill="#FFC3AB"/>
<path d="M3730.18 731.776H3583.17V772.966H3730.18V731.776Z" fill="#FFC3AB"/>
<path d="M3921.17 772.966H4187.4C4185.33 771.986 4183.35 770.545 4181.48 768.663C4177.53 764.686 4175.55 760.267 4175.55 755.407V731.776H3910.94V756.06C3910.94 760.92 3912.82 765.339 3916.56 769.316C3917.99 770.814 3919.52 772.044 3921.15 772.966H3921.17Z" fill="#FFC3AB"/>
<path d="M4480.26 731.776H4333.26V772.966H4480.26V731.776Z" fill="#FFC3AB"/>
<path d="M2912.32 671.451H2739.3V691.912H2912.32V671.451Z" fill="#FFC3AB"/>
<path d="M3148.78 671.451H2975.77V691.912H3148.78V671.451Z" fill="#FFC3AB"/>
<path d="M3328.88 671.451H3181.89V691.912H3328.88V671.451Z" fill="#FFC3AB"/>
<path d="M3550.06 671.451H3403.05V691.912H3550.06V671.451Z" fill="#FFC3AB"/>
<path d="M3859.01 681.441V671.451H3583.17V691.912H3855.44C3857.8 688.703 3859.01 685.207 3859.01 681.441Z" fill="#FFC3AB"/>
<path d="M4057.95 682.037V671.451H3910.94V691.912H4061.14C4059.01 688.876 4057.95 685.572 4057.95 682.056V682.037Z" fill="#FFC3AB"/>
<path d="M4480.26 671.451H4333.26V691.912H4480.26V671.451Z" fill="#FFC3AB"/>
<path d="M580.248 170.466H527.21C518.333 170.466 511.137 177.665 511.137 186.546V239.609C511.137 248.49 518.333 255.689 527.21 255.689H580.248C589.125 255.689 596.321 248.49 596.321 239.609V186.546C596.321 177.665 589.125 170.466 580.248 170.466Z" fill="#F76652"/>
<path d="M154.313 340.932H101.275C92.3984 340.932 85.2024 348.131 85.2024 357.012V410.075C85.2024 418.956 92.3984 426.155 101.275 426.155H154.313C163.19 426.155 170.386 418.956 170.386 410.075V357.012C170.386 348.131 163.19 340.932 154.313 340.932Z" fill="#F76652"/>
<path d="M668.331 511.379H665.585C665.585 511.379 665.508 511.379 665.47 511.379H612.413C604.559 511.379 598.03 505.75 596.647 498.296C596.647 498.161 596.628 498.046 596.628 497.911V354.38C596.628 346.945 590.598 340.913 583.167 340.913H580.363C580.363 340.913 580.325 340.913 580.306 340.913H442.046C434.173 340.913 427.625 335.245 426.242 327.753C426.07 326.811 425.974 325.832 425.974 324.833V244.873C426.146 244.009 426.242 243.125 426.242 242.203V183.914C426.242 176.479 420.213 170.447 412.781 170.447H356.844C348.951 170.447 342.403 164.76 341.04 157.268V157.152C341.04 157.152 341.04 157.114 341.04 157.095C341.04 157.056 341.04 157.018 341.04 156.979V98.6908C341.04 91.2559 335.01 85.2234 327.579 85.2234H184.115C184.115 85.2234 184.096 85.2234 184.077 85.2234H170.386V154.386C170.386 155.385 170.482 156.365 170.654 157.325C170.654 157.325 170.654 157.344 170.654 157.364C170.846 164.626 176.78 170.466 184.096 170.466H239.496C248.368 170.466 255.55 177.67 255.55 186.527V410.075C255.55 418.951 248.349 426.136 239.496 426.136H184.096C176.78 426.136 170.846 431.977 170.654 439.239C170.654 439.239 170.654 439.258 170.654 439.277C170.482 440.218 170.386 441.217 170.386 442.216V580.541C170.386 589.436 163.185 596.621 154.313 596.621H98.9131C91.5969 596.621 85.644 602.443 85.452 609.724C85.452 609.724 85.452 609.762 85.452 609.781C85.2792 610.723 85.1832 611.703 85.1832 612.702V665.784C85.1832 674.66 77.9822 681.845 69.1297 681.845H13.7299C6.4137 681.845 0.460865 687.666 0.268838 694.947C0.268838 694.947 0.268838 694.986 0.268838 695.005C0.0960135 695.946 0 696.926 0 697.925V1006.7C0 1007.7 0.0960135 1008.68 0.268838 1009.62C0.268838 1009.64 0.268838 1009.66 0.268838 1009.67C0.460865 1016.94 6.4137 1022.76 13.7299 1022.76H69.1297C78.0014 1022.76 85.1832 1029.96 85.1832 1038.82V1091.9C85.1832 1092.9 85.2792 1093.88 85.452 1094.82C85.452 1094.84 85.452 1094.86 85.452 1094.88C85.644 1102.14 91.5969 1107.96 98.9131 1107.96H242.376C249.808 1107.96 255.838 1101.93 255.838 1094.49V1036.19C255.838 1035.28 255.742 1034.4 255.569 1033.55V1022.26H180.582C174.86 1020.72 170.654 1015.5 170.654 1009.27V865.74C170.654 858.286 176.684 852.272 184.115 852.272H511.426V1022.74H439.703C432.253 1022.74 426.242 1028.77 426.242 1036.21V1094.8C426.242 1094.8 426.242 1094.82 426.242 1094.84C426.415 1102.12 432.368 1107.96 439.703 1107.96H497.964C505.415 1107.96 511.426 1101.93 511.426 1094.49V1035.9C512.789 1028.41 519.337 1022.72 527.229 1022.72H583.167C590.598 1022.72 596.628 1016.69 596.628 1009.25V950.656C597.991 943.163 604.539 937.476 612.413 937.476H668.369C675.801 937.476 681.83 931.444 681.83 924.009V524.789C681.83 517.354 675.801 511.321 668.369 511.321L668.331 511.379Z" fill="#F76652"/>
<path d="M98.9131 85.2234H170.366V74.4264C170.539 73.5618 170.635 72.6589 170.635 71.7559V13.4674C170.635 6.03249 164.606 0 157.174 0H98.9131C91.5969 0 85.6633 5.82116 85.4712 13.1024C85.2984 14.063 85.1832 15.062 85.1832 16.0802V69.1623C85.1832 70.1806 85.2792 71.1796 85.4712 72.1402C85.6633 79.4022 91.5969 85.2426 98.9131 85.2426V85.2234Z" fill="#F76652"/>
<path d="M170.654 865.778V1022.3H255.838V950.694C257.086 943.836 262.693 938.495 269.683 937.669H327.445C334.876 937.669 340.906 931.636 340.906 924.201V866.259C341.943 858.401 348.683 852.33 356.825 852.33H184.096C176.665 852.33 170.635 858.363 170.635 865.798L170.654 865.778Z" fill="#F7E352"/>
<path d="M426.223 851.85V852.311H409.901C418.773 852.311 425.954 859.515 425.954 868.372V1034.98C425.954 1035.98 426.05 1036.96 426.223 1037.9V1036.23C426.223 1028.79 432.253 1022.76 439.684 1022.76H511.406V851.831H426.223V851.85Z" fill="#F7E352"/>
<path d="M170.654 695.312V753.62C170.654 761.055 164.625 767.087 157.193 767.087H98.9131C91.4817 767.087 85.452 773.12 85.452 780.555V924.086C85.452 931.54 91.4817 937.553 98.9131 937.553H157.193C164.625 937.553 170.654 931.521 170.654 924.086V865.797C170.654 858.343 176.684 852.33 184.116 852.33H255.857V681.864H184.116C176.684 681.864 170.654 687.896 170.654 695.331V695.312Z" fill="#F99850"/>
<path d="M583.148 596.621H524.867C517.436 596.621 511.406 590.589 511.406 583.154V439.623C511.406 432.188 505.377 426.155 497.945 426.155H439.684C432.234 426.155 426.223 420.123 426.223 412.688V255.689H341.04V497.911C341.04 505.346 335.01 511.379 327.579 511.379H269.299C261.867 511.379 255.838 517.411 255.838 524.846V681.845H497.945C505.396 681.845 511.406 687.877 511.406 695.312V924.067C511.406 931.521 517.436 937.534 524.867 937.534H583.148C590.579 937.534 596.609 931.502 596.609 924.067V610.089C596.609 602.654 590.579 596.621 583.148 596.621Z" fill="#F99850"/>
<path d="M341.04 183.933C341.04 176.498 335.01 170.466 327.579 170.466H269.318C261.886 170.466 255.857 176.498 255.857 183.933V255.689H341.04V183.933Z" fill="#F99850"/>
<path d="M583.129 170.466H524.867C517.433 170.466 511.406 176.496 511.406 183.933V242.222C511.406 249.66 517.433 255.689 524.867 255.689H583.129C590.563 255.689 596.59 249.66 596.59 242.222V183.933C596.59 176.496 590.563 170.466 583.129 170.466Z" fill="#F99850"/>
<path d="M497.945 681.384H255.838V852.311H511.406V694.851C511.406 687.416 505.377 681.384 497.945 681.384Z" fill="#FFAC48"/>
<path d="M157.193 340.932H98.9323C91.498 340.932 85.4712 346.961 85.4712 354.399V412.688C85.4712 420.126 91.498 426.155 98.9323 426.155H157.193C164.628 426.155 170.654 420.126 170.654 412.688V354.399C170.654 346.961 164.628 340.932 157.193 340.932Z" fill="#FFAC48"/>
</g>
<defs>
<clipPath id="clip0_1_524">
<rect width="4671" height="1108" fill="white"/>
</clipPath>
</defs>
</svg>
