<svg width="68" height="24" viewBox="0 0 68 24" fill="none" xmlns="http://www.w3.org/2000/svg">
<g id="Layer_1" clip-path="url(#clip0_3_176)">
<path id="Vector" d="M62.3334 7.56611V6.45813C62.3334 5.38682 61.4673 4.51867 60.3987 4.51867H58.7398C57.6711 4.51867 56.8051 3.65052 56.8051 2.57921V2.44047C56.8051 1.36916 55.9391 0.501007 54.8704 0.501007H12.8538C11.7852 0.501007 10.9191 1.36916 10.9191 2.44047V2.57921C10.9191 3.65052 10.0531 4.51867 8.98445 4.51867H7.60239C6.53371 4.51867 5.66769 5.38682 5.66769 6.45813V7.56611C5.66769 8.63743 4.80168 9.50557 3.733 9.50557H1.93671C0.868029 9.50557 0.00201416 10.3737 0.00201416 11.445V21.5596C0.00201416 22.6309 0.868029 23.499 1.93671 23.499H12.0264C13.0951 23.499 13.9611 22.6309 13.9611 21.5596V20.4516C13.9611 19.3803 14.8271 18.5121 15.8958 18.5121H17.6921C18.7607 18.5121 19.6267 17.644 19.6267 16.5727C19.6267 15.5014 20.4928 14.6332 21.5614 14.6332H46.4396C47.5083 14.6332 48.3743 15.5014 48.3743 16.5727C48.3743 17.644 49.2403 18.5121 50.309 18.5121H52.1053C53.174 18.5121 54.04 19.3803 54.04 20.4516V21.5596C54.04 22.6309 54.906 23.499 55.9747 23.499H66.0643C67.133 23.499 67.999 22.6309 67.999 21.5596V11.445C67.999 10.3737 67.133 9.50557 66.0643 9.50557H64.2681C63.1994 9.50557 62.3334 8.63743 62.3334 7.56611Z" fill="#3D3730"/>
</g>
<defs>
<clipPath id="clip0_3_176">
<rect width="68" height="23" fill="white" transform="translate(0 0.5)"/>
</clipPath>
</defs>
</svg>
